<svg xmlns="http://www.w3.org/2000/svg" viewBox="0 0 470 470"><path d="M297.5 62.5c-32.723 0-64.571 9.208-92.103 26.628a173.006 173.006 0 00-62.445 69.196l26.865 13.352C194.089 122.838 243.015 92.5 297.5 92.5 376.075 92.5 440 156.425 440 235s-63.925 142.5-142.5 142.5c-54.485 0-103.411-30.338-127.683-79.176l-26.865 13.352a173 173 0 0062.445 69.196c27.532 17.42 59.38 26.628 92.103 26.628 95.117 0 172.5-77.383 172.5-172.5S392.617 62.5 297.5 62.5z"/><path d="M226.894 284.394l21.212 21.212L318.713 235l-70.607-70.606-21.212 21.212L261.287 220H0v30h261.287z"/></svg>