<svg xmlns="http://www.w3.org/2000/svg" width="420" height="90"><path fill="none" d="M-1-1h422v92H-1z"/><g><g fill="none" fill-rule="evenodd"><g fill="#443D4E"><path d="M308.534 24h-3.666c-.8 0-1.468.684-1.468 1.504V43.01H291.6V25.504c0-.82-.6-1.504-1.466-1.504h-3.668c-.8 0-1.467.684-1.467 1.504v41.99c0 .823.667 1.506 1.467 1.506h3.668c.866 0 1.466-.683 1.466-1.505V49.78H303.4v17.715c0 .822.667 1.505 1.468 1.505h3.666c.867 0 1.466-.683 1.466-1.505v-41.99c0-.82-.6-1.505-1.466-1.505M219 63.734c0-.821-.677-1.505-1.489-1.505h-16.81V49.886h16.81c.812 0 1.488-.615 1.488-1.505v-3.76c0-.822-.677-1.506-1.489-1.506h-16.809V30.77h16.81c.81 0 1.488-.615 1.488-1.504v-3.76c0-.823-.677-1.506-1.489-1.506h-18.295-3.725c-.814 0-1.49.683-1.49 1.504v41.99c0 .822.676 1.506 1.49 1.506H217.51c.812 0 1.489-.616 1.489-1.505v-3.761zM341 63.734c0-.821-.677-1.505-1.489-1.505h-16.81V49.886h16.81c.81 0 1.488-.615 1.488-1.505v-3.76c0-.822-.677-1.506-1.489-1.506h-16.809V30.77h16.81c.81 0 1.488-.615 1.488-1.504v-3.76c0-.823-.677-1.506-1.489-1.506h-18.295-3.725c-.814 0-1.49.683-1.49 1.504v41.99c0 .822.676 1.506 1.49 1.506H339.51c.812 0 1.489-.616 1.489-1.505v-3.761zM405 63.734c0-.821-.677-1.505-1.489-1.505h-16.81V49.886h16.81c.812 0 1.488-.615 1.488-1.505v-3.76c0-.822-.677-1.506-1.489-1.506h-16.809V30.77h16.81c.81 0 1.488-.615 1.488-1.504v-3.76c0-.823-.677-1.506-1.489-1.506h-18.295-3.725c-.813 0-1.49.683-1.49 1.504v41.99c0 .822.677 1.506 1.49 1.506H403.51c.812 0 1.489-.616 1.489-1.505v-3.761zM230.467 35.772v2.586c0 1.974 1.867 3.13 4 4.015l8.866 3.81c3.333 1.498 5.667 4.15 5.667 8.234v4.83C249 63.264 240.732 70 236.332 70c-2.999 0-7.532-2.178-11.064-4.151-.801-.408-1.334-1.362-.867-2.45l1.134-2.314c.466-.952 1.465-1.157 2.332-.68 2.866 1.497 6.666 3.334 8.465 3.334 2 0 6.201-3.47 6.201-5.444v-2.993c0-2.314-1.733-3.607-4.133-4.559l-8.266-3.54c-3.2-1.36-6.134-4.15-6.134-7.96V34.82c0-4.424 8.733-10.82 12.934-10.82 2.8 0 7.332 2.11 10.333 3.743.933.477 1.2 1.565.798 2.381L247 32.438c-.333.816-1.4 1.09-2.332.68-2.267-1.088-6.067-2.857-7.733-2.857-1.934 0-6.467 3.266-6.467 5.511M360.452 29.882h-6.657v15.046h6.725c2.815 0 6.109-4.992 6.109-7.66 0-2.598-3.432-7.386-6.177-7.386m-.275 20.927h-6.382v16.688c0 .888-.618 1.503-1.58 1.503h-3.636c-.824 0-1.579-.615-1.579-1.503v-40.35c0-1.573 1.854-3.147 3.363-3.147h10.982C366.354 24 373 31.785 373 36.914c0 3.42-3.008 8.56-6.233 10.544 2.607 1.367 6.176 4.992 6.176 8.344v11.695a1.52 1.52 0 01-1.51 1.503h-3.774a1.52 1.52 0 01-1.51-1.503v-10.67c0-2.394-3.362-6.018-5.972-6.018M268.088 29.882h-6.477v15.046h6.543c2.739 0 5.56-4.992 5.56-7.66 0-2.598-2.956-7.386-5.626-7.386m-.267 20.927h-6.21v16.688c0 .888-.602 1.503-1.536 1.503h-3.54c-.8 0-1.535-.615-1.535-1.503v-40.35c0-1.573 1.803-3.147 3.272-3.147h10.684C273.83 24 280 32.028 280 37.156c0 3.42-2.473 8.02-5.33 10.68-1.405 1.308-3.636 2.973-6.849 2.973M143.484 70C139.136 70 131 64.237 131 59.263V25.884c0-.828.722-1.514 1.517-1.514h3.485c.852 0 1.51.686 1.51 1.514V58.37c0 2.418 3.93 5.349 5.972 5.349 2.042 0 5.998-3.302 5.998-5.72V25.514c0-.83.592-1.514 1.388-1.514h3.613c.795 0 1.517.685 1.517 1.514v33.38C156 63.717 147.827 70 143.484 70M175.157 63.12h-6.394V48.072h6.462c2.801 0 6.081 4.73 6.081 7.396 0 2.6-3.416 7.65-6.149 7.65zm-6.394-33.24h6.394c2.733 0 6.149 3.918 6.149 6.518 0 2.667-3.28 7.022-6.081 7.022h-6.462V29.88zm12.988 15.867c3.113-2.052 6.249-6.04 6.249-9.35C188 31.27 181.032 24 176.046 24h-10.7c-1.501 0-3.346 1.573-3.346 3.145v40.352c0 .89.751 1.503 1.571 1.503h12.706C181.263 69 188 60.6 188 55.47c0-3.31-3.136-7.647-6.249-9.723zM109.909 46.75l14.717-17.244c.53-.622.512-1.54-.153-2.122l-2.814-2.458a1.488 1.488 0 00-2.098.155l-12.87 15.078V25.505c0-.82-.608-1.505-1.486-1.505h-3.718c-.811 0-1.487.684-1.487 1.505v41.992c0 .82.676 1.503 1.487 1.503h3.718c.878 0 1.487-.683 1.487-1.503V53.339l12.869 15.08a1.49 1.49 0 002.098.154l2.814-2.458c.665-.582.683-1.501.153-2.121l-14.717-17.245z"/></g><path fill="#00A971" d="M66 72.647l-19-11v22zM66 20.647l-19-11v22zM20.678 46.647L38 36.556V4.647L2 25.62v42.055l36 20.972V56.739z"/><path fill="#00A971" d="M38 46.647l37 21v-42z"/></g></g></svg>