<svg xmlns="http://www.w3.org/2000/svg" id="Layer_1" data-name="Layer 1" viewBox="0 0 661.62 177.63"><defs><style>.cls-1{fill:#3c494f}.cls-2{fill:#00b39f}.cls-3{fill:#00d3a9}</style></defs><path class="cls-1" d="M61.12 41.72H42.36v93.78h88.9v-18.75H61.12V41.72zM178.2 41.72l-37.51 93.78h21.39l25.5-65.64 18.17 46.89h-31.17l-7 18.75h66.89l-37.52-93.78H178.2zM260.94 74.55L237.5 41.72h-23.45l37.51 56.27v37.51h18.76V97.99l37.51-56.27h-23.15l-23.74 32.83zM315.92 56.49v79.01h88.9v-18.75h-70.14V97.99h53.89V79.23h-53.89V60.48h70.14V41.72h-88.9v14.77zM435.28 59.6h48.11v19.51h-42.91l.18 17.89h12.87l34 38.51h23.15l-34-38.51H490a14.56 14.56 0 0014.57-14.56V56.29A14.57 14.57 0 00490 41.72h-73v93.78h18.76z"/><path id="_Path_" class="cls-2" data-name="&lt;Path&gt;" d="M578.97 42.12h36.93v17.79h-36.93z"/><path id="_Path_2" d="M619.26 102.05v-7.37c0-8.49-7.14-15.37-16-15.37h-59.54v-4.85H521.9v21h75.54v6.57z" class="cls-2" data-name="&lt;Path&gt;"/><path id="_Path_3" class="cls-3" data-name="&lt;Path&gt;" d="M543.72 68.65v-8.74h29.22V42.12H521.9v26.53h21.82z"/><path id="_Path_4" d="M597.44 107.77v10.35h-29.22v17.79h36a14.77 14.77 0 0015-14.49v-13.65z" class="cls-3" data-name="&lt;Path&gt;"/><path id="_Path_5" d="M542 108.73v9.39h20.22v17.79h-26a14.77 14.77 0 01-15-14.49v-12.69z" class="cls-2" data-name="&lt;Path&gt;"/></svg>