<svg viewBox="0 0 282 209.895" fill="none" stroke-linecap="square" stroke-miterlimit="10" xmlns="http://www.w3.org/2000/svg"><clipPath id="a"><path d="M0 0h282v209.895H0V0z"/></clipPath><g clip-path="url(#a)"><path fill="#000" fill-opacity="0" d="M0 0h282v209.895H0z" fill-rule="evenodd"/><path fill="#e6e6e6" d="M172.895 135.239l-.276.029-.5.194-.387.388-.223.5v31.065l.223.498.386.389.501.194.276.029h93.78l.278-.029.498-.194.36-.389.223-.498.029-.279v-30.509l-.029-.278-.223-.499-.36-.388-.498-.194-.278-.03z" fill-rule="evenodd"/><path fill="#fff" d="M178.803 139.399l-.275.029-.502.194-.388.389-.22.498v22.746l.22.498.388.389.502.194.275.026h22.192l.275-.026.499-.194.362-.389.22-.498.03-.279v-22.189l-.03-.278-.22-.498-.362-.389-.499-.194-.275-.029z" fill-rule="evenodd"/><path fill="#000" fill-opacity="0" d="M196.029 155.404v-7.073l-6.131-3.523-6.129 3.523v7.073l6.129 3.551 6.13-3.55z" fill-rule="evenodd"/><path stroke="#b14d9d" stroke-width="1.386" stroke-linejoin="round" stroke-linecap="butt" d="M196.029 155.404v-7.073l-6.131-3.523-6.129 3.523v7.073l6.129 3.551 6.13-3.55z" fill-rule="evenodd"/><path fill="#fff" d="M209.01 139.399l-.278.029-.498.194-.389.389-.223.498v22.746l.223.498.389.389.498.194.279.026h51.312l.278-.026.499-.194.36-.389.222-.498.027-.279v-22.189l-.027-.278-.223-.498-.36-.389-.498-.194-.278-.029z" fill-rule="evenodd"/><path fill="#767576" d="M217.748 143.562l-.86.026-1.639.333-1.47.638-1.33.887-1.137 1.137-.887 1.333-.638 1.47-.333 1.635-.029.86.03.862.332 1.606.638 1.499.887 1.33 1.137 1.14 1.33.887 1.47.638 1.638.333.861.026.858-.026 1.61-.333 1.498-.638 1.33-.887 1.137-1.14.887-1.33.638-1.499.333-1.606.03-.861-.03-.861-.333-1.635-.638-1.47-.887-1.333-1.136-1.137-1.331-.887-1.499-.638-1.609-.333-.858-.026z" fill-rule="evenodd"/><path fill="#000" fill-opacity="0" d="M220.688 154.766h-5.908v-5.908h5.908v5.908z" fill-rule="evenodd"/><path stroke="#fff" stroke-width=".916" stroke-linejoin="round" stroke-linecap="butt" d="M220.688 154.766h-5.908v-5.908h5.908v5.908z" fill-rule="evenodd"/><path fill="#000" fill-opacity="0" d="M215.887 148.858v-1.414" fill-rule="evenodd"/><path stroke="#fff" stroke-width=".916" stroke-miterlimit="105.678" stroke-linecap="round" d="M215.887 148.858v-1.414" fill-rule="evenodd"/><path fill="#000" fill-opacity="0" d="M217.748 148.858v-1.414" fill-rule="evenodd"/><path stroke="#fff" stroke-width=".916" stroke-miterlimit="105.678" stroke-linecap="round" d="M217.748 148.858v-1.414" fill-rule="evenodd"/><path fill="#000" fill-opacity="0" d="M219.606 148.858v-1.414" fill-rule="evenodd"/><path stroke="#fff" stroke-width=".916" stroke-miterlimit="105.678" stroke-linecap="round" d="M219.606 148.858v-1.414" fill-rule="evenodd"/><path fill="#000" fill-opacity="0" d="M215.887 156.32v-1.443" fill-rule="evenodd"/><path stroke="#fff" stroke-width=".916" stroke-miterlimit="105.678" stroke-linecap="round" d="M215.887 156.32v-1.443" fill-rule="evenodd"/><path fill="#000" fill-opacity="0" d="M217.748 156.32v-1.443" fill-rule="evenodd"/><path stroke="#fff" stroke-width=".916" stroke-miterlimit="105.678" stroke-linecap="round" d="M217.748 156.32v-1.443" fill-rule="evenodd"/><path fill="#000" fill-opacity="0" d="M219.606 156.32v-1.443" fill-rule="evenodd"/><path stroke="#fff" stroke-width=".916" stroke-miterlimit="105.678" stroke-linecap="round" d="M219.606 156.32v-1.443" fill-rule="evenodd"/><path fill="#000" fill-opacity="0" d="M214.724 153.74h-1.414" fill-rule="evenodd"/><path stroke="#fff" stroke-width=".916" stroke-miterlimit="105.678" stroke-linecap="round" d="M214.724 153.74h-1.414" fill-rule="evenodd"/><path fill="#000" fill-opacity="0" d="M214.724 151.882h-1.414" fill-rule="evenodd"/><path stroke="#fff" stroke-width=".916" stroke-miterlimit="105.678" stroke-linecap="round" d="M214.724 151.882h-1.414" fill-rule="evenodd"/><path fill="#000" fill-opacity="0" d="M214.724 150.024h-1.414" fill-rule="evenodd"/><path stroke="#fff" stroke-width=".916" stroke-miterlimit="105.678" stroke-linecap="round" d="M214.724 150.024h-1.414" fill-rule="evenodd"/><path fill="#000" fill-opacity="0" d="M222.184 153.74h-1.441" fill-rule="evenodd"/><path stroke="#fff" stroke-width=".916" stroke-miterlimit="105.678" stroke-linecap="round" d="M222.184 153.74h-1.441" fill-rule="evenodd"/><path fill="#000" fill-opacity="0" d="M222.184 151.882h-1.441" fill-rule="evenodd"/><path stroke="#fff" stroke-width=".916" stroke-miterlimit="105.678" stroke-linecap="round" d="M222.184 151.882h-1.441" fill-rule="evenodd"/><path fill="#000" fill-opacity="0" d="M222.184 150.024h-1.441" fill-rule="evenodd"/><path stroke="#fff" stroke-width=".916" stroke-miterlimit="105.678" stroke-linecap="round" d="M222.184 150.024h-1.441" fill-rule="evenodd"/><path fill="#fff" d="M217.36 150.496l-.195.026-.333.14-.25.249-.138.333v1.165l.139.334.249.25.333.136h1.163l.333-.137.25-.25.139-.333v-1.165l-.14-.333-.249-.25-.333-.139-.194-.026z" fill-rule="evenodd"/><path fill="#000" fill-opacity="0" d="M218.467 139.394h49.575v24.976h-49.575z" fill-rule="evenodd"/><path fill="#000" d="M232.065 154.687q-.422 0-.828-.172-.406-.187-.719-.531-.312-.344-.453-.844l.656-.266q.141.516.5.844.375.328.86.328.5 0 .843-.265.344-.282.344-.735 0-.406-.297-.656-.28-.266-.953-.484l-.36-.141q-.609-.219-1-.562-.374-.36-.374-.985 0-.406.219-.75.234-.344.625-.547.406-.218.906-.218t.86.187q.374.188.593.453.219.266.297.516l-.625.265q-.094-.296-.375-.53-.281-.235-.75-.235-.438 0-.75.25-.313.234-.313.61 0 .343.266.562.266.203.797.39l.375.125q.734.266 1.14.672.407.39.407 1.063 0 .562-.282.937-.28.375-.718.547-.422.172-.89.172zm4.574 0q-.578 0-1.047-.281-.453-.282-.718-.766-.266-.5-.266-1.11 0-.577.25-1.077t.703-.797q.453-.297 1.031-.297.594 0 1.032.265.453.266.687.735.234.469.234 1.078 0 .094-.015.219h-3.235q.016.453.22.78.202.313.515.485.312.157.64.157.797 0 1.204-.735l.578.281q-.25.485-.72.782-.452.28-1.093.28zm1.188-2.594q-.016-.265-.157-.515-.125-.25-.39-.422-.266-.188-.688-.188-.484 0-.828.313-.328.312-.422.812h2.485zm1.504-1.61h.656v.657h.031q.11-.344.453-.562.344-.22.735-.22.265 0 .468.079v.734q-.25-.125-.578-.125-.297 0-.547.172-.234.172-.39.453-.14.282-.14.61v2.28h-.688v-4.077zm2.698 0h.719l1.265 3.282h.016l1.281-3.281h.72l-1.673 4.078h-.687l-1.64-4.078zm4.956-.75q-.203 0-.344-.14-.14-.156-.14-.344 0-.218.14-.359.14-.14.344-.14.203 0 .344.14.14.14.14.36 0 .187-.14.343-.141.14-.344.14zm-.344.75h.688v4.079h-.688v-4.078zm3.565 4.204q-.594 0-1.078-.281-.469-.282-.735-.766-.265-.5-.265-1.125 0-.61.265-1.094.266-.5.735-.781.484-.281 1.078-.281.656 0 1.11.312.452.297.64.813l-.61.25q-.156-.375-.453-.563-.296-.203-.734-.203-.36 0-.672.203-.297.188-.5.547-.187.344-.187.797 0 .469.187.828.203.344.5.547.313.188.672.188.438 0 .75-.204.313-.203.469-.562l.61.25q-.22.5-.673.812-.453.313-1.11.313zm4.281 0q-.578 0-1.047-.281-.453-.282-.719-.766-.265-.5-.265-1.11 0-.577.25-1.077t.703-.797q.453-.297 1.031-.297.594 0 1.031.265.453.266.688.735.234.469.234 1.078 0 .094-.015.219h-3.235q.016.453.219.78.203.313.516.485.312.157.64.157.797 0 1.203-.735l.578.281q-.25.485-.718.782-.453.28-1.094.28zm1.187-2.594q-.015-.265-.156-.515-.125-.25-.39-.422-.266-.188-.688-.188-.484 0-.828.313-.328.312-.422.812h2.484z"/><path fill="#000" fill-opacity="0" d="M272.262 201.445H13.064l-.968-.182-.878-.337-.763-.467-.674-.573-.527-.701-.382-.78-.175-.831-.03-.443V93.124l.03-.443.175-.856.382-.78.527-.676.674-.598.763-.467.878-.34.968-.155.496-.027h258.702l.5.027.967.155.879.34.762.467.674.598.527.676.38.78.205.856v104.893l-.205.831-.38.78-.527.7-.674.574-.762.467-.88.337-.967.182h-.499z" fill-rule="evenodd"/><path stroke="#466bb0" stroke-width=".472" stroke-linejoin="round" stroke-linecap="butt" stroke-dasharray="1.889763779527559,1.4173228346456692" d="M272.262 201.445H13.064l-.968-.182-.878-.337-.763-.467-.674-.573-.527-.701-.382-.78-.175-.831-.03-.443V93.124l.03-.443.175-.856.382-.78.527-.676.674-.598.763-.467.878-.34.968-.155.496-.027h258.702l.5.027.967.155.879.34.762.467.674.598.527.676.38.78.205.856v104.893l-.205.831-.38.78-.527.7-.674.574-.762.467-.88.337-.967.182h-.499z" fill-rule="evenodd"/><path fill="#000" fill-opacity="0" d="M106.466 113.457h67.345" fill-rule="evenodd"/><path stroke="#fbb03f" stroke-width="1.858" stroke-linejoin="round" stroke-linecap="round" stroke-dasharray="0.0,7.433070866141732" d="M106.466 113.457h67.345" fill-rule="evenodd"/><path fill="#e6e6e6" d="M172.895 98.34l-.276.029-.5.194-.387.388-.223.5v31.065l.223.498.386.389.501.194.276.029h93.78l.278-.029.498-.194.36-.389.223-.498.029-.278v-30.51l-.029-.278-.223-.499-.36-.388-.498-.194-.278-.03z" fill-rule="evenodd"/><path fill="#fff" d="M178.803 102.5l-.275.029-.502.194-.388.389-.22.498v22.746l.22.498.388.389.502.194.275.026h22.192l.275-.026.499-.194.362-.389.22-.498.03-.279v-22.189l-.03-.278-.22-.498-.362-.389-.499-.194-.275-.029z" fill-rule="evenodd"/><path fill="#000" fill-opacity="0" d="M196.029 118.505v-7.073l-6.131-3.523-6.129 3.523v7.073l6.129 3.551 6.13-3.55z" fill-rule="evenodd"/><path stroke="#b14d9d" stroke-width="1.386" stroke-linejoin="round" stroke-linecap="butt" d="M196.029 118.505v-7.073l-6.131-3.523-6.129 3.523v7.073l6.129 3.551 6.13-3.55z" fill-rule="evenodd"/><path fill="#fff" d="M209.01 102.5l-.278.029-.498.194-.389.389-.223.498v22.746l.223.498.389.389.498.194.279.026h51.312l.278-.026.499-.194.36-.389.222-.498.027-.279v-22.189l-.027-.278-.223-.498-.36-.389-.498-.194-.278-.029z" fill-rule="evenodd"/><path fill="#767576" d="M217.748 106.663l-.86.026-1.639.333-1.47.638-1.33.887-1.137 1.137-.887 1.333-.638 1.47-.333 1.635-.029.86.03.862.332 1.606.638 1.499.887 1.33 1.137 1.14 1.33.887 1.47.638 1.638.333.861.026.858-.026 1.61-.333 1.498-.638 1.33-.887 1.137-1.14.887-1.33.638-1.499.333-1.606.03-.861-.03-.86-.333-1.636-.638-1.47-.887-1.333-1.136-1.137-1.331-.887-1.499-.638-1.609-.333-.858-.026z" fill-rule="evenodd"/><path fill="#000" fill-opacity="0" d="M220.688 117.867h-5.908v-5.908h5.908v5.908z" fill-rule="evenodd"/><path stroke="#fff" stroke-width=".916" stroke-linejoin="round" stroke-linecap="butt" d="M220.688 117.867h-5.908v-5.908h5.908v5.908z" fill-rule="evenodd"/><path fill="#000" fill-opacity="0" d="M215.887 111.96v-1.415" fill-rule="evenodd"/><path stroke="#fff" stroke-width=".916" stroke-miterlimit="105.678" stroke-linecap="round" d="M215.887 111.96v-1.415" fill-rule="evenodd"/><path fill="#000" fill-opacity="0" d="M217.748 111.96v-1.415" fill-rule="evenodd"/><path stroke="#fff" stroke-width=".916" stroke-miterlimit="105.678" stroke-linecap="round" d="M217.748 111.96v-1.415" fill-rule="evenodd"/><path fill="#000" fill-opacity="0" d="M219.606 111.96v-1.415" fill-rule="evenodd"/><path stroke="#fff" stroke-width=".916" stroke-miterlimit="105.678" stroke-linecap="round" d="M219.606 111.96v-1.415" fill-rule="evenodd"/><path fill="#000" fill-opacity="0" d="M215.887 119.421v-1.443" fill-rule="evenodd"/><path stroke="#fff" stroke-width=".916" stroke-miterlimit="105.678" stroke-linecap="round" d="M215.887 119.421v-1.443" fill-rule="evenodd"/><path fill="#000" fill-opacity="0" d="M217.748 119.421v-1.443" fill-rule="evenodd"/><path stroke="#fff" stroke-width=".916" stroke-miterlimit="105.678" stroke-linecap="round" d="M217.748 119.421v-1.443" fill-rule="evenodd"/><path fill="#000" fill-opacity="0" d="M219.606 119.421v-1.443" fill-rule="evenodd"/><path stroke="#fff" stroke-width=".916" stroke-miterlimit="105.678" stroke-linecap="round" d="M219.606 119.421v-1.443" fill-rule="evenodd"/><path fill="#000" fill-opacity="0" d="M214.724 116.841h-1.414" fill-rule="evenodd"/><path stroke="#fff" stroke-width=".916" stroke-miterlimit="105.678" stroke-linecap="round" d="M214.724 116.841h-1.414" fill-rule="evenodd"/><path fill="#000" fill-opacity="0" d="M214.724 114.983h-1.414" fill-rule="evenodd"/><path stroke="#fff" stroke-width=".916" stroke-miterlimit="105.678" stroke-linecap="round" d="M214.724 114.983h-1.414" fill-rule="evenodd"/><path fill="#000" fill-opacity="0" d="M214.724 113.125h-1.414" fill-rule="evenodd"/><path stroke="#fff" stroke-width=".916" stroke-miterlimit="105.678" stroke-linecap="round" d="M214.724 113.125h-1.414" fill-rule="evenodd"/><path fill="#000" fill-opacity="0" d="M222.184 116.841h-1.441" fill-rule="evenodd"/><path stroke="#fff" stroke-width=".916" stroke-miterlimit="105.678" stroke-linecap="round" d="M222.184 116.841h-1.441" fill-rule="evenodd"/><path fill="#000" fill-opacity="0" d="M222.184 114.983h-1.441" fill-rule="evenodd"/><path stroke="#fff" stroke-width=".916" stroke-miterlimit="105.678" stroke-linecap="round" d="M222.184 114.983h-1.441" fill-rule="evenodd"/><path fill="#000" fill-opacity="0" d="M222.184 113.125h-1.441" fill-rule="evenodd"/><path stroke="#fff" stroke-width=".916" stroke-miterlimit="105.678" stroke-linecap="round" d="M222.184 113.125h-1.441" fill-rule="evenodd"/><path fill="#fff" d="M217.36 113.597l-.195.026-.333.14-.25.249-.138.333v1.165l.139.334.249.25.333.136h1.163l.333-.137.25-.25.139-.333v-1.165l-.14-.333-.249-.25-.333-.139-.194-.026z" fill-rule="evenodd"/><path fill="#000" fill-opacity="0" d="M218.467 102.495h49.575v24.976h-49.575z" fill-rule="evenodd"/><path fill="#000" d="M232.065 117.788q-.422 0-.828-.172-.406-.187-.719-.531-.312-.344-.453-.844l.656-.266q.141.516.5.844.375.328.86.328.5 0 .843-.265.344-.282.344-.735 0-.406-.297-.656-.28-.266-.953-.484l-.36-.14q-.609-.22-1-.563-.374-.36-.374-.985 0-.406.219-.75.234-.344.625-.547.406-.218.906-.218t.86.187q.374.188.593.453.219.266.297.516l-.625.265q-.094-.296-.375-.53-.281-.235-.75-.235-.438 0-.75.25-.313.234-.313.61 0 .343.266.562.266.203.797.39l.375.125q.734.266 1.14.672.407.39.407 1.063 0 .562-.282.937-.28.375-.718.547-.422.172-.89.172zm4.574 0q-.578 0-1.047-.281-.453-.282-.718-.766-.266-.5-.266-1.11 0-.577.25-1.077t.703-.797q.453-.297 1.031-.297.594 0 1.032.265.453.266.687.735.234.469.234 1.078 0 .094-.015.219h-3.235q.016.453.22.78.202.313.515.485.312.157.64.157.797 0 1.204-.735l.578.281q-.25.485-.72.782-.452.28-1.093.28zm1.188-2.594q-.016-.265-.157-.515-.125-.25-.39-.422-.266-.188-.688-.188-.484 0-.828.313-.328.312-.422.812h2.485zm1.504-1.61h.656v.657h.031q.11-.344.453-.562.344-.22.735-.22.265 0 .468.079v.734q-.25-.125-.578-.125-.297 0-.547.172-.234.172-.39.453-.14.282-.14.61v2.28h-.688v-4.077zm2.698 0h.719l1.265 3.282h.016l1.281-3.281h.72l-1.673 4.078h-.687l-1.64-4.078zm4.956-.75q-.203 0-.344-.14-.14-.156-.14-.344 0-.218.14-.359.14-.14.344-.14.203 0 .344.14.14.14.14.36 0 .187-.14.343-.141.14-.344.14zm-.344.75h.688v4.079h-.688v-4.078zm3.565 4.204q-.594 0-1.078-.281-.469-.282-.735-.766-.265-.5-.265-1.125 0-.61.265-1.094.266-.5.735-.78.484-.282 1.078-.282.656 0 1.11.312.452.297.64.813l-.61.25q-.156-.375-.453-.563-.296-.203-.734-.203-.36 0-.672.203-.297.188-.5.547-.187.344-.187.797 0 .469.187.828.203.344.5.547.313.188.672.188.438 0 .75-.204.313-.203.469-.562l.61.25q-.22.5-.673.812-.453.313-1.11.313zm4.281 0q-.578 0-1.047-.281-.453-.282-.719-.766-.265-.5-.265-1.11 0-.577.25-1.077t.703-.797q.453-.297 1.031-.297.594 0 1.031.265.453.266.688.735.234.469.234 1.078 0 .094-.015.219h-3.235q.016.453.219.78.203.313.516.485.312.157.64.157.797 0 1.203-.735l.578.281q-.25.485-.718.782-.453.28-1.094.28zm1.187-2.594q-.015-.265-.156-.515-.125-.25-.39-.422-.266-.188-.688-.188-.484 0-.828.313-.328.312-.422.812h2.484z"/><path fill="#000" fill-opacity="0" d="M136.223 150.983h39.23" fill-rule="evenodd"/><path stroke="#fbb03f" stroke-width="1.858" stroke-linejoin="round" stroke-linecap="round" stroke-dasharray="0.0,7.433070866141732" d="M136.223 150.983h39.23" fill-rule="evenodd"/><path fill="#fbb03f" d="M169.975 110.056l3.137 3.134-3.137 3.134h2.664l3.134-3.134-3.134-3.134zM169.975 147.54l3.137 3.135-3.137 3.133h2.664l3.134-3.133-3.134-3.134zM102.8 110.129l-3.133 3.133 3.134 3.134h2.66l-3.133-3.134 3.134-3.133z" fill-rule="evenodd"/><path fill="#e6e6e6" d="M17.026 98.341l-.369.03-.67.193-.482.389-.298.498-.036.276v30.512l.036.278.298.499.481.388.671.194.37.027h79.776l.373-.027.667-.194.52-.388.26-.499.039-.278V99.727l-.039-.276-.26-.498-.52-.389-.667-.194-.373-.029z" fill-rule="evenodd"/><path fill="#fff" d="M22.577 102.5l-.373.029-.667.194-.52.389-.299.498v22.746l.299.498.52.389.667.194.373.026h68.676l.372-.026.668-.194.481-.389.299-.498.035-.279v-22.189l-.035-.278-.299-.498-.481-.389-.668-.194-.372-.029z" fill-rule="evenodd"/><path fill="#767576" d="M32.051 106.663l-.86.026-1.639.333-1.47.638-1.33.887-1.137 1.137-.887 1.333-.637 1.47-.334 1.635-.029.86.03.862.333 1.606.637 1.499.887 1.33 1.137 1.14 1.33.887 1.47.638 1.638.333.861.026.858-.026 1.61-.333 1.498-.638 1.33-.887 1.137-1.14.887-1.33.638-1.499.334-1.606.028-.861-.028-.86-.334-1.636-.638-1.47-.887-1.333-1.136-1.137-1.33-.887-1.5-.638-1.609-.333-.858-.026z" fill-rule="evenodd"/><path fill="#000" fill-opacity="0" d="M34.99 117.867h-5.907v-5.908h5.908v5.908z" fill-rule="evenodd"/><path stroke="#fff" stroke-width=".916" stroke-linejoin="round" stroke-linecap="butt" d="M34.99 117.867h-5.907v-5.908h5.908v5.908z" fill-rule="evenodd"/><path fill="#000" fill-opacity="0" d="M30.19 111.96v-1.415" fill-rule="evenodd"/><path stroke="#fff" stroke-width=".916" stroke-miterlimit="105.678" stroke-linecap="round" d="M30.19 111.96v-1.415" fill-rule="evenodd"/><path fill="#000" fill-opacity="0" d="M32.051 111.96v-1.415" fill-rule="evenodd"/><path stroke="#fff" stroke-width=".916" stroke-miterlimit="105.678" stroke-linecap="round" d="M32.051 111.96v-1.415" fill-rule="evenodd"/><path fill="#000" fill-opacity="0" d="M33.91 111.96v-1.415" fill-rule="evenodd"/><path stroke="#fff" stroke-width=".916" stroke-miterlimit="105.678" stroke-linecap="round" d="M33.91 111.96v-1.415" fill-rule="evenodd"/><path fill="#000" fill-opacity="0" d="M30.19 119.421v-1.443" fill-rule="evenodd"/><path stroke="#fff" stroke-width=".916" stroke-miterlimit="105.678" stroke-linecap="round" d="M30.19 119.421v-1.443" fill-rule="evenodd"/><path fill="#000" fill-opacity="0" d="M32.051 119.421v-1.443" fill-rule="evenodd"/><path stroke="#fff" stroke-width=".916" stroke-miterlimit="105.678" stroke-linecap="round" d="M32.051 119.421v-1.443" fill-rule="evenodd"/><path fill="#000" fill-opacity="0" d="M33.91 119.421v-1.443" fill-rule="evenodd"/><path stroke="#fff" stroke-width=".916" stroke-miterlimit="105.678" stroke-linecap="round" d="M33.91 119.421v-1.443" fill-rule="evenodd"/><path fill="#000" fill-opacity="0" d="M29.028 116.841h-1.415" fill-rule="evenodd"/><path stroke="#fff" stroke-width=".916" stroke-miterlimit="105.678" stroke-linecap="round" d="M29.028 116.841h-1.415" fill-rule="evenodd"/><path fill="#000" fill-opacity="0" d="M29.028 114.983h-1.415" fill-rule="evenodd"/><path stroke="#fff" stroke-width=".916" stroke-miterlimit="105.678" stroke-linecap="round" d="M29.028 114.983h-1.415" fill-rule="evenodd"/><path fill="#000" fill-opacity="0" d="M29.028 113.125h-1.415" fill-rule="evenodd"/><path stroke="#fff" stroke-width=".916" stroke-miterlimit="105.678" stroke-linecap="round" d="M29.028 113.125h-1.415" fill-rule="evenodd"/><path fill="#000" fill-opacity="0" d="M36.487 116.841h-1.441" fill-rule="evenodd"/><path stroke="#fff" stroke-width=".916" stroke-miterlimit="105.678" stroke-linecap="round" d="M36.487 116.841h-1.441" fill-rule="evenodd"/><path fill="#000" fill-opacity="0" d="M36.487 114.983h-1.441" fill-rule="evenodd"/><path stroke="#fff" stroke-width=".916" stroke-miterlimit="105.678" stroke-linecap="round" d="M36.487 114.983h-1.441" fill-rule="evenodd"/><path fill="#000" fill-opacity="0" d="M36.487 113.125h-1.441" fill-rule="evenodd"/><path stroke="#fff" stroke-width=".916" stroke-miterlimit="105.678" stroke-linecap="round" d="M36.487 113.125h-1.441" fill-rule="evenodd"/><path fill="#fff" d="M31.663 113.597l-.194.026-.334.14-.25.249-.138.333v1.165l.139.334.25.25.333.136h1.162l.334-.137.249-.25.139-.333v-1.165l-.14-.333-.248-.25-.334-.139-.194-.026z" fill-rule="evenodd"/><path fill="#000" fill-opacity="0" d="M32.278 102.501h65.984v24.977H32.278z" fill-rule="evenodd"/><path fill="#000" d="M58.307 106.935h.672v5.735h-.672v-5.735zm3.241 5.86q-.656 0-1.093-.297-.438-.313-.625-.797l.609-.266q.156.36.453.563.297.203.656.203.39 0 .657-.156.28-.157.28-.454 0-.25-.218-.406-.219-.156-.687-.265l-.485-.125q-.5-.125-.812-.407-.297-.297-.297-.75 0-.36.203-.625.219-.265.562-.406.36-.14.766-.14.531 0 .953.234.422.219.594.64l-.594.266q-.265-.531-.969-.531-.328 0-.578.156-.25.156-.25.39 0 .22.172.36.172.14.531.234l.594.157q.594.14.89.453.313.297.313.719 0 .375-.218.671-.22.282-.594.438-.36.14-.813.14zm3.9-.063q-.25 0-.468-.078-.203-.078-.36-.219-.312-.297-.312-.844v-2.39h-.719v-.61h.719v-1.156h.672v1.156h1v.61h-1v2.234q0 .328.14.485.141.187.438.187.25 0 .437-.14v.656q-.109.062-.234.078-.125.031-.313.031zm1.797-4.89q-.204 0-.344-.141-.14-.156-.14-.344 0-.219.14-.36.14-.14.344-.14.203 0 .343.14.14.141.14.36 0 .188-.14.344-.14.14-.343.14zm-.344.75h.687v4.078h-.687v-4.079zm3.596 4.203q-.61 0-1.094-.282-.469-.297-.75-.781-.265-.5-.265-1.11 0-.593.265-1.077.281-.5.75-.782.485-.297 1.094-.297.594 0 1.062.297.485.282.75.782.282.484.282 1.078 0 .609-.282 1.109-.265.484-.75.781-.468.282-1.062.282zm0-.61q.375 0 .687-.187.329-.188.516-.532.203-.359.203-.843 0-.47-.203-.813-.187-.36-.516-.547-.312-.187-.687-.187-.375 0-.703.187-.328.188-.531.547-.204.344-.204.813 0 .484.204.843.203.344.53.532.329.187.704.187zM44.08 116.935H46q.485 0 .89.219.407.219.657.61.25.39.25.874 0 .485-.25.875t-.656.61q-.406.203-.89.203h-1.25v2.344h-.673v-5.735zm1.937 2.75q.328 0 .562-.14.25-.157.375-.391.14-.25.14-.516 0-.265-.14-.5-.125-.25-.375-.39-.234-.157-.562-.157H44.75v2.094h1.266zm2.53-1.094h.656v.657h.031q.11-.344.453-.563.344-.219.735-.219.265 0 .468.079v.734q-.25-.125-.578-.125-.297 0-.547.172-.234.172-.39.453-.14.281-.14.61v2.28h-.688v-4.078zm4.65 4.204q-.61 0-1.094-.282-.468-.297-.75-.781-.265-.5-.265-1.11 0-.593.265-1.077.282-.5.75-.782.485-.297 1.094-.297.594 0 1.063.297.484.282.75.782.28.484.28 1.078 0 .609-.28 1.109-.266.484-.75.781-.47.282-1.063.282zm0-.61q.375 0 .688-.187.328-.188.515-.532.203-.359.203-.843 0-.47-.203-.813-.187-.36-.515-.547-.313-.187-.688-.187-.375 0-.703.187-.328.188-.531.547-.203.344-.203.813 0 .484.203.843.203.344.531.532.328.187.703.187zm2.797-3.594h.657v.594h.031q.172-.312.516-.515.359-.204.75-.204.453 0 .78.22.329.202.485.562.203-.36.563-.563.36-.219.828-.219.703 0 1.062.422.36.422.36 1.172v2.61h-.672v-2.516q0-.563-.235-.813-.234-.265-.687-.265-.313 0-.563.187-.234.172-.375.469-.14.297-.14.64v2.298h-.688v-2.5q0-.579-.234-.829-.219-.265-.672-.265-.312 0-.562.187-.235.172-.375.485-.141.297-.141.64v2.282h-.688v-4.079zm8.82 4.204q-.577 0-1.046-.282-.453-.281-.719-.765-.265-.5-.265-1.11 0-.578.25-1.078.25-.5.703-.797.453-.297 1.031-.297.594 0 1.031.266.453.266.688.734.234.47.234 1.079 0 .093-.016.218h-3.234q.016.453.219.782.203.312.515.484.313.156.641.156.797 0 1.203-.734l.578.281q-.25.484-.718.781-.454.282-1.094.282zm1.188-2.594q-.015-.266-.156-.516-.125-.25-.39-.422-.266-.187-.688-.187-.484 0-.828.312-.328.313-.422.813h2.484zm2.962 2.531q-.25 0-.468-.078-.203-.078-.36-.219-.312-.297-.312-.844v-2.39h-.719v-.61h.719v-1.156h.672v1.156h1v.61h-1v2.234q0 .328.14.485.14.187.438.187.25 0 .437-.14v.656q-.11.062-.234.078-.125.031-.313.031zm1.39-5.797h.688v1.688l-.031.562h.03q.173-.312.532-.515.36-.204.797-.204.734 0 1.125.438.406.422.406 1.156v2.61h-.687v-2.516q0-.547-.282-.813-.28-.265-.718-.265-.328 0-.594.203-.266.187-.422.5-.156.297-.156.625v2.266h-.688v-5.735zm6.325 5.86q-.578 0-1.047-.282-.453-.281-.719-.765-.266-.5-.266-1.11 0-.578.25-1.078.25-.5.704-.797.453-.297 1.03-.297.595 0 1.032.266.453.266.688.734.234.47.234 1.079 0 .093-.016.218h-3.234q.016.453.219.782.203.312.515.484.313.156.641.156.797 0 1.203-.734l.578.281q-.25.484-.719.781-.453.282-1.093.282zm1.187-2.594q-.015-.266-.156-.516-.125-.25-.39-.422-.266-.187-.688-.187-.485 0-.828.312-.328.313-.422.813h2.484zm2.989 2.594q-.735 0-1.125-.422-.391-.438-.391-1.22v-2.562h.687v2.47q0 .577.266.859.266.265.703.265.344 0 .61-.187.28-.188.421-.485.141-.297.141-.625v-2.297h.688v4.079h-.641v-.594h-.047q-.156.312-.531.515-.36.204-.781.204zm4.385 0q-.656 0-1.094-.297-.437-.313-.625-.797l.61-.266q.156.36.453.563.297.203.656.203.39 0 .656-.156.281-.157.281-.454 0-.25-.218-.406-.219-.156-.688-.265l-.484-.125q-.5-.125-.813-.407-.297-.297-.297-.75 0-.36.204-.625.218-.265.562-.406.36-.14.766-.14.531 0 .953.234.422.219.594.64l-.594.266q-.266-.531-.969-.531-.328 0-.578.156-.25.156-.25.39 0 .22.172.36.172.14.531.234l.594.157q.594.14.89.453.313.297.313.719 0 .375-.219.671-.219.282-.594.438-.359.14-.812.14z"/><path fill="#000" fill-opacity="0" d="M136.277 120.282v28.904" fill-rule="evenodd"/><path stroke="#fbb03f" stroke-width="1.858" stroke-linejoin="round" stroke-linecap="round" stroke-dasharray="0.0,7.433070866141732" d="M136.277 120.282v28.904" fill-rule="evenodd"/><path fill="#000" fill-opacity="0" d="M19.667 123.478h83.496v31.086H19.667z" fill-rule="evenodd"/><path fill="#476bb0" d="M29.307 134.423h3.313v.657h-2.64v1.953h2.39v.64h-2.39v2.485h-.673v-5.735zm5.432 5.86q-.734 0-1.125-.422-.39-.438-.39-1.219v-2.562h.687v2.468q0 .578.265.86.266.265.704.265.343 0 .609-.187.281-.188.422-.485.14-.296.14-.625v-2.296h.688v4.078h-.64v-.594h-.048q-.156.312-.53.516-.36.203-.782.203zm3.004-5.86h.687v5.735h-.687v-5.735zm1.688 0h.687v5.735h-.687v-5.735zm1.187 5.735zm2.356-4.078h.657v.593h.031q.172-.312.516-.515.359-.203.75-.203.453 0 .78.218.329.203.485.563.203-.36.563-.563.36-.218.828-.218.703 0 1.062.421.36.422.36 1.172v2.61h-.672v-2.516q0-.562-.235-.812-.234-.266-.687-.266-.313 0-.563.187-.234.172-.375.47-.14.296-.14.64v2.297h-.688v-2.5q0-.578-.234-.828-.219-.266-.672-.266-.312 0-.562.187-.235.172-.375.485-.141.297-.141.64v2.282h-.688v-4.078zm8.82 4.203q-.577 0-1.046-.282-.453-.28-.719-.765-.265-.5-.265-1.11 0-.578.25-1.078.25-.5.703-.797.453-.296 1.031-.296.594 0 1.031.265.453.266.688.735.234.468.234 1.078 0 .093-.016.218h-3.234q.016.454.219.782.203.312.515.484.313.156.641.156.797 0 1.203-.734l.578.281q-.25.485-.718.781-.454.282-1.094.282zm1.188-2.594q-.015-.266-.156-.516-.125-.25-.39-.422-.266-.187-.688-.187-.484 0-.828.312-.328.313-.422.813h2.484zm2.962 2.531q-.25 0-.468-.078-.203-.078-.36-.219-.312-.297-.312-.843v-2.391h-.719v-.61h.719v-1.156h.672v1.157h1v.609h-1v2.234q0 .328.14.485.14.187.438.187.25 0 .437-.14v.656q-.11.062-.234.078-.125.031-.313.031zm1.35-4.14h.657v.656h.03q.11-.344.454-.563.344-.218.734-.218.266 0 .469.078v.734q-.25-.125-.578-.125-.297 0-.547.172-.234.172-.39.453-.141.281-.141.61v2.28h-.688v-4.077zm3.406-.75q-.203 0-.343-.141-.14-.156-.14-.344 0-.219.14-.36.14-.14.343-.14.204 0 .344.14.14.141.14.36 0 .188-.14.344-.14.14-.344.14zm-.343.75h.687v4.078h-.687v-4.078zm3.565 4.203q-.594 0-1.079-.282-.468-.28-.734-.765-.266-.5-.266-1.125 0-.61.266-1.094.266-.5.734-.781.485-.281 1.079-.281.656 0 1.109.312.453.297.64.813l-.609.25q-.156-.375-.453-.563-.297-.203-.734-.203-.36 0-.672.203-.297.188-.5.547-.188.344-.188.797 0 .469.188.828.203.344.5.547.312.187.672.187.437 0 .75-.203.312-.203.468-.562l.61.25q-.219.5-.672.812-.453.313-1.11.313zm3.93 0q-.656 0-1.094-.297-.437-.313-.625-.797l.61-.266q.156.36.453.563.297.203.656.203.39 0 .656-.156.282-.157.282-.453 0-.25-.22-.407-.218-.156-.687-.265l-.484-.125q-.5-.125-.813-.407-.296-.296-.296-.75 0-.359.203-.625.218-.265.562-.406.36-.14.766-.14.531 0 .953.234.422.219.594.64l-.594.266q-.266-.531-.969-.531-.328 0-.578.156-.25.156-.25.39 0 .22.172.36.172.14.531.235l.594.156q.594.14.89.453.313.297.313.719 0 .375-.219.672-.218.28-.593.437-.36.14-.813.14zm1.862-.125zM31.026 150.283q-.594 0-1.078-.282-.469-.28-.734-.765-.266-.5-.266-1.125 0-.61.266-1.094.265-.5.734-.781.484-.281 1.078-.281.656 0 1.11.312.453.297.64.813l-.61.25q-.156-.375-.452-.563-.297-.203-.735-.203-.36 0-.672.203-.297.188-.5.547-.187.344-.187.797 0 .469.187.828.203.344.5.547.313.187.672.187.438 0 .75-.203.313-.203.469-.562l.61.25q-.22.5-.673.812-.453.313-1.109.313zm4.36 0q-.61 0-1.095-.282-.468-.296-.75-.78-.265-.5-.265-1.11 0-.594.265-1.078.282-.5.75-.782.485-.296 1.094-.296.594 0 1.063.296.484.282.75.782.281.484.281 1.078 0 .61-.281 1.11-.266.484-.75.78-.469.282-1.063.282zm0-.61q.374 0 .687-.187.328-.188.515-.531.203-.36.203-.844 0-.469-.203-.813-.187-.36-.515-.547-.313-.187-.688-.187-.375 0-.703.187-.328.188-.531.547-.203.344-.203.813 0 .484.203.844.203.343.531.53.328.188.703.188zm2.837-5.25h.687v5.735h-.687v-5.735zm1.688 0h.687v5.735h-.687v-5.735zm3.46 5.86q-.578 0-1.047-.282-.453-.28-.719-.765-.265-.5-.265-1.11 0-.578.25-1.078.25-.5.703-.797.453-.296 1.031-.296.594 0 1.031.265.454.266.688.735.234.468.234 1.078 0 .093-.015.218h-3.235q.016.454.219.782.203.312.516.484.312.156.64.156.797 0 1.203-.734l.579.281q-.25.485-.72.781-.452.282-1.093.282zm1.188-2.594q-.016-.266-.157-.516-.125-.25-.39-.422-.266-.187-.688-.187-.484 0-.828.312-.328.313-.422.813h2.485zm3.403 2.594q-.594 0-1.078-.282-.469-.28-.735-.765-.265-.5-.265-1.125 0-.61.265-1.094.266-.5.735-.781.484-.281 1.078-.281.656 0 1.11.312.452.297.64.813l-.61.25q-.156-.375-.453-.563-.297-.203-.734-.203-.36 0-.672.203-.297.188-.5.547-.187.344-.187.797 0 .469.187.828.203.344.5.547.313.187.672.187.437 0 .75-.203.312-.203.469-.562l.61.25q-.22.5-.673.812-.453.313-1.11.313zm4.047-.063q-.25 0-.47-.078-.202-.078-.359-.219-.312-.297-.312-.843v-2.391h-.719v-.61h.719v-1.156h.672v1.157h1v.609h-1v2.234q0 .328.14.485.141.187.438.187.25 0 .437-.14v.656q-.109.062-.234.078-.125.031-.312.031zm1.796-4.89q-.204 0-.344-.141-.14-.156-.14-.344 0-.219.14-.36.14-.14.344-.14.203 0 .343.14.141.141.141.36 0 .188-.14.344-.141.14-.344.14zm-.344.75h.687v4.078h-.687v-4.078zm3.596 4.203q-.61 0-1.094-.282-.469-.296-.75-.78-.265-.5-.265-1.11 0-.594.265-1.078.281-.5.75-.782.485-.296 1.094-.296.594 0 1.062.296.485.282.75.782.282.484.282 1.078 0 .61-.282 1.11-.265.484-.75.78-.468.282-1.062.282zm0-.61q.375 0 .687-.187.329-.188.516-.531.203-.36.203-.844 0-.469-.203-.813-.187-.36-.516-.547-.312-.187-.687-.187-.375 0-.703.187-.328.188-.531.547-.204.344-.204.813 0 .484.204.844.203.343.53.53.329.188.704.188zm2.797-3.593h.657v.593h.03q.173-.297.532-.5.375-.218.781-.218.735 0 1.125.421.39.422.39 1.172v2.61h-.67v-2.516q0-.562-.282-.812-.266-.266-.75-.266-.328 0-.594.187-.25.188-.39.485-.141.297-.141.625v2.297h-.688v-4.078zm3.988 4.078zm1.919-4.078h.703l.969 3.218 1.03-3.218h.704l1.031 3.218.969-3.218h.687l-1.312 4.078h-.688l-1.062-3.25-1.047 3.25h-.672l-1.312-4.078zm7.06-.75q-.204 0-.344-.141-.141-.156-.141-.344 0-.219.14-.36.141-.14.344-.14.204 0 .344.14.14.141.14.36 0 .188-.14.344-.14.14-.344.14zm-.344.75h.687v4.078h-.687v-4.078zm3.283 4.14q-.25 0-.468-.078-.204-.078-.36-.219-.312-.297-.312-.843v-2.391h-.72v-.61h.72v-1.156h.672v1.157h1v.609h-1v2.234q0 .328.14.485.14.187.438.187.25 0 .437-.14v.656q-.11.062-.234.078-.125.031-.313.031zm1.39-5.797h.688v1.688l-.032.562h.032q.171-.312.53-.515.36-.203.798-.203.734 0 1.125.437.406.422.406 1.156v2.61h-.688v-2.516q0-.547-.28-.812-.282-.266-.72-.266-.328 0-.593.203-.266.188-.422.5-.156.297-.156.625v2.266h-.688v-5.735zm4.012 5.735zM30.589 160.283q-.657 0-1.094-.297-.438-.313-.625-.797l.61-.266q.155.36.452.563.297.203.657.203.39 0 .656-.156.281-.157.281-.453 0-.25-.219-.407-.218-.156-.687-.265l-.485-.125q-.5-.125-.812-.407-.297-.296-.297-.75 0-.359.203-.625.219-.265.563-.406.359-.14.765-.14.532 0 .953.234.422.219.594.64l-.594.266q-.265-.531-.968-.531-.328 0-.578.156-.25.156-.25.39 0 .22.171.36.172.14.532.235l.593.156q.594.14.891.453.313.297.313.719 0 .375-.22.672-.218.28-.593.437-.36.14-.812.14zm2.362-5.86h.687v1.688l-.031.562h.031q.172-.312.531-.515.36-.203.797-.203.735 0 1.125.437.406.422.406 1.156v2.61h-.687v-2.516q0-.547-.281-.812-.282-.266-.719-.266-.328 0-.594.203-.265.188-.422.5-.156.297-.156.625v2.266h-.687v-5.735zm6.402 5.86q-.61 0-1.094-.282-.468-.296-.75-.78-.265-.5-.265-1.11 0-.594.265-1.078.282-.5.75-.782.485-.296 1.094-.296.594 0 1.063.296.484.282.75.782.28.484.28 1.078 0 .61-.28 1.11-.266.484-.75.78-.47.282-1.063.282zm0-.61q.375 0 .688-.187.328-.188.515-.531.203-.36.203-.844 0-.469-.203-.813-.187-.36-.515-.547-.313-.187-.688-.187-.375 0-.703.187-.328.188-.531.547-.203.344-.203.813 0 .484.203.844.203.343.531.53.328.188.703.188zm7.407.547q-.25 0-.469-.078-.203-.078-.36-.219-.312-.297-.312-.843v-2.391h-.718v-.61h.718v-1.156h.672v1.157h1v.609h-1v2.234q0 .328.14.485.141.187.438.187.25 0 .438-.14v.656q-.11.062-.235.078-.125.031-.312.031zm-4.61-4.14h.657v.64h.031q.14-.36.484-.547.344-.203.766-.203.156 0 .281.016v.703q-.14-.031-.36-.031-.53 0-.858.343-.313.344-.313.891v2.266h-.687v-4.078zm5.46 4.078zm2.356-5.735h.688v5.735h-.688v-5.735zm2.095.907q-.203 0-.344-.141-.14-.156-.14-.344 0-.219.14-.36.14-.14.344-.14.203 0 .343.14.141.141.141.36 0 .188-.14.344-.141.14-.344.14zm-.344.75h.687v4.078h-.687v-4.078zm2.214.609h-.75v-.61h.75v-.437q0-.39.172-.672.187-.297.484-.453.297-.156.657-.156.343 0 .593.094v.671q-.14-.062-.265-.093-.125-.032-.313-.032-.25 0-.453.188-.187.187-.187.516v.375h1.046v.609H54.62v3.469h-.688v-3.47zm4.128 3.594q-.578 0-1.047-.282-.453-.28-.719-.765-.265-.5-.265-1.11 0-.578.25-1.078.25-.5.703-.797.453-.296 1.031-.296.594 0 1.031.265.453.266.688.735.234.468.234 1.078 0 .093-.016.218h-3.234q.016.454.219.782.203.312.515.484.313.156.641.156.797 0 1.203-.734l.578.281q-.25.485-.718.781-.454.282-1.094.282zm1.187-2.594q-.015-.266-.156-.516-.125-.25-.39-.422-.266-.187-.688-.187-.484 0-.828.312-.328.313-.422.813h2.484zm2.966 2.594q-.656 0-1.094-.297-.437-.313-.625-.797l.61-.266q.156.36.453.563.297.203.656.203.39 0 .656-.156.282-.157.282-.453 0-.25-.22-.407-.218-.156-.687-.265l-.484-.125q-.5-.125-.812-.407-.297-.296-.297-.75 0-.359.203-.625.219-.265.562-.406.36-.14.766-.14.531 0 .953.234.422.219.594.64l-.594.266q-.266-.531-.969-.531-.328 0-.578.156-.25.156-.25.39 0 .22.172.36.172.14.531.235l.594.156q.594.14.89.453.313.297.313.719 0 .375-.219.672-.218.28-.593.437-.36.14-.813.14zm2.291-4.203h.656v.609h.031q.188-.313.547-.516.375-.218.844-.218.547 0 .984.28.454.282.704.782.265.484.265 1.094 0 .625-.265 1.125-.25.484-.704.765-.437.282-.984.282-.469 0-.844-.203-.359-.22-.547-.516h-.03l.03.547v1.781h-.687v-5.812zm2 3.593q.36 0 .672-.187.312-.203.484-.547.188-.36.188-.828 0-.453-.188-.797-.172-.36-.484-.547-.313-.203-.672-.203-.36 0-.672.203-.297.188-.484.547-.188.344-.188.797 0 .469.188.828.187.344.484.547.313.187.672.187zm4.128.61q-.453 0-.813-.172-.344-.172-.547-.485-.187-.312-.187-.703 0-.64.484-1 .5-.375 1.235-.375.375 0 .687.078.313.079.484.188v-.25q0-.453-.328-.719-.312-.281-.797-.281-.328 0-.625.156-.296.14-.468.39l-.5-.374q.234-.375.656-.578.422-.203.937-.203.829 0 1.297.437.485.422.485 1.188v2.578h-.657v-.578h-.03q-.173.296-.532.5-.344.203-.781.203zm.062-.594q.344 0 .64-.172.298-.187.47-.484.171-.297.171-.64-.187-.126-.468-.204-.282-.094-.594-.094-.563 0-.844.235-.281.234-.281.609 0 .328.25.547.266.203.656.203zm2.873-3.61h.656v.594h.032q.171-.297.53-.5.376-.218.782-.218.734 0 1.125.421.39.422.39 1.172v2.61h-.671v-2.516q0-.562-.281-.812-.266-.266-.75-.266-.329 0-.594.187-.25.188-.39.485-.141.297-.141.625v2.297h-.688v-4.078zm4.941 4.126q-.219 0-.375-.141-.14-.156-.14-.375 0-.203.14-.344.156-.156.375-.156t.36.156q.156.14.156.344 0 .219-.156.375-.141.14-.36.14zm.951-.047z"/><path fill="#000" d="M29.307 164.423h1.938q.469 0 .875.22.406.218.656.608.25.391.25.875 0 .407-.187.75-.188.344-.5.579-.313.218-.704.296l-.015.032 1.625 2.343v.032h-.797l-1.563-2.344h-.906v2.344h-.672v-5.735zm1.89 2.766q.298 0 .563-.125.266-.14.407-.39.156-.25.156-.548 0-.265-.14-.5-.126-.25-.376-.39-.234-.156-.562-.156h-1.266v2.109h1.219zm4.39 3.094q-.578 0-1.047-.282-.453-.28-.719-.765-.265-.5-.265-1.11 0-.578.25-1.078.25-.5.703-.797.453-.296 1.031-.296.594 0 1.031.265.454.266.688.735.234.468.234 1.078 0 .093-.015.218h-3.235q.016.454.22.782.202.312.515.484.312.156.64.156.797 0 1.203-.734l.579.281q-.25.485-.72.781-.452.282-1.093.282zm1.188-2.594q-.016-.266-.157-.516-.125-.25-.39-.422-.266-.187-.688-.187-.484 0-.828.312-.328.313-.422.813h2.485zm3.403 2.594q-.594 0-1.078-.282-.469-.28-.735-.765-.265-.5-.265-1.125 0-.61.265-1.094.266-.5.735-.781.484-.281 1.078-.281.656 0 1.11.312.452.297.64.813l-.61.25q-.156-.375-.453-.563-.296-.203-.734-.203-.36 0-.672.203-.297.188-.5.547-.187.344-.187.797 0 .469.187.828.203.344.5.547.313.187.672.187.438 0 .75-.203.313-.203.469-.562l.61.25q-.22.5-.673.812-.453.313-1.11.313zm4.36 0q-.61 0-1.095-.282-.468-.296-.75-.78-.265-.5-.265-1.11 0-.594.265-1.078.282-.5.75-.782.485-.296 1.094-.296.594 0 1.063.296.484.282.75.782.28.484.28 1.078 0 .61-.28 1.11-.266.484-.75.78-.47.282-1.063.282zm0-.61q.374 0 .687-.187.328-.188.515-.531.203-.36.203-.844 0-.469-.203-.813-.187-.36-.515-.547-.313-.187-.688-.187-.375 0-.703.187-.328.188-.531.547-.203.344-.203.813 0 .484.203.844.203.343.531.53.328.188.703.188zm2.796-3.593h.657v.656h.03q.11-.344.454-.563.344-.218.734-.218.266 0 .47.078v.734q-.25-.125-.579-.125-.297 0-.547.172-.234.172-.39.453-.141.281-.141.61v2.28h-.688v-4.077zm4.495 4.203q-.547 0-1-.282-.438-.28-.703-.765-.25-.5-.25-1.125 0-.61.25-1.094.265-.5.703-.781.453-.281 1-.281.469 0 .828.218.375.203.562.516h.032l-.032-.578v-1.688h.688v5.735h-.656v-.594h-.032q-.187.297-.562.516-.36.203-.828.203zm.078-.61q.36 0 .656-.187.313-.203.5-.547.188-.36.188-.828 0-.453-.188-.797-.187-.36-.5-.547-.297-.203-.656-.203-.36 0-.672.203-.297.188-.5.547-.187.344-.187.797 0 .469.187.828.203.344.5.547.313.187.672.187zm3.41-4.343q-.204 0-.344-.141-.14-.156-.14-.344 0-.219.14-.36.14-.14.344-.14.203 0 .343.14.14.141.14.36 0 .188-.14.344-.14.14-.343.14zm-.344.75h.687v4.078h-.687v-4.078zm1.745 0h.657v.593h.03q.173-.297.532-.5.375-.218.781-.218.735 0 1.125.421.39.422.39 1.172v2.61h-.67v-2.516q0-.562-.282-.812-.266-.266-.75-.266-.328 0-.594.187-.25.188-.39.485-.141.297-.141.625v2.297h-.688v-4.078zm6.245 5.937q-.719 0-1.187-.344-.47-.328-.625-.797l.625-.265q.125.344.437.562.313.22.75.22.625 0 .969-.376.36-.36.36-1.031v-.453h-.032q-.203.312-.578.515-.36.188-.813.188-.53 0-.968-.266-.438-.281-.703-.765-.25-.485-.25-1.11 0-.625.25-1.11.265-.484.703-.75.437-.28.968-.28.454 0 .813.203.375.187.578.5h.031v-.578h.64V170q0 .985-.546 1.5-.531.516-1.422.516zm0-2.39q.36 0 .656-.188.313-.188.485-.531.187-.344.187-.813 0-.484-.187-.828-.172-.344-.485-.516-.296-.187-.656-.187-.375 0-.687.187-.297.188-.485.532-.172.343-.172.812 0 .469.172.828.188.344.485.532.312.171.687.171zm2.48.53zm2.355-4.077h.656v.656h.032q.109-.344.453-.563.344-.218.734-.218.266 0 .469.078v.734q-.25-.125-.578-.125-.297 0-.547.172-.234.172-.39.453-.141.281-.141.61v2.28h-.688v-4.077zm4.484 4.203q-.734 0-1.125-.422-.39-.438-.39-1.219v-2.562h.687v2.468q0 .578.266.86.266.265.703.265.344 0 .61-.187.28-.188.421-.485.141-.296.141-.625v-2.296h.687v4.078h-.64v-.594h-.047q-.156.312-.531.516-.36.203-.782.203zm3.004-5.86h.688v5.735h-.688v-5.735zm3.46 5.86q-.578 0-1.046-.282-.453-.28-.72-.765-.265-.5-.265-1.11 0-.578.25-1.078.25-.5.703-.797.454-.296 1.032-.296.593 0 1.03.265.454.266.688.735.235.468.235 1.078 0 .093-.016.218h-3.234q.015.454.219.782.203.312.515.484.313.156.64.156.798 0 1.204-.734l.578.281q-.25.485-.719.781-.453.282-1.093.282zm1.188-2.594q-.016-.266-.156-.516-.125-.25-.39-.422-.266-.187-.688-.187-.485 0-.828.312-.329.313-.422.813h2.484zm2.966 2.594q-.656 0-1.094-.297-.437-.313-.625-.797l.61-.266q.156.36.453.563.296.203.656.203.39 0 .656-.156.281-.157.281-.453 0-.25-.218-.407-.22-.156-.688-.265l-.484-.125q-.5-.125-.813-.407-.297-.296-.297-.75 0-.359.203-.625.22-.265.563-.406.36-.14.766-.14.53 0 .953.234.422.219.593.64l-.593.266q-.266-.531-.969-.531-.328 0-.578.156-.25.156-.25.39 0 .22.172.36.172.14.531.235l.594.156q.593.14.89.453.313.297.313.719 0 .375-.219.672-.219.28-.594.437-.359.14-.812.14zm1.862-.125zM29.135 176.08h.657v.609h.03q.188-.313.548-.516.375-.218.844-.218.546 0 .984.28.453.282.703.782.266.484.266 1.094 0 .625-.266 1.125-.25.484-.703.765-.438.282-.984.282-.47 0-.844-.203-.36-.22-.547-.516h-.031l.03.547v1.781h-.687v-5.812zm2 3.593q.36 0 .672-.187.313-.203.485-.547.187-.36.187-.828 0-.453-.187-.797-.172-.36-.485-.547-.312-.203-.672-.203-.359 0-.671.203-.297.188-.485.547-.187.344-.187.797 0 .469.187.828.188.344.485.547.312.187.671.187zm2.776-3.593h.656v.656h.031q.11-.344.453-.563.344-.218.735-.218.265 0 .468.078v.734q-.25-.125-.578-.125-.297 0-.547.172-.234.172-.39.453-.14.281-.14.61v2.28h-.688v-4.077zm4.65 4.203q-.61 0-1.094-.282-.468-.296-.75-.78-.265-.5-.265-1.11 0-.594.265-1.078.282-.5.75-.782.485-.296 1.094-.296.594 0 1.063.296.484.282.75.782.28.484.28 1.078 0 .61-.28 1.11-.266.484-.75.78-.47.282-1.063.282zm0-.61q.375 0 .688-.187.328-.188.515-.531.203-.36.203-.844 0-.469-.203-.813-.187-.36-.515-.547-.313-.187-.688-.187-.375 0-.703.187-.328.188-.531.547-.203.344-.203.813 0 .484.203.844.203.343.531.53.328.188.703.188zm2.32-3.593h.719l1.265 3.28h.016l1.281-3.28h.719l-1.672 4.078h-.687l-1.641-4.078zm4.956-.75q-.203 0-.344-.141-.14-.156-.14-.344 0-.219.14-.36.14-.14.344-.14.203 0 .343.14.141.141.141.36 0 .188-.14.344-.141.14-.344.14zm-.344.75h.687v4.078h-.687v-4.078zm3.44 4.203q-.547 0-1-.282-.438-.28-.703-.765-.25-.5-.25-1.125 0-.61.25-1.094.265-.5.703-.781.453-.281 1-.281.469 0 .828.218.375.203.562.516h.032l-.032-.578v-1.688h.688v5.735h-.656v-.594h-.032q-.187.297-.562.516-.36.203-.828.203zm.078-.61q.36 0 .656-.187.313-.203.5-.547.188-.36.188-.828 0-.453-.188-.797-.187-.36-.5-.547-.297-.203-.656-.203-.36 0-.672.203-.297.188-.5.547-.187.344-.187.797 0 .469.187.828.203.344.5.547.313.187.672.187zm4.776.61q-.578 0-1.047-.282-.453-.28-.719-.765-.265-.5-.265-1.11 0-.578.25-1.078.25-.5.703-.797.453-.296 1.031-.296.594 0 1.031.265.453.266.688.735.234.468.234 1.078 0 .093-.015.218h-3.235q.016.454.219.782.203.312.516.484.312.156.64.156.797 0 1.203-.734l.578.281q-.25.485-.718.781-.453.282-1.094.282zm1.187-2.594q-.015-.266-.156-.516-.125-.25-.39-.422-.266-.187-.688-.187-.484 0-.828.312-.328.313-.422.813h2.484zm1.004 2.469zm2.356-4.078h.657v.593h.03q.173-.312.516-.515.36-.203.75-.203.454 0 .782.218.328.203.484.563.203-.36.563-.563.359-.218.828-.218.703 0 1.062.421.36.422.36 1.172v2.61h-.672v-2.516q0-.562-.235-.812-.234-.266-.687-.266-.313 0-.563.187-.234.172-.375.47-.14.296-.14.64v2.297h-.688v-2.5q0-.578-.234-.828-.219-.266-.672-.266-.313 0-.563.187-.234.172-.375.485-.14.297-.14.64v2.282h-.688v-4.078zm8.82 4.203q-.577 0-1.046-.282-.453-.28-.719-.765-.266-.5-.266-1.11 0-.578.25-1.078.25-.5.704-.797.453-.296 1.03-.296.595 0 1.032.265.453.266.688.735.234.468.234 1.078 0 .093-.016.218h-3.234q.016.454.219.782.203.312.515.484.313.156.641.156.797 0 1.203-.734l.578.281q-.25.485-.719.781-.453.282-1.093.282zm1.188-2.594q-.015-.266-.156-.516-.125-.25-.39-.422-.266-.187-.688-.187-.485 0-.828.312-.328.313-.422.813h2.484zm2.962 2.531q-.25 0-.468-.078-.204-.078-.36-.219-.312-.297-.312-.843v-2.391h-.72v-.61h.72v-1.156h.672v1.157h1v.609h-1v2.234q0 .328.14.485.14.187.438.187.25 0 .437-.14v.656q-.11.062-.234.078-.125.031-.313.031zm1.35-4.14h.656v.656h.032q.109-.344.453-.563.343-.218.734-.218.266 0 .469.078v.734q-.25-.125-.578-.125-.297 0-.547.172-.235.172-.39.453-.141.281-.141.61v2.28h-.688v-4.077zm3.406-.75q-.203 0-.343-.141-.141-.156-.141-.344 0-.219.14-.36.141-.14.344-.14.203 0 .344.14.14.141.14.36 0 .188-.14.344-.14.14-.344.14zm-.343.75h.687v4.078h-.687v-4.078zm3.564 4.203q-.593 0-1.078-.282-.468-.28-.734-.765-.266-.5-.266-1.125 0-.61.266-1.094.266-.5.734-.781.485-.281 1.078-.281.657 0 1.11.312.453.297.64.813l-.609.25q-.156-.375-.453-.563-.297-.203-.734-.203-.36 0-.672.203-.297.188-.5.547-.188.344-.188.797 0 .469.188.828.203.344.5.547.312.187.672.187.437 0 .75-.203.312-.203.468-.562l.61.25q-.22.5-.672.812-.453.313-1.11.313zm3.93 0q-.655 0-1.093-.297-.437-.313-.625-.797l.61-.266q.156.36.453.563.297.203.656.203.39 0 .656-.156.281-.157.281-.453 0-.25-.218-.407-.22-.156-.688-.265l-.484-.125q-.5-.125-.813-.407-.297-.296-.297-.75 0-.359.204-.625.218-.265.562-.406.36-.14.766-.14.53 0 .953.234.422.219.594.64l-.594.266q-.266-.531-.969-.531-.328 0-.578.156-.25.156-.25.39 0 .22.172.36.172.14.531.235l.594.156q.594.14.89.453.313.297.313.719 0 .375-.219.672-.219.28-.594.437-.359.14-.812.14zm1.863-.125zM30.48 190.283q-.454 0-.813-.172-.344-.172-.547-.485-.188-.312-.188-.703 0-.64.485-1 .5-.375 1.234-.375.375 0 .688.078.312.079.484.188v-.25q0-.453-.328-.719-.313-.281-.797-.281-.328 0-.625.156-.297.14-.469.39l-.5-.374q.235-.375.656-.578.422-.203.938-.203.828 0 1.297.437.484.422.484 1.188v2.578h-.656v-.578h-.031q-.172.296-.532.5-.343.203-.78.203zm.062-.594q.343 0 .64-.172.297-.187.469-.484t.172-.64q-.188-.126-.469-.204-.281-.094-.594-.094-.562 0-.843.235-.282.234-.282.609 0 .328.25.547.266.203.657.203zm4.63 2.328q-.72 0-1.188-.344-.469-.328-.625-.797l.625-.265q.125.344.437.562.313.22.75.22.625 0 .97-.376.359-.36.359-1.031v-.453h-.032q-.203.312-.578.515-.36.188-.812.188-.532 0-.969-.266-.438-.281-.703-.765-.25-.485-.25-1.11 0-.625.25-1.11.265-.484.703-.75.437-.28.969-.28.453 0 .812.203.375.187.578.5h.032v-.578h.64V190q0 .985-.547 1.5-.53.516-1.422.516zm0-2.39q.359 0 .656-.188.312-.188.484-.531.188-.344.188-.813 0-.484-.188-.828-.172-.344-.484-.516-.297-.187-.657-.187-.375 0-.687.187-.297.188-.484.532-.172.343-.172.812 0 .469.172.828.187.344.484.532.312.171.687.171zm4.735 2.39q-.718 0-1.187-.344-.469-.328-.625-.797l.625-.265q.125.344.437.562.313.22.75.22.625 0 .97-.376.359-.36.359-1.031v-.453h-.032q-.203.312-.578.515-.36.188-.812.188-.532 0-.97-.266-.437-.281-.702-.765-.25-.485-.25-1.11 0-.625.25-1.11.265-.484.703-.75.437-.28.969-.28.453 0 .812.203.375.187.578.5h.032v-.578h.64V190q0 .985-.547 1.5-.53.516-1.422.516zm0-2.39q.36 0 .657-.188.312-.188.484-.531.188-.344.188-.813 0-.484-.188-.828-.172-.344-.484-.516-.297-.187-.657-.187-.375 0-.687.187-.297.188-.484.532-.172.343-.172.812 0 .469.172.828.187.344.484.532.312.171.687.171zm2.98-3.547h.656v.656h.031q.11-.344.453-.563.344-.218.735-.218.265 0 .468.078v.734q-.25-.125-.578-.125-.297 0-.547.172-.234.172-.39.453-.141.281-.141.61v2.28h-.687v-4.077zm4.572 4.203q-.578 0-1.047-.282-.453-.28-.719-.765-.265-.5-.265-1.11 0-.578.25-1.078.25-.5.703-.797.453-.296 1.031-.296.594 0 1.031.265.453.266.688.735.234.468.234 1.078 0 .093-.015.218h-3.235q.016.454.219.782.203.312.516.484.312.156.64.156.797 0 1.203-.734l.578.281q-.25.485-.718.781-.453.282-1.094.282zm1.187-2.594q-.015-.266-.156-.516-.125-.25-.39-.422-.266-.187-.688-.187-.484 0-.828.312-.328.313-.422.813h2.484zm3.341 4.328q-.718 0-1.187-.344-.469-.328-.625-.797l.625-.265q.125.344.437.562.313.22.75.22.625 0 .969-.376.36-.36.36-1.031v-.453h-.032q-.203.312-.578.515-.36.188-.812.188-.532 0-.97-.266-.437-.281-.702-.765-.25-.485-.25-1.11 0-.625.25-1.11.265-.484.703-.75.437-.28.969-.28.453 0 .812.203.375.187.578.5h.031v-.578h.641V190q0 .985-.547 1.5-.531.516-1.422.516zm0-2.39q.36 0 .657-.188.312-.188.484-.531.187-.344.187-.813 0-.484-.187-.828-.172-.344-.484-.516-.297-.187-.657-.187-.375 0-.687.187-.297.188-.485.532-.171.343-.171.812 0 .469.171.828.188.344.485.532.312.171.687.171zm4.252.656q-.453 0-.813-.172-.343-.172-.547-.485-.187-.312-.187-.703 0-.64.484-1 .5-.375 1.235-.375.375 0 .687.078.313.079.485.188v-.25q0-.453-.329-.719-.312-.281-.796-.281-.329 0-.625.156-.297.14-.47.39l-.5-.374q.235-.375.657-.578.422-.203.938-.203.828 0 1.296.437.485.422.485 1.188v2.578h-.656v-.578h-.032q-.172.296-.53.5-.345.203-.782.203zm.062-.594q.344 0 .641-.172.297-.187.469-.484t.172-.64q-.188-.126-.47-.204-.28-.094-.593-.094-.562 0-.844.235-.28.234-.28.609 0 .328.25.547.265.203.655.203zm4.371.531q-.25 0-.468-.078-.203-.078-.36-.219-.312-.297-.312-.843v-2.391h-.719v-.61h.719v-1.156h.672v1.157h1v.609h-1v2.234q0 .328.14.485.14.187.438.187.25 0 .437-.14v.656q-.11.062-.234.078-.125.031-.313.031zm1.796-4.89q-.203 0-.343-.141-.14-.156-.14-.344 0-.219.14-.36.14-.14.343-.14.204 0 .344.14.14.141.14.36 0 .188-.14.344-.14.14-.344.14zm-.343.75h.687v4.078h-.687v-4.078zm3.596 4.203q-.61 0-1.094-.282-.469-.296-.75-.78-.266-.5-.266-1.11 0-.594.266-1.078.281-.5.75-.782.484-.296 1.094-.296.594 0 1.062.296.485.282.75.782.282.484.282 1.078 0 .61-.282 1.11-.265.484-.75.78-.468.282-1.062.282zm0-.61q.375 0 .687-.187.328-.188.516-.531.203-.36.203-.844 0-.469-.203-.813-.188-.36-.516-.547-.312-.187-.687-.187-.375 0-.703.187-.328.188-.532.547-.203.344-.203.813 0 .484.203.844.204.343.532.53.328.188.703.188zm2.797-3.593h.656v.593h.032q.172-.297.53-.5.376-.218.782-.218.735 0 1.125.421.39.422.39 1.172v2.61h-.671v-2.516q0-.562-.281-.812-.266-.266-.75-.266-.328 0-.594.187-.25.188-.39.485-.141.297-.141.625v2.297h-.688v-4.078zm4.941 4.125q-.219 0-.375-.141-.14-.156-.14-.375 0-.203.14-.344.156-.156.375-.156t.36.156q.156.14.156.344 0 .219-.156.375-.141.14-.36.14z"/><path fill="#466bb0" d="M261.575 189.968l2.447 1.224 4.041-1.224zM264.022 184.75l-2.447 4.813 2.447-.409v-4.404z" fill-rule="evenodd"/><path fill="#476baf" d="M264.431 181.484v7.67l3.632.41-3.632-8.08z" fill-rule="evenodd"/><path fill="#000" fill-opacity="0" d="M56.917 40.12v56.14" fill-rule="evenodd"/><path stroke="#808181" stroke-width="1.858" stroke-linejoin="round" stroke-linecap="round" stroke-dasharray="5.574803149606299,7.433070866141732,0.0,7.433070866141732" d="M56.917 40.12v56.14" fill-rule="evenodd"/><path fill="#808181" d="M60.05 94.623l-3.134 3.137-3.136-3.137v2.664l3.136 3.134 3.134-3.134z" fill-rule="evenodd"/><path fill="#e6e6e6" d="M17.026 8.913l-.369.03-.67.193-.482.389-.298.499-.036.275v30.512l.036.278.298.499.481.388.671.195.37.026h79.776l.373-.026.667-.195.52-.388.26-.499.039-.278V10.299l-.039-.275-.26-.5-.52-.388-.667-.194-.373-.029z" fill-rule="evenodd"/><path fill="#fff" d="M22.577 13.072l-.373.029-.667.194-.52.389-.299.498v22.746l.299.499.52.388.667.194.373.026h68.676l.372-.026.668-.194.481-.388.299-.5.035-.277V14.46l-.035-.278-.299-.498-.481-.389-.668-.194-.372-.029z" fill-rule="evenodd"/><path fill="#767576" d="M32.051 17.235l-.86.026-1.639.333-1.47.638-1.33.887-1.137 1.137-.887 1.333-.637 1.47-.334 1.635-.029.861.03.861.333 1.606.637 1.499.887 1.33 1.137 1.14 1.33.887 1.47.638 1.638.333.861.026.858-.026 1.61-.333 1.498-.638 1.33-.887 1.137-1.14.887-1.33.638-1.499.334-1.606.028-.86-.028-.862-.334-1.635-.638-1.47-.887-1.333-1.136-1.137-1.33-.887-1.5-.638-1.609-.333-.858-.026z" fill-rule="evenodd"/><path fill="#000" fill-opacity="0" d="M34.99 28.44h-5.907V22.53h5.908v5.909z" fill-rule="evenodd"/><path stroke="#fff" stroke-width=".916" stroke-linejoin="round" stroke-linecap="butt" d="M34.99 28.44h-5.907V22.53h5.908v5.909z" fill-rule="evenodd"/><path fill="#000" fill-opacity="0" d="M30.19 22.531v-1.414" fill-rule="evenodd"/><path stroke="#fff" stroke-width=".916" stroke-miterlimit="105.678" stroke-linecap="round" d="M30.19 22.531v-1.414" fill-rule="evenodd"/><path fill="#000" fill-opacity="0" d="M32.051 22.531v-1.414" fill-rule="evenodd"/><path stroke="#fff" stroke-width=".916" stroke-miterlimit="105.678" stroke-linecap="round" d="M32.051 22.531v-1.414" fill-rule="evenodd"/><path fill="#000" fill-opacity="0" d="M33.91 22.531v-1.414" fill-rule="evenodd"/><path stroke="#fff" stroke-width=".916" stroke-miterlimit="105.678" stroke-linecap="round" d="M33.91 22.531v-1.414" fill-rule="evenodd"/><path fill="#000" fill-opacity="0" d="M30.19 29.993V28.55" fill-rule="evenodd"/><path stroke="#fff" stroke-width=".916" stroke-miterlimit="105.678" stroke-linecap="round" d="M30.19 29.993V28.55" fill-rule="evenodd"/><path fill="#000" fill-opacity="0" d="M32.051 29.993V28.55" fill-rule="evenodd"/><path stroke="#fff" stroke-width=".916" stroke-miterlimit="105.678" stroke-linecap="round" d="M32.051 29.993V28.55" fill-rule="evenodd"/><path fill="#000" fill-opacity="0" d="M33.91 29.993V28.55" fill-rule="evenodd"/><path stroke="#fff" stroke-width=".916" stroke-miterlimit="105.678" stroke-linecap="round" d="M33.91 29.993V28.55" fill-rule="evenodd"/><path fill="#000" fill-opacity="0" d="M29.028 27.413h-1.415" fill-rule="evenodd"/><path stroke="#fff" stroke-width=".916" stroke-miterlimit="105.678" stroke-linecap="round" d="M29.028 27.413h-1.415" fill-rule="evenodd"/><path fill="#000" fill-opacity="0" d="M29.028 25.555h-1.415" fill-rule="evenodd"/><path stroke="#fff" stroke-width=".916" stroke-miterlimit="105.678" stroke-linecap="round" d="M29.028 25.555h-1.415" fill-rule="evenodd"/><path fill="#000" fill-opacity="0" d="M29.028 23.697h-1.415" fill-rule="evenodd"/><path stroke="#fff" stroke-width=".916" stroke-miterlimit="105.678" stroke-linecap="round" d="M29.028 23.697h-1.415" fill-rule="evenodd"/><path fill="#000" fill-opacity="0" d="M36.487 27.413h-1.441" fill-rule="evenodd"/><path stroke="#fff" stroke-width=".916" stroke-miterlimit="105.678" stroke-linecap="round" d="M36.487 27.413h-1.441" fill-rule="evenodd"/><path fill="#000" fill-opacity="0" d="M36.487 25.555h-1.441" fill-rule="evenodd"/><path stroke="#fff" stroke-width=".916" stroke-miterlimit="105.678" stroke-linecap="round" d="M36.487 25.555h-1.441" fill-rule="evenodd"/><path fill="#000" fill-opacity="0" d="M36.487 23.697h-1.441" fill-rule="evenodd"/><path stroke="#fff" stroke-width=".916" stroke-miterlimit="105.678" stroke-linecap="round" d="M36.487 23.697h-1.441" fill-rule="evenodd"/><path fill="#fff" d="M31.663 24.17l-.194.026-.334.139-.25.249-.138.333V26.083l.139.333.25.25.333.136h1.162l.334-.137.249-.249.139-.333V24.917l-.14-.333-.248-.25-.334-.138-.194-.027z" fill-rule="evenodd"/><path fill="#000" fill-opacity="0" d="M32.278 13.073h65.984V38.05H32.278z" fill-rule="evenodd"/><path fill="#000" d="M46.091 17.507h1.922q.484 0 .89.22.407.218.657.608.25.391.25.875 0 .485-.25.875-.25.391-.656.61-.407.203-.89.203h-1.25v2.344h-.673v-5.735zm1.938 2.75q.328 0 .562-.14.25-.157.375-.39.14-.25.14-.517 0-.265-.14-.5-.125-.25-.375-.39-.234-.156-.562-.156h-1.266v2.093h1.266zm2.53-1.093h.656v.656h.031q.11-.344.453-.563.344-.218.735-.218.265 0 .468.078v.734q-.25-.125-.578-.125-.297 0-.547.172-.234.172-.39.453-.141.281-.141.61v2.28h-.687v-4.077zm4.65 4.203q-.61 0-1.094-.282-.468-.296-.75-.78-.265-.5-.265-1.11 0-.594.265-1.078.282-.5.75-.782.485-.296 1.094-.296.594 0 1.063.296.484.282.75.782.28.484.28 1.078 0 .61-.28 1.11-.266.484-.75.78-.47.282-1.063.282zm0-.61q.375 0 .688-.187.328-.188.515-.531.203-.36.203-.844 0-.469-.203-.813-.187-.36-.515-.547-.313-.187-.688-.187-.375 0-.703.187-.328.188-.531.547-.203.344-.203.813 0 .484.203.844.203.343.531.53.328.188.703.188zm4.612.61q-.547 0-1-.282-.438-.28-.703-.765-.25-.5-.25-1.125 0-.61.25-1.094.265-.5.703-.781.453-.281 1-.281.469 0 .828.218.375.203.562.516h.032l-.032-.578v-1.688h.688v5.735h-.656v-.594h-.032q-.187.297-.562.516-.36.203-.828.203zm.078-.61q.36 0 .656-.187.313-.203.5-.547.188-.36.188-.828 0-.453-.188-.797-.187-.36-.5-.547-.297-.203-.656-.203-.36 0-.672.203-.297.188-.5.547-.187.344-.187.797 0 .469.187.828.203.344.5.547.313.187.672.187zm4.488.61q-.735 0-1.125-.422-.39-.438-.39-1.219v-2.562h.687v2.468q0 .578.265.86.266.265.703.265.344 0 .61-.187.281-.188.422-.485.14-.296.14-.625v-2.296h.688v4.078h-.64v-.594h-.048q-.156.312-.531.516-.36.203-.781.203zm4.823 0q-.594 0-1.078-.282-.47-.28-.735-.765-.265-.5-.265-1.125 0-.61.265-1.094.266-.5.735-.781.484-.281 1.078-.281.656 0 1.11.312.452.297.64.813l-.61.25q-.156-.375-.453-.563-.297-.203-.734-.203-.36 0-.672.203-.297.188-.5.547-.188.344-.188.797 0 .469.188.828.203.344.5.547.312.187.672.187.437 0 .75-.203.312-.203.469-.562l.609.25q-.219.5-.672.812-.453.313-1.11.313zm4.046-.063q-.25 0-.468-.078-.203-.078-.36-.219-.312-.297-.312-.843v-2.391h-.719v-.61h.719v-1.156h.672v1.157h1v.609h-1v2.234q0 .328.14.485.14.187.438.187.25 0 .437-.14v.656q-.11.062-.234.078-.125.031-.313.031zm1.796-4.89q-.203 0-.343-.141-.14-.156-.14-.344 0-.219.14-.36.14-.14.343-.14.204 0 .344.14.14.141.14.36 0 .188-.14.344-.14.14-.344.14zm-.343.75h.687v4.078h-.687v-4.078zm3.596 4.203q-.61 0-1.094-.282-.469-.296-.75-.78-.266-.5-.266-1.11 0-.594.266-1.078.281-.5.75-.782.484-.296 1.094-.296.594 0 1.062.296.485.282.75.782.282.484.282 1.078 0 .61-.282 1.11-.265.484-.75.78-.468.282-1.062.282zm0-.61q.375 0 .687-.187.328-.188.516-.531.203-.36.203-.844 0-.469-.203-.813-.188-.36-.516-.547-.312-.187-.687-.187-.375 0-.703.187-.328.188-.532.547-.203.344-.203.813 0 .484.203.844.204.343.532.53.328.188.703.188zm2.797-3.593h.656v.593h.032q.172-.297.53-.5.376-.218.782-.218.735 0 1.125.421.39.422.39 1.172v2.61h-.671v-2.516q0-.562-.281-.812-.266-.266-.75-.266-.328 0-.594.187-.25.188-.39.485-.141.297-.141.625v2.297h-.688v-4.078zM44.08 27.507H46q.485 0 .89.22.407.218.657.608.25.391.25.875 0 .485-.25.875-.25.391-.656.61-.406.203-.89.203h-1.25v2.344h-.673v-5.735zm1.937 2.75q.328 0 .562-.14.25-.157.375-.39.14-.25.14-.517 0-.265-.14-.5-.125-.25-.375-.39-.234-.156-.562-.156H44.75v2.093h1.266zm2.53-1.093h.656v.656h.031q.11-.344.453-.563.344-.218.735-.218.265 0 .468.078v.734q-.25-.125-.578-.125-.297 0-.547.172-.234.172-.39.453-.14.281-.14.61v2.28h-.688v-4.077zm4.65 4.203q-.61 0-1.094-.282-.468-.296-.75-.78-.265-.5-.265-1.11 0-.594.265-1.078.282-.5.75-.782.485-.296 1.094-.296.594 0 1.063.296.484.282.75.782.28.484.28 1.078 0 .61-.28 1.11-.266.484-.75.78-.47.282-1.063.282zm0-.61q.375 0 .688-.187.328-.188.515-.531.203-.36.203-.844 0-.469-.203-.813-.187-.36-.515-.547-.313-.187-.688-.187-.375 0-.703.187-.328.188-.531.547-.203.344-.203.813 0 .484.203.844.203.343.531.53.328.188.703.188zm2.797-3.593h.657v.593h.031q.172-.312.516-.515.359-.203.75-.203.453 0 .78.218.329.203.485.563.203-.36.563-.563.36-.218.828-.218.703 0 1.062.421.36.422.36 1.172v2.61h-.672v-2.516q0-.562-.235-.812-.234-.266-.687-.266-.313 0-.563.187-.234.172-.375.47-.14.296-.14.64v2.297h-.688v-2.5q0-.578-.234-.828-.219-.266-.672-.266-.312 0-.562.187-.235.172-.375.485-.141.297-.141.64v2.282h-.688v-4.078zm8.82 4.203q-.577 0-1.046-.282-.453-.28-.719-.765-.265-.5-.265-1.11 0-.578.25-1.078.25-.5.703-.797.453-.296 1.031-.296.594 0 1.031.265.453.266.688.735.234.468.234 1.078 0 .093-.016.218h-3.234q.016.454.219.782.203.312.515.484.313.156.641.156.797 0 1.203-.734l.578.281q-.25.485-.718.781-.454.282-1.094.282zm1.188-2.594q-.015-.266-.156-.516-.125-.25-.39-.422-.266-.187-.688-.187-.484 0-.828.312-.328.313-.422.813h2.484zm2.962 2.531q-.25 0-.468-.078-.203-.078-.36-.219-.312-.297-.312-.843v-2.391h-.719v-.61h.719v-1.156h.672v1.157h1v.609h-1v2.234q0 .328.14.485.14.187.438.187.25 0 .437-.14v.656q-.11.062-.234.078-.125.031-.313.031zm1.39-5.797h.688v1.688l-.031.562h.03q.173-.312.532-.515.36-.203.797-.203.734 0 1.125.437.406.422.406 1.156v2.61h-.687v-2.516q0-.547-.282-.812-.28-.266-.718-.266-.328 0-.594.203-.266.188-.422.5-.156.297-.156.625v2.266h-.688v-5.735zm6.325 5.86q-.578 0-1.047-.282-.453-.28-.719-.765-.266-.5-.266-1.11 0-.578.25-1.078.25-.5.704-.797.453-.296 1.03-.296.595 0 1.032.265.453.266.688.735.234.468.234 1.078 0 .093-.016.218h-3.234q.016.454.219.782.203.312.515.484.313.156.641.156.797 0 1.203-.734l.578.281q-.25.485-.719.781-.453.282-1.093.282zm1.187-2.594q-.015-.266-.156-.516-.125-.25-.39-.422-.266-.187-.688-.187-.485 0-.828.312-.328.313-.422.813h2.484zm2.989 2.594q-.735 0-1.125-.422-.391-.438-.391-1.219v-2.562h.687v2.468q0 .578.266.86.266.265.703.265.344 0 .61-.187.28-.188.421-.485.141-.296.141-.625v-2.296h.688v4.078h-.641v-.594h-.047q-.156.312-.531.516-.36.203-.781.203zm4.385 0q-.656 0-1.094-.297-.437-.313-.625-.797l.61-.266q.156.36.453.563.297.203.656.203.39 0 .656-.156.281-.157.281-.453 0-.25-.218-.407-.219-.156-.688-.265l-.484-.125q-.5-.125-.813-.407-.297-.296-.297-.75 0-.359.204-.625.218-.265.562-.406.36-.14.766-.14.531 0 .953.234.422.219.594.64l-.594.266q-.266-.531-.969-.531-.328 0-.578.156-.25.156-.25.39 0 .22.172.36.172.14.531.235l.594.156q.594.14.89.453.313.297.313.719 0 .375-.219.672-.219.28-.594.437-.359.14-.812.14z"/><path fill="#000" fill-opacity="0" d="M53.316 41.369h123.685v31.086H53.316z" fill-rule="evenodd"/><path fill="#000" d="M64.129 52.97h-1.61v-.656h3.891v.657h-1.594v5.078h-.687V52.97zm3.704 5.204q-.453 0-.813-.172-.344-.172-.547-.484-.187-.313-.187-.704 0-.64.484-1 .5-.375 1.235-.375.375 0 .687.079.313.078.484.187v-.25q0-.453-.328-.719-.312-.281-.797-.281-.328 0-.625.156-.296.14-.468.39l-.5-.374q.234-.375.656-.578.422-.203.937-.203.829 0 1.297.437.485.422.485 1.188v2.578h-.657v-.578h-.03q-.173.297-.532.5-.344.203-.781.203zm.062-.594q.344 0 .64-.172.298-.187.47-.484.171-.297.171-.64-.187-.126-.468-.204-.282-.094-.594-.094-.563 0-.844.235-.281.234-.281.609 0 .328.25.547.266.203.656.203zm3.28-4.36q-.204 0-.344-.14-.141-.156-.141-.344 0-.218.14-.36.141-.14.344-.14.204 0 .344.14.14.142.14.36 0 .188-.14.344-.14.14-.344.14zm-.344.75h.687v4.079h-.687V53.97zm1.745-1.656h.688v5.735h-.688v-5.735zm3.539 5.86q-.61 0-1.094-.281-.469-.297-.75-.782-.266-.5-.266-1.11 0-.593.266-1.077.281-.5.75-.781.484-.297 1.094-.297.593 0 1.062.297.485.28.75.78.281.485.281 1.079 0 .61-.28 1.11-.266.484-.75.78-.47.282-1.063.282zm0-.61q.375 0 .687-.187.328-.188.516-.531.203-.36.203-.844 0-.469-.203-.813-.188-.359-.516-.546-.312-.188-.687-.188-.375 0-.703.188-.329.187-.532.546-.203.344-.203.813 0 .484.203.844.203.343.532.53.328.188.703.188zm2.797-3.593h.656v.656h.032q.109-.344.453-.563.343-.218.734-.218.266 0 .469.078v.734q-.25-.125-.578-.125-.297 0-.547.172-.235.172-.39.453-.141.281-.141.61v2.28h-.688v-4.077zm4.573 4.203q-.579 0-1.047-.281-.453-.282-.72-.766-.265-.5-.265-1.11 0-.578.25-1.078.25-.5.703-.796.454-.297 1.032-.297.593 0 1.03.265.454.266.688.735.235.468.235 1.078 0 .094-.016.219h-3.234q.015.453.219.78.203.313.515.485.313.156.64.156.798 0 1.204-.734l.578.281q-.25.485-.719.782-.453.28-1.093.28zm1.187-2.594q-.016-.266-.156-.516-.125-.25-.39-.421-.266-.188-.688-.188-.485 0-.828.313-.329.312-.422.812h2.484zm3.278 2.594q-.547 0-1-.281-.437-.282-.703-.766-.25-.5-.25-1.125 0-.61.25-1.094.266-.5.703-.781.453-.281 1-.281.47 0 .828.218.375.204.563.516h.031l-.031-.578v-1.688h.687v5.735h-.656v-.594h-.031q-.188.297-.563.516-.359.203-.828.203zm.078-.61q.36 0 .657-.187.312-.203.5-.547.187-.36.187-.828 0-.453-.187-.797-.188-.36-.5-.547-.297-.203-.657-.203-.359 0-.671.203-.297.188-.5.547-.188.344-.188.797 0 .469.188.828.203.344.5.547.312.187.671.187zm2.504.485zm2.356-4.078h.656v.593h.031q.172-.312.516-.515.36-.203.75-.203.453 0 .781.218.328.204.485.563.203-.36.562-.563.36-.218.828-.218.703 0 1.063.422.36.421.36 1.171v2.61h-.673v-2.516q0-.562-.234-.812-.235-.266-.688-.266-.312 0-.562.188-.235.171-.375.468-.14.297-.14.64v2.298h-.688v-2.5q0-.578-.235-.828-.218-.266-.672-.266-.312 0-.562.188-.234.171-.375.484-.14.297-.14.64v2.282h-.688V53.97zm8.82 4.203q-.578 0-1.047-.281-.453-.282-.718-.766-.266-.5-.266-1.11 0-.578.25-1.078.25-.5.703-.796.453-.297 1.031-.297.594 0 1.032.265.453.266.687.735.234.468.234 1.078 0 .094-.015.219h-3.235q.016.453.22.78.202.313.515.485.312.156.64.156.797 0 1.204-.734l.578.281q-.25.485-.719.782-.453.28-1.094.28zm1.188-2.594q-.016-.266-.157-.516-.125-.25-.39-.421-.266-.188-.688-.188-.484 0-.828.313-.328.312-.422.812h2.485zm2.962 2.531q-.25 0-.469-.078-.203-.078-.36-.219-.312-.296-.312-.843V54.58h-.719v-.61h.72v-1.156h.671v1.157h1v.609h-1v2.234q0 .329.14.485.141.187.438.187.25 0 .438-.14v.656q-.11.062-.235.078-.125.031-.312.031zm1.35-4.14h.656v.656h.031q.11-.344.453-.563.344-.218.735-.218.265 0 .468.078v.734q-.25-.125-.578-.125-.297 0-.547.172-.234.172-.39.453-.14.281-.14.61v2.28h-.688v-4.077zm3.406-.75q-.203 0-.344-.141-.14-.156-.14-.344 0-.218.14-.36.14-.14.344-.14.203 0 .344.14.14.142.14.36 0 .188-.14.344-.141.14-.344.14zm-.344.75h.688v4.078h-.688V53.97zm3.565 4.203q-.594 0-1.078-.281-.469-.282-.735-.766-.265-.5-.265-1.125 0-.61.265-1.094.266-.5.735-.781.484-.281 1.078-.281.656 0 1.11.312.452.297.64.813l-.61.25q-.156-.375-.453-.563-.296-.203-.734-.203-.36 0-.672.203-.297.188-.5.547-.187.344-.187.797 0 .469.187.828.203.344.5.547.313.187.672.187.438 0 .75-.203.313-.203.469-.562l.61.25q-.22.5-.673.812-.453.313-1.109.313zm3.93 0q-.656 0-1.093-.297-.438-.313-.625-.797l.609-.266q.156.36.453.563.297.203.656.203.391 0 .657-.156.28-.156.28-.453 0-.25-.218-.407-.219-.156-.687-.265l-.485-.125q-.5-.125-.812-.406-.297-.297-.297-.75 0-.36.203-.625.219-.266.563-.407.359-.14.765-.14.531 0 .953.234.422.219.594.64l-.594.266q-.265-.531-.968-.531-.329 0-.579.156-.25.157-.25.39 0 .22.172.36.172.14.532.235l.593.156q.594.14.89.453.313.297.313.719 0 .375-.218.672-.22.28-.594.437-.36.14-.813.14zm1.862-.125zm4.216.125q-.594 0-1.078-.281-.469-.282-.735-.766-.265-.5-.265-1.125 0-.61.265-1.094.266-.5.735-.781.484-.281 1.078-.281.656 0 1.11.312.452.297.64.813l-.61.25q-.156-.375-.453-.563-.297-.203-.734-.203-.36 0-.672.203-.297.188-.5.547-.187.344-.187.797 0 .469.187.828.203.344.5.547.313.187.672.187.437 0 .75-.203.312-.203.469-.562l.61.25q-.22.5-.673.812-.453.313-1.11.313zm4.359 0q-.61 0-1.094-.281-.468-.297-.75-.782-.265-.5-.265-1.11 0-.593.265-1.077.282-.5.75-.781.485-.297 1.094-.297.594 0 1.063.297.484.28.75.78.28.485.28 1.079 0 .61-.28 1.11-.266.484-.75.78-.47.282-1.063.282zm0-.61q.375 0 .688-.187.328-.188.515-.531.203-.36.203-.844 0-.469-.203-.813-.187-.359-.515-.546-.313-.188-.688-.188-.375 0-.703.188-.328.187-.531.546-.203.344-.203.813 0 .484.203.844.203.343.53.53.33.188.704.188zm2.837-5.25h.688v5.735h-.688v-5.735zm1.688 0h.688v5.735h-.688v-5.735zm3.46 5.86q-.577 0-1.046-.281-.453-.282-.719-.766-.265-.5-.265-1.11 0-.578.25-1.078.25-.5.703-.796.453-.297 1.03-.297.595 0 1.032.265.453.266.688.735.234.468.234 1.078 0 .094-.016.219h-3.234q.016.453.219.78.203.313.515.485.313.156.641.156.797 0 1.203-.734l.578.281q-.25.485-.718.782-.454.28-1.094.28zm1.188-2.594q-.015-.266-.156-.516-.125-.25-.39-.421-.266-.188-.688-.188-.484 0-.828.313-.328.312-.422.812h2.484zm3.404 2.594q-.594 0-1.078-.281-.47-.282-.735-.766-.265-.5-.265-1.125 0-.61.265-1.094.266-.5.735-.781.484-.281 1.078-.281.656 0 1.109.312.453.297.64.813l-.609.25q-.156-.375-.453-.563-.297-.203-.734-.203-.36 0-.672.203-.297.188-.5.547-.188.344-.188.797 0 .469.188.828.203.344.5.547.312.187.672.187.437 0 .75-.203.312-.203.469-.562l.609.25q-.219.5-.672.812-.453.313-1.11.313zm4.046-.063q-.25 0-.468-.078-.204-.078-.36-.219-.312-.296-.312-.843V54.58h-.719v-.61h.719v-1.156h.672v1.157h1v.609h-1v2.234q0 .329.14.485.14.187.438.187.25 0 .437-.14v.656q-.11.062-.234.078-.125.031-.313.031zm1.796-4.89q-.203 0-.343-.141-.141-.156-.141-.344 0-.218.14-.36.141-.14.344-.14.204 0 .344.14.14.142.14.36 0 .188-.14.344-.14.14-.344.14zm-.343.75h.687v4.078h-.687V53.97zm3.596 4.203q-.61 0-1.094-.281-.469-.297-.75-.782-.266-.5-.266-1.11 0-.593.266-1.077.281-.5.75-.781.484-.297 1.094-.297.594 0 1.062.297.485.28.75.78.282.485.282 1.079 0 .61-.282 1.11-.265.484-.75.78-.468.282-1.062.282zm0-.61q.375 0 .687-.187.328-.188.516-.531.203-.36.203-.844 0-.469-.203-.813-.188-.359-.516-.546-.312-.188-.687-.188-.375 0-.703.188-.328.187-.532.546-.203.344-.203.813 0 .484.203.844.204.343.532.53.328.188.703.188zm2.797-3.593h.656v.593h.032q.171-.296.53-.5.376-.218.782-.218.734 0 1.125.422.39.421.39 1.171v2.61h-.671v-2.516q0-.562-.281-.812-.266-.266-.75-.266-.329 0-.594.188-.25.187-.39.484-.141.297-.141.625v2.297h-.688V53.97zm3.988 4.078zM62.379 63.97h.703l.969 3.22 1.03-3.22h.704l1.031 3.22.969-3.22h.688L67.16 68.05h-.687l-1.063-3.25-1.047 3.25h-.672L62.38 63.97zm7.06-.75q-.204 0-.344-.14-.14-.156-.14-.344 0-.218.14-.36.14-.14.343-.14.204 0 .344.14.14.142.14.36 0 .188-.14.344-.14.14-.344.14zm-.344.75h.687v4.079h-.687V63.97zm3.283 4.141q-.25 0-.468-.078-.204-.078-.36-.219-.312-.296-.312-.843V64.58h-.72v-.61h.72v-1.156h.672v1.157h1v.609h-1v2.234q0 .329.14.485.14.187.438.187.25 0 .437-.14v.656q-.11.062-.234.078-.125.031-.313.031zm1.39-5.797h.688v1.688l-.032.562h.032q.172-.312.53-.515.36-.203.798-.203.734 0 1.125.437.406.422.406 1.156v2.61h-.687v-2.516q0-.547-.282-.812-.281-.266-.718-.266-.329 0-.594.203-.266.188-.422.5-.156.297-.156.625v2.266h-.688v-5.735zm4.012 5.735zm2.325-4.078h.656v.609h.031q.188-.312.547-.516.375-.218.844-.218.547 0 .984.28.453.282.703.782.266.485.266 1.094 0 .625-.266 1.125-.25.484-.703.766-.437.28-.984.28-.469 0-.844-.202-.36-.22-.547-.516h-.03l.03.547v1.781h-.687v-5.812zm2 3.593q.36 0 .672-.187.312-.203.484-.547.188-.36.188-.828 0-.453-.188-.797-.172-.36-.484-.547-.313-.203-.672-.203-.36 0-.672.203-.297.188-.484.547-.188.344-.188.797 0 .469.188.828.187.344.484.547.312.187.672.187zm2.775-3.593h.656v.656h.032q.109-.344.453-.563.343-.218.734-.218.266 0 .469.078v.734q-.25-.125-.578-.125-.297 0-.547.172-.235.172-.39.453-.141.281-.141.61v2.28h-.688v-4.077zm4.65 4.203q-.609 0-1.093-.281-.469-.297-.75-.782-.266-.5-.266-1.11 0-.593.266-1.077.281-.5.75-.781.484-.297 1.094-.297.593 0 1.062.297.484.28.75.78.281.485.281 1.079 0 .61-.28 1.11-.267.484-.75.78-.47.282-1.063.282zm0-.61q.376 0 .688-.187.328-.188.516-.531.203-.36.203-.844 0-.469-.203-.813-.188-.359-.516-.546-.312-.188-.687-.188-.375 0-.704.188-.328.187-.53.546-.204.344-.204.813 0 .484.203.844.203.343.531.53.329.188.704.188zm4.612.61q-.547 0-1-.281-.437-.282-.703-.766-.25-.5-.25-1.125 0-.61.25-1.094.266-.5.703-.781.453-.281 1-.281.469 0 .828.218.375.204.563.516h.031l-.031-.578v-1.688h.687v5.735h-.656v-.594h-.031q-.188.297-.563.516-.359.203-.828.203zm.078-.61q.36 0 .657-.187.312-.203.5-.547.187-.36.187-.828 0-.453-.187-.797-.188-.36-.5-.547-.297-.203-.657-.203-.359 0-.671.203-.297.188-.5.547-.188.344-.188.797 0 .469.188.828.203.344.5.547.312.187.671.187zm4.488.61q-.734 0-1.125-.422-.39-.438-.39-1.219v-2.562h.687v2.468q0 .579.266.86.265.265.703.265.344 0 .61-.187.28-.188.421-.484.14-.297.14-.625V63.97h.688v4.078h-.64v-.594h-.047q-.157.313-.532.516-.359.203-.78.203zm4.823 0q-.594 0-1.078-.281-.469-.282-.734-.766-.266-.5-.266-1.125 0-.61.266-1.094.265-.5.734-.781.484-.281 1.078-.281.656 0 1.11.312.453.297.64.813l-.61.25q-.155-.375-.452-.563-.297-.203-.735-.203-.36 0-.672.203-.296.188-.5.547-.187.344-.187.797 0 .469.187.828.204.344.5.547.313.187.672.187.438 0 .75-.203.313-.203.469-.562l.61.25q-.22.5-.672.812-.454.313-1.11.313zm4.047-.063q-.25 0-.469-.078-.203-.078-.36-.219-.312-.296-.312-.843V64.58h-.719v-.61h.72v-1.156h.671v1.157h1v.609h-1v2.234q0 .329.14.485.141.187.438.187.25 0 .438-.14v.656q-.11.062-.235.078-.125.031-.312.031zm1.796-4.89q-.203 0-.344-.141-.14-.156-.14-.344 0-.218.14-.36.14-.14.344-.14.203 0 .344.14.14.142.14.36 0 .188-.14.344-.14.14-.344.14zm-.344.75h.688v4.078h-.688V63.97zm3.596 4.203q-.61 0-1.093-.281-.47-.297-.75-.782-.266-.5-.266-1.11 0-.593.266-1.077.28-.5.75-.781.484-.297 1.093-.297.594 0 1.063.297.484.28.75.78.281.485.281 1.079 0 .61-.281 1.11-.266.484-.75.78-.469.282-1.063.282zm0-.61q.375 0 .688-.187.328-.188.515-.531.204-.36.204-.844 0-.469-.204-.813-.187-.359-.515-.546-.313-.188-.688-.188-.375 0-.703.188-.328.187-.531.546-.203.344-.203.813 0 .484.203.844.203.343.531.53.328.188.703.188zm2.798-3.593h.656v.593h.031q.172-.296.531-.5.375-.218.782-.218.734 0 1.125.422.39.421.39 1.171v2.61h-.672v-2.516q0-.562-.28-.812-.266-.266-.75-.266-.329 0-.595.188-.25.187-.39.484t-.14.625v2.297h-.688V63.97zm4.488 1.312h2.53v.563h-2.53v-.563zm4.84 2.89q-.453 0-.812-.171-.344-.172-.547-.484-.188-.313-.188-.704 0-.64.485-1 .5-.375 1.234-.375.375 0 .687.079.313.078.485.187v-.25q0-.453-.328-.719-.313-.281-.797-.281-.328 0-.625.156-.297.14-.469.39l-.5-.374q.234-.375.656-.578.422-.203.938-.203.828 0 1.297.437.484.422.484 1.188v2.578h-.656v-.578h-.031q-.172.297-.532.5-.343.203-.781.203zm.063-.593q.343 0 .64-.172.297-.187.469-.484t.172-.64q-.188-.126-.469-.204-.281-.094-.594-.094-.562 0-.843.235-.282.234-.282.609 0 .328.25.547.266.203.657.203zm2.841-3.61h.656v.61h.032q.187-.312.547-.516.375-.218.843-.218.547 0 .985.28.453.282.703.782.265.485.265 1.094 0 .625-.265 1.125-.25.484-.703.766-.438.28-.985.28-.468 0-.843-.202-.36-.22-.547-.516h-.032l.032.547v1.781h-.688v-5.812zm2 3.594q.36 0 .672-.187.313-.203.484-.547.188-.36.188-.828 0-.453-.188-.797-.171-.36-.484-.547-.312-.203-.672-.203-.36 0-.672.203-.297.188-.484.547-.188.344-.188.797 0 .469.188.828.187.344.484.547.313.187.672.187zm2.704-3.593h.656v.609h.032q.187-.312.547-.516.375-.218.843-.218.547 0 .985.28.453.282.703.782.265.485.265 1.094 0 .625-.265 1.125-.25.484-.703.766-.438.28-.985.28-.468 0-.843-.202-.36-.22-.547-.516h-.032l.032.547v1.781h-.688v-5.812zm2 3.593q.36 0 .672-.187.313-.203.484-.547.188-.36.188-.828 0-.453-.188-.797-.171-.36-.484-.547-.312-.203-.672-.203-.36 0-.672.203-.297.188-.484.547-.188.344-.188.797 0 .469.188.828.187.344.484.547.313.187.672.187zm2.775-3.593h.657v.656h.03q.11-.344.454-.563.344-.218.734-.218.266 0 .47.078v.734q-.25-.125-.579-.125-.297 0-.547.172-.234.172-.39.453-.141.281-.141.61v2.28h-.688v-4.077zm4.65 4.203q-.608 0-1.093-.281-.469-.297-.75-.782-.265-.5-.265-1.11 0-.593.265-1.077.281-.5.75-.781.485-.297 1.094-.297.594 0 1.062.297.485.28.75.78.282.485.282 1.079 0 .61-.282 1.11-.265.484-.75.78-.468.282-1.062.282zm0-.61q.376 0 .688-.187.329-.188.516-.531.203-.36.203-.844 0-.469-.203-.813-.187-.359-.516-.546-.312-.188-.687-.188-.375 0-.703.188-.328.187-.531.546-.204.344-.204.813 0 .484.204.844.203.343.53.53.329.188.704.188zm2.807-3.593h.656v.609h.031q.188-.312.547-.516.375-.218.844-.218.547 0 .984.28.454.282.704.782.265.485.265 1.094 0 .625-.265 1.125-.25.484-.704.766-.437.28-.984.28-.469 0-.844-.202-.359-.22-.547-.516h-.03l.03.547v1.781h-.687v-5.812zm2 3.593q.36 0 .672-.187.312-.203.484-.547.188-.36.188-.828 0-.453-.188-.797-.172-.36-.484-.547-.313-.203-.672-.203-.36 0-.672.203-.297.188-.484.547-.188.344-.188.797 0 .469.188.828.187.344.484.547.313.187.672.187zm2.775-3.593h.656v.656h.032q.11-.344.453-.563.344-.218.734-.218.266 0 .469.078v.734q-.25-.125-.578-.125-.297 0-.547.172-.234.172-.39.453-.141.281-.141.61v2.28h-.688v-4.077zm3.406-.75q-.203 0-.343-.141-.141-.156-.141-.344 0-.218.14-.36.141-.14.344-.14.204 0 .344.14.14.142.14.36 0 .188-.14.344-.14.14-.344.14zm-.343.75h.687v4.078h-.687V63.97zm3.018 4.203q-.453 0-.813-.172-.344-.172-.547-.484-.187-.313-.187-.704 0-.64.484-1 .5-.375 1.235-.375.375 0 .687.079.313.078.484.187v-.25q0-.453-.328-.719-.312-.281-.797-.281-.328 0-.625.156-.296.14-.468.39l-.5-.374q.234-.375.656-.578.422-.203.937-.203.829 0 1.297.437.485.422.485 1.188v2.578h-.657v-.578h-.03q-.173.297-.532.5-.344.203-.781.203zm.062-.594q.344 0 .64-.172.298-.187.47-.484.171-.297.171-.64-.187-.126-.468-.204-.282-.094-.594-.094-.563 0-.844.235-.281.234-.281.609 0 .328.25.547.266.203.656.203zm4.371.531q-.25 0-.469-.078-.203-.078-.359-.219-.312-.296-.312-.843V64.58h-.72v-.61h.72v-1.156h.671v1.157h1v.609h-1v2.234q0 .329.141.485.14.187.438.187.25 0 .437-.14v.656q-.11.062-.234.078-.125.031-.313.031zm2.987.063q-.579 0-1.047-.281-.453-.282-.72-.766-.265-.5-.265-1.11 0-.578.25-1.078.25-.5.703-.796.454-.297 1.032-.297.593 0 1.03.265.454.266.688.735.235.468.235 1.078 0 .094-.016.219h-3.234q.015.453.219.78.203.313.515.485.313.156.64.156.798 0 1.204-.734l.578.281q-.25.485-.719.782-.453.28-1.093.28zm1.187-2.594q-.016-.266-.156-.516-.125-.25-.39-.421-.266-.188-.688-.188-.485 0-.828.313-.329.312-.422.812h2.484zm1.004 2.469zM62.816 72.314h.688v5.735h-.688v-5.735zm2.094.907q-.203 0-.343-.141-.14-.156-.14-.344 0-.218.14-.36.14-.14.343-.14.204 0 .344.14.14.142.14.36 0 .188-.14.344-.14.14-.344.14zm-.343.75h.687v4.078h-.687V73.97zm2.214.609h-.75v-.61h.75v-.437q0-.39.172-.672.187-.297.484-.453.297-.156.656-.156.344 0 .594.094v.672q-.14-.063-.265-.094t-.313-.031q-.25 0-.453.187-.188.188-.188.516v.375h1.047v.609h-1.047v3.469h-.687V74.58zm4.128 3.594q-.578 0-1.047-.281-.453-.282-.719-.766-.266-.5-.266-1.11 0-.578.25-1.078.25-.5.704-.796.453-.297 1.03-.297.595 0 1.032.265.453.266.688.735.234.468.234 1.078 0 .094-.016.219h-3.234q.016.453.219.78.203.313.515.485.313.156.64.156.798 0 1.204-.734l.578.281q-.25.485-.719.782-.453.28-1.093.28zm1.187-2.594q-.015-.266-.156-.516-.125-.25-.39-.421-.266-.188-.688-.188-.485 0-.828.313-.328.312-.422.812h2.484zm2.966 2.594q-.656 0-1.094-.297-.437-.313-.625-.797l.61-.266q.156.36.453.563.297.203.656.203.39 0 .656-.156.282-.156.282-.453 0-.25-.22-.407-.218-.156-.687-.265l-.484-.125q-.5-.125-.813-.406-.296-.297-.296-.75 0-.36.203-.625.218-.266.562-.407.36-.14.766-.14.531 0 .953.234.422.219.594.64l-.594.266q-.266-.531-.969-.531-.328 0-.578.156-.25.157-.25.39 0 .22.172.36.172.14.531.235l.594.156q.594.14.89.453.313.297.313.719 0 .375-.219.672-.218.28-.593.437-.36.14-.813.14zm2.29-4.203h.657v.609h.031q.188-.312.547-.516.375-.218.844-.218.547 0 .984.28.453.282.703.782.266.485.266 1.094 0 .625-.266 1.125-.25.484-.703.766-.437.28-.984.28-.469 0-.844-.202-.36-.22-.547-.516h-.03l.03.547v1.781h-.687v-5.812zm2 3.593q.36 0 .673-.187.312-.203.484-.547.188-.36.188-.828 0-.453-.188-.797-.172-.36-.484-.547-.313-.203-.672-.203-.36 0-.672.203-.297.188-.484.547-.188.344-.188.797 0 .469.188.828.187.344.484.547.312.187.672.187zm4.129.61q-.454 0-.813-.172-.344-.172-.547-.484-.187-.313-.187-.704 0-.64.484-1 .5-.375 1.234-.375.375 0 .688.079.312.078.484.187v-.25q0-.453-.328-.719-.312-.281-.797-.281-.328 0-.625.156-.297.14-.468.39l-.5-.374q.234-.375.656-.578.422-.203.937-.203.828 0 1.297.437.485.422.485 1.188v2.578h-.657v-.578h-.031q-.172.297-.531.5-.344.203-.781.203zm.062-.594q.344 0 .64-.172.298-.187.47-.484.171-.297.171-.64-.187-.126-.468-.204-.282-.094-.594-.094-.563 0-.844.235-.281.234-.281.609 0 .328.25.547.265.203.656.203zm2.873-3.61h.656v.594h.031q.172-.296.532-.5.375-.218.781-.218.734 0 1.125.422.39.421.39 1.171v2.61h-.671v-2.516q0-.562-.282-.812-.265-.266-.75-.266-.328 0-.593.188-.25.187-.39.484-.142.297-.142.625v2.297h-.687V73.97zm4.941 4.126q-.219 0-.375-.141-.14-.156-.14-.375 0-.203.14-.344.156-.156.375-.156t.36.156q.156.14.156.344 0 .219-.157.375-.14.14-.359.14z"/></g></svg>