<svg xmlns="http://www.w3.org/2000/svg" fill="none" stroke-linecap="square" stroke-miterlimit="10" viewBox="0 0 513.911 312.538"><clipPath id="a"><path d="M0 0h513.91v312.538H0V0z"/></clipPath><g clip-path="url(#a)"><path fill="#000" fill-opacity="0" fill-rule="evenodd" d="M0 0h513.91v312.538H0z"/><path fill="#000" fill-opacity="0" fill-rule="evenodd" d="M315.912 271.284H194.705l-.453-.37-.41-.683-.357-.949-.315-1.163-.247-1.423-.179-1.583-.081-1.688-.015-.898V51.417l.015-.9.081-1.737.18-1.583.246-1.373.315-1.213.356-.949.411-.689.453-.314.232-.055h120.975l.234.055.452.314.411.69.357.948.315 1.213.246 1.373.178 1.583.096 1.737V263.425l-.096 1.688-.178 1.583-.246 1.423-.315 1.163-.357.949-.41.684-.453.37h-.234z"/><path fill-rule="evenodd" stroke="#466bb0" stroke-dasharray="1.89 1.417" stroke-linecap="butt" stroke-linejoin="round" stroke-width=".472" d="M315.912 271.284H194.705l-.453-.37-.41-.683-.357-.949-.315-1.163-.247-1.423-.179-1.583-.081-1.688-.015-.898V51.417l.015-.9.081-1.737.18-1.583.246-1.373.315-1.213.356-.949.411-.689.453-.314.232-.055h120.975l.234.055.452.314.411.69.357.948.315 1.213.246 1.373.178 1.583.096 1.737V263.425l-.096 1.688-.178 1.583-.246 1.423-.315 1.163-.357.949-.41.684-.453.37h-.234z"/><path fill="#466bb0" fill-rule="evenodd" d="M199.399 62.968l2.447 1.224 4.041-1.224zM201.846 57.75l-2.447 4.813 2.447-.409V57.75z"/><path fill="#476baf" fill-rule="evenodd" d="M202.255 54.484v7.67l3.632.41-3.632-8.08z"/><path fill="#000" fill-opacity="0" fill-rule="evenodd" d="M467.912 271.284H346.705l-.453-.37-.41-.683-.357-.949-.315-1.163-.247-1.423-.179-1.583-.081-1.688-.015-.898V51.417l.015-.9.081-1.737.18-1.583.246-1.373.315-1.213.356-.949.411-.689.453-.314.232-.055h120.975l.234.055.452.314.411.69.357.948.315 1.213.246 1.373.178 1.583.096 1.737V263.425l-.096 1.688-.178 1.583-.246 1.423-.315 1.163-.357.949-.41.684-.453.37h-.234z"/><path fill-rule="evenodd" stroke="#466bb0" stroke-dasharray="1.89 1.417" stroke-linecap="butt" stroke-linejoin="round" stroke-width=".472" d="M467.912 271.284H346.705l-.453-.37-.41-.683-.357-.949-.315-1.163-.247-1.423-.179-1.583-.081-1.688-.015-.898V51.417l.015-.9.081-1.737.18-1.583.246-1.373.315-1.213.356-.949.411-.689.453-.314.232-.055h120.975l.234.055.452.314.411.69.357.948.315 1.213.246 1.373.178 1.583.096 1.737V263.425l-.096 1.688-.178 1.583-.246 1.423-.315 1.163-.357.949-.41.684-.453.37h-.234z"/><path fill="#466bb0" fill-rule="evenodd" d="M351.399 62.968l2.447 1.224 4.041-1.224zM353.846 57.75l-2.447 4.813 2.447-.409V57.75z"/><path fill="#476baf" fill-rule="evenodd" d="M354.255 54.484v7.67l3.632.41-3.632-8.08z"/><path fill="#000" fill-opacity="0" fill-rule="evenodd" d="M272.252 255.425h-5.739v-5.739h5.74v5.74z"/><path fill-rule="evenodd" stroke="#fff" stroke-linecap="butt" stroke-linejoin="round" stroke-width=".472" d="M272.252 255.425h-5.739v-5.739h5.74v5.74z"/><path fill="#000" fill-opacity="0" fill-rule="evenodd" d="M269.383 249.686v-1.384"/><path fill-rule="evenodd" stroke="#fff" stroke-linecap="round" stroke-miterlimit="105.678" stroke-width=".472" d="M269.383 249.686v-1.384"/><path fill="#000" fill-opacity="0" fill-rule="evenodd" d="M271.179 249.686v-1.384"/><path fill-rule="evenodd" stroke="#fff" stroke-linecap="round" stroke-miterlimit="105.678" stroke-width=".472" d="M271.179 249.686v-1.384"/><path fill="#000" fill-opacity="0" fill-rule="evenodd" d="M248.835 124.501c0 4.583.015 6.874.031 9.166.016 2.291.032 4.582.032 9.165"/><path fill-rule="evenodd" stroke="#008200" stroke-linecap="butt" stroke-linejoin="round" d="M248.835 124.501c0 4.583.015 6.874.031 9.166.008 1.145.016 2.291.022 3.723l.006 2.015"/><path fill="#008200" fill-rule="evenodd" stroke="#008200" stroke-linecap="butt" d="M248.894 139.405l-1.126-1.123 1.128 3.088 1.121-3.09z"/><path fill="#e6e6e6" fill-rule="evenodd" d="M355.063 144.055l-.413.02-.752.15-.582.248-.291.34-.04.189v31.39l.04.19.291.341.582.266.752.152h103.637l.708-.152.582-.266.33-.34v-31.77l-.33-.34-.582-.248-.708-.15-.456-.02z"/><path fill="#fff" fill-rule="evenodd" d="M358.588 148.102l-.347.032-.622.278-.448.449-.278.621-.036.347v20.849l.036.347.278.621.448.485.622.242.347.036h20.848l.347-.036.622-.242.484-.485.278-.621V149.482l-.278-.621-.484-.449-.622-.278-.347-.032z"/><path fill="#000" fill-opacity="0" fill-rule="evenodd" d="M374.977 163.696v-6.881l-5.949-3.426-5.98 3.426v6.88l5.98 3.456 5.949-3.455z"/><path fill-rule="evenodd" stroke="#b14d9d" stroke-linecap="butt" stroke-linejoin="round" stroke-width="1.386" d="M374.977 163.696v-6.881l-5.949-3.426-5.98 3.426v6.88l5.98 3.456 5.949-3.455z"/><path fill="#fff" fill-rule="evenodd" d="M387.518 148.1l-.459.033-.834.278-.599.449-.366.621-.048.347v20.85l.048.347.366.622.599.484.834.242.459.036h65.677l.463-.036.83-.242.646-.484.372-.622V149.481l-.372-.621-.646-.449-.83-.278-.463-.033z"/><path fill="#767576" fill-rule="evenodd" d="M397.383 152.146l-.831.036-1.59.343-1.453.59-1.28.899-1.105 1.106-.864 1.28-.622 1.452-.347 1.59V161.101l.347 1.59.622 1.453.864 1.28 1.105 1.105 1.28.864 1.452.625 1.59.31.832.033.828-.032 1.593-.311 1.45-.625 1.279-.864 1.109-1.106.864-1.28.621-1.452.311-1.59.036-.831-.036-.828-.31-1.59-.622-1.453-.864-1.28-1.11-1.105-1.279-.9-1.45-.589-1.592-.343-.828-.036z"/><path fill="#000" fill-opacity="0" fill-rule="evenodd" d="M400.252 163.07h-5.739v-5.738h5.74v5.739z"/><path fill-rule="evenodd" stroke="#fff" stroke-linecap="butt" stroke-linejoin="round" stroke-width=".472" d="M400.252 163.07h-5.739v-5.738h5.74v5.739z"/><path fill="#000" fill-opacity="0" fill-rule="evenodd" d="M395.55 157.332v-1.384"/><path fill-rule="evenodd" stroke="#fff" stroke-linecap="round" stroke-miterlimit="105.678" stroke-width=".472" d="M395.55 157.332v-1.384"/><path fill="#000" fill-opacity="0" fill-rule="evenodd" d="M397.383 157.332v-1.384"/><path fill-rule="evenodd" stroke="#fff" stroke-linecap="round" stroke-miterlimit="105.678" stroke-width=".472" d="M397.383 157.332v-1.384"/><path fill="#000" fill-opacity="0" fill-rule="evenodd" d="M399.179 157.332v-1.384"/><path fill-rule="evenodd" stroke="#fff" stroke-linecap="round" stroke-miterlimit="105.678" stroke-width=".472" d="M399.179 157.332v-1.384"/><path fill="#000" fill-opacity="0" fill-rule="evenodd" d="M395.55 164.592v-1.38"/><path fill-rule="evenodd" stroke="#fff" stroke-linecap="round" stroke-miterlimit="105.678" stroke-width=".472" d="M395.55 164.592v-1.38"/><path fill="#000" fill-opacity="0" fill-rule="evenodd" d="M397.383 164.592v-1.38"/><path fill-rule="evenodd" stroke="#fff" stroke-linecap="round" stroke-miterlimit="105.678" stroke-width=".472" d="M397.383 164.592v-1.38"/><path fill="#000" fill-opacity="0" fill-rule="evenodd" d="M399.179 164.592v-1.38"/><path fill-rule="evenodd" stroke="#fff" stroke-linecap="round" stroke-miterlimit="105.678" stroke-width=".472" d="M399.179 164.592v-1.38"/><path fill="#000" fill-opacity="0" fill-rule="evenodd" d="M394.445 162.07h-1.384"/><path fill-rule="evenodd" stroke="#fff" stroke-linecap="round" stroke-miterlimit="105.678" stroke-width=".472" d="M394.445 162.07h-1.384"/><path fill="#000" fill-opacity="0" fill-rule="evenodd" d="M394.445 160.27h-1.384"/><path fill-rule="evenodd" stroke="#fff" stroke-linecap="round" stroke-miterlimit="105.678" stroke-width=".472" d="M394.445 160.27h-1.384"/><path fill="#000" fill-opacity="0" fill-rule="evenodd" d="M394.445 158.438h-1.384"/><path fill-rule="evenodd" stroke="#fff" stroke-linecap="round" stroke-miterlimit="105.678" stroke-width=".472" d="M394.445 158.438h-1.384"/><path fill="#000" fill-opacity="0" fill-rule="evenodd" d="M401.705 162.07h-1.384"/><path fill-rule="evenodd" stroke="#fff" stroke-linecap="round" stroke-miterlimit="105.678" stroke-width=".472" d="M401.705 162.07h-1.384"/><path fill="#000" fill-opacity="0" fill-rule="evenodd" d="M401.705 160.27h-1.384"/><path fill-rule="evenodd" stroke="#fff" stroke-linecap="round" stroke-miterlimit="105.678" stroke-width=".472" d="M401.705 160.27h-1.384"/><path fill="#000" fill-opacity="0" fill-rule="evenodd" d="M401.705 158.438h-1.384"/><path fill-rule="evenodd" stroke="#fff" stroke-linecap="round" stroke-miterlimit="105.678" stroke-width=".472" d="M401.705 158.438h-1.384"/><path fill="#fff" fill-rule="evenodd" d="M397.245 158.922l-.242.036-.415.173-.311.311-.174.416v.726l.174.412.31.311.416.173h.727l.412-.173.31-.31.174-.413.036-.242v-.242l-.036-.242-.173-.416-.311-.31-.412-.174-.243-.036z"/><path fill="#000" fill-opacity="0" fill-rule="evenodd" d="M402.157 144.404h88.945v29.418h-88.945z"/><path fill="#000" d="M411.689 162.678v-5.75h.64v.547q.22-.313.5-.469.297-.172.703-.172.532 0 .938.281.406.266.61.766.202.5.202 1.094 0 .64-.234 1.156-.219.5-.656.781-.438.266-.906.266-.36 0-.641-.14-.281-.157-.453-.391v2.031h-.703zm.64-3.64q0 .796.313 1.187.328.375.797.375.468 0 .797-.39.328-.407.328-1.235 0-.797-.328-1.188-.313-.39-.766-.39t-.797.422q-.344.406-.344 1.218zm6.512 1.53q-.39.329-.75.47-.36.14-.781.14-.672 0-1.047-.328-.36-.344-.36-.86 0-.312.126-.562.14-.25.359-.39.234-.157.516-.235.203-.063.625-.11.859-.109 1.25-.25.015-.14.015-.171 0-.438-.203-.61-.266-.234-.797-.234-.5 0-.734.172-.235.172-.36.61l-.687-.095q.094-.437.312-.703.22-.28.625-.422.407-.156.938-.156.531 0 .86.125.343.125.5.328.156.188.218.47.031.187.031.655v.938q0 .969.047 1.234.047.266.172.5h-.734q-.11-.219-.14-.515zm-.062-1.562q-.375.156-1.141.266-.438.062-.625.14-.172.078-.266.235-.093.14-.093.328 0 .281.203.469.218.187.625.187.406 0 .718-.172.329-.187.47-.5.109-.234.109-.703v-.25zm1.777 3.672l-.078-.656q.234.062.406.062.234 0 .375-.078.14-.078.219-.219.078-.109.219-.515.015-.063.062-.172l-1.578-4.172h.766l.859 2.406q.172.453.297.969.125-.484.297-.953l.89-2.422h.703l-1.578 4.234q-.265.672-.406.938-.187.344-.437.5-.235.172-.563.172-.203 0-.453-.094zm4.031-1.594v-4.156h.625v.594q.203-.313.516-.5.328-.188.75-.188.453 0 .75.203.297.188.422.532.484-.735 1.28-.735.61 0 .938.344.344.344.344 1.062v2.844h-.703v-2.61q0-.421-.078-.609-.063-.187-.25-.296-.172-.125-.406-.125-.438 0-.735.296-.281.297-.281.938v2.406h-.703v-2.703q0-.469-.172-.703-.172-.234-.562-.234-.297 0-.563.156-.25.156-.36.469-.109.296-.109.859v2.156h-.703zm9.508-1.344l.719.094q-.172.64-.64 1-.454.344-1.188.344-.907 0-1.438-.563-.531-.562-.531-1.578 0-1.047.531-1.625.547-.578 1.406-.578.828 0 1.36.578.531.563.531 1.594 0 .063-.016.188h-3.093q.046.671.39 1.046.344.36.875.36.375 0 .64-.203.282-.203.454-.657zm-2.313-1.125h2.313q-.047-.53-.266-.796-.328-.407-.875-.407-.484 0-.812.328-.328.329-.36.875zm3.918 2.47v-4.157h.625v.594q.47-.688 1.329-.688.375 0 .687.14.313.141.469.36.156.219.219.516.046.187.046.687v2.547h-.703v-2.531q0-.422-.093-.625-.079-.219-.297-.344-.203-.14-.485-.14-.437 0-.765.296-.328.282-.328 1.079v2.265h-.704zm5.98-.626l.11.61q-.297.078-.531.078-.39 0-.61-.125-.202-.125-.296-.313-.078-.203-.078-.844v-2.39h-.516v-.547h.516v-1.016l.703-.422v1.438h.703v.547h-.703v2.437q0 .297.031.391.047.078.125.125t.234.047q.125 0 .313-.016zm.411-.61l.688-.109q.062.407.328.641.265.219.75.219.484 0 .718-.188.235-.203.235-.468 0-.25-.203-.375-.14-.094-.72-.25-.78-.188-1.077-.329-.297-.14-.453-.39-.157-.266-.157-.563 0-.28.125-.515.141-.235.36-.39.156-.126.437-.204.282-.094.61-.094.484 0 .86.14.374.141.546.391.172.235.234.641l-.687.094q-.047-.328-.266-.5-.219-.188-.64-.188-.485 0-.688.172-.203.156-.203.375 0 .125.078.235.094.125.281.187.094.047.61.188.75.203 1.047.328.296.125.453.375.172.234.172.593 0 .344-.204.657-.203.312-.593.484-.375.172-.875.172-.797 0-1.235-.328-.422-.344-.53-1z"/><path fill="#000" fill-opacity="0" fill-rule="evenodd" d="M211.55 36.592v-1.38"/><path fill-rule="evenodd" stroke="#fff" stroke-linecap="round" stroke-miterlimit="105.678" stroke-width=".472" d="M211.55 36.592v-1.38"/><path fill="#000" fill-opacity="0" fill-rule="evenodd" d="M213.383 36.592v-1.38"/><path fill-rule="evenodd" stroke="#fff" stroke-linecap="round" stroke-miterlimit="105.678" stroke-width=".472" d="M213.383 36.592v-1.38"/><path fill="#000" fill-opacity="0" fill-rule="evenodd" d="M215.179 36.592v-1.38"/><path fill-rule="evenodd" stroke="#fff" stroke-linecap="round" stroke-miterlimit="105.678" stroke-width=".472" d="M215.179 36.592v-1.38"/><path fill="#000" fill-opacity="0" fill-rule="evenodd" d="M210.445 34.07h-1.384"/><path fill-rule="evenodd" stroke="#fff" stroke-linecap="round" stroke-miterlimit="105.678" stroke-width=".472" d="M210.445 34.07h-1.384"/><path fill="#000" fill-opacity="0" fill-rule="evenodd" d="M217.705 34.07h-1.384"/><path fill-rule="evenodd" stroke="#fff" stroke-linecap="round" stroke-miterlimit="105.678" stroke-width=".472" d="M217.705 34.07h-1.384"/><path fill="#000" fill-opacity="0" fill-rule="evenodd" d="M162.715 271.284H42.685l-.448-.37-.407-.683-.354-.949-.312-1.163-.244-1.423-.177-1.583-.08-1.688-.015-.898V51.417l.014-.9.081-1.737.177-1.583.244-1.373.312-1.213.354-.949.407-.689.448-.314.23-.055h119.8l.23.055.449.314.407.69.353.948.312 1.213.244 1.373.176 1.583.095 1.737V263.425l-.095 1.688-.176 1.583-.244 1.423-.312 1.163-.353.949-.407.684-.448.37h-.231z"/><path fill-rule="evenodd" stroke="#466bb0" stroke-dasharray="1.89 1.417" stroke-linecap="butt" stroke-linejoin="round" stroke-width=".472" d="M162.715 271.284H42.685l-.448-.37-.407-.683-.354-.949-.312-1.163-.244-1.423-.177-1.583-.08-1.688-.015-.898V51.417l.014-.9.081-1.737.177-1.583.244-1.373.312-1.213.354-.949.407-.689.448-.314.23-.055h119.8l.23.055.449.314.407.69.353.948.312 1.213.244 1.373.176 1.583.095 1.737V263.425l-.095 1.688-.176 1.583-.244 1.423-.312 1.163-.353.949-.407.684-.448.37h-.231z"/><path fill="#466bb0" fill-rule="evenodd" d="M47.399 62.968l2.447 1.224 4.041-1.224zM49.846 57.75l-2.447 4.813 2.447-.409V57.75z"/><path fill="#476baf" fill-rule="evenodd" d="M50.255 54.484v7.67l3.632.41-3.632-8.08z"/><path fill="#e6e6e6" fill-rule="evenodd" d="M203.063 144.055l-.413.02-.752.15-.582.248-.291.34-.04.189v31.39l.04.19.291.341.582.266.752.152h103.637l.708-.152.582-.266.33-.34v-31.77l-.33-.34-.582-.248-.708-.15-.456-.02z"/><path fill="#fff" fill-rule="evenodd" d="M206.588 148.102l-.347.032-.622.278-.448.449-.278.621-.036.347v20.849l.036.347.278.621.448.485.622.242.347.036h20.848l.347-.036.622-.242.484-.485.278-.621V149.482l-.278-.621-.484-.449-.622-.278-.347-.032z"/><path fill="#000" fill-opacity="0" fill-rule="evenodd" d="M222.977 163.696v-6.881l-5.949-3.426-5.98 3.426v6.88l5.98 3.456 5.949-3.455z"/><path fill-rule="evenodd" stroke="#b14d9d" stroke-linecap="butt" stroke-linejoin="round" stroke-width="1.386" d="M222.977 163.696v-6.881l-5.949-3.426-5.98 3.426v6.88l5.98 3.456 5.949-3.455z"/><path fill="#fff" fill-rule="evenodd" d="M235.518 148.1l-.459.033-.834.278-.599.449-.366.621-.048.347v20.85l.048.347.366.622.599.484.834.242.459.036h65.677l.463-.036.83-.242.646-.484.372-.622V149.481l-.372-.621-.646-.449-.83-.278-.463-.033z"/><path fill="#767576" fill-rule="evenodd" d="M245.383 152.146l-.831.036-1.59.343-1.453.59-1.28.899-1.105 1.106-.864 1.28-.622 1.452-.347 1.59V161.101l.347 1.59.622 1.453.864 1.28 1.105 1.105 1.28.864 1.453.625 1.59.31.83.033.829-.032 1.593-.311 1.45-.625 1.279-.864 1.109-1.106.864-1.28.621-1.452.311-1.59.036-.831-.036-.828-.31-1.59-.622-1.453-.864-1.28-1.11-1.105-1.279-.9-1.45-.589-1.592-.343-.828-.036z"/><path fill="#000" fill-opacity="0" fill-rule="evenodd" d="M248.252 163.07h-5.739v-5.738h5.74v5.739z"/><path fill-rule="evenodd" stroke="#fff" stroke-linecap="butt" stroke-linejoin="round" stroke-width=".472" d="M248.252 163.07h-5.739v-5.738h5.74v5.739z"/><path fill="#000" fill-opacity="0" fill-rule="evenodd" d="M243.55 157.332v-1.384"/><path fill-rule="evenodd" stroke="#fff" stroke-linecap="round" stroke-miterlimit="105.678" stroke-width=".472" d="M243.55 157.332v-1.384"/><path fill="#000" fill-opacity="0" fill-rule="evenodd" d="M245.383 157.332v-1.384"/><path fill-rule="evenodd" stroke="#fff" stroke-linecap="round" stroke-miterlimit="105.678" stroke-width=".472" d="M245.383 157.332v-1.384"/><path fill="#000" fill-opacity="0" fill-rule="evenodd" d="M247.179 157.332v-1.384"/><path fill-rule="evenodd" stroke="#fff" stroke-linecap="round" stroke-miterlimit="105.678" stroke-width=".472" d="M247.179 157.332v-1.384"/><path fill="#000" fill-opacity="0" fill-rule="evenodd" d="M243.55 164.592v-1.38"/><path fill-rule="evenodd" stroke="#fff" stroke-linecap="round" stroke-miterlimit="105.678" stroke-width=".472" d="M243.55 164.592v-1.38"/><path fill="#000" fill-opacity="0" fill-rule="evenodd" d="M245.383 164.592v-1.38"/><path fill-rule="evenodd" stroke="#fff" stroke-linecap="round" stroke-miterlimit="105.678" stroke-width=".472" d="M245.383 164.592v-1.38"/><path fill="#000" fill-opacity="0" fill-rule="evenodd" d="M247.179 164.592v-1.38"/><path fill-rule="evenodd" stroke="#fff" stroke-linecap="round" stroke-miterlimit="105.678" stroke-width=".472" d="M247.179 164.592v-1.38"/><path fill="#000" fill-opacity="0" fill-rule="evenodd" d="M242.445 162.07h-1.384"/><path fill-rule="evenodd" stroke="#fff" stroke-linecap="round" stroke-miterlimit="105.678" stroke-width=".472" d="M242.445 162.07h-1.384"/><path fill="#000" fill-opacity="0" fill-rule="evenodd" d="M242.445 160.27h-1.384"/><path fill-rule="evenodd" stroke="#fff" stroke-linecap="round" stroke-miterlimit="105.678" stroke-width=".472" d="M242.445 160.27h-1.384"/><path fill="#000" fill-opacity="0" fill-rule="evenodd" d="M242.445 158.438h-1.384"/><path fill-rule="evenodd" stroke="#fff" stroke-linecap="round" stroke-miterlimit="105.678" stroke-width=".472" d="M242.445 158.438h-1.384"/><path fill="#000" fill-opacity="0" fill-rule="evenodd" d="M249.705 162.07h-1.384"/><path fill-rule="evenodd" stroke="#fff" stroke-linecap="round" stroke-miterlimit="105.678" stroke-width=".472" d="M249.705 162.07h-1.384"/><path fill="#000" fill-opacity="0" fill-rule="evenodd" d="M249.705 160.27h-1.384"/><path fill-rule="evenodd" stroke="#fff" stroke-linecap="round" stroke-miterlimit="105.678" stroke-width=".472" d="M249.705 160.27h-1.384"/><path fill="#000" fill-opacity="0" fill-rule="evenodd" d="M249.705 158.438h-1.384"/><path fill-rule="evenodd" stroke="#fff" stroke-linecap="round" stroke-miterlimit="105.678" stroke-width=".472" d="M249.705 158.438h-1.384"/><path fill="#fff" fill-rule="evenodd" d="M245.245 158.922l-.242.036-.415.173-.311.311-.174.416v.726l.174.412.31.311.416.173h.727l.412-.173.31-.31.174-.413.036-.242v-.242l-.036-.242-.173-.416-.311-.31-.412-.174-.243-.036z"/><path fill="#000" fill-opacity="0" fill-rule="evenodd" d="M250.157 144.404h88.945v33.292h-88.945z"/><path fill="#000" d="M259.689 162.678v-5.75h.64v.547q.22-.313.5-.469.297-.172.703-.172.532 0 .938.281.406.266.61.766.202.5.202 1.094 0 .64-.234 1.156-.219.5-.656.781-.438.266-.906.266-.36 0-.641-.14-.281-.157-.453-.391v2.031h-.703zm.64-3.64q0 .796.313 1.187.328.375.797.375.468 0 .797-.39.328-.407.328-1.235 0-.797-.328-1.188-.313-.39-.766-.39t-.797.422q-.344.406-.344 1.218zm6.512 1.53q-.39.329-.75.47-.36.14-.781.14-.672 0-1.047-.328-.36-.344-.36-.86 0-.312.126-.562.14-.25.359-.39.234-.157.516-.235.203-.063.625-.11.859-.109 1.25-.25.015-.14.015-.171 0-.438-.203-.61-.266-.234-.797-.234-.5 0-.734.172-.235.172-.36.61l-.687-.095q.094-.437.312-.703.22-.28.625-.422.407-.156.938-.156.531 0 .86.125.343.125.5.328.156.188.218.47.031.187.031.655v.938q0 .969.047 1.234.047.266.172.5h-.734q-.11-.219-.14-.515zm-.062-1.562q-.375.156-1.141.266-.438.062-.625.14-.172.078-.266.235-.093.14-.093.328 0 .281.203.469.218.187.625.187.406 0 .718-.172.329-.187.47-.5.109-.234.109-.703v-.25zm1.777 3.672l-.078-.656q.234.062.406.062.234 0 .375-.078.14-.078.219-.219.078-.109.219-.515.015-.063.062-.172l-1.578-4.172h.766l.859 2.406q.172.453.297.969.125-.484.297-.953l.89-2.422h.703l-1.578 4.234q-.265.672-.406.938-.187.344-.437.5-.235.172-.563.172-.203 0-.453-.094zm4.031-1.594v-4.156h.625v.594q.203-.313.516-.5.328-.188.75-.188.453 0 .75.203.297.188.422.532.484-.735 1.28-.735.61 0 .938.344.344.344.344 1.062v2.844h-.703v-2.61q0-.421-.078-.609-.063-.187-.25-.296-.172-.125-.406-.125-.438 0-.735.296-.281.297-.281.938v2.406h-.703v-2.703q0-.469-.172-.703-.172-.234-.562-.234-.297 0-.563.156-.25.156-.36.469-.109.296-.109.859v2.156h-.703zm9.508-1.344l.719.094q-.172.64-.64 1-.454.344-1.188.344-.907 0-1.438-.563-.531-.562-.531-1.578 0-1.047.531-1.625.547-.578 1.406-.578.828 0 1.36.578.531.563.531 1.594 0 .063-.016.188h-3.093q.046.671.39 1.046.344.36.875.36.375 0 .64-.203.282-.203.454-.657zm-2.313-1.125h2.313q-.047-.53-.266-.796-.328-.407-.875-.407-.484 0-.812.328-.328.329-.36.875zm3.918 2.47v-4.157h.625v.594q.47-.688 1.329-.688.375 0 .687.14.313.141.469.36.156.219.219.516.046.187.046.687v2.547h-.703v-2.531q0-.422-.093-.625-.079-.219-.297-.344-.203-.14-.485-.14-.437 0-.765.296-.328.282-.328 1.079v2.265h-.704zm5.98-.626l.11.61q-.297.078-.531.078-.39 0-.61-.125-.202-.125-.296-.313-.078-.203-.078-.844v-2.39h-.516v-.547h.516v-1.016l.703-.422v1.438h.703v.547h-.703v2.437q0 .297.031.391.047.078.125.125t.234.047q.125 0 .313-.016zm.411-.61l.688-.109q.062.407.328.641.265.219.75.219.484 0 .718-.188.235-.203.235-.468 0-.25-.203-.375-.14-.094-.72-.25-.78-.188-1.077-.329-.297-.14-.453-.39-.157-.266-.157-.563 0-.28.125-.515.141-.235.36-.39.156-.126.437-.204.282-.094.61-.094.484 0 .86.14.374.141.546.391.172.235.234.641l-.687.094q-.047-.328-.266-.5-.219-.188-.64-.188-.485 0-.688.172-.203.156-.203.375 0 .125.078.235.094.125.281.187.094.047.61.188.75.203 1.047.328.296.125.453.375.172.234.172.593 0 .344-.204.657-.203.312-.593.484-.375.172-.875.172-.797 0-1.235-.328-.422-.344-.53-1z"/><path fill="#e6e6e6" fill-rule="evenodd" d="M51.063 144.055l-.413.02-.752.15-.582.248-.291.34-.04.189v31.39l.04.19.291.341.582.266.752.152h103.637l.708-.152.582-.266.33-.34v-31.77l-.33-.34-.582-.248-.708-.15-.456-.02z"/><path fill="#fff" fill-rule="evenodd" d="M54.588 148.102l-.347.032-.622.278-.448.449-.278.621-.036.347v20.849l.036.347.278.621.448.485.622.242.347.036h20.848l.347-.036.622-.242.484-.485.278-.621V149.482l-.278-.621-.484-.449-.622-.278-.347-.032z"/><path fill="#000" fill-opacity="0" fill-rule="evenodd" d="M70.977 163.696v-6.881l-5.949-3.426-5.98 3.426v6.88l5.98 3.456 5.949-3.455z"/><path fill-rule="evenodd" stroke="#b14d9d" stroke-linecap="butt" stroke-linejoin="round" stroke-width="1.386" d="M70.977 163.696v-6.881l-5.949-3.426-5.98 3.426v6.88l5.98 3.456 5.949-3.455z"/><path fill="#fff" fill-rule="evenodd" d="M83.518 148.1l-.459.033-.834.278-.599.449-.366.621-.048.347v20.85l.048.347.366.622.599.484.834.242.459.036h65.677l.463-.036.83-.242.646-.484.372-.622V149.481l-.372-.621-.646-.449-.83-.278-.463-.033z"/><path fill="#767576" fill-rule="evenodd" d="M93.383 152.146l-.831.036-1.59.343-1.453.59-1.28.899-1.105 1.106-.864 1.28-.622 1.452-.347 1.59V161.101l.347 1.59.622 1.453.864 1.28 1.105 1.105 1.28.864 1.452.625 1.59.31.832.033.828-.032 1.593-.311 1.45-.625 1.279-.864 1.109-1.106.864-1.28.621-1.452.311-1.59.036-.831-.036-.828-.31-1.59-.622-1.453-.864-1.28-1.11-1.105-1.279-.9-1.45-.589-1.592-.343-.828-.036z"/><path fill="#000" fill-opacity="0" fill-rule="evenodd" d="M96.252 163.07h-5.739v-5.738h5.74v5.739z"/><path fill-rule="evenodd" stroke="#fff" stroke-linecap="butt" stroke-linejoin="round" stroke-width=".472" d="M96.252 163.07h-5.739v-5.738h5.74v5.739z"/><path fill="#000" fill-opacity="0" fill-rule="evenodd" d="M91.55 157.332v-1.384"/><path fill-rule="evenodd" stroke="#fff" stroke-linecap="round" stroke-miterlimit="105.678" stroke-width=".472" d="M91.55 157.332v-1.384"/><path fill="#000" fill-opacity="0" fill-rule="evenodd" d="M93.383 157.332v-1.384"/><path fill-rule="evenodd" stroke="#fff" stroke-linecap="round" stroke-miterlimit="105.678" stroke-width=".472" d="M93.383 157.332v-1.384"/><path fill="#000" fill-opacity="0" fill-rule="evenodd" d="M95.179 157.332v-1.384"/><path fill-rule="evenodd" stroke="#fff" stroke-linecap="round" stroke-miterlimit="105.678" stroke-width=".472" d="M95.179 157.332v-1.384"/><path fill="#000" fill-opacity="0" fill-rule="evenodd" d="M91.55 164.592v-1.38"/><path fill-rule="evenodd" stroke="#fff" stroke-linecap="round" stroke-miterlimit="105.678" stroke-width=".472" d="M91.55 164.592v-1.38"/><path fill="#000" fill-opacity="0" fill-rule="evenodd" d="M93.383 164.592v-1.38"/><path fill-rule="evenodd" stroke="#fff" stroke-linecap="round" stroke-miterlimit="105.678" stroke-width=".472" d="M93.383 164.592v-1.38"/><path fill="#000" fill-opacity="0" fill-rule="evenodd" d="M95.179 164.592v-1.38"/><path fill-rule="evenodd" stroke="#fff" stroke-linecap="round" stroke-miterlimit="105.678" stroke-width=".472" d="M95.179 164.592v-1.38"/><path fill="#000" fill-opacity="0" fill-rule="evenodd" d="M90.445 162.07H89.06"/><path fill-rule="evenodd" stroke="#fff" stroke-linecap="round" stroke-miterlimit="105.678" stroke-width=".472" d="M90.445 162.07H89.06"/><path fill="#000" fill-opacity="0" fill-rule="evenodd" d="M90.445 160.27H89.06"/><path fill-rule="evenodd" stroke="#fff" stroke-linecap="round" stroke-miterlimit="105.678" stroke-width=".472" d="M90.445 160.27H89.06"/><path fill="#000" fill-opacity="0" fill-rule="evenodd" d="M90.445 158.438H89.06"/><path fill-rule="evenodd" stroke="#fff" stroke-linecap="round" stroke-miterlimit="105.678" stroke-width=".472" d="M90.445 158.438H89.06"/><path fill="#000" fill-opacity="0" fill-rule="evenodd" d="M97.705 162.07H96.32"/><path fill-rule="evenodd" stroke="#fff" stroke-linecap="round" stroke-miterlimit="105.678" stroke-width=".472" d="M97.705 162.07H96.32"/><path fill="#000" fill-opacity="0" fill-rule="evenodd" d="M97.705 160.27H96.32"/><path fill-rule="evenodd" stroke="#fff" stroke-linecap="round" stroke-miterlimit="105.678" stroke-width=".472" d="M97.705 160.27H96.32"/><path fill="#000" fill-opacity="0" fill-rule="evenodd" d="M97.705 158.438H96.32"/><path fill-rule="evenodd" stroke="#fff" stroke-linecap="round" stroke-miterlimit="105.678" stroke-width=".472" d="M97.705 158.438H96.32"/><path fill="#fff" fill-rule="evenodd" d="M93.245 158.922l-.242.036-.415.173-.311.311-.174.416v.726l.174.412.31.311.416.173h.727l.412-.173.31-.31.174-.413.036-.242v-.242l-.036-.242-.173-.416-.311-.31-.412-.174-.243-.036z"/><path fill="#000" fill-opacity="0" fill-rule="evenodd" d="M98.157 144.404h88.945v29.418H98.157z"/><path fill="#000" d="M107.423 159.006q0-1.156.64-1.703.532-.469 1.313-.469.844 0 1.39.563.548.562.548 1.547 0 .812-.25 1.265-.235.453-.703.719-.454.25-.985.25-.875 0-1.422-.563-.53-.562-.53-1.609zm.719 0q0 .797.344 1.203.359.39.89.39.516 0 .86-.39.359-.406.359-1.219 0-.78-.36-1.171-.343-.391-.859-.391-.531 0-.89.39-.344.391-.344 1.188zm3.98 2.078v-4.156h.64v.64q.235-.453.438-.593.22-.14.454-.14.359 0 .734.234l-.25.656q-.25-.156-.516-.156-.234 0-.422.14-.171.14-.25.375-.125.375-.125.828v2.172h-.703zm5.368 0v-.531q-.391.625-1.157.625-.5 0-.922-.266-.406-.28-.64-.765-.219-.5-.219-1.14 0-.61.203-1.11.203-.516.61-.782.421-.28.937-.28.375 0 .656.171.297.156.485.406v-2.062h.703v5.734h-.656zm-2.22-2.078q0 .797.329 1.203.344.39.797.39.469 0 .781-.374.328-.375.328-1.156 0-.844-.328-1.235-.328-.406-.812-.406-.47 0-.782.39-.312.376-.312 1.188zm6.825.734l.719.094q-.172.64-.64 1-.454.344-1.188.344-.907 0-1.438-.563-.531-.562-.531-1.578 0-1.047.531-1.625.547-.578 1.406-.578.828 0 1.36.578.531.563.531 1.594 0 .063-.016.188h-3.093q.046.671.39 1.046.344.36.875.36.375 0 .64-.203.282-.203.454-.657zm-2.313-1.125h2.313q-.047-.53-.266-.796-.328-.407-.875-.407-.484 0-.812.328-.328.329-.36.875zm3.903 2.47v-4.157h.64v.64q.235-.453.438-.593.219-.14.453-.14.36 0 .734.234l-.25.656q-.25-.156-.515-.156-.235 0-.422.14-.172.14-.25.375-.125.375-.125.828v2.172h-.703zm2.398-1.235l.688-.11q.062.407.328.641.266.219.75.219t.719-.188q.234-.203.234-.468 0-.25-.203-.375-.14-.094-.719-.25-.781-.188-1.078-.329-.297-.14-.453-.39-.156-.266-.156-.563 0-.28.125-.515.14-.235.359-.39.156-.126.438-.204.28-.094.609-.094.484 0 .86.14.374.141.546.391.172.235.235.641l-.688.094q-.047-.328-.266-.5-.218-.188-.64-.188-.485 0-.688.172-.203.156-.203.375 0 .125.078.235.094.125.282.187.093.047.609.188.75.203 1.047.328.297.125.453.375.172.234.172.593 0 .344-.203.657-.203.312-.594.484-.375.172-.875.172-.797 0-1.234-.328-.422-.344-.532-1z"/><path fill="#e6e6e6" fill-rule="evenodd" d="M203.063 88.055l-.413.02-.752.15-.582.248-.291.34-.04.189v31.39l.04.19.291.341.582.266.752.152h103.637l.708-.152.582-.266.33-.34v-31.77l-.33-.34-.582-.248-.708-.15-.456-.02z"/><path fill="#fff" fill-rule="evenodd" d="M206.588 92.102l-.347.032-.622.278-.448.449-.278.621-.036.347v20.849l.036.347.278.621.448.485.622.242.347.036h20.848l.347-.036.622-.242.484-.485.278-.621V93.482l-.278-.621-.484-.449-.622-.278-.347-.032z"/><path fill="#000" fill-opacity="0" fill-rule="evenodd" d="M222.977 107.696v-6.881l-5.949-3.426-5.98 3.426v6.88l5.98 3.456 5.949-3.455z"/><path fill-rule="evenodd" stroke="#b14d9d" stroke-linecap="butt" stroke-linejoin="round" stroke-width="1.386" d="M222.977 107.696v-6.881l-5.949-3.426-5.98 3.426v6.88l5.98 3.456 5.949-3.455z"/><path fill="#fff" fill-rule="evenodd" d="M235.518 92.1l-.459.033-.834.278-.599.449-.366.621-.048.347v20.85l.048.347.366.622.599.484.834.242.459.036h65.677l.463-.036.83-.242.646-.484.372-.622V93.481l-.372-.621-.646-.449-.83-.278-.463-.033z"/><path fill="#767576" fill-rule="evenodd" d="M245.383 96.146l-.831.036-1.59.343-1.453.59-1.28.899-1.105 1.106-.864 1.28-.622 1.452-.347 1.59v1.658l.347 1.591.622 1.453.864 1.28 1.105 1.105 1.28.864 1.453.625 1.59.31.83.033.829-.032 1.593-.311 1.45-.625 1.279-.864 1.109-1.106.864-1.28.621-1.452.311-1.59.036-.831-.036-.828-.31-1.59-.622-1.453-.864-1.28-1.11-1.105-1.279-.9-1.45-.589-1.592-.343-.828-.036z"/><path fill="#000" fill-opacity="0" fill-rule="evenodd" d="M248.252 107.07h-5.739v-5.738h5.74v5.739z"/><path fill-rule="evenodd" stroke="#fff" stroke-linecap="butt" stroke-linejoin="round" stroke-width=".472" d="M248.252 107.07h-5.739v-5.738h5.74v5.739z"/><path fill="#000" fill-opacity="0" fill-rule="evenodd" d="M243.55 101.332v-1.384"/><path fill-rule="evenodd" stroke="#fff" stroke-linecap="round" stroke-miterlimit="105.678" stroke-width=".472" d="M243.55 101.332v-1.384"/><path fill="#000" fill-opacity="0" fill-rule="evenodd" d="M245.383 101.332v-1.384"/><path fill-rule="evenodd" stroke="#fff" stroke-linecap="round" stroke-miterlimit="105.678" stroke-width=".472" d="M245.383 101.332v-1.384"/><path fill="#000" fill-opacity="0" fill-rule="evenodd" d="M247.179 101.332v-1.384"/><path fill-rule="evenodd" stroke="#fff" stroke-linecap="round" stroke-miterlimit="105.678" stroke-width=".472" d="M247.179 101.332v-1.384"/><path fill="#000" fill-opacity="0" fill-rule="evenodd" d="M243.55 108.592v-1.38"/><path fill-rule="evenodd" stroke="#fff" stroke-linecap="round" stroke-miterlimit="105.678" stroke-width=".472" d="M243.55 108.592v-1.38"/><path fill="#000" fill-opacity="0" fill-rule="evenodd" d="M245.383 108.592v-1.38"/><path fill-rule="evenodd" stroke="#fff" stroke-linecap="round" stroke-miterlimit="105.678" stroke-width=".472" d="M245.383 108.592v-1.38"/><path fill="#000" fill-opacity="0" fill-rule="evenodd" d="M247.179 108.592v-1.38"/><path fill-rule="evenodd" stroke="#fff" stroke-linecap="round" stroke-miterlimit="105.678" stroke-width=".472" d="M247.179 108.592v-1.38"/><path fill="#000" fill-opacity="0" fill-rule="evenodd" d="M242.445 106.07h-1.384"/><path fill-rule="evenodd" stroke="#fff" stroke-linecap="round" stroke-miterlimit="105.678" stroke-width=".472" d="M242.445 106.07h-1.384"/><path fill="#000" fill-opacity="0" fill-rule="evenodd" d="M242.445 104.27h-1.384"/><path fill-rule="evenodd" stroke="#fff" stroke-linecap="round" stroke-miterlimit="105.678" stroke-width=".472" d="M242.445 104.27h-1.384"/><path fill="#000" fill-opacity="0" fill-rule="evenodd" d="M242.445 102.438h-1.384"/><path fill-rule="evenodd" stroke="#fff" stroke-linecap="round" stroke-miterlimit="105.678" stroke-width=".472" d="M242.445 102.438h-1.384"/><path fill="#000" fill-opacity="0" fill-rule="evenodd" d="M249.705 106.07h-1.384"/><path fill-rule="evenodd" stroke="#fff" stroke-linecap="round" stroke-miterlimit="105.678" stroke-width=".472" d="M249.705 106.07h-1.384"/><path fill="#000" fill-opacity="0" fill-rule="evenodd" d="M249.705 104.27h-1.384"/><path fill-rule="evenodd" stroke="#fff" stroke-linecap="round" stroke-miterlimit="105.678" stroke-width=".472" d="M249.705 104.27h-1.384"/><path fill="#000" fill-opacity="0" fill-rule="evenodd" d="M249.705 102.438h-1.384"/><path fill-rule="evenodd" stroke="#fff" stroke-linecap="round" stroke-miterlimit="105.678" stroke-width=".472" d="M249.705 102.438h-1.384"/><path fill="#fff" fill-rule="evenodd" d="M245.245 102.922l-.242.036-.415.173-.311.311-.174.416v.726l.174.412.31.311.416.173h.727l.412-.173.31-.31.174-.413.036-.242v-.242l-.036-.242-.173-.416-.311-.31-.412-.174-.243-.036z"/><path fill="#000" fill-opacity="0" fill-rule="evenodd" d="M250.157 88.404h88.945v33.292h-88.945z"/><path fill="#000" d="M259.673 105.084v-4.156h.64v.64q.235-.453.438-.593.219-.14.453-.14.36 0 .735.234l-.25.656q-.25-.156-.516-.156-.234 0-.422.14-.172.14-.25.375-.125.375-.125.828v2.172h-.703zm5.524-1.344l.718.094q-.172.64-.64 1-.453.344-1.188.344-.906 0-1.437-.563-.532-.562-.532-1.578 0-1.047.532-1.625.547-.578 1.406-.578.828 0 1.36.578.53.563.53 1.594 0 .063-.015.188h-3.094q.047.671.39 1.046.345.36.876.36.375 0 .64-.203.282-.203.454-.657zm-2.313-1.125h2.313q-.047-.53-.266-.796-.328-.407-.875-.407-.484 0-.813.328-.328.329-.359.875zm3.918 4.063v-5.75h.64v.547q.22-.313.5-.469.298-.172.704-.172.531 0 .937.281.407.266.61.766t.203 1.094q0 .64-.235 1.156-.218.5-.656.781-.437.266-.906.266-.36 0-.64-.14-.282-.157-.454-.391v2.03h-.703zm.64-3.64q0 .796.313 1.187.328.375.797.375.469 0 .797-.39.328-.407.328-1.235 0-.797-.328-1.188-.313-.39-.766-.39t-.797.422q-.343.406-.343 1.218zm3.544-.032q0-1.156.64-1.703.531-.469 1.313-.469.843 0 1.39.563.547.562.547 1.547 0 .812-.25 1.265-.234.453-.703.719-.453.25-.984.25-.875 0-1.422-.563-.531-.562-.531-1.609zm.718 0q0 .797.344 1.203.36.39.89.39.516 0 .86-.39.36-.406.36-1.219 0-.78-.36-1.171-.344-.391-.86-.391-.53 0-.89.39-.344.391-.344 1.188zm3.98 2.078v-4.156h.641v.64q.235-.453.438-.593.219-.14.453-.14.36 0 .734.234l-.25.656q-.25-.156-.515-.156-.235 0-.422.14-.172.14-.25.375-.125.375-.125.828v2.172h-.703zm4.212-.625l.11.61q-.298.078-.532.078-.39 0-.61-.125-.203-.125-.296-.313-.078-.203-.078-.844v-2.39h-.516v-.547h.516v-1.016l.703-.422v1.438h.703v.547h-.703v2.437q0 .297.03.39.048.08.126.126.078.047.234.047.125 0 .313-.016zm.41-.61l.687-.109q.063.407.329.641.265.219.75.219.484 0 .718-.188.235-.203.235-.468 0-.25-.203-.375-.141-.094-.72-.25-.78-.188-1.077-.329-.297-.14-.453-.39-.157-.266-.157-.563 0-.28.125-.515.14-.235.36-.39.156-.126.437-.204.281-.094.61-.094.484 0 .859.14.375.141.547.391.172.235.234.641l-.687.094q-.047-.328-.266-.5-.219-.188-.64-.188-.485 0-.688.172-.203.156-.203.375 0 .125.078.235.094.125.281.187.094.047.61.188.75.203 1.046.328.297.125.454.375.171.234.171.593 0 .344-.203.657-.203.312-.593.484-.375.172-.875.172-.797 0-1.235-.328-.422-.344-.531-1z"/><path fill="#e6e6e6" fill-rule="evenodd" d="M193.71 195.305l-.346.036-.622.275-.484.451-.242.622-.033.343v45.16l.033.346.242.622.484.484.622.242.346.033h45.16l.343-.033.622-.242.451-.484.275-.622.036-.347v-45.159l-.036-.343-.275-.622-.451-.451-.622-.275-.344-.036z"/><path fill="#fff" fill-rule="evenodd" d="M197.755 227.703l-.344.036-.622.275-.484.452-.242.621-.036.347v8.713l.036.344.242.625.484.448.622.275.344.036h37.034l.38-.036.586-.275.484-.448.278-.625V229.087l-.278-.621-.484-.452-.586-.275-.38-.036z"/><path fill="#000" fill-rule="evenodd" d="M206.641 230.782v4.496h.52v-4.496zM209.72 232.026l-.38.036-.553.31-.173.311-.036-.589h-.484l.036.52V235.279h.517v-1.8l.036-.415.206-.311.14-.137.38-.138h.206l.347.033.347.415.033.38v1.973h.52v-2.006l-.036-.278-.138-.484-.278-.311-.415-.137-.275-.036zM213.178 232.477l.344.17.14.141.243.31.032.518v.242l-.137.451-.137.138-.141.137-.344.174h-.451l-.38-.174-.137-.137-.21-.347-.032-.484.032-.517.21-.311.137-.14.38-.17zm-.31-.451l-.315.036-.517.206-.206.21-.173.238-.21.556v.691l.21.553.173.242.206.206.517.21h.658l.553-.348.173-.274v.759l-.032.448-.452.451-.415.07-.586-.07-.589-.278-.069.416.242.173.622.138.38.036.314-.036.553-.174.343-.343.174-.553.036-.347v-3.148h-.52v.553l-.174-.275-.553-.31-.343-.036zM216.876 232.026l-.344.036-.52.343-.138.278-.036-.589h-.484l.036.52V235.279h.52v-1.8l.033-.38.174-.31.137-.14.347-.138.206-.033.173.033.174.036v-.484l-.138-.036zM218.881 232.441l.383.036.412.448.072.416h-1.835l.105-.416.484-.448.38-.036zm0-.415l-.343.036-.52.242-.207.206-.209.242-.206.589v.726l.206.586.21.242.206.21.588.206.38.036.347-.036.585-.206.243-.21-.17-.38-.243.174-.484.206h-.553l-.383-.173-.274-.311-.141-.448v-.279h2.32v-.1l-.036-.348-.174-.553-.173-.242-.174-.173-.517-.206-.278-.036zM222.271 232.026l-.517.068-.347.21-.173.137-.174.347v.206l.036.311.416.415.38.105.552.138.243.068.274.242v.174l-.032.206-.347.242h-.658l-.553-.173-.242-.17-.173.343.242.21.625.206.412.036.52-.07.347-.208.17-.105.174-.344v-.21l-.033-.274-.416-.452-.415-.137-.517-.137-.242-.07-.242-.208v-.416l.38-.239.31-.036.242.036.484.17.242.174.174-.38-.242-.173-.553-.206-.347-.036zM225.245 232.026l-.484.068-.38.21-.173.137-.137.347-.036.206.036.311.412.415.383.105.553.138.242.068.275.242v.38l-.38.242h-.658l-.553-.173-.242-.17-.173.343.242.21.658.206.38.036.52-.07.379-.208.137-.105.174-.344.036-.21-.036-.274-.448-.452-.416-.137-.52-.137-.242-.07-.24-.208v-.207l.034-.209.346-.239.311-.036.275.036.452.17.242.174.173-.38-.242-.173-.553-.206-.347-.036z"/><path fill="#fff" fill-rule="evenodd" d="M205.846 199.352l-.344.033-.625.278-.448.448-.275.622-.036.347v20.849l.036.346.275.622.448.484.625.242.344.036h20.852l.343-.036.625-.242.485-.484.242-.622.032-.346v-20.85l-.032-.346-.242-.622-.485-.448-.625-.278-.343-.033z"/><path fill="#000" fill-opacity="0" fill-rule="evenodd" d="M222.235 214.946v-6.88l-5.945-3.426-5.981 3.425v6.881l5.98 3.455 5.946-3.455z"/><path fill-rule="evenodd" stroke="#b14d9d" stroke-linecap="butt" stroke-linejoin="round" stroke-width="1.386" d="M222.235 214.946v-6.88l-5.945-3.426-5.981 3.425v6.881l5.98 3.455 5.946-3.455z"/><path fill="#e6e6e6" fill-rule="evenodd" d="M345.71 195.305l-.346.036-.622.275-.484.451-.242.622-.033.343v45.16l.033.346.242.622.484.484.622.242.346.033h45.16l.343-.033.622-.242.451-.484.275-.622.036-.347v-45.159l-.036-.343-.275-.622-.451-.451-.622-.275-.344-.036z"/><path fill="#fff" fill-rule="evenodd" d="M349.755 227.703l-.344.036-.622.275-.484.452-.242.621-.036.347v8.713l.036.344.242.625.484.448.622.275.344.036h37.034l.38-.036.586-.275.484-.448.278-.625V229.087l-.278-.621-.484-.452-.586-.275-.38-.036z"/><path fill="#000" fill-rule="evenodd" d="M358.641 230.782v4.496h.52v-4.496zM361.72 232.026l-.38.036-.553.31-.173.311-.036-.589h-.484l.036.52V235.279h.517v-1.8l.036-.415.206-.311.14-.137.38-.138h.206l.347.033.347.415.033.38v1.973h.52v-2.006l-.036-.278-.138-.484-.278-.311-.415-.137-.275-.036zM365.178 232.477l.344.17.14.141.243.31.032.518v.242l-.137.451-.137.138-.141.137-.344.174h-.451l-.38-.174-.137-.137-.21-.347-.032-.484.032-.517.21-.311.137-.14.38-.17zm-.31-.451l-.315.036-.517.206-.206.21-.173.238-.21.556v.691l.21.553.173.242.206.206.517.21h.658l.553-.348.173-.274v.759l-.032.448-.452.451-.415.07-.586-.07-.589-.278-.069.416.242.173.622.138.38.036.314-.036.553-.174.343-.343.174-.553.036-.347v-3.148h-.52v.553l-.174-.275-.553-.31-.344-.036zM368.876 232.026l-.344.036-.52.343-.138.278-.036-.589h-.484l.036.52V235.279h.52v-1.8l.033-.38.174-.31.137-.14.347-.138.206-.033.173.033.174.036v-.484l-.138-.036zM370.881 232.441l.383.036.412.448.072.416h-1.835l.104-.416.485-.448.38-.036zm0-.415l-.343.036-.52.242-.207.206-.209.242-.206.589v.726l.206.586.21.242.205.21.59.206.379.036.347-.036.586-.206.242-.21-.17-.38-.243.174-.484.206h-.553l-.383-.173-.274-.311-.141-.448v-.279h2.32v-.1l-.036-.348-.174-.553-.173-.242-.174-.173-.517-.206-.278-.036zM374.271 232.026l-.517.068-.347.21-.173.137-.174.347v.206l.036.311.416.415.38.105.552.138.243.068.274.242v.174l-.032.206-.347.242h-.658l-.553-.173-.242-.17-.173.343.242.21.625.206.412.036.52-.07.347-.208.17-.105.174-.344v-.21l-.033-.274-.416-.452-.415-.137-.517-.137-.242-.07-.242-.208v-.416l.38-.239.31-.036.242.036.484.17.242.174.174-.38-.242-.173-.553-.206-.347-.036zM377.245 232.026l-.484.068-.38.21-.173.137-.137.347-.036.206.036.311.412.415.383.105.553.138.242.068.275.242v.38l-.38.242h-.658l-.553-.173-.242-.17-.173.343.242.21.658.206.38.036.52-.07.379-.208.137-.105.174-.344.036-.21-.036-.274-.448-.452-.416-.137-.52-.137-.242-.07-.24-.208v-.207l.033-.209.347-.239.311-.036.275.036.452.17.242.174.173-.38-.242-.173-.553-.206-.347-.036z"/><path fill="#fff" fill-rule="evenodd" d="M357.846 199.352l-.344.033-.625.278-.448.448-.275.622-.036.347v20.849l.036.346.275.622.448.484.625.242.344.036h20.852l.343-.036.625-.242.485-.484.242-.622.032-.346v-20.85l-.032-.346-.242-.622-.485-.448-.625-.278-.343-.033z"/><path fill="#000" fill-opacity="0" fill-rule="evenodd" d="M374.235 214.946v-6.88l-5.945-3.426-5.981 3.425v6.881l5.98 3.455 5.946-3.455z"/><path fill-rule="evenodd" stroke="#b14d9d" stroke-linecap="butt" stroke-linejoin="round" stroke-width="1.386" d="M374.235 214.946v-6.88l-5.945-3.426-5.981 3.425v6.881l5.98 3.455 5.946-3.455z"/><path fill="#476bb0" fill-rule="evenodd" d="M191.983 195.305v6.017h6.014v-6.017z"/><path fill="#fff" fill-rule="evenodd" d="M193.468 200.007l1.142.589 1.901-.59zM194.61 197.589l-1.142 2.244 1.142-.206v-2.038zM194.816 196.067v3.56l1.695.206-1.695-3.766z"/><path fill="#476bb0" fill-rule="evenodd" d="M343.983 195.305v6.017h6.014v-6.017z"/><path fill="#fff" fill-rule="evenodd" d="M345.468 200.007l1.142.589 1.901-.59zM346.61 197.589l-1.142 2.244 1.142-.206v-2.038zM346.816 196.067v3.56l1.695.206-1.695-3.766z"/><path fill="#000" fill-opacity="0" fill-rule="evenodd" d="M218 195"/><path fill-rule="evenodd" stroke="#000" stroke-linecap="butt" stroke-linejoin="round" d="M218 195h0"/><path fill="#000" fill-opacity="0" fill-rule="evenodd" d="M218.501 196v-18.992"/><path fill-rule="evenodd" stroke="#008200" stroke-linecap="butt" stroke-linejoin="round" d="M218.501 196v-15.565"/><path fill="#008200" fill-rule="evenodd" stroke="#008200" stroke-linecap="butt" d="M218.501 180.435l1.125 1.125-1.125-3.09-1.124 3.09z"/><path fill="#000" fill-opacity="0" fill-rule="evenodd" d="M371.501 195.501v-17.984"/><path fill-rule="evenodd" stroke="#008200" stroke-linecap="butt" stroke-linejoin="round" d="M371.501 195.501v-14.557"/><path fill="#008200" fill-rule="evenodd" stroke="#008200" stroke-linecap="butt" d="M371.501 180.944l1.125 1.125-1.125-3.09-1.124 3.09z"/><path fill="#000" fill-opacity="0" fill-rule="evenodd" d="M77.835 37.333h78.078V78.72H77.835z"/><path fill="#000" d="M87.366 54.013V48.28h.703v3.266l1.672-1.688h.906l-1.594 1.547 1.75 2.61h-.859l-1.375-2.126-.5.485v1.64h-.703zm4.89-3.109q-.437-.156-.656-.453-.203-.297-.203-.719 0-.625.438-1.047.453-.422 1.203-.422t1.203.438q.453.437.453 1.062 0 .391-.203.688-.203.297-.64.453.53.172.796.562.281.375.281.907 0 .734-.515 1.234-.516.5-1.36.5-.859 0-1.375-.5-.515-.5-.515-1.25 0-.562.281-.937t.813-.516zm-.14-1.188q0 .407.25.672.266.25.687.25.407 0 .657-.25.265-.265.265-.64t-.265-.64q-.266-.267-.672-.267-.39 0-.656.266-.266.25-.266.61zm-.234 2.641q0 .297.14.578.14.281.422.438.281.156.61.156.5 0 .828-.313.328-.328.328-.828 0-.515-.344-.843-.328-.329-.828-.329-.5 0-.828.329-.328.328-.328.812zm3.652.422l.687-.11q.063.407.328.641.266.219.75.219.485 0 .72-.188.234-.203.234-.468 0-.25-.204-.375-.14-.094-.718-.25-.782-.188-1.078-.328-.297-.141-.454-.391-.156-.266-.156-.563 0-.28.125-.515.14-.235.36-.39.156-.126.437-.204.281-.094.61-.094.484 0 .859.141.375.14.547.39.172.235.234.641l-.687.094q-.047-.328-.266-.5-.219-.188-.64-.188-.485 0-.688.172-.203.157-.203.375 0 .125.078.235.094.125.281.187.094.047.61.188.75.203 1.046.328.297.125.453.375.172.234.172.594 0 .343-.203.656-.203.312-.594.484-.375.172-.875.172-.796 0-1.234-.328-.422-.344-.531-1zm10.676-.781l.765.203q-.25.922-.875 1.422-.61.484-1.5.484-.922 0-1.515-.375-.578-.375-.875-1.094-.297-.718-.297-1.53 0-.892.328-1.563.344-.672.969-1.016.64-.344 1.406-.344.86 0 1.437.438.594.437.813 1.234l-.734.172q-.204-.625-.594-.906-.375-.282-.938-.282-.672 0-1.11.313-.437.312-.624.844-.172.531-.172 1.11 0 .718.203 1.265.219.547.656.828.454.265.985.265.64 0 1.078-.359.437-.375.594-1.11zm1.59 2.015V48.28h.703v5.734h-.704zm4.511 0v-.609q-.484.703-1.312.703-.375 0-.703-.14-.313-.141-.47-.344-.14-.219-.202-.532-.047-.203-.047-.656v-2.578h.703v2.313q0 .546.047.734.062.281.265.437.22.157.547.157.313 0 .578-.157.282-.171.391-.437.125-.281.125-.813v-2.234h.703v4.156h-.625zm1.45-1.234l.687-.11q.062.407.328.641.266.219.75.219t.719-.188q.234-.203.234-.468 0-.25-.203-.375-.14-.094-.719-.25-.78-.188-1.078-.328-.297-.141-.453-.391-.156-.266-.156-.563 0-.28.125-.515.14-.235.36-.39.155-.126.437-.204.28-.094.61-.094.483 0 .858.141.375.14.547.39.172.235.235.641l-.688.094q-.047-.328-.265-.5-.22-.188-.641-.188-.484 0-.688.172-.203.157-.203.375 0 .125.078.235.094.125.282.187.093.047.61.188.75.203 1.046.328.297.125.453.375.172.234.172.594 0 .343-.203.656-.203.312-.594.484-.375.172-.875.172-.797 0-1.234-.328-.422-.344-.532-1zm5.812.61l.11.609q-.298.078-.532.078-.39 0-.61-.125-.202-.125-.296-.313-.078-.203-.078-.843v-2.391h-.516v-.547h.516v-1.016l.703-.421v1.437h.703v.547h-.703v2.437q0 .297.031.391.047.078.125.125t.234.047q.125 0 .313-.016zm3.535-.72l.719.094q-.172.641-.64 1-.454.344-1.188.344-.907 0-1.438-.562-.531-.563-.531-1.579 0-1.046.531-1.625.547-.578 1.406-.578.829 0 1.36.578.531.563.531 1.594 0 .063-.016.188h-3.093q.047.672.39 1.047.344.359.875.359.375 0 .641-.203.281-.203.453-.656zm-2.312-1.124h2.312q-.047-.532-.266-.797-.328-.407-.875-.407-.484 0-.812.329-.328.328-.36.875zm3.902 2.468v-4.156h.64v.64q.235-.452.438-.593.219-.14.453-.14.36 0 .735.234l-.25.656q-.25-.156-.516-.156-.234 0-.422.14-.172.141-.25.375-.125.375-.125.828v2.172h-.703zm7.355 0h-.703V49.53q-.25.25-.672.5-.406.234-.734.344V49.7q.594-.281 1.031-.672.438-.39.625-.766h.453v5.75zM88.71 65.7q-.578-.734-.985-1.718-.406-.984-.406-2.047 0-.922.297-1.781.36-.984 1.094-1.969h.5q-.47.813-.625 1.156-.235.547-.375 1.125-.172.735-.172 1.47 0 1.89 1.172 3.765h-.5zm4.039-1.687v-.609q-.485.703-1.313.703-.375 0-.703-.14-.312-.141-.469-.344-.14-.219-.203-.532-.047-.203-.047-.656v-2.578h.703v2.313q0 .546.047.734.063.281.266.437.219.157.547.157.312 0 .578-.157.281-.171.39-.437.126-.281.126-.813v-2.234h.703v4.156h-.625zm1.449-1.234l.687-.11q.063.407.329.641.265.219.75.219.484 0 .718-.188.235-.203.235-.468 0-.25-.203-.375-.141-.094-.72-.25-.78-.188-1.077-.328-.297-.141-.453-.391-.157-.266-.157-.563 0-.28.125-.515.14-.235.36-.39.156-.126.437-.204.281-.094.61-.094.484 0 .859.141.375.14.547.39.172.235.234.641l-.687.094q-.047-.328-.266-.5-.219-.188-.64-.188-.485 0-.688.172-.203.157-.203.375 0 .125.078.235.094.125.281.187.094.047.61.188.75.203 1.046.328.297.125.454.375.171.234.171.594 0 .343-.203.656-.203.312-.593.484-.375.172-.875.172-.797 0-1.235-.328-.422-.344-.531-1zm4-.484v-.704h2.172v.704h-2.172zm3.71 1.718l-1.265-4.156h.719l.656 2.406.25.891q.016-.078.219-.86l.656-2.437h.719l.625 2.406.203.797.25-.797.703-2.406h.688l-1.297 4.156h-.735l-.656-2.484-.156-.703-.844 3.187h-.734zm7.856-1.343l.72.093q-.173.641-.642 1-.453.344-1.187.344-.906 0-1.438-.562-.53-.563-.53-1.579 0-1.046.53-1.625.547-.578 1.407-.578.828 0 1.36.578.53.563.53 1.594 0 .063-.015.188h-3.094q.047.672.39 1.047.344.359.876.359.375 0 .64-.203.281-.203.453-.656zm-2.312-1.125h2.312q-.047-.532-.265-.797-.328-.407-.875-.407-.485 0-.813.329-.328.328-.36.875zm3.637 1.234l.687-.11q.063.407.328.641.266.219.75.219.485 0 .719-.188.234-.203.234-.468 0-.25-.203-.375-.14-.094-.719-.25-.78-.188-1.078-.328-.297-.141-.453-.391-.156-.266-.156-.563 0-.28.125-.515.14-.235.36-.39.156-.126.437-.204.281-.094.61-.094.484 0 .859.141.375.14.546.39.172.235.235.641l-.688.094q-.047-.328-.265-.5-.22-.188-.64-.188-.485 0-.688.172-.204.157-.204.375 0 .125.079.235.093.125.28.187.095.047.61.188.75.203 1.047.328.297.125.453.375.172.234.172.594 0 .343-.203.656-.203.312-.594.484-.375.172-.875.172-.797 0-1.234-.328-.422-.344-.531-1zm5.812.61l.11.609q-.297.078-.532.078-.39 0-.61-.125-.202-.125-.296-.313-.078-.203-.078-.843v-2.391h-.516v-.547h.516v-1.016l.703-.421v1.437h.703v.547h-.703v2.437q0 .297.031.391.047.078.125.125t.235.047q.125 0 .312-.016zm.41-1.094v-.704h2.172v.704h-2.172zm6.446 1.046v.672h-3.782q-.015-.25.078-.484.141-.39.454-.766.328-.375.921-.875.938-.765 1.266-1.203.328-.453.328-.844 0-.421-.297-.703-.297-.297-.781-.297-.5 0-.812.313-.297.297-.313.844l-.719-.078q.078-.813.563-1.235.484-.422 1.297-.422.828 0 1.297.453.484.454.484 1.141 0 .344-.14.672-.141.328-.47.703-.312.36-1.078 1-.625.531-.812.719-.172.187-.297.39h2.813zm1.402 2.36h-.5q1.172-1.875 1.172-3.766 0-.734-.172-1.453-.125-.578-.375-1.125-.14-.344-.625-1.172h.5q.734.985 1.094 1.969.296.86.296 1.781 0 1.063-.406 2.047-.406.984-.984 1.719z"/><path fill="#000" fill-opacity="0" fill-rule="evenodd" d="M229.835 37.333h68.22V78.72h-68.22z"/><path fill="#000" d="M239.366 54.013V48.28h.703v3.266l1.672-1.688h.906l-1.594 1.547 1.75 2.61h-.859l-1.375-2.126-.5.485v1.64h-.703zm4.89-3.109q-.437-.156-.656-.453-.203-.297-.203-.719 0-.625.438-1.047.453-.422 1.203-.422t1.203.438q.453.437.453 1.062 0 .391-.203.688-.203.297-.64.453.53.172.796.562.281.375.281.907 0 .734-.515 1.234-.516.5-1.36.5-.859 0-1.375-.5-.515-.5-.515-1.25 0-.562.281-.937t.813-.516zm-.14-1.188q0 .407.25.672.266.25.687.25.407 0 .657-.25.265-.265.265-.64t-.265-.64q-.266-.267-.672-.267-.39 0-.656.266-.266.25-.266.61zm-.234 2.641q0 .297.14.578.14.281.422.438.281.156.61.156.5 0 .828-.313.328-.328.328-.828 0-.515-.344-.843-.328-.329-.828-.329-.5 0-.828.329-.328.328-.328.812zm3.652.422l.687-.11q.063.407.328.641.266.219.75.219.485 0 .72-.188.234-.203.234-.468 0-.25-.204-.375-.14-.094-.718-.25-.782-.188-1.078-.328-.297-.141-.454-.391-.156-.266-.156-.563 0-.28.125-.515.14-.235.36-.39.156-.126.437-.204.281-.094.61-.094.484 0 .859.141.375.14.547.39.172.235.234.641l-.687.094q-.047-.328-.266-.5-.219-.188-.64-.188-.485 0-.688.172-.203.157-.203.375 0 .125.078.235.094.125.281.187.094.047.61.188.75.203 1.046.328.297.125.453.375.172.234.172.594 0 .343-.203.656-.203.312-.594.484-.375.172-.875.172-.796 0-1.234-.328-.422-.344-.531-1zm10.676-.781l.765.203q-.25.922-.875 1.422-.61.484-1.5.484-.922 0-1.515-.375-.578-.375-.875-1.094-.297-.718-.297-1.53 0-.892.328-1.563.344-.672.969-1.016.64-.344 1.406-.344.86 0 1.437.438.594.437.813 1.234l-.734.172q-.204-.625-.594-.906-.375-.282-.938-.282-.672 0-1.11.313-.437.312-.624.844-.172.531-.172 1.11 0 .718.203 1.265.219.547.656.828.454.265.985.265.64 0 1.078-.359.437-.375.594-1.11zm1.59 2.015V48.28h.703v5.734h-.704zm4.511 0v-.609q-.484.703-1.312.703-.375 0-.703-.14-.313-.141-.47-.344-.14-.219-.202-.532-.047-.203-.047-.656v-2.578h.703v2.313q0 .546.047.734.062.281.265.437.22.157.547.157.313 0 .578-.157.282-.171.391-.437.125-.281.125-.813v-2.234h.703v4.156h-.625zm1.45-1.234l.687-.11q.062.407.328.641.266.219.75.219t.719-.188q.234-.203.234-.468 0-.25-.203-.375-.14-.094-.719-.25-.78-.188-1.078-.328-.297-.141-.453-.391-.156-.266-.156-.563 0-.28.125-.515.14-.235.36-.39.155-.126.437-.204.28-.094.61-.094.483 0 .858.141.375.14.547.39.172.235.235.641l-.688.094q-.047-.328-.265-.5-.22-.188-.641-.188-.484 0-.688.172-.203.157-.203.375 0 .125.078.235.094.125.282.187.093.047.61.188.75.203 1.046.328.297.125.453.375.172.234.172.594 0 .343-.203.656-.203.312-.594.484-.375.172-.875.172-.797 0-1.234-.328-.422-.344-.532-1zm5.812.61l.11.609q-.298.078-.532.078-.39 0-.61-.125-.202-.125-.296-.313-.078-.203-.078-.843v-2.391h-.516v-.547h.516v-1.016l.703-.421v1.437h.703v.547h-.703v2.437q0 .297.031.391.047.078.125.125t.234.047q.125 0 .313-.016zm3.535-.72l.719.094q-.172.641-.64 1-.454.344-1.188.344-.907 0-1.438-.562-.531-.563-.531-1.579 0-1.046.531-1.625.547-.578 1.406-.578.829 0 1.36.578.531.563.531 1.594 0 .063-.016.188h-3.093q.047.672.39 1.047.344.359.875.359.375 0 .641-.203.281-.203.453-.656zm-2.312-1.124h2.312q-.047-.532-.266-.797-.328-.407-.875-.407-.484 0-.812.329-.328.328-.36.875zm3.902 2.468v-4.156h.64v.64q.235-.452.438-.593.219-.14.453-.14.36 0 .735.234l-.25.656q-.25-.156-.516-.156-.234 0-.422.14-.172.141-.25.375-.125.375-.125.828v2.172h-.703zm8.402-.672v.672h-3.781q-.016-.25.078-.484.14-.39.453-.766.328-.375.922-.875.938-.765 1.266-1.203.328-.453.328-.844 0-.421-.297-.703-.297-.297-.781-.297-.5 0-.813.313-.297.297-.312.844l-.719-.078q.078-.813.563-1.235.484-.422 1.296-.422.829 0 1.297.453.485.454.485 1.141 0 .344-.141.672-.14.328-.469.703-.312.36-1.078 1-.625.531-.812.719-.172.187-.297.39h2.812zM240.71 65.7q-.578-.734-.985-1.718-.406-.984-.406-2.047 0-.922.297-1.781.36-.984 1.094-1.969h.5q-.47.813-.625 1.156-.235.547-.375 1.125-.172.735-.172 1.47 0 1.89 1.172 3.765h-.5zm4.039-1.687v-.609q-.485.703-1.313.703-.375 0-.703-.14-.312-.141-.469-.344-.14-.219-.203-.532-.047-.203-.047-.656v-2.578h.703v2.313q0 .546.047.734.063.281.266.437.219.157.547.157.312 0 .578-.157.281-.171.39-.437.126-.281.126-.813v-2.234h.703v4.156h-.625zm1.449-1.234l.687-.11q.063.407.329.641.265.219.75.219.484 0 .718-.188.235-.203.235-.468 0-.25-.203-.375-.141-.094-.72-.25-.78-.188-1.077-.328-.297-.141-.453-.391-.157-.266-.157-.563 0-.28.125-.515.14-.235.36-.39.156-.126.437-.204.281-.094.61-.094.484 0 .859.141.375.14.547.39.172.235.234.641l-.687.094q-.047-.328-.266-.5-.219-.188-.64-.188-.485 0-.688.172-.203.157-.203.375 0 .125.078.235.094.125.281.187.094.047.61.188.75.203 1.046.328.297.125.454.375.171.234.171.594 0 .343-.203.656-.203.312-.593.484-.375.172-.875.172-.797 0-1.235-.328-.422-.344-.531-1zm4-.484v-.704h2.172v.704h-2.172zm3.71 1.718l-1.265-4.156h.719l.656 2.406.25.891q.016-.078.219-.86l.656-2.437h.719l.625 2.406.203.797.25-.797.703-2.406h.688l-1.297 4.156h-.735l-.656-2.484-.156-.703-.844 3.187h-.734zm7.856-1.343l.72.093q-.173.641-.642 1-.453.344-1.187.344-.906 0-1.438-.562-.53-.563-.53-1.579 0-1.046.53-1.625.547-.578 1.407-.578.828 0 1.36.578.53.563.53 1.594 0 .063-.015.188h-3.094q.047.672.39 1.047.344.359.876.359.375 0 .64-.203.281-.203.453-.656zm-2.312-1.125h2.312q-.047-.532-.265-.797-.328-.407-.875-.407-.485 0-.813.329-.328.328-.36.875zm3.637 1.234l.687-.11q.063.407.328.641.266.219.75.219.485 0 .719-.188.234-.203.234-.468 0-.25-.203-.375-.14-.094-.719-.25-.78-.188-1.078-.328-.297-.141-.453-.391-.156-.266-.156-.563 0-.28.125-.515.14-.235.36-.39.156-.126.437-.204.281-.094.61-.094.484 0 .859.141.375.14.546.39.172.235.235.641l-.688.094q-.047-.328-.265-.5-.22-.188-.64-.188-.485 0-.688.172-.204.157-.204.375 0 .125.079.235.093.125.28.187.095.047.61.188.75.203 1.047.328.297.125.453.375.172.234.172.594 0 .343-.203.656-.203.312-.594.484-.375.172-.875.172-.797 0-1.234-.328-.422-.344-.531-1zm5.812.61l.11.609q-.297.078-.532.078-.39 0-.61-.125-.202-.125-.296-.313-.078-.203-.078-.843v-2.391h-.516v-.547h.516v-1.016l.703-.421v1.437h.703v.547h-.703v2.437q0 .297.031.391.047.078.125.125t.235.047q.125 0 .312-.016zm.41-1.094v-.704h2.172v.704h-2.172zm6.446 1.046v.672h-3.782q-.015-.25.078-.484.141-.39.454-.766.328-.375.921-.875.938-.765 1.266-1.203.328-.453.328-.844 0-.421-.297-.703-.297-.297-.781-.297-.5 0-.812.313-.297.297-.313.844l-.719-.078q.078-.813.563-1.235.484-.422 1.297-.422.828 0 1.297.453.484.454.484 1.141 0 .344-.14.672-.141.328-.47.703-.312.36-1.078 1-.625.531-.812.719-.172.187-.297.39h2.813zm1.402 2.36h-.5q1.172-1.875 1.172-3.766 0-.734-.172-1.453-.125-.578-.375-1.125-.14-.344-.625-1.172h.5q.734.985 1.094 1.969.296.86.296 1.781 0 1.063-.406 2.047-.406.984-.984 1.719z"/><path fill="#000" fill-opacity="0" fill-rule="evenodd" d="M382.78 37.262h70.299v41.386h-70.3z"/><path fill="#000" d="M392.31 53.942v-5.734h.704v3.266l1.672-1.688h.906l-1.594 1.547 1.75 2.61h-.86l-1.374-2.126-.5.485v1.64h-.703zm4.891-3.109q-.437-.156-.656-.453-.203-.297-.203-.719 0-.625.438-1.047.453-.422 1.203-.422t1.203.438q.453.437.453 1.062 0 .391-.203.688-.203.297-.64.453.53.172.796.563.281.375.281.906 0 .734-.515 1.234-.516.5-1.36.5-.86 0-1.375-.5t-.515-1.25q0-.562.28-.937.282-.375.813-.516zm-.14-1.187q0 .406.25.671.265.25.687.25.407 0 .657-.25.265-.265.265-.64t-.265-.64q-.266-.266-.672-.266-.391 0-.657.265-.265.25-.265.61zm-.235 2.64q0 .297.141.578.14.282.422.438.281.156.61.156.5 0 .827-.312.329-.329.329-.829 0-.515-.344-.843-.328-.328-.828-.328-.5 0-.828.328-.329.328-.329.812zm3.653.422l.687-.11q.063.407.328.641.266.22.75.22.485 0 .72-.188.234-.204.234-.47 0-.25-.204-.374-.14-.094-.718-.25-.782-.188-1.078-.328-.297-.14-.454-.39-.156-.267-.156-.563 0-.282.125-.516.14-.234.36-.39.156-.126.437-.204.281-.094.61-.094.484 0 .859.141.375.14.547.39.172.235.234.641l-.687.094q-.047-.328-.266-.5-.219-.187-.64-.187-.485 0-.688.171-.203.157-.203.375 0 .125.078.235.094.125.281.187.094.047.61.188.75.203 1.046.328.297.125.453.375.172.234.172.594 0 .343-.203.656-.203.312-.594.484-.375.172-.875.172-.796 0-1.234-.328-.422-.344-.531-1zm10.676-.781l.765.203q-.25.922-.875 1.422-.61.484-1.5.484-.922 0-1.515-.375-.579-.375-.875-1.094-.297-.718-.297-1.53 0-.891.328-1.563.344-.672.969-1.016.64-.344 1.406-.344.86 0 1.437.438.594.437.813 1.234l-.735.172q-.203-.625-.593-.906-.375-.281-.938-.281-.672 0-1.11.312-.437.313-.624.844-.172.531-.172 1.11 0 .718.203 1.265.219.547.656.828.453.266.985.266.64 0 1.078-.36.437-.375.594-1.11zm1.59 2.015v-5.734h.703v5.734h-.704zm4.511 0v-.609q-.484.703-1.312.703-.375 0-.704-.14-.312-.141-.468-.344-.14-.219-.203-.531-.047-.204-.047-.657v-2.578h.703V52.1q0 .547.047.734.062.281.265.438.22.156.547.156.313 0 .578-.156.282-.172.391-.438.125-.281.125-.812v-2.235h.703v4.156h-.625zm1.45-1.234l.687-.11q.062.407.328.641.266.22.75.22t.719-.188q.234-.204.234-.47 0-.25-.203-.374-.14-.094-.719-.25-.781-.188-1.078-.328-.297-.14-.453-.39-.156-.267-.156-.563 0-.282.125-.516.14-.234.36-.39.155-.126.437-.204.28-.094.609-.094.484 0 .86.141.374.14.546.39.172.235.235.641l-.688.094q-.047-.328-.266-.5-.218-.187-.64-.187-.485 0-.688.171-.203.157-.203.375 0 .125.078.235.094.125.282.187.093.047.609.188.75.203 1.047.328.297.125.453.375.172.234.172.594 0 .343-.203.656-.203.312-.594.484-.375.172-.875.172-.797 0-1.234-.328-.422-.344-.532-1zm5.812.61l.11.609q-.298.078-.532.078-.39 0-.61-.125-.203-.125-.296-.313-.078-.203-.078-.843v-2.39h-.516v-.548h.516v-1.015l.703-.422v1.437h.703v.547h-.703v2.438q0 .296.031.39.047.078.125.125t.234.047q.125 0 .313-.016zm3.535-.72l.719.094q-.172.641-.64 1-.454.344-1.188.344-.907 0-1.438-.562-.531-.563-.531-1.578 0-1.047.531-1.625.547-.579 1.406-.579.828 0 1.36.579.531.562.531 1.593 0 .063-.016.188h-3.093q.046.672.39 1.047.344.36.875.36.375 0 .64-.204.282-.203.454-.656zm-2.313-1.124h2.313q-.047-.532-.266-.797-.328-.406-.875-.406-.484 0-.812.328-.328.328-.36.875zm3.903 2.468v-4.156h.64v.64q.235-.452.438-.593.219-.14.453-.14.36 0 .734.234l-.25.656q-.25-.156-.515-.156-.235 0-.422.14-.172.141-.25.375-.125.375-.125.829v2.171h-.703zm4.715-1.515l.703-.094q.11.594.406.86.297.265.703.265.5 0 .844-.344.344-.343.344-.843 0-.485-.328-.797-.313-.328-.797-.328-.203 0-.5.078l.078-.61h.125q.437 0 .797-.234.359-.234.359-.719 0-.39-.266-.64-.25-.25-.671-.25-.407 0-.688.265-.266.25-.344.766l-.703-.125q.125-.703.578-1.094.469-.39 1.14-.39.47 0 .86.203.407.203.61.546.218.344.218.735 0 .375-.203.687-.203.297-.593.47.515.124.796.5.282.358.282.921 0 .75-.547 1.281-.547.516-1.39.516-.75 0-1.25-.453t-.563-1.172zM393.655 65.63q-.579-.734-.985-1.719-.406-.984-.406-2.047 0-.922.297-1.78.36-.985 1.094-1.97h.5q-.47.813-.625 1.157-.235.546-.375 1.125-.172.734-.172 1.468 0 1.891 1.172 3.766h-.5zm4.039-1.688v-.609q-.485.703-1.313.703-.375 0-.703-.14-.313-.141-.469-.344-.14-.219-.203-.531-.047-.204-.047-.657v-2.578h.703V62.1q0 .547.047.734.063.281.266.438.219.156.547.156.312 0 .578-.156.281-.172.39-.438.125-.281.125-.812v-2.235h.704v4.156h-.625zm1.449-1.234l.687-.11q.063.407.328.641.266.22.75.22.485 0 .72-.188.234-.204.234-.47 0-.25-.204-.374-.14-.094-.718-.25-.782-.188-1.078-.328-.297-.14-.454-.39-.156-.267-.156-.563 0-.282.125-.516.14-.234.36-.39.156-.126.437-.204.281-.094.61-.094.484 0 .859.141.375.14.547.39.172.235.234.641l-.687.094q-.047-.328-.266-.5-.219-.187-.64-.187-.485 0-.688.171-.203.157-.203.375 0 .125.078.235.094.125.281.187.094.047.61.188.75.203 1.046.328.297.125.453.375.172.234.172.594 0 .343-.203.656-.203.312-.594.484-.375.172-.875.172-.796 0-1.234-.328-.422-.344-.531-1zm4-.484v-.703h2.172v.703h-2.172zm5.789.375l.719.093q-.172.641-.641 1-.453.344-1.187.344-.907 0-1.438-.562-.531-.563-.531-1.578 0-1.047.531-1.625.547-.579 1.406-.579.828 0 1.36.579.53.562.53 1.593 0 .063-.015.188h-3.093q.046.672.39 1.047.344.36.875.36.375 0 .64-.204.282-.203.454-.656zm-2.313-1.125h2.313q-.047-.532-.266-.797-.328-.406-.875-.406-.484 0-.812.328-.328.328-.36.875zm6.621 1.953q-.39.328-.75.469-.359.14-.78.14-.673 0-1.048-.328-.359-.344-.359-.86 0-.312.125-.562.14-.25.36-.39.234-.157.515-.235.203-.062.625-.11.86-.109 1.25-.25.016-.14.016-.171 0-.438-.204-.61-.265-.234-.796-.234-.5 0-.735.172-.234.172-.36.61l-.687-.094q.094-.438.313-.703.219-.282.625-.422.406-.157.937-.157.532 0 .86.125.343.125.5.329.156.187.218.468.032.188.032.657v.937q0 .969.047 1.234.046.266.171.5h-.734q-.11-.218-.14-.515zm-.062-1.563q-.375.157-1.14.266-.438.062-.626.14-.172.079-.265.235-.094.14-.094.328 0 .281.203.469.219.187.625.187t.719-.172q.328-.187.469-.5.109-.234.109-.703v-.25zm1.527.844l.688-.11q.062.407.328.641.266.22.75.22t.719-.188q.234-.204.234-.47 0-.25-.203-.374-.14-.094-.719-.25-.781-.188-1.078-.328-.297-.14-.453-.39-.156-.267-.156-.563 0-.282.125-.516.14-.234.36-.39.155-.126.437-.204.28-.094.609-.094.484 0 .86.141.374.14.546.39.172.235.235.641l-.688.094q-.047-.328-.266-.5-.218-.187-.64-.187-.485 0-.688.171-.203.157-.203.375 0 .125.078.235.094.125.282.187.093.047.609.188.75.203 1.047.328.297.125.453.375.172.234.172.594 0 .343-.203.656-.203.312-.594.484-.375.172-.875.172-.797 0-1.234-.328-.422-.344-.532-1zm5.813.61l.11.609q-.298.078-.532.078-.39 0-.61-.125-.203-.125-.296-.313-.078-.203-.078-.843v-2.39h-.516v-.548h.516v-1.015l.703-.422v1.437h.703v.547h-.703v2.438q0 .296.03.39.048.078.126.125t.234.047q.125 0 .313-.016zm.41-1.094v-.703h2.172v.703h-2.172zm6.445 1.047v.671h-3.781q-.016-.25.078-.484.14-.39.453-.766.328-.375.922-.875.938-.765 1.266-1.203.328-.453.328-.843 0-.422-.297-.704-.297-.296-.781-.296-.5 0-.813.312-.297.297-.312.844l-.719-.078q.078-.813.563-1.235.484-.422 1.296-.422.829 0 1.297.454.485.453.485 1.14 0 .344-.141.672-.14.328-.469.703-.312.36-1.078 1-.625.531-.812.719-.172.187-.297.39h2.812zm1.403 2.359h-.5q1.172-1.875 1.172-3.766 0-.734-.172-1.453-.125-.578-.375-1.125-.141-.344-.625-1.172h.5q.734.985 1.093 1.97.297.858.297 1.78 0 1.063-.406 2.047-.406.985-.984 1.719z"/><path fill="#000" fill-opacity="0" fill-rule="evenodd" d="M91.835 177.614v82h277v-16"/><path fill-rule="evenodd" stroke="#008200" stroke-linecap="butt" stroke-linejoin="round" d="M91.835 177.614v82h277v-12.573"/><path fill="#008200" fill-rule="evenodd" stroke="#008200" stroke-linecap="butt" d="M368.835 247.041l1.124 1.125-1.124-3.09-1.125 3.09z"/><path fill="#000" fill-opacity="0" fill-rule="evenodd" d="M106.333 178.115v75h110.502v-9"/><path fill-rule="evenodd" stroke="#008200" stroke-linecap="butt" stroke-linejoin="round" d="M106.333 178.115v75h110.502v-5.572"/><path fill="#008200" fill-rule="evenodd" stroke="#008200" stroke-linecap="butt" d="M216.835 247.543l1.124 1.124-1.124-3.09-1.125 3.09z"/><path fill="#231f20" fill-rule="evenodd" d="M58.566 67.312v3.08h.36v-1.47l1.58 1.47h.443l-1.664-1.581 1.582-1.499h-.443l-1.499 1.415v-1.415zM61.117 68.2v1.36l.026.388.278.36.278.083.195.029.249-.029.333-.194.137-.194v.388h.333V68.2h-.36v1.25l-.028.275-.137.195-.194.168-.278.026-.223-.026-.25-.279V68.2zM64.555 68.144l-.25.03-.333.22-.08.223-.059-.418h-.33l.026.363.029.249v1.58h.333v-1.25l.026-.249.14-.22.165-.168.307-.026h.081l.14.026v-.33l-.082-.03zM66.22 68.449l.277.029.195.194.139.25.055.359-.055.362-.14.25-.194.194-.278.026h-.165l-.25-.11-.084-.11-.165-.25-.029-.362.03-.36.164-.25.195-.193.304-.03zm-1.027-1.247v3.19h.333v-.418l.11.194.389.223.25.029.194-.029.362-.139.139-.14.11-.164.14-.418.025-.25-.026-.249-.139-.414-.11-.14-.14-.138-.361-.166-.195-.029-.25.03-.388.22-.11.194v-1.386zM68.689 68.423l.25.026.304.333.029.278h-1.25l.055-.278.334-.333.278-.026zm0-.279l-.223.03-.389.165-.136.139-.14.165-.138.388v.5l.139.417.139.165.165.139.389.14.25.028.248-.029.389-.139.194-.14-.139-.248-.333.223-.36.026-.333-.026-.36-.418-.029-.388h1.583v-.055l-.029-.25-.11-.388-.113-.14-.136-.138-.334-.137-.194-.029zM71.214 68.144l-.223.03-.36.22-.084.223-.029-.418h-.33l.026.363V70.39h.333v-1.25l.026-.249.14-.22.194-.168.278-.026h.11l.11.026v-.33l-.08-.03zM72.904 68.144l-.25.03-.388.22-.11.194-.029-.389h-.333l.029.363V70.39h.36v-1.25l.028-.275.14-.223.22-.165.278-.03.223.03.25.278.026.275v1.36h.333v-1.386l-.029-.388-.25-.334-.304-.11-.194-.029zM75.15 68.423l.25.026.307.333.055.278h-1.275l.081-.278.305-.333.278-.026zm0-.279l-.22.03-.362.165-.165.139-.11.165-.168.388v.5l.168.417.11.165.165.139.389.14.249.028.25-.029.417-.139.165-.14-.139-.248-.305.223-.388.026-.333-.026-.36-.418-.026-.388h1.58v-.305l-.14-.388-.11-.14-.139-.138-.333-.137-.194-.029zM77.093 67.535l-.36.11v.554h-.417v.279h.418v1.246l.026.307.139.195.194.165.305.029.168-.029.136-.029v-.304l-.136.055h-.113l-.166-.026-.194-.223V68.478h.61v-.279h-.61v-.664zM79.007 68.423l.249.026.304.333.03.278h-1.25l.058-.278.33-.333.279-.026zm0-.279l-.22.03-.39.165-.138.139-.14.165-.139.388v.5l.14.417.139.165.165.139.388.14.25.028.249-.029.388-.139.168-.14-.112-.248-.331.223-.362.026-.334-.026-.36-.418-.028-.388h1.583v-.055l-.03-.25-.11-.388-.11-.14-.139-.138-.333-.137-.194-.029zM81.337 68.144l-.362.055-.25.14-.194.194-.026.278v.194l.305.305.249.084.36.081.168.055.194.168.026.11-.026.14-.25.165h-.443l-.389-.14-.168-.11-.11.25.166.139.446.14.25.028.359-.029.25-.139.11-.084.112-.25.026-.136-.026-.194-.307-.307-.276-.082-.362-.084-.136-.055-.168-.168-.026-.11.026-.165.25-.168h.222l.334.029.304.22.11-.25-.139-.138-.388-.137-.22-.029z"/><path fill="#486bb3" fill-rule="evenodd" d="M71.075 48.341l-.223.026-.22.084-5.964 2.856-.223.14-.305.388-.084.249-1.47 6.38-.028.221.084.444.11.223.029.029.026.055 4.134 5.13.165.195.473.194.25.027h6.629l.25-.027.443-.194.194-.194 4.134-5.131.14-.223.11-.5-.056-.248-1.47-6.381-.057-.25-.331-.388-.223-.139-5.963-2.856-.279-.084-.275-.026z"/><path fill="#fff" fill-rule="evenodd" d="M71.13 58.659l-.168.026-.11.14-.887 1.637.472.14.997.054.528-.084.194-.055.166-.055-.888-1.638h-.028l-.056-.081-.081-.058-.055-.026zM69.492 57.908l-1.83.307.25.583.748.942.499.333.695-1.719.027-.113v-.08l-.056-.114-.139-.139zM72.626 57.908l-.055.029-.11.055-.084.223.029.11v.03l.721 1.718.499-.362.777-.942.22-.554-1.858-.307zM70.852 56.383l-.36.444.14.556.498.25.527-.25.137-.556-.36-.444zM74.293 55.024l-1.415 1.249-.058.084-.026.081-.029.14.14.194.11.055 1.803.527.028-.609-.11-.611-.168-.583-.275-.527zM67.996 55.024l-.307.527-.25 1.166.03.637 1.803-.527.081-.026.058-.084.081-.11-.026-.224-.084-.11-1.386-1.25zM71.573 53.304l.11 1.859.03.084.055.11.084.084.22.029.11-.058h.03l1.524-1.081-.47-.415-1.084-.528-.609-.084zM70.492 53.304l-.194.056-.499.139-.89.498-.36.334 1.526 1.081.084.058h.11l.11-.03.168-.138.026-.14.113-1.858z"/><path fill="#000" fill-opacity="0" fill-rule="evenodd" d="M71.13 50.53l-.14.03-.193.193-.03.166v.112l.03.166.028.165.056.362v.279l-.056.11-.084.084v.136l-.304.055-.333.058-.693.194-1.166.664-.472.473-.084-.055-.055-.03h-.082l-.112-.025-.25-.195-.25-.249-.11-.113-.11-.139-.057-.026-.027-.029-.11-.081H66.22l-.11.11-.084.139.055.276.113.112.026.027.055.029.14.11.138.084.305.165.223.194.084.11v.113l.11.082-.223.362-.33.748-.169.832-.055.861.055.415-.139.055-.081.084-.084.055-.278.084-.36.026h-.168l-.165.029-.055.029h-.055l-.168.055-.14.25v.138l.058.14.25.136.165-.026h.055l.029-.03.165-.054.168-.055.331-.11.278-.085.14.03.083.054.14-.028.165.417.388.748.528.638.638.554.36.223-.085.139.03.11v.084l-.111.276-.194.307-.113.139-.082.165-.028.026-.027.058-.057.165.084.279.139.055.139.055.25-.11.083-.14.026-.055.03-.028.054-.166.055-.168.11-.36.169-.278.055-.055.084-.026.081-.139.638.22 1.36.084.692-.11.308-.084.304-.11.026.081.058.058.081.026.084.084.14.279.11.33.055.168.055.166.029.028v.056l.084.139.275.11.14-.055.11-.084.084-.278-.027-.137-.028-.058-.03-.055-.08-.136-.114-.14-.194-.306-.11-.25-.026-.139.055-.081-.029-.055-.055-.084.388-.223.612-.554.525-.667.417-.748.14-.388h.08l.058.028.082-.055.11-.029.307.056.333.139.137.055.168.055h.055l.055.029h.165l.252-.14.056-.138v-.14l-.168-.22-.14-.055-.055-.029h-.055l-.165-.029h-.168l-.36-.026-.278-.084-.11-.081-.055-.058-.14-.055.056-.415-.055-.832-.084-.417-.11-.415-.334-.777-.22-.362.08-.055.059-.055v-.084l.055-.11.22-.195.307-.194.166-.055.139-.11.026-.03.055-.026.113-.112.055-.305-.084-.11-.11-.11h-.278l-.14.081-.055.029-.026.026-.139.113-.11.14-.252.248-.22.195-.11.026h-.114l-.136.084-.278-.305-.693-.472-.75-.388-.804-.224-.417-.055-.027-.081v-.055l-.055-.084-.057-.11v-.279l.028-.362.056-.165v-.278l-.027-.166-.194-.194-.14-.029"/><path fill="#000" fill-opacity="0" fill-rule="evenodd" d="M71.13 58.659h.084l.055.026.081.058.056.081h.028l.888 1.638-.166.055-.194.055-.528.084-.997-.055-.472-.14.887-1.637.11-.139zm-1.554-.75h.11l.14.138.055.113v.081l-.027.113-.695 1.72-.499-.334-.748-.942-.25-.583 1.83-.307h.055zm3.108 0h.081l1.858.306-.22.554-.777.942-.499.362-.721-1.719v-.029l-.03-.11.085-.223.11-.055.055-.029zm-1.832-1.526h.582l.36.444-.137.556-.527.25-.499-.25-.139-.556zm3.44-1.36l.276.528.168.583.11.611-.028.61-1.804-.528-.11-.055-.139-.195.029-.139.026-.081.058-.084zm-6.296 0l1.386 1.25.084.11.026.223-.081.11-.058.085-.081.026-1.803.527-.03-.637.25-1.166zm3.577-1.719l.61.084 1.083.528.47.415-1.525 1.081h-.029l-.11.058-.22-.03-.084-.083-.055-.11-.03-.084zm-.887 0l-.113 1.859-.026.139-.168.139-.11.029h-.11l-.084-.058-1.525-1.081.36-.334.89-.498.498-.14.194-.055zm.444-2.774l-.14.03-.193.193-.03.166v.112l.03.166.028.165.056.362v.279l-.056.11-.084.084v.136l-.304.055-.333.058-.693.194-1.166.664-.472.473-.084-.055-.055-.03h-.082l-.112-.025-.25-.195-.25-.249-.11-.113-.11-.139-.057-.026-.027-.029-.11-.081H66.22l-.11.11-.084.139.055.276.113.112.026.027.055.029.14.11.138.084.305.165.223.194.084.11v.113l.11.082-.223.362-.33.748-.169.832-.055.861.055.415-.139.055-.081.084-.084.055-.278.084-.36.026h-.168l-.165.029-.055.029h-.055l-.168.055-.14.25v.138l.058.14.25.136.165-.026h.055l.029-.03.165-.054.168-.055.331-.11.278-.085.14.03.083.054.14-.028.165.417.388.748.528.638.638.554.36.223-.085.139.03.11v.084l-.111.276-.194.307-.113.139-.082.165-.028.026-.027.058-.057.165.084.279.139.055.139.055.25-.11.083-.14.026-.055.03-.028.054-.166.055-.168.11-.36.169-.278.055-.055.084-.026.081-.139.638.22 1.36.084.692-.11.308-.084.304-.11.026.081.058.058.081.026.084.084.14.279.11.33.055.168.055.166.029.028v.056l.084.139.275.11.14-.055.11-.084.084-.278-.027-.137-.028-.058-.03-.055-.08-.136-.114-.14-.194-.306-.11-.25-.026-.139.055-.081-.029-.055-.055-.084.388-.223.612-.554.525-.667.417-.748.14-.388h.08l.058.028.082-.055.11-.029.307.056.333.139.137.055.168.055h.055l.055.029h.165l.252-.14.056-.138v-.14l-.168-.22-.14-.055-.055-.029h-.055l-.165-.029h-.168l-.36-.026-.278-.084-.11-.081-.055-.058-.14-.055.056-.415-.055-.832-.084-.417-.11-.415-.334-.777-.22-.362.08-.055.059-.055v-.084l.055-.11.22-.195.307-.194.166-.055.139-.11.026-.03.055-.026.113-.112.055-.305-.084-.11-.11-.11h-.278l-.14.081-.055.029-.026.026-.139.113-.11.14-.252.248-.22.195-.11.026h-.114l-.136.084-.278-.305-.693-.472-.75-.388-.804-.224-.417-.055-.027-.081v-.055l-.055-.084-.057-.11v-.279l.028-.362.056-.165v-.278l-.027-.166-.194-.194z"/><path fill-rule="evenodd" stroke="#fff" stroke-linecap="butt" stroke-miterlimit="105.678" stroke-width=".11" d="M71.13 58.659h.084l.055.026.081.058.056.081h.028l.888 1.638-.166.055-.194.055-.528.084-.997-.055-.472-.14.887-1.637h0l.11-.139zm-1.554-.75h.11l.14.138.055.113v.081l-.027.113h0l-.695 1.72-.499-.334-.748-.942-.25-.583 1.83-.307h.055zm3.108 0h.081l1.858.306-.22.554-.777.942-.499.362-.721-1.719v-.029l-.03-.11.085-.223.11-.055.055-.029zm-1.832-1.526h.582l.36.444-.137.556-.527.25-.499-.25-.139-.556zm3.44-1.36l.276.528.168.583.11.611-.028.61-1.804-.528h0l-.11-.055-.139-.195.029-.139.026-.081.058-.084h0zm-6.296 0l1.386 1.25h0l.084.11.026.223-.081.11-.058.085-.081.026h0l-1.803.527-.03-.637.25-1.166zm3.577-1.719l.61.084 1.083.528.47.415-1.525 1.081h-.029l-.11.058-.22-.03-.084-.083-.055-.11-.03-.084h0zm-.887 0l-.113 1.859h0l-.026.139-.168.139-.11.029h-.11l-.084-.058h0l-1.525-1.081.36-.334.89-.498.498-.14.194-.055zm.444-2.774l-.14.03-.193.193-.03.166h0v.112l.03.166.028.165.056.362v.279l-.056.11-.084.084v.136l-.304.055-.333.058-.693.194-1.166.664-.472.473-.084-.055-.055-.03h-.082l-.112-.025-.25-.195-.25-.249-.11-.113-.11-.139-.057-.026-.027-.029-.11-.081H66.22l-.11.11-.084.139.055.276.113.112h0l.026.027.055.029.14.11.138.084.305.165.223.194.084.11v.113l.11.082-.223.362-.33.748-.169.832-.055.861.055.415-.139.055-.081.084-.084.055-.278.084-.36.026h-.168l-.165.029-.055.029h-.055 0l-.168.055-.14.25v.138l.058.14.25.136.165-.026h.055l.029-.03.165-.054.168-.055.331-.11.278-.085.14.03.083.054.14-.028.165.417.388.748.528.638.638.554.36.223-.085.139.03.11v.084l-.111.276-.194.307-.113.139-.082.165-.028.026-.027.058-.057.165.084.279.139.055.139.055.25-.11.083-.14h0l.026-.055.03-.028.054-.166.055-.168.11-.36.169-.278.055-.055.084-.026.081-.139.638.22 1.36.084.692-.11.308-.084.304-.11.026.081.058.058.081.026.084.084.14.279.11.33.055.168.055.166.029.028v.056l.084.139.275.11.14-.055.11-.084.084-.278-.027-.137-.028-.058-.03-.055-.08-.136-.114-.14-.194-.306-.11-.25-.026-.139.055-.081-.029-.055-.055-.084.388-.223.612-.554.525-.667.417-.748.14-.388h.08l.058.028.082-.055.11-.029.307.056.333.139.137.055.168.055h.055l.055.029h.165l.252-.14.056-.138v-.14l-.168-.22-.14-.055-.055-.029h-.055l-.165-.029h-.168l-.36-.026-.278-.084-.11-.081-.055-.058-.14-.055.056-.415-.055-.832-.084-.417-.11-.415-.334-.777-.22-.362.08-.055.059-.055v-.084l.055-.11.22-.195.307-.194.166-.055.139-.11.026-.03.055-.026.113-.112.055-.305-.084-.11-.11-.11h-.278l-.14.081-.055.029-.026.026-.139.113-.11.14-.252.248-.22.195-.11.026h-.114l-.136.084-.278-.305-.693-.472-.75-.388-.804-.224-.417-.055-.027-.081v-.055l-.055-.084-.057-.11v-.279l.028-.362.056-.165v-.278l-.027-.166-.194-.194z"/><path fill="#231f20" fill-rule="evenodd" d="M210.566 67.312v3.08h.36v-1.47l1.58 1.47h.443l-1.664-1.581 1.582-1.499h-.443l-1.499 1.415v-1.415zM213.117 68.2v1.36l.026.388.278.36.278.083.195.029.25-.029.332-.194.137-.194v.388h.333V68.2h-.36v1.25l-.028.275-.137.195-.194.168-.278.026-.223-.026-.25-.279V68.2zM216.555 68.144l-.25.03-.333.22-.08.223-.059-.418h-.33l.026.363.029.249v1.58h.333v-1.25l.026-.249.14-.22.165-.168.307-.026h.081l.14.026v-.33l-.082-.03zM218.22 68.449l.277.029.195.194.139.25.055.359-.055.362-.14.25-.194.194-.278.026h-.165l-.25-.11-.084-.11-.165-.25-.029-.362.03-.36.164-.25.195-.193.304-.03zm-1.027-1.247v3.19h.333v-.418l.11.194.389.223.25.029.194-.029.362-.139.139-.14.11-.164.14-.418.025-.25-.026-.249-.139-.414-.11-.14-.14-.138-.361-.166-.195-.029-.25.03-.388.22-.11.194v-1.386zM220.689 68.423l.25.026.304.333.029.278h-1.25l.055-.278.334-.333.278-.026zm0-.279l-.223.03-.389.165-.136.139-.14.165-.138.388v.5l.139.417.139.165.165.139.389.14.25.028.248-.029.389-.139.194-.14-.139-.248-.333.223-.36.026-.333-.026-.36-.418-.029-.388h1.583v-.055l-.029-.25-.11-.388-.113-.14-.136-.138-.334-.137-.194-.029zM223.214 68.144l-.223.03-.36.22-.084.223-.029-.418h-.33l.026.363V70.39h.333v-1.25l.026-.249.14-.22.194-.168.278-.026h.11l.11.026v-.33l-.08-.03zM224.904 68.144l-.25.03-.388.22-.11.194-.029-.389h-.333l.029.363V70.39h.36v-1.25l.028-.275.14-.223.22-.165.278-.03.223.03.25.278.026.275v1.36h.333v-1.386l-.029-.388-.25-.334-.304-.11-.194-.029zM227.15 68.423l.25.026.307.333.055.278h-1.275l.081-.278.305-.333.278-.026zm0-.279l-.22.03-.362.165-.165.139-.11.165-.168.388v.5l.168.417.11.165.165.139.389.14.249.028.25-.029.417-.139.165-.14-.139-.248-.305.223-.388.026-.333-.026-.36-.418-.026-.388h1.58v-.305l-.14-.388-.11-.14-.139-.138-.333-.137-.194-.029zM229.093 67.535l-.36.11v.554h-.417v.279h.418v1.246l.026.307.139.195.194.165.305.029.168-.029.136-.029v-.304l-.136.055h-.113l-.166-.026-.194-.223V68.478h.61v-.279h-.61v-.664zM231.007 68.423l.249.026.304.333.03.278h-1.25l.058-.278.33-.333.279-.026zm0-.279l-.22.03-.39.165-.138.139-.14.165-.139.388v.5l.14.417.139.165.165.139.388.14.25.028.249-.029.388-.139.168-.14-.112-.248-.331.223-.362.026-.334-.026-.36-.418-.028-.388h1.583v-.055l-.03-.25-.11-.388-.11-.14-.139-.138-.333-.137-.194-.029zM233.337 68.144l-.362.055-.25.14-.194.194-.026.278v.194l.305.305.25.084.359.081.168.055.194.168.026.11-.026.14-.25.165h-.443l-.389-.14-.168-.11-.11.25.166.139.446.14.25.028.359-.029.25-.139.11-.084.112-.25.026-.136-.026-.194-.307-.307-.276-.082-.362-.084-.136-.055-.168-.168-.026-.11.026-.165.25-.168h.222l.334.029.304.22.11-.25-.139-.138-.388-.137-.22-.029z"/><path fill="#486bb3" fill-rule="evenodd" d="M223.075 48.341l-.223.026-.22.084-5.964 2.856-.223.14-.305.388-.084.249-1.47 6.38-.028.221.084.444.11.223.029.029.026.055 4.134 5.13.165.195.473.194.25.027h6.629l.25-.027.443-.194.194-.194 4.134-5.131.14-.223.11-.5-.056-.248-1.47-6.381-.057-.25-.331-.388-.223-.139-5.963-2.856-.279-.084-.275-.026z"/><path fill="#fff" fill-rule="evenodd" d="M223.13 58.659l-.168.026-.11.14-.887 1.637.472.14.997.054.528-.084.194-.055.166-.055-.888-1.638h-.028l-.056-.081-.081-.058-.055-.026zM221.492 57.908l-1.83.307.25.583.748.942.499.333.695-1.719.027-.113v-.08l-.056-.114-.139-.139zM224.626 57.908l-.055.029-.11.055-.084.223.029.11v.03l.721 1.718.499-.362.777-.942.22-.554-1.858-.307zM222.852 56.383l-.36.444.14.556.498.25.527-.25.137-.556-.36-.444zM226.293 55.024l-1.415 1.249-.058.084-.026.081-.029.14.14.194.11.055 1.803.527.028-.609-.11-.611-.168-.583-.275-.527zM219.996 55.024l-.307.527-.25 1.166.03.637 1.803-.527.081-.026.058-.084.081-.11-.026-.224-.084-.11-1.386-1.25zM223.573 53.304l.11 1.859.03.084.055.11.084.084.22.029.11-.058h.03l1.524-1.081-.47-.415-1.084-.528-.609-.084zM222.492 53.304l-.194.056-.499.139-.89.498-.36.334 1.526 1.081.084.058h.11l.11-.03.168-.138.026-.14.113-1.858z"/><path fill="#000" fill-opacity="0" fill-rule="evenodd" d="M223.13 50.53l-.14.03-.193.193-.03.166v.112l.03.166.028.165.056.362v.279l-.056.11-.084.084v.136l-.304.055-.333.058-.693.194-1.166.664-.472.473-.084-.055-.055-.03h-.082l-.112-.025-.25-.195-.25-.249-.11-.113-.11-.139-.057-.026-.027-.029-.11-.081H218.22l-.11.11-.084.139.055.276.113.112.026.027.055.029.14.11.138.084.305.165.223.194.084.11v.113l.11.082-.223.362-.33.748-.169.832-.055.861.055.415-.139.055-.081.084-.084.055-.278.084-.36.026h-.168l-.165.029-.055.029h-.055l-.168.055-.14.25v.138l.058.14.25.136.165-.026h.055l.029-.03.165-.054.168-.055.331-.11.278-.085.14.03.083.054.14-.028.165.417.388.748.528.638.638.554.36.223-.085.139.03.11v.084l-.111.276-.194.307-.113.139-.082.165-.028.026-.027.058-.057.165.084.279.139.055.139.055.25-.11.083-.14.026-.055.03-.028.054-.166.055-.168.11-.36.169-.278.055-.055.084-.026.081-.139.638.22 1.36.084.692-.11.308-.084.304-.11.026.081.058.058.081.026.084.084.14.279.11.33.055.168.055.166.029.028v.056l.084.139.275.11.14-.055.11-.084.084-.278-.027-.137-.028-.058-.03-.055-.08-.136-.114-.14-.194-.306-.11-.25-.026-.139.055-.081-.029-.055-.055-.084.388-.223.612-.554.525-.667.417-.748.14-.388h.08l.058.028.082-.055.11-.029.307.056.333.139.137.055.168.055h.055l.055.029h.165l.252-.14.056-.138v-.14l-.168-.22-.14-.055-.055-.029h-.055l-.165-.029h-.168l-.36-.026-.278-.084-.11-.081-.055-.058-.14-.055.056-.415-.055-.832-.084-.417-.11-.415-.334-.777-.22-.362.08-.055.059-.055v-.084l.055-.11.22-.195.307-.194.166-.055.139-.11.026-.03.055-.026.113-.112.055-.305-.084-.11-.11-.11h-.278l-.14.081-.055.029-.026.026-.139.113-.11.14-.252.248-.22.195-.11.026h-.114l-.136.084-.278-.305-.693-.472-.75-.388-.804-.224-.417-.055-.027-.081v-.055l-.055-.084-.057-.11v-.279l.028-.362.056-.165v-.278l-.027-.166-.194-.194-.14-.029"/><path fill="#000" fill-opacity="0" fill-rule="evenodd" d="M223.13 58.659h.084l.055.026.081.058.056.081h.028l.888 1.638-.166.055-.194.055-.528.084-.997-.055-.472-.14.887-1.637.11-.139zm-1.554-.75h.11l.14.138.055.113v.081l-.027.113-.695 1.72-.499-.334-.748-.942-.25-.583 1.83-.307h.055zm3.108 0h.081l1.858.306-.22.554-.777.942-.499.362-.721-1.719v-.029l-.03-.11.085-.223.11-.055.055-.029zm-1.832-1.526h.582l.36.444-.137.556-.527.25-.499-.25-.139-.556zm3.44-1.36l.276.528.168.583.11.611-.028.61-1.804-.528-.11-.055-.139-.195.029-.139.026-.081.058-.084zm-6.296 0l1.386 1.25.084.11.026.223-.081.11-.058.085-.081.026-1.803.527-.03-.637.25-1.166zm3.577-1.719l.61.084 1.083.528.47.415-1.525 1.081h-.029l-.11.058-.22-.03-.084-.083-.055-.11-.03-.084zm-.887 0l-.113 1.859-.026.139-.168.139-.11.029h-.11l-.084-.058-1.525-1.081.36-.334.89-.498.498-.14.194-.055zm.444-2.774l-.14.03-.193.193-.03.166v.112l.03.166.028.165.056.362v.279l-.056.11-.084.084v.136l-.304.055-.333.058-.693.194-1.166.664-.472.473-.084-.055-.055-.03h-.082l-.112-.025-.25-.195-.25-.249-.11-.113-.11-.139-.057-.026-.027-.029-.11-.081H218.22l-.11.11-.084.139.055.276.113.112.026.027.055.029.14.11.138.084.305.165.223.194.084.11v.113l.11.082-.223.362-.33.748-.169.832-.055.861.055.415-.139.055-.081.084-.084.055-.278.084-.36.026h-.168l-.165.029-.055.029h-.055l-.168.055-.14.25v.138l.058.14.25.136.165-.026h.055l.029-.03.165-.054.168-.055.331-.11.278-.085.14.03.083.054.14-.028.165.417.388.748.528.638.638.554.36.223-.085.139.03.11v.084l-.111.276-.194.307-.113.139-.082.165-.028.026-.027.058-.057.165.084.279.139.055.139.055.25-.11.083-.14.026-.055.03-.028.054-.166.055-.168.11-.36.169-.278.055-.055.084-.026.081-.139.638.22 1.36.084.692-.11.308-.084.304-.11.026.081.058.058.081.026.084.084.14.279.11.33.055.168.055.166.029.028v.056l.084.139.275.11.14-.055.11-.084.084-.278-.027-.137-.028-.058-.03-.055-.08-.136-.114-.14-.194-.306-.11-.25-.026-.139.055-.081-.029-.055-.055-.084.388-.223.612-.554.525-.667.417-.748.14-.388h.08l.058.028.082-.055.11-.029.307.056.333.139.137.055.168.055h.055l.055.029h.165l.252-.14.056-.138v-.14l-.168-.22-.14-.055-.055-.029h-.055l-.165-.029h-.168l-.36-.026-.278-.084-.11-.081-.055-.058-.14-.055.056-.415-.055-.832-.084-.417-.11-.415-.334-.777-.22-.362.08-.055.059-.055v-.084l.055-.11.22-.195.307-.194.166-.055.139-.11.026-.03.055-.026.113-.112.055-.305-.084-.11-.11-.11h-.278l-.14.081-.055.029-.026.026-.139.113-.11.14-.252.248-.22.195-.11.026h-.114l-.136.084-.278-.305-.693-.472-.75-.388-.804-.224-.417-.055-.027-.081v-.055l-.055-.084-.057-.11v-.279l.028-.362.056-.165v-.278l-.027-.166-.194-.194z"/><path fill-rule="evenodd" stroke="#fff" stroke-linecap="butt" stroke-miterlimit="105.678" stroke-width=".11" d="M223.13 58.659h.084l.055.026.081.058.056.081h.028l.888 1.638-.166.055-.194.055-.528.084-.997-.055-.472-.14.887-1.637h0l.11-.139zm-1.554-.75h.11l.14.138.055.113v.081l-.027.113h0l-.695 1.72-.499-.334-.748-.942-.25-.583 1.83-.307h.055zm3.108 0h.081l1.858.306-.22.554-.777.942-.499.362-.721-1.719v-.029l-.03-.11.085-.223.11-.055.055-.029zm-1.832-1.526h.582l.36.444-.137.556-.527.25-.499-.25-.139-.556zm3.44-1.36l.276.528.168.583.11.611-.028.61-1.804-.528h0l-.11-.055-.139-.195.029-.139.026-.081.058-.084h0zm-6.296 0l1.386 1.25h0l.084.11.026.223-.081.11-.058.085-.081.026h0l-1.803.527-.03-.637.25-1.166zm3.577-1.719l.61.084 1.083.528.47.415-1.525 1.081h-.029l-.11.058-.22-.03-.084-.083-.055-.11-.03-.084h0zm-.887 0l-.113 1.859h0l-.026.139-.168.139-.11.029h-.11l-.084-.058h0l-1.525-1.081.36-.334.89-.498.498-.14.194-.055zm.444-2.774l-.14.03-.193.193-.03.166h0v.112l.03.166.028.165.056.362v.279l-.056.11-.084.084v.136l-.304.055-.333.058-.693.194-1.166.664-.472.473-.084-.055-.055-.03h-.082l-.112-.025-.25-.195-.25-.249-.11-.113-.11-.139-.057-.026-.027-.029-.11-.081H218.22l-.11.11-.084.139.055.276.113.112h0l.026.027.055.029.14.11.138.084.305.165.223.194.084.11v.113l.11.082-.223.362-.33.748-.169.832-.055.861.055.415-.139.055-.081.084-.084.055-.278.084-.36.026h-.168l-.165.029-.055.029h-.055 0l-.168.055-.14.25v.138l.058.14.25.136.165-.026h.055l.029-.03.165-.054.168-.055.331-.11.278-.085.14.03.083.054.14-.028.165.417.388.748.528.638.638.554.36.223-.085.139.03.11v.084l-.111.276-.194.307-.113.139-.082.165-.028.026-.027.058-.057.165.084.279.139.055.139.055.25-.11.083-.14h0l.026-.055.03-.028.054-.166.055-.168.11-.36.169-.278.055-.055.084-.026.081-.139.638.22 1.36.084.692-.11.308-.084.304-.11.026.081.058.058.081.026.084.084.14.279.11.33.055.168.055.166.029.028v.056l.084.139.275.11.14-.055.11-.084.084-.278-.027-.137-.028-.058-.03-.055-.08-.136-.114-.14-.194-.306-.11-.25-.026-.139.055-.081-.029-.055-.055-.084.388-.223.612-.554.525-.667.417-.748.14-.388h.08l.058.028.082-.055.11-.029.307.056.333.139.137.055.168.055h.055l.055.029h.165l.252-.14.056-.138v-.14l-.168-.22-.14-.055-.055-.029h-.055l-.165-.029h-.168l-.36-.026-.278-.084-.11-.081-.055-.058-.14-.055.056-.415-.055-.832-.084-.417-.11-.415-.334-.777-.22-.362.08-.055.059-.055v-.084l.055-.11.22-.195.307-.194.166-.055.139-.11.026-.03.055-.026.113-.112.055-.305-.084-.11-.11-.11h-.278l-.14.081-.055.029-.026.026-.139.113-.11.14-.252.248-.22.195-.11.026h-.114l-.136.084-.278-.305-.693-.472-.75-.388-.804-.224-.417-.055-.027-.081v-.055l-.055-.084-.057-.11v-.279l.028-.362.056-.165v-.278l-.027-.166-.194-.194z"/><path fill="#231f20" fill-rule="evenodd" d="M362.566 67.312v3.08h.36v-1.47l1.58 1.47h.443l-1.664-1.581 1.582-1.499h-.443l-1.499 1.415v-1.415zM365.117 68.2v1.36l.026.388.278.36.278.083.195.029.249-.029.333-.194.137-.194v.388h.333V68.2h-.36v1.25l-.028.275-.137.195-.194.168-.278.026-.223-.026-.25-.279V68.2zM368.555 68.144l-.25.03-.333.22-.08.223-.059-.418h-.33l.026.363.029.249v1.58h.333v-1.25l.026-.249.14-.22.165-.168.307-.026h.081l.14.026v-.33l-.082-.03zM370.22 68.449l.277.029.195.194.139.25.055.359-.055.362-.14.25-.194.194-.278.026h-.165l-.25-.11-.084-.11-.165-.25-.029-.362.03-.36.164-.25.195-.193.304-.03zm-1.027-1.247v3.19h.333v-.418l.11.194.389.223.25.029.194-.029.362-.139.139-.14.11-.164.14-.418.025-.25-.026-.249-.139-.414-.11-.14-.14-.138-.361-.166-.195-.029-.25.03-.388.22-.11.194v-1.386zM372.689 68.423l.25.026.304.333.029.278h-1.25l.055-.278.334-.333.278-.026zm0-.279l-.223.03-.389.165-.136.139-.14.165-.138.388v.5l.139.417.139.165.165.139.389.14.25.028.248-.029.389-.139.194-.14-.139-.248-.333.223-.36.026-.333-.026-.36-.418-.029-.388h1.583v-.055l-.029-.25-.11-.388-.113-.14-.136-.138-.334-.137-.194-.029zM375.214 68.144l-.223.03-.36.22-.084.223-.029-.418h-.33l.026.363V70.39h.333v-1.25l.026-.249.14-.22.194-.168.278-.026h.11l.11.026v-.33l-.08-.03zM376.904 68.144l-.25.03-.388.22-.11.194-.029-.389h-.333l.029.363V70.39h.36v-1.25l.028-.275.14-.223.22-.165.278-.03.223.03.25.278.026.275v1.36h.333v-1.386l-.029-.388-.25-.334-.304-.11-.194-.029zM379.15 68.423l.25.026.307.333.055.278h-1.275l.081-.278.305-.333.278-.026zm0-.279l-.22.03-.362.165-.165.139-.11.165-.168.388v.5l.168.417.11.165.165.139.389.14.249.028.25-.029.417-.139.165-.14-.14-.248-.304.223-.388.026-.333-.026-.36-.418-.026-.388h1.58v-.305l-.14-.388-.11-.14-.139-.138-.333-.137-.194-.029zM381.093 67.535l-.36.11v.554h-.417v.279h.418v1.246l.026.307.139.195.194.165.305.029.168-.029.136-.029v-.304l-.136.055h-.113l-.166-.026-.194-.223V68.478h.61v-.279h-.61v-.664zM383.007 68.423l.249.026.304.333.03.278h-1.25l.058-.278.33-.333.279-.026zm0-.279l-.22.03-.39.165-.138.139-.14.165-.139.388v.5l.14.417.139.165.165.139.388.14.25.028.249-.029.388-.139.168-.14-.112-.248-.331.223-.362.026-.334-.026-.36-.418-.028-.388h1.583v-.055l-.03-.25-.11-.388-.11-.14-.139-.138-.333-.137-.194-.029zM385.337 68.144l-.362.055-.25.14-.194.194-.026.278v.194l.305.305.25.084.359.081.168.055.194.168.026.11-.026.14-.25.165h-.443l-.389-.14-.168-.11-.11.25.166.139.446.14.25.028.359-.029.25-.139.11-.084.112-.25.026-.136-.026-.194-.307-.307-.276-.082-.362-.084-.136-.055-.168-.168-.026-.11.026-.165.25-.168h.222l.334.029.304.22.11-.25-.139-.138-.388-.137-.22-.029z"/><path fill="#486bb3" fill-rule="evenodd" d="M375.075 48.341l-.223.026-.22.084-5.964 2.856-.223.14-.305.388-.084.249-1.47 6.38-.028.221.084.444.11.223.029.029.026.055 4.134 5.13.165.195.473.194.25.027h6.629l.25-.027.443-.194.194-.194 4.134-5.131.14-.223.11-.5-.056-.248-1.47-6.381-.057-.25-.331-.388-.223-.139-5.963-2.856-.279-.084-.275-.026z"/><path fill="#fff" fill-rule="evenodd" d="M375.13 58.659l-.168.026-.11.14-.887 1.637.472.14.997.054.528-.084.194-.055.166-.055-.888-1.638h-.028l-.056-.081-.081-.058-.055-.026zM373.492 57.908l-1.83.307.25.583.748.942.499.333.695-1.719.027-.113v-.08l-.056-.114-.139-.139zM376.626 57.908l-.055.029-.11.055-.084.223.029.11v.03l.721 1.718.499-.362.777-.942.22-.554-1.858-.307zM374.852 56.383l-.36.444.14.556.498.25.527-.25.137-.556-.36-.444zM378.293 55.024l-1.415 1.249-.058.084-.026.081-.029.14.14.194.11.055 1.803.527.028-.609-.11-.611-.168-.583-.275-.527zM371.996 55.024l-.307.527-.25 1.166.03.637 1.803-.527.081-.026.058-.084.081-.11-.026-.224-.084-.11-1.386-1.25zM375.574 53.304l.11 1.859.029.084.055.11.084.084.22.029.11-.058h.03l1.524-1.081-.47-.415-1.084-.528-.608-.084zM374.492 53.304l-.194.056-.499.139-.89.498-.36.334 1.526 1.081.084.058h.11l.11-.03.168-.138.026-.14.113-1.858z"/><path fill="#000" fill-opacity="0" fill-rule="evenodd" d="M375.13 50.53l-.14.03-.193.193-.03.166v.112l.03.166.028.165.056.362v.279l-.056.11-.084.084v.136l-.304.055-.333.058-.693.194-1.166.664-.472.473-.084-.055-.055-.03h-.082l-.112-.025-.25-.195-.25-.249-.11-.113-.11-.139-.057-.026-.027-.029-.11-.081H370.22l-.11.11-.084.139.055.276.113.112.026.027.055.029.14.11.138.084.305.165.223.194.084.11v.113l.11.082-.223.362-.33.748-.169.832-.055.861.055.415-.139.055-.081.084-.084.055-.278.084-.36.026h-.168l-.165.029-.055.029h-.055l-.168.055-.14.25v.138l.058.14.25.136.165-.026h.055l.029-.03.165-.054.168-.055.331-.11.278-.085.14.03.083.054.14-.028.165.417.388.748.528.638.638.554.36.223-.085.139.03.11v.084l-.111.276-.194.307-.113.139-.082.165-.028.026-.027.058-.057.165.084.279.139.055.139.055.25-.11.083-.14.026-.055.03-.028.054-.166.055-.168.11-.36.169-.278.055-.055.084-.026.081-.139.638.22 1.36.084.692-.11.307-.084.305-.11.026.081.058.058.081.026.084.084.14.279.11.33.055.168.055.166.029.028v.056l.084.139.275.11.14-.055.11-.084.084-.278-.027-.137-.028-.058-.03-.055-.08-.136-.114-.14-.194-.306-.11-.25-.026-.139.055-.081-.029-.055-.055-.084.388-.223.612-.554.525-.667.417-.748.14-.388h.08l.058.028.082-.055.11-.029.307.056.333.139.137.055.168.055h.055l.055.029h.165l.252-.14.056-.138v-.14l-.168-.22-.14-.055-.055-.029h-.055l-.165-.029h-.168l-.36-.026-.278-.084-.11-.081-.055-.058-.14-.055.056-.415-.055-.832-.084-.417-.11-.415-.334-.777-.22-.362.08-.055.059-.055v-.084l.055-.11.22-.195.307-.194.166-.055.139-.11.026-.03.055-.026.113-.112.055-.305-.084-.11-.11-.11h-.278l-.14.081-.055.029-.026.026-.139.113-.11.14-.252.248-.22.195-.11.026h-.114l-.136.084-.278-.305-.693-.472-.75-.388-.804-.224-.417-.055-.027-.081v-.055l-.055-.084-.057-.11v-.279l.028-.362.055-.165v-.278l-.026-.166-.194-.194-.14-.029"/><path fill="#000" fill-opacity="0" fill-rule="evenodd" d="M375.13 58.659h.084l.055.026.081.058.056.081h.028l.888 1.638-.166.055-.194.055-.528.084-.997-.055-.472-.14.887-1.637.11-.139zm-1.554-.75h.11l.14.138.055.113v.081l-.027.113-.695 1.72-.499-.334-.748-.942-.25-.583 1.83-.307h.055zm3.108 0h.081l1.858.306-.22.554-.777.942-.499.362-.721-1.719v-.029l-.03-.11.085-.223.11-.055.055-.029zm-1.832-1.526h.582l.36.444-.137.556-.527.25-.499-.25-.139-.556zm3.44-1.36l.276.528.168.583.11.611-.028.61-1.804-.528-.11-.055-.139-.195.029-.139.026-.081.058-.084zm-6.296 0l1.386 1.25.084.11.026.223-.081.11-.058.085-.081.026-1.804.527-.028-.637.249-1.166zm3.577-1.719l.61.084 1.083.528.47.415-1.525 1.081h-.029l-.11.058-.22-.03-.084-.083-.055-.11-.03-.084zm-.887 0l-.113 1.859-.026.139-.168.139-.11.029h-.11l-.084-.058-1.525-1.081.36-.334.89-.498.498-.14.194-.055zm.444-2.774l-.14.03-.193.193-.03.166v.112l.03.166.028.165.056.362v.279l-.056.11-.084.084v.136l-.304.055-.333.058-.693.194-1.166.664-.472.473-.084-.055-.055-.03h-.082l-.112-.025-.25-.195-.25-.249-.11-.113-.11-.139-.057-.026-.027-.029-.11-.081H370.22l-.11.11-.084.139.055.276.113.112.026.027.055.029.14.11.138.084.305.165.223.194.084.11v.113l.11.082-.223.362-.33.748-.169.832-.055.861.055.415-.139.055-.081.084-.084.055-.278.084-.36.026h-.168l-.165.029-.055.029h-.055l-.168.055-.14.25v.138l.058.14.25.136.165-.026h.055l.029-.03.165-.054.168-.055.331-.11.278-.085.14.03.083.054.14-.028.165.417.388.748.528.638.638.554.36.223-.085.139.03.11v.084l-.111.276-.194.307-.113.139-.082.165-.028.026-.027.058-.057.165.084.279.139.055.139.055.25-.11.083-.14.026-.055.03-.028.054-.166.055-.168.11-.36.169-.278.055-.055.084-.026.081-.139.638.22 1.36.084.692-.11.307-.084.305-.11.026.081.058.058.081.026.084.084.14.279.11.33.055.168.055.166.029.028v.056l.084.139.275.11.14-.055.11-.084.084-.278-.027-.137-.028-.058-.03-.055-.08-.136-.114-.14-.194-.306-.11-.25-.026-.139.055-.081-.029-.055-.055-.084.388-.223.612-.554.525-.667.417-.748.14-.388h.08l.058.028.082-.055.11-.029.307.056.333.139.137.055.168.055h.055l.055.029h.165l.252-.14.056-.138v-.14l-.168-.22-.14-.055-.055-.029h-.055l-.165-.029h-.168l-.36-.026-.278-.084-.11-.081-.055-.058-.14-.055.056-.415-.055-.832-.084-.417-.11-.415-.334-.777-.22-.362.08-.055.059-.055v-.084l.055-.11.22-.195.307-.194.166-.055.139-.11.026-.03.055-.026.113-.112.055-.305-.084-.11-.11-.11h-.278l-.14.081-.055.029-.026.026-.139.113-.11.14-.252.248-.22.195-.11.026h-.114l-.136.084-.278-.305-.693-.472-.75-.388-.804-.224-.417-.055-.027-.081v-.055l-.055-.084-.057-.11v-.279l.028-.362.055-.165v-.278l-.026-.166-.194-.194z"/><path fill-rule="evenodd" stroke="#fff" stroke-linecap="butt" stroke-miterlimit="105.678" stroke-width=".11" d="M375.13 58.659h.084l.055.026.081.058.056.081h.028l.888 1.638-.166.055-.194.055-.528.084-.997-.055-.472-.14.887-1.637h0l.11-.139zm-1.554-.75h.11l.14.138.055.113v.081l-.027.113h0l-.695 1.72-.499-.334-.748-.942-.25-.583 1.83-.307h.055zm3.108 0h.081l1.858.306-.22.554-.777.942-.499.362-.721-1.719v-.029l-.03-.11.085-.223.11-.055.055-.029zm-1.832-1.526h.582l.36.444-.137.556-.527.25-.499-.25-.139-.556zm3.44-1.36l.276.528.168.583.11.611-.028.61-1.804-.528h0l-.11-.055-.139-.195.029-.139.026-.081.058-.084h0zm-6.296 0l1.386 1.25h0l.084.11.026.223-.081.11-.058.085-.081.026h0l-1.804.527-.028-.637.249-1.166zm3.577-1.719l.61.084 1.083.528.47.415-1.525 1.081h-.029l-.11.058-.22-.03-.084-.083-.055-.11-.03-.084h0zm-.887 0l-.113 1.859h0l-.026.139-.168.139-.11.029h-.11l-.084-.058h0l-1.525-1.081.36-.334.89-.498.498-.14.194-.055zm.444-2.774l-.14.03-.193.193-.03.166h0v.112l.03.166.028.165.056.362v.279l-.056.11-.084.084v.136l-.304.055-.333.058-.693.194-1.166.664-.472.473-.084-.055-.055-.03h-.082l-.112-.025-.25-.195-.25-.249-.11-.113-.11-.139-.057-.026-.027-.029-.11-.081H370.22l-.11.11-.084.139.055.276.113.112h0l.026.027.055.029.14.11.138.084.305.165.223.194.084.11v.113l.11.082-.223.362-.33.748-.169.832-.055.861.055.415-.139.055-.081.084-.084.055-.278.084-.36.026h-.168l-.165.029-.055.029h-.055 0l-.168.055-.14.25v.138l.058.14.25.136.165-.026h.055l.029-.03.165-.054.168-.055.331-.11.278-.085.14.03.083.054.14-.028.165.417.388.748.528.638.638.554.36.223-.085.139.03.11v.084l-.111.276-.194.307-.113.139-.082.165-.028.026-.027.058-.057.165.084.279.139.055.139.055.25-.11.083-.14h0l.026-.055.03-.028.054-.166.055-.168.11-.36.169-.278.055-.055.084-.026.081-.139.638.22 1.36.084.692-.11.307-.084.305-.11.026.081.058.058.081.026.084.084.14.279.11.33.055.168.055.166.029.028v.056l.084.139.275.11.14-.055.11-.084.084-.278-.027-.137-.028-.058-.03-.055-.08-.136-.114-.14-.194-.306-.11-.25-.026-.139.055-.081-.029-.055-.055-.084.388-.223.612-.554.525-.667.417-.748.14-.388h.08l.058.028.082-.055.11-.029.307.056.333.139.137.055.168.055h.055l.055.029h.165l.252-.14.056-.138v-.14l-.168-.22-.14-.055-.055-.029h-.055l-.165-.029h-.168l-.36-.026-.278-.084-.11-.081-.055-.058-.14-.055.056-.415-.055-.832-.084-.417-.11-.415-.334-.777-.22-.362.08-.055.059-.055v-.084l.055-.11.22-.195.307-.194.166-.055.139-.11.026-.03.055-.026.113-.112.055-.305-.084-.11-.11-.11h-.278l-.14.081-.055.029-.026.026-.139.113-.11.14-.252.248-.22.195-.11.026h-.114l-.136.084-.278-.305-.693-.472-.75-.388-.804-.224-.417-.055-.027-.081v-.055l-.055-.084-.057-.11v-.279l.028-.362.055-.165v-.278l-.026-.166-.194-.194z"/><path fill="#000" fill-opacity="0" fill-rule="evenodd" d="M263 124.835v12h69v99.498h16"/><path fill-rule="evenodd" stroke="#008200" stroke-linecap="butt" stroke-linejoin="round" d="M263 124.835v12h69v99.498h12.573"/><path fill="#008200" fill-rule="evenodd" stroke="#008200" stroke-linecap="butt" d="M344.573 236.333l-1.125 1.125 3.09-1.125-3.09-1.124z"/></g></svg>