<svg xmlns="http://www.w3.org/2000/svg" id="a8c8e003-d999-4b36-b743-3bdf82e2cebe" data-name="Layer 1" viewBox="0 0 875.2 610.04"><defs><style>.afa2372d-472c-4406-bb90-65b3e30d053b,.b50c7fec-e692-430d-b7d5-5208c3ccb4a1{font-size:24px}.afa2372d-472c-4406-bb90-65b3e30d053b{fill:#666}.a3e7c835-caea-4833-8999-c74998730c28,.ad3395e9-e81f-4c2e-b0d9-9d5d638a4934,.afa2372d-472c-4406-bb90-65b3e30d053b,.b50c7fec-e692-430d-b7d5-5208c3ccb4a1,.e009e792-1a54-41e7-8788-2a927761b599{font-family:Roboto-Black,Roboto;font-weight:800}.a87cc174-fa12-425b-9052-f76bce2d8b33,.a8a3be29-29ad-4048-a787-d3dd0783758d,.afcd50dc-54ac-4d56-aae4-5bba5cddcc25,.f22deda6-6eea-4af7-a62c-a46a5307870b{fill:none;stroke-miterlimit:10;stroke-width:4px}.afcd50dc-54ac-4d56-aae4-5bba5cddcc25{stroke:#666}.ad3395e9-e81f-4c2e-b0d9-9d5d638a4934,.b50c7fec-e692-430d-b7d5-5208c3ccb4a1{fill:#369}.ba1f0372-2deb-4acf-9146-b9250b3279db{letter-spacing:0}.a87cc174-fa12-425b-9052-f76bce2d8b33{stroke:#369}.a3e7c835-caea-4833-8999-c74998730c28,.ad3395e9-e81f-4c2e-b0d9-9d5d638a4934,.e009e792-1a54-41e7-8788-2a927761b599{font-size:21px}.a0c696d4-4611-4664-81a0-ba8fc321f1fe{letter-spacing:-.01em}.a06ec8a9-c015-4523-9f06-18ca163dfc10,.a3e7c835-caea-4833-8999-c74998730c28{fill:#090}.a8a3be29-29ad-4048-a787-d3dd0783758d{stroke:#090}.f22deda6-6eea-4af7-a62c-a46a5307870b{stroke:#f60}.e009e792-1a54-41e7-8788-2a927761b599,.feee2525-358e-4132-a80a-624c000e33ef{fill:#f60}</style></defs><text class="afa2372d-472c-4406-bb90-65b3e30d053b" transform="translate(106.58 51.53)">Submit PR</text><rect width="175.75" height="85.04" x="76.12" y="2" class="afcd50dc-54ac-4d56-aae4-5bba5cddcc25" rx="8.5"/><text class="afa2372d-472c-4406-bb90-65b3e30d053b" transform="translate(124.55 572.53)"><tspan letter-spacing="0">E</tspan><tspan x="13.31" y="0">dit PR</tspan></text><rect width="175.75" height="85.04" x="76.12" y="523" class="afcd50dc-54ac-4d56-aae4-5bba5cddcc25" rx="8.5"/><text class="b50c7fec-e692-430d-b7d5-5208c3ccb4a1" transform="translate(406.47 225.03)">C<tspan x="15.75" y="0" class="ba1f0372-2deb-4acf-9146-b9250b3279db">r</tspan><tspan x="24.87" y="0">eate Issue</tspan></text><rect width="175.75" height="85.04" x="386.79" y="175.5" class="a87cc174-fa12-425b-9052-f76bce2d8b33" rx="8.5"/><path class="a87cc174-fa12-425b-9052-f76bce2d8b33" d="M251.87 391.52L164 451.69l-87.88-60.17L164 331.35l87.87 60.17z"/><text class="ad3395e9-e81f-4c2e-b0d9-9d5d638a4934" transform="translate(134.38 372.46)">Meets<tspan x="-10.41" y="25.2" class="ba1f0372-2deb-4acf-9146-b9250b3279db">r</tspan><tspan x="-2.43" y="25.2">equi</tspan><tspan x="38.42" y="25.2" class="ba1f0372-2deb-4acf-9146-b9250b3279db">r</tspan><tspan x="46.4" y="25.2">ed</tspan><tspan x="-9.81" y="50.4">criteria?</tspan></text><path class="a87cc174-fa12-425b-9052-f76bce2d8b33" d="M562.54 391.52l-87.88 60.17-87.87-60.17 87.87-60.17 87.88 60.17z"/><text class="ad3395e9-e81f-4c2e-b0d9-9d5d638a4934" transform="translate(445.05 372.46)">Meets<tspan x="-34.85" y="25.2">supplemental</tspan><tspan x="-9.81" y="50.4">criteria?</tspan></text><text class="b50c7fec-e692-430d-b7d5-5208c3ccb4a1" transform="translate(106.36 225.03)">R<tspan x="15.66" y="0" class="a0c696d4-4611-4664-81a0-ba8fc321f1fe">e</tspan><tspan x="28.54" y="0">view PR</tspan></text><rect width="175.75" height="85.04" x="76.12" y="175.5" class="a87cc174-fa12-425b-9052-f76bce2d8b33" rx="8.5"/><text class="b50c7fec-e692-430d-b7d5-5208c3ccb4a1" transform="translate(721.14 398.53)"><tspan letter-spacing="0">A</tspan><tspan x="16.42" y="0">pp</tspan><tspan x="43.44" y="0" letter-spacing="0">r</tspan><tspan x="52.59" y="0" letter-spacing="-.01em">o</tspan><tspan x="65.86" y="0" class="a0c696d4-4611-4664-81a0-ba8fc321f1fe">v</tspan><tspan x="78.07" y="0">e PR</tspan></text><rect width="175.75" height="85.04" x="697.46" y="349" class="a87cc174-fa12-425b-9052-f76bce2d8b33" rx="8.5"/><text transform="translate(731.33 572.03)" fill="#090" font-family="Roboto-Black,Roboto" font-weight="800" font-size="24">Me<tspan x="34.1" y="0" class="ba1f0372-2deb-4acf-9146-b9250b3279db">r</tspan><tspan x="43.22" y="0">ge PR</tspan></text><rect width="175.75" height="85.04" x="697.12" y="522.5" class="a8a3be29-29ad-4048-a787-d3dd0783758d" rx="8.5"/><path class="a8a3be29-29ad-4048-a787-d3dd0783758d" d="M164 87.52v73.65"/><path class="a06ec8a9-c015-4523-9f06-18ca163dfc10" d="M154.03 158.25l9.97 17.27 9.97-17.27h-19.94z"/><path class="a8a3be29-29ad-4048-a787-d3dd0783758d" d="M164 260.52v56.65"/><path class="a06ec8a9-c015-4523-9f06-18ca163dfc10" d="M154.03 314.25l9.97 17.27 9.97-17.27h-19.94z"/><path class="a8a3be29-29ad-4048-a787-d3dd0783758d" d="M785 434.52v73.65"/><path class="a06ec8a9-c015-4523-9f06-18ca163dfc10" d="M775.03 505.25l9.97 17.27 9.97-17.27h-19.94z"/><path class="a8a3be29-29ad-4048-a787-d3dd0783758d" d="M252 391.52h120.65"/><path class="a06ec8a9-c015-4523-9f06-18ca163dfc10" d="M369.73 401.49l17.27-9.97-17.27-9.97v19.94z"/><path class="a8a3be29-29ad-4048-a787-d3dd0783758d" d="M563 391.52h119.65"/><path class="a06ec8a9-c015-4523-9f06-18ca163dfc10" d="M679.73 401.49l17.27-9.97-17.27-9.97v19.94z"/><path class="f22deda6-6eea-4af7-a62c-a46a5307870b" d="M76 565.52H2v-514h59.65"/><path class="feee2525-358e-4132-a80a-624c000e33ef" d="M58.73 61.49L76 51.52l-17.27-9.97v19.94z"/><path class="f22deda6-6eea-4af7-a62c-a46a5307870b" d="M475 331.52v-56.65"/><path class="feee2525-358e-4132-a80a-624c000e33ef" d="M484.97 277.79L475 260.52l-9.97 17.27h19.94z"/><path class="f22deda6-6eea-4af7-a62c-a46a5307870b" d="M563 218.02l222 .5v116.13"/><path class="feee2525-358e-4132-a80a-624c000e33ef" d="M775.02 331.73L785 349l9.97-17.27h-19.95z"/><text class="a3e7c835-caea-4833-8999-c74998730c28" transform="translate(250.55 413.41)">YES</text><text class="e009e792-1a54-41e7-8788-2a927761b599" transform="translate(180.97 467.41)">NO</text><text class="e009e792-1a54-41e7-8788-2a927761b599" transform="translate(482.97 331.41)">NO</text><text class="a3e7c835-caea-4833-8999-c74998730c28" transform="translate(563.55 413.41)">YES</text><path class="f22deda6-6eea-4af7-a62c-a46a5307870b" d="M164 451.52v56.65"/><path class="feee2525-358e-4132-a80a-624c000e33ef" d="M154.03 505.25l9.97 17.27 9.97-17.27h-19.94z"/></svg>