<svg xmlns="http://www.w3.org/2000/svg" id="a9410d12-0d61-4860-9caf-4aa81d73d3ab" data-name="Layer 1" viewBox="0 0 1127.8 536.22"><defs><style>.f5b41e30-30ae-4f26-b089-04ac86fe57e2{fill:#466bb0}.a6b88054-fdd2-41fb-8800-4aaaac89010e,.b08a60e8-d5e3-47c6-8765-54e91386a2e2,.b7126ed3-0723-4d7f-8489-44e9140a611e,.e490bdda-b499-42e6-a54a-e78f2b8aa3b2,.fbf59e5c-7545-4d21-8f09-14871b9280fe{fill:none}.b08a60e8-d5e3-47c6-8765-54e91386a2e2,.b7126ed3-0723-4d7f-8489-44e9140a611e,.fbf59e5c-7545-4d21-8f09-14871b9280fe{stroke-linejoin:round}.a8abd049-976e-4fc1-ae51-c49f9aa3fee7,.ea96df71-f7e5-489f-a491-48f7b5240008{font-size:12px}.a398c1c0-1ae6-42aa-bd8e-928a7dc6a7af,.a8abd049-976e-4fc1-ae51-c49f9aa3fee7,.a8cc6f2d-c1e4-4508-b7b0-186499b7717d,.bb4f2cbc-d575-4a0d-84f1-538b3757378c,.f710b24f-5a6e-46e9-b971-052267f34d76{fill:#010101}.ab2bf7fd-baf8-4581-9478-25c8e49617f0{letter-spacing:-.01em}.a268483b-21e1-4920-849e-de9919c4d825{letter-spacing:.01em}.b61332c7-925b-4261-8548-1c7de017d7fe{letter-spacing:0}.ea92d7dd-0be3-4413-8853-ed38e711a5c4{letter-spacing:-.01em}.e3388f18-8853-483b-adb1-110dc806dcf3{letter-spacing:0}.f1b48762-a0d4-422b-9317-38c92e67aea4{fill:#119a48}.a8cc6f2d-c1e4-4508-b7b0-186499b7717d{font-size:10px}.a398c1c0-1ae6-42aa-bd8e-928a7dc6a7af,.a8abd049-976e-4fc1-ae51-c49f9aa3fee7,.a8cc6f2d-c1e4-4508-b7b0-186499b7717d,.bb4f2cbc-d575-4a0d-84f1-538b3757378c,.ea96df71-f7e5-489f-a491-48f7b5240008,.f710b24f-5a6e-46e9-b971-052267f34d76{font-family:GoogleSansDisplay-Regular,Google Sans Display}.b47a11b2-bdd4-4c94-a536-3ff3890aae6b{letter-spacing:-.04em}.a6ab78ef-dc09-439b-b29c-a69373a26726{letter-spacing:-.03em}.f911231f-cd5e-4ff1-9d21-8aa3b7be3411{fill:#e5e5e4}.b555c1bb-b960-46c7-8767-d80146dadbf4{fill:#777678}.e9bb5c86-6a6c-4e63-a35a-a8db12e9f576{fill:#fff}.f710b24f-5a6e-46e9-b971-052267f34d76{font-size:14px}.f215488f-4682-4fb8-bf55-00eb7742a09b{letter-spacing:.02em}.a444e6db-ea27-4308-8d0c-46755eb75974,.aff424b6-2386-4897-a8aa-c88604ade126{letter-spacing:0}.b7126ed3-0723-4d7f-8489-44e9140a611e,.e490bdda-b499-42e6-a54a-e78f2b8aa3b2{stroke:#fff}.a6b88054-fdd2-41fb-8800-4aaaac89010e,.b7126ed3-0723-4d7f-8489-44e9140a611e,.e490bdda-b499-42e6-a54a-e78f2b8aa3b2{stroke-width:2px}.e490bdda-b499-42e6-a54a-e78f2b8aa3b2,.fbf59e5c-7545-4d21-8f09-14871b9280fe{stroke-linecap:round}.a6b88054-fdd2-41fb-8800-4aaaac89010e,.e490bdda-b499-42e6-a54a-e78f2b8aa3b2{stroke-miterlimit:10}.b08a60e8-d5e3-47c6-8765-54e91386a2e2{stroke:#b24d9d;stroke-width:3px}.e0c131b3-1fb0-4364-99e1-d9ef61b24568{letter-spacing:-.03em}.a2d57362-92c3-4fb5-ad27-66d8242cc870{letter-spacing:-.01em}.aa256662-fce3-4dfa-8196-2ac4340fe192{fill:#f26722}.a6b88054-fdd2-41fb-8800-4aaaac89010e{stroke:#07a14a}.b3dd7e29-de12-474a-868d-77c247e13299{fill:#07a14a}.bb4f2cbc-d575-4a0d-84f1-538b3757378c{font-size:7.08px;letter-spacing:-.03em}.fe02ae3a-15e1-46f2-8238-f497270e65c3{letter-spacing:0}.a810eeb5-5a15-4495-9be4-710ca0482784{letter-spacing:-.02em}.e664c73c-edca-4ee3-8fe2-53e19520945e{letter-spacing:-.01em}.be90388b-953c-4ed6-ad3e-620ab818c306{letter-spacing:-.02em}.b74a8556-9fc9-4542-86da-8e2f8a352bc5{letter-spacing:0}.a11a0377-9de2-4d2e-8295-e64eabcec3bc,.b9f4022a-cb44-4b28-9d49-2e44f3559bf8{letter-spacing:-.02em}.e6480a8b-4b7e-4e1a-a2e5-f1e99d17a805{letter-spacing:0}.a4a8bb30-a42b-42b3-a70f-d7d928142f4a{letter-spacing:-.01em}.bcf7907a-0a3a-46f6-b6ba-66a19443026c{letter-spacing:0}.fb5ff91e-8f6c-4919-a823-bd6b85396607{fill:#486baf}.fbf59e5c-7545-4d21-8f09-14871b9280fe{stroke:#486baf;stroke-width:4px;stroke-dasharray:6 12}.ec87a236-d3bd-47fa-a97d-d8c2e91f25a5{letter-spacing:-.01em}.ea96df71-f7e5-489f-a491-48f7b5240008{fill:#231f20}.b9948846-df5c-4862-824f-c0b118fcfce3{letter-spacing:-.02em}.a398c1c0-1ae6-42aa-bd8e-928a7dc6a7af{isolation:isolate;font-size:8.96px}.a23e4365-7061-4cf7-ae0d-85c3037da071{letter-spacing:-.01em}.a96b384f-7f9d-4ed0-a341-8b0f64612261{letter-spacing:0}.ef2e4981-b11c-4582-b036-2228c6f6c08b{letter-spacing:-.01em}.aadcb088-02c1-41ab-aec7-c8be292d41e0{letter-spacing:0}.b7d0207d-1b80-4fdb-988b-02e06c583481{letter-spacing:-.02em}.b3bee058-b072-4b79-97f9-0f2efd1191a9{letter-spacing:-.01em}.bdd7232f-f6fd-4049-ad87-56c85dcf4369{letter-spacing:.01em}.b557930e-ca76-42d9-95d2-6b4b210944e9,.e51c0731-5533-4f31-8c99-2cd7e20066b9{letter-spacing:0}.f84c5900-a235-4989-ba10-4975976d5df3{letter-spacing:-.03em}.e26d1663-69b3-454b-b962-dfbcbd173fb2{letter-spacing:-.02em}</style></defs><rect width="831.42" height="154.17" x="157.02" y="315.33" rx="9" opacity=".1" fill="#466bb0"/><rect width="897.6" height="465.24" x="118.9" y="12.71" rx="10" stroke-linejoin="round" stroke="#466bb0" stroke-dasharray="10.03 10.03" fill="none"/><text transform="translate(118.9 10.3)" font-family="GoogleSansDisplay-Bold,Google Sans Display" font-weight="700" fill="#010101" font-size="12">I<tspan x="3.52" y="0" class="ab2bf7fd-baf8-4581-9478-25c8e49617f0">s</tspan><tspan x="9.38" y="0" class="a268483b-21e1-4920-849e-de9919c4d825">t</tspan><tspan x="14.36" y="0" class="ab2bf7fd-baf8-4581-9478-25c8e49617f0">i</tspan><tspan x="17.56" y="0" class="b61332c7-925b-4261-8548-1c7de017d7fe">o </tspan><tspan x="27.46" y="0" class="ea92d7dd-0be3-4413-8853-ed38e711a5c4">M</tspan><tspan x="38.08" y="0" class="e3388f18-8853-483b-adb1-110dc806dcf3">e</tspan><tspan x="45" y="0" class="b61332c7-925b-4261-8548-1c7de017d7fe">sh</tspan></text><path d="M93.25 156.05a1.36 1.36 0 011 .4 1.34 1.34 0 01.4 1V163a1.34 1.34 0 01-.4 1 1.36 1.36 0 01-1 .4H83a1.37 1.37 0 01-1.37-1.4v-5.58a1.37 1.37 0 011.37-1.37h.7V154a4.38 4.38 0 01.59-2.21 4.54 4.54 0 011.62-1.61 4.42 4.42 0 014.41 0 4.54 4.54 0 011.68 1.56 4.38 4.38 0 01.59 2.21v2.1zm-3 0V154a2 2 0 00-.61-1.48 2.11 2.11 0 00-3 0A2 2 0 0086 154v2.1z" class="f1b48762-a0d4-422b-9317-38c92e67aea4"/><text class="a8cc6f2d-c1e4-4508-b7b0-186499b7717d" transform="translate(66.31 132.53)">JWT+<tspan x="25.68" y="0" class="b47a11b2-bdd4-4c94-a536-3ff3890aae6b"> </tspan><tspan x="27.6" y="0">TLS</tspan><tspan x="9.63" y="12" class="a6ab78ef-dc09-439b-b29c-a69373a26726">m</tspan><tspan x="17.97" y="12">TLS</tspan></text><path d="M1053.54 156.05a1.38 1.38 0 011.4 1.39V163a1.38 1.38 0 01-1.4 1.39h-10.22a1.38 1.38 0 01-1.4-1.39v-5.58a1.38 1.38 0 011.4-1.39h.69V154a4.29 4.29 0 01.6-2.21 4.52 4.52 0 011.61-1.61 4.43 4.43 0 014.42 0 4.52 4.52 0 011.61 1.61 4.29 4.29 0 01.6 2.21v2.1zm-3 0V154a2.09 2.09 0 10-4.18 0v2.1z" class="f1b48762-a0d4-422b-9317-38c92e67aea4"/><text class="a8cc6f2d-c1e4-4508-b7b0-186499b7717d" transform="translate(1025.45 133.9)">JWT +<tspan x="28" y="0" class="b47a11b2-bdd4-4c94-a536-3ff3890aae6b"> </tspan><tspan x="29.92" y="0">TLS</tspan><tspan x="10.79" y="12" class="a6ab78ef-dc09-439b-b29c-a69373a26726">m</tspan><tspan x="19.13" y="12">TLS</tspan></text><rect width="205.85" height="150.12" x="281.86" y="67.11" class="f911231f-cd5e-4ff1-9d21-8aa3b7be3411" rx="3"/><rect width="205.85" height="150.12" x="277.55" y="62.8" class="b555c1bb-b960-46c7-8767-d80146dadbf4" rx="3"/><rect width="205.85" height="150.12" x="272.15" y="57.4" class="f911231f-cd5e-4ff1-9d21-8aa3b7be3411" rx="3"/><rect width="117" height="40.35" x="316.58" y="74.57" class="e9bb5c86-6a6c-4e63-a35a-a8db12e9f576" rx="3"/><text class="f710b24f-5a6e-46e9-b971-052267f34d76" transform="translate(368.4 99.26)">Se<tspan x="15.53" y="0" class="f215488f-4682-4fb8-bf55-00eb7742a09b">r</tspan><tspan x="20.89" y="0">v</tspan><tspan x="27.92" y="0" class="a444e6db-ea27-4308-8d0c-46755eb75974">ic</tspan><tspan x="38.39" y="0" class="aff424b6-2386-4897-a8aa-c88604ade126">e</tspan><tspan x="46.09" y="0" class="a6ab78ef-dc09-439b-b29c-a69373a26726"> </tspan><tspan x="48.92" y="0">A</tspan></text><circle cx="343.03" cy="94.74" r="18" class="b555c1bb-b960-46c7-8767-d80146dadbf4"/><path class="b7126ed3-0723-4d7f-8489-44e9140a611e" d="M336.64 88.23h12.79v12.79h-12.79z"/><path class="e490bdda-b499-42e6-a54a-e78f2b8aa3b2" d="M339.01 88.23v-3.08M343.03 88.23v-3.08M347.06 88.23v-3.08M339.01 104.33v-3.08M343.03 104.33v-3.08M347.06 104.33v-3.08M336.52 98.77h-3.08M336.52 94.74h-3.08M336.52 90.71h-3.08M352.63 98.77h-3.08M352.63 94.74h-3.08M352.63 90.71h-3.08"/><rect width="5.68" height="5.68" x="340.19" y="91.78" class="e9bb5c86-6a6c-4e63-a35a-a8db12e9f576" rx="2"/><rect width="117" height="39.08" x="316.58" y="151.28" class="e9bb5c86-6a6c-4e63-a35a-a8db12e9f576" rx="3"/><path class="b08a60e8-d5e3-47c6-8765-54e91386a2e2" d="M356.84 178.47v-15.3l-13.26-7.65-13.26 7.65v15.3l13.26 7.65 13.26-7.65z"/><text class="f710b24f-5a6e-46e9-b971-052267f34d76" transform="translate(369.01 175.26)">P<tspan x="8.04" y="0" class="e0c131b3-1fb0-4364-99e1-d9ef61b24568">r</tspan><tspan x="12.74" y="0" class="a2d57362-92c3-4fb5-ad27-66d8242cc870">o</tspan><tspan x="20.61" y="0">xy</tspan></text><path d="M425.65 158.79l1 1a.48.48 0 01.13.52.5.5 0 01-.38.37l-1.4.32.4 1.37a.51.51 0 01-.13.53.52.52 0 01-.54.14l-1.37-.4-.35 1.39a.48.48 0 01-.38.39.51.51 0 01-.51-.14l-1-1-1 1a.53.53 0 01-.52.14.46.46 0 01-.36-.39l-.36-1.39-1.37.4a.5.5 0 01-.53-.14.51.51 0 01-.14-.53l.4-1.37-1.39-.35a.51.51 0 01-.38-.37.49.49 0 01.14-.52l1-1-1-1a.49.49 0 01-.14-.52.51.51 0 01.38-.37l1.39-.35-.4-1.37a.51.51 0 01.14-.53.5.5 0 01.53-.14l1.37.4.36-1.39a.46.46 0 01.37-.39.49.49 0 01.51.14l1 1 1-1a.5.5 0 01.52-.13.5.5 0 01.37.38l.35 1.39 1.37-.4a.52.52 0 01.54.14.51.51 0 01.13.53l-.4 1.37 1.39.35a.5.5 0 01.38.37.48.48 0 01-.13.52z" class="aa256662-fce3-4dfa-8196-2ac4340fe192"/><path d="M423.66 182.28a.51.51 0 01.15.37.52.52 0 01-.15.38l-3.72 3.72a.53.53 0 01-.38.16.51.51 0 01-.37-.16.49.49 0 01-.16-.38v-2.12h-3a.51.51 0 01-.38-.16.51.51 0 01-.15-.37v-2.13a.51.51 0 01.53-.53h3v-2.13a.49.49 0 01.16-.37.47.47 0 01.37-.16.49.49 0 01.38.16zm1 4.45a2.12 2.12 0 002.13-2.13v-4.25a2.12 2.12 0 00-2.13-2.13h-1.86a.27.27 0 00-.27.27v.89a.25.25 0 00.08.18.24.24 0 00.19.08h1.86a.72.72 0 01.71.71v4.25a.72.72 0 01-.71.71h-1.86a.27.27 0 00-.19.08.26.26 0 00-.08.19v.88a.26.26 0 00.08.19.27.27 0 00.19.08z" class="f5b41e30-30ae-4f26-b089-04ac86fe57e2"/><rect width="203.41" height="148.34" x="678.32" y="68.89" class="f911231f-cd5e-4ff1-9d21-8aa3b7be3411" rx="3"/><rect width="203.41" height="148.34" x="674.05" y="64.63" class="b555c1bb-b960-46c7-8767-d80146dadbf4" rx="3"/><rect width="203.41" height="148.34" x="668.72" y="59.3" class="f911231f-cd5e-4ff1-9d21-8aa3b7be3411" rx="3"/><rect width="117" height="40.35" x="711.93" y="74.57" class="e9bb5c86-6a6c-4e63-a35a-a8db12e9f576" rx="3"/><text class="f710b24f-5a6e-46e9-b971-052267f34d76" transform="translate(763.99 99.26)">Se<tspan x="15.53" y="0" class="f215488f-4682-4fb8-bf55-00eb7742a09b">r</tspan><tspan x="20.89" y="0">v</tspan><tspan x="27.92" y="0" class="a444e6db-ea27-4308-8d0c-46755eb75974">ic</tspan><tspan x="38.39" y="0" class="aff424b6-2386-4897-a8aa-c88604ade126">e B</tspan></text><circle cx="738.38" cy="94.74" r="18" class="b555c1bb-b960-46c7-8767-d80146dadbf4"/><path class="b7126ed3-0723-4d7f-8489-44e9140a611e" d="M731.99 88.23h12.79v12.79h-12.79z"/><path class="e490bdda-b499-42e6-a54a-e78f2b8aa3b2" d="M734.36 88.23v-3.08M738.38 88.23v-3.08M742.41 88.23v-3.08M734.36 104.33v-3.08M738.38 104.33v-3.08M742.41 104.33v-3.08M731.87 98.77h-3.08M731.87 94.74h-3.08M731.87 90.71h-3.08M747.98 98.77h-3.08M747.98 94.74h-3.08M747.98 90.71h-3.08"/><rect width="5.68" height="5.68" x="735.54" y="91.78" class="e9bb5c86-6a6c-4e63-a35a-a8db12e9f576" rx="2"/><path class="a6b88054-fdd2-41fb-8800-4aaaac89010e" d="M440.91 170.82h263.65"/><path class="b3dd7e29-de12-474a-868d-77c247e13299" d="M442.37 175.81l-8.64-4.99 8.64-4.99v9.98zM703.1 175.81l8.63-4.99-8.63-4.99v9.98z"/><path class="a6b88054-fdd2-41fb-8800-4aaaac89010e" d="M374.62 121.94v22.65"/><path class="b3dd7e29-de12-474a-868d-77c247e13299" d="M369.64 123.4l4.98-8.63 4.99 8.63h-9.97zM369.64 143.13l4.98 8.64 4.99-8.64h-9.97z"/><path class="a6b88054-fdd2-41fb-8800-4aaaac89010e" d="M779.62 121.94v22.65"/><path class="b3dd7e29-de12-474a-868d-77c247e13299" d="M774.64 123.4l4.98-8.63 4.99 8.63h-9.97zM774.64 143.13l4.98 8.64 4.99-8.64h-9.97z"/><path d="M297.64 158.77a1.38 1.38 0 011.39 1.4v5.58a1.36 1.36 0 01-.4 1 1.34 1.34 0 01-1 .4h-10.22a1.34 1.34 0 01-1-.4 1.36 1.36 0 01-.4-1v-5.58a1.38 1.38 0 011.39-1.4h.7v-2.09a4.38 4.38 0 01.59-2.21 4.54 4.54 0 011.62-1.61 4.42 4.42 0 014.41 0 4.54 4.54 0 011.62 1.61 4.38 4.38 0 01.59 2.21v2.09zm-3 0v-2.09a2 2 0 00-.61-1.48 2.11 2.11 0 00-3 0 2 2 0 00-.61 1.48v2.09z" class="f1b48762-a0d4-422b-9317-38c92e67aea4"/><text class="bb4f2cbc-d575-4a0d-84f1-538b3757378c" transform="translate(283.89 150.85)">m<tspan x="5.91" y="0" class="fe02ae3a-15e1-46f2-8238-f497270e65c3">TLS</tspan></text><path d="M577.34 158.77a1.4 1.4 0 011.4 1.4v5.58a1.37 1.37 0 01-.41 1 1.34 1.34 0 01-1 .4h-10.22a1.34 1.34 0 01-1-.4 1.37 1.37 0 01-.41-1v-5.58a1.4 1.4 0 011.39-1.4h.7v-2.09a4.29 4.29 0 01.6-2.21 4.44 4.44 0 011.61-1.61 4.43 4.43 0 014.42 0 4.6 4.6 0 011.61 1.61 4.28 4.28 0 01.59 2.21v2.09zm-3 0v-2.09a2.09 2.09 0 10-4.18 0v2.09z" class="f1b48762-a0d4-422b-9317-38c92e67aea4"/><text class="bb4f2cbc-d575-4a0d-84f1-538b3757378c" transform="translate(563.6 150.85)">m<tspan x="5.91" y="0" class="fe02ae3a-15e1-46f2-8238-f497270e65c3">TLS</tspan></text><path d="M861.64 158.77a1.4 1.4 0 011.4 1.4v5.58a1.37 1.37 0 01-.41 1 1.34 1.34 0 01-1 .4h-10.22a1.34 1.34 0 01-1-.4 1.37 1.37 0 01-.41-1v-5.58a1.4 1.4 0 011.39-1.4h.7v-2.09a4.29 4.29 0 01.6-2.21 4.44 4.44 0 011.61-1.61 4.43 4.43 0 014.42 0 4.6 4.6 0 011.61 1.61 4.29 4.29 0 01.6 2.21v2.09zm-3 0v-2.09a2.09 2.09 0 10-4.18 0v2.09z" class="f1b48762-a0d4-422b-9317-38c92e67aea4"/><text class="bb4f2cbc-d575-4a0d-84f1-538b3757378c" transform="translate(847.9 150.85)">m<tspan x="5.91" y="0" class="fe02ae3a-15e1-46f2-8238-f497270e65c3">TLS</tspan></text><text class="a8abd049-976e-4fc1-ae51-c49f9aa3fee7" transform="translate(516.8 259.71)"><tspan class="a810eeb5-5a15-4495-9be4-710ca0482784">C</tspan><tspan x="8.63" y="0" class="e664c73c-edca-4ee3-8fe2-53e19520945e">o</tspan><tspan x="15.43" y="0" class="be90388b-953c-4ed6-ad3e-620ab818c306">n</tspan><tspan x="21.78" y="0">t</tspan><tspan x="26.08" y="0" class="a6ab78ef-dc09-439b-b29c-a69373a26726">r</tspan><tspan x="30.11" y="0" class="b74a8556-9fc9-4542-86da-8e2f8a352bc5">o</tspan><tspan x="36.97" y="0">l </tspan><tspan x="42.26" y="0" letter-spacing=".01em">P</tspan><tspan x="49.21" y="0" class="b74a8556-9fc9-4542-86da-8e2f8a352bc5">l</tspan><tspan x="51.66" y="0">ane I</tspan><tspan x="76.88" y="0" class="b9f4022a-cb44-4b28-9d49-2e44f3559bf8">n</tspan><tspan x="83.23" y="0" class="a11a0377-9de2-4d2e-8295-e64eabcec3bc">t</tspan><tspan x="87.26" y="0" class="e6480a8b-4b7e-4e1a-a2e5-f1e99d17a805">er</tspan><tspan x="98.25" y="0" class="a810eeb5-5a15-4495-9be4-710ca0482784">f</tspan><tspan x="102.46" y="0" class="b74a8556-9fc9-4542-86da-8e2f8a352bc5">ac</tspan><tspan x="115.01" y="0">e</tspan></text><text class="a8abd049-976e-4fc1-ae51-c49f9aa3fee7" transform="translate(527.94 185.78)">HTT<tspan x="21.28" y="0" letter-spacing="-.08em">P</tspan><tspan x="27.2" y="0">, gR</tspan><tspan x="46.93" y="0" class="e664c73c-edca-4ee3-8fe2-53e19520945e">P</tspan><tspan x="53.7" y="0">C,</tspan><tspan x="65.44" y="0" letter-spacing="-.04em"> </tspan><tspan x="67.74" y="0" letter-spacing="-.03em">T</tspan><tspan x="73.84" y="0" letter-spacing="0">CP</tspan></text><text class="a8abd049-976e-4fc1-ae51-c49f9aa3fee7" transform="translate(157.02 129.51)">D<tspan x="8.42" y="0" class="e664c73c-edca-4ee3-8fe2-53e19520945e">at</tspan><tspan x="18.74" y="0">a </tspan><tspan x="27.79" y="0" class="e664c73c-edca-4ee3-8fe2-53e19520945e">p</tspan><tspan x="34.7" y="0" class="a4a8bb30-a42b-42b3-a70f-d7d928142f4a">l</tspan><tspan x="37.15" y="0" class="e6480a8b-4b7e-4e1a-a2e5-f1e99d17a805">ane</tspan></text><text class="a8abd049-976e-4fc1-ae51-c49f9aa3fee7" transform="translate(157.02 312.03)"><tspan class="a810eeb5-5a15-4495-9be4-710ca0482784">C</tspan><tspan x="8.63" y="0" class="e664c73c-edca-4ee3-8fe2-53e19520945e">o</tspan><tspan x="15.43" y="0" class="be90388b-953c-4ed6-ad3e-620ab818c306">n</tspan><tspan x="21.78" y="0">t</tspan><tspan x="26.08" y="0" class="a6ab78ef-dc09-439b-b29c-a69373a26726">r</tspan><tspan x="30.11" y="0" class="b74a8556-9fc9-4542-86da-8e2f8a352bc5">o</tspan><tspan x="36.97" y="0">l </tspan><tspan x="42.26" y="0" class="e664c73c-edca-4ee3-8fe2-53e19520945e">p</tspan><tspan x="49.18" y="0" class="b74a8556-9fc9-4542-86da-8e2f8a352bc5">l</tspan><tspan x="51.62" y="0">ane</tspan></text><rect width="74.82" height="74.82" x="172.7" y="145.16" class="f911231f-cd5e-4ff1-9d21-8aa3b7be3411" rx="3"/><rect width="62.35" height="18.71" x="178.94" y="195.04" class="e9bb5c86-6a6c-4e63-a35a-a8db12e9f576" rx="3"/><text class="a8cc6f2d-c1e4-4508-b7b0-186499b7717d" transform="translate(194.24 207.74)">I<tspan x="2.44" y="0" letter-spacing="0">n</tspan><tspan x="7.93" y="0">g</tspan><tspan x="13.81" y="0" letter-spacing="-.03em">r</tspan><tspan x="17.17" y="0" class="bcf7907a-0a3a-46f6-b6ba-66a19443026c">e</tspan><tspan x="22.72" y="0">ss</tspan></text><rect width="37.41" height="37.41" x="191.41" y="151.39" class="e9bb5c86-6a6c-4e63-a35a-a8db12e9f576" rx="3"/><path class="b08a60e8-d5e3-47c6-8765-54e91386a2e2" d="M219.3 175.4v-10.61l-9.19-5.29-9.18 5.29v10.61l9.18 5.29 9.19-5.29z"/><path id="a0e05cc7-0916-46e0-a018-b6b738d0280b" class="fb5ff91e-8f6c-4919-a823-bd6b85396607" data-name="background" d="M175.92 145.16h14.16v14.16h-14.16z"/><path id="ea80aee1-49df-4e6b-8570-2bf297adba5e" class="e9bb5c86-6a6c-4e63-a35a-a8db12e9f576" data-name="hull" d="M178.76 157.02h8.49l-5.31 1.59-3.18-1.59z"/><path id="b6a2e997-8459-4604-85e0-42b96b5b288b" class="e9bb5c86-6a6c-4e63-a35a-a8db12e9f576" data-name="mainsail" d="M178.76 156.49l3.18-.53v-5.85l-3.18 6.38z"/><path id="ff992d56-5f87-4ae3-87cb-cca734d98945" class="e9bb5c86-6a6c-4e63-a35a-a8db12e9f576" data-name="headsail" d="M182.47 155.96l4.78.53-4.78-10.63v10.1z"/><path d="M242.91 158.79l1 1a.48.48 0 01.13.52.5.5 0 01-.37.37l-1.4.35.4 1.37a.51.51 0 01-.13.53.5.5 0 01-.53.14l-1.38-.4-.35 1.39a.48.48 0 01-.38.39.51.51 0 01-.51-.14l-1-1-1 1a.53.53 0 01-.52.14.46.46 0 01-.36-.39l-.36-1.39-1.37.4a.5.5 0 01-.53-.14.49.49 0 01-.13-.53l.39-1.37-1.39-.35a.51.51 0 01-.38-.37.49.49 0 01.14-.52l1-1-1-1a.49.49 0 01-.14-.52.51.51 0 01.38-.37l1.39-.35-.39-1.37a.49.49 0 01.13-.53.5.5 0 01.53-.14l1.37.4.36-1.39a.47.47 0 01.37-.39.49.49 0 01.51.14l1 1 1-1a.5.5 0 01.52-.13.5.5 0 01.37.38l.35 1.39 1.38-.4a.5.5 0 01.53.14.51.51 0 01.13.53l-.4 1.37 1.4.35a.5.5 0 01.37.37.48.48 0 01-.13.52z" class="aa256662-fce3-4dfa-8196-2ac4340fe192"/><rect width="74.82" height="74.82" x="897.99" y="145.16" class="f911231f-cd5e-4ff1-9d21-8aa3b7be3411" rx="3"/><rect width="62.35" height="18.71" x="904.22" y="195.04" class="e9bb5c86-6a6c-4e63-a35a-a8db12e9f576" rx="3"/><text class="a8cc6f2d-c1e4-4508-b7b0-186499b7717d" transform="translate(920.8 207.74)"><tspan letter-spacing="-.01em">E</tspan><tspan x="5.4" y="0">g</tspan><tspan x="11.28" y="0" letter-spacing="-.03em">r</tspan><tspan x="14.64" y="0" class="bcf7907a-0a3a-46f6-b6ba-66a19443026c">e</tspan><tspan x="20.19" y="0">ss</tspan></text><rect width="37.41" height="37.41" x="916.69" y="151.39" class="e9bb5c86-6a6c-4e63-a35a-a8db12e9f576" rx="3"/><path class="b08a60e8-d5e3-47c6-8765-54e91386a2e2" d="M944.58 175.4v-10.61l-9.18-5.29-9.19 5.29v10.61l9.19 5.29 9.18-5.29z"/><path id="b703de0d-1c47-44ea-81c9-2a5a05deeae6" class="fb5ff91e-8f6c-4919-a823-bd6b85396607" data-name="background" d="M901.21 145.16h14.16v14.16h-14.16z"/><path id="eed55057-88e5-4a3a-940d-16cb984b28e5" class="e9bb5c86-6a6c-4e63-a35a-a8db12e9f576" data-name="hull" d="M904.04 157.02h8.5l-5.31 1.59-3.19-1.59z"/><path id="b1ab0523-1288-4f8f-bab9-328f51aa91d2" class="e9bb5c86-6a6c-4e63-a35a-a8db12e9f576" data-name="mainsail" d="M904.04 156.49l3.19-.53v-5.85l-3.19 6.38z"/><path id="fbf77926-903e-400e-bd5d-2119a45d0abb" class="e9bb5c86-6a6c-4e63-a35a-a8db12e9f576" data-name="headsail" d="M907.76 155.96l4.78.53-4.78-10.63v10.1z"/><path d="M969.33 158.79l1 1a.48.48 0 01.13.52.5.5 0 01-.37.37l-1.4.35.4 1.37a.51.51 0 01-.13.53.5.5 0 01-.53.14l-1.38-.4-.35 1.39a.47.47 0 01-.38.39.51.51 0 01-.51-.14l-1-1-1 1a.53.53 0 01-.52.14.46.46 0 01-.36-.39l-.36-1.39-1.37.4a.5.5 0 01-.53-.14.49.49 0 01-.13-.53l.46-1.4-1.4-.35a.53.53 0 01-.24-.89l1-1-1-1a.53.53 0 01.24-.89l1.4-.35-.4-1.37a.49.49 0 01.13-.53.5.5 0 01.53-.14l1.37.4.36-1.39a.47.47 0 01.37-.39.49.49 0 01.51.14l1 1 1-1a.51.51 0 01.52-.13.48.48 0 01.37.38l.35 1.39 1.38-.4a.5.5 0 01.53.14.51.51 0 01.13.53l-.4 1.37 1.4.35a.5.5 0 01.37.37.48.48 0 01-.13.52z" class="aa256662-fce3-4dfa-8196-2ac4340fe192"/><path class="a6b88054-fdd2-41fb-8800-4aaaac89010e" d="M50.9 170.4h134.42"/><path class="b3dd7e29-de12-474a-868d-77c247e13299" d="M183.86 175.39l8.64-4.99-8.64-4.98v9.97z"/><path class="a6b88054-fdd2-41fb-8800-4aaaac89010e" d="M228.82 170.82h80.58"/><path class="b3dd7e29-de12-474a-868d-77c247e13299" d="M307.94 175.81l8.64-4.99-8.64-4.99v9.98z"/><path class="a6b88054-fdd2-41fb-8800-4aaaac89010e" d="M828.62 170.4h80.9"/><path class="b3dd7e29-de12-474a-868d-77c247e13299" d="M908.06 175.39l8.63-4.99-8.63-4.98v9.97z"/><path class="a6b88054-fdd2-41fb-8800-4aaaac89010e" d="M954.1 170.4h123.21"/><path class="b3dd7e29-de12-474a-868d-77c247e13299" d="M1075.85 175.39l8.64-4.99-8.64-4.98v9.97z"/><rect width="117" height="39.08" x="712.38" y="151.28" class="e9bb5c86-6a6c-4e63-a35a-a8db12e9f576" rx="3"/><path class="b08a60e8-d5e3-47c6-8765-54e91386a2e2" d="M818.12 178.47v-15.3l-13.26-7.65-13.26 7.65v15.3l13.26 7.65 13.26-7.65z"/><text class="f710b24f-5a6e-46e9-b971-052267f34d76" transform="translate(744.54 175.26)">P<tspan x="8.04" y="0" class="e0c131b3-1fb0-4364-99e1-d9ef61b24568">r</tspan><tspan x="12.74" y="0" class="a2d57362-92c3-4fb5-ad27-66d8242cc870">o</tspan><tspan x="20.61" y="0">xy</tspan></text><path d="M730.62 158.79l1 1a.49.49 0 01.14.52.51.51 0 01-.38.37L730 161l.39 1.37a.49.49 0 01-.13.53.5.5 0 01-.53.14l-1.37-.4-.36 1.39a.47.47 0 01-.37.39.49.49 0 01-.51-.14l-1-1-1 1a.53.53 0 01-.52.14.48.48 0 01-.37-.39l-.35-1.39-1.38.4a.5.5 0 01-.53-.14.51.51 0 01-.13-.53l.4-1.37-1.4-.35a.5.5 0 01-.37-.37.48.48 0 01.13-.52l1-1-1-1a.48.48 0 01-.13-.52.5.5 0 01.37-.37l1.4-.35-.4-1.37a.51.51 0 01.13-.53.5.5 0 01.53-.14l1.38.4.35-1.39a.48.48 0 01.38-.39.51.51 0 01.51.14l1 1 1-1a.5.5 0 01.52-.13.47.47 0 01.36.38l.36 1.39 1.37-.4a.5.5 0 01.53.14.49.49 0 01.13.53l-.39 1.37 1.39.35a.51.51 0 01.38.37.49.49 0 01-.14.52z" class="aa256662-fce3-4dfa-8196-2ac4340fe192"/><path d="M728.62 182.28a.49.49 0 01.16.37.49.49 0 01-.16.38l-3.72 3.72a.51.51 0 01-.37.16.53.53 0 01-.38-.16.52.52 0 01-.15-.38v-2.12h-3a.55.55 0 01-.53-.53v-2.13a.51.51 0 01.16-.38.51.51 0 01.37-.15h3v-2.13a.51.51 0 01.15-.37.49.49 0 01.38-.16.47.47 0 01.37.16zm1 4.45a2 2 0 001.5-.62 2.07 2.07 0 00.62-1.51v-4.25a2.08 2.08 0 00-.62-1.51 2 2 0 00-1.5-.62h-1.86a.26.26 0 00-.19.08.27.27 0 00-.08.19v.89a.25.25 0 00.08.18.22.22 0 00.19.08h1.86a.67.67 0 01.49.21.69.69 0 01.21.5v4.25a.69.69 0 01-.21.5.67.67 0 01-.49.21h-1.86a.27.27 0 00-.27.27v.88a.27.27 0 00.27.27z" class="f5b41e30-30ae-4f26-b089-04ac86fe57e2"/><path class="fbf59e5c-7545-4d21-8f09-14871b9280fe" d="M577.61 326.96v-60.57H343.58v-69.34"/><path class="fb5ff91e-8f6c-4919-a823-bd6b85396607" d="M348.57 198.51l-4.99-8.64-4.99 8.64h9.98z"/><path class="fbf59e5c-7545-4d21-8f09-14871b9280fe" d="M343.58 266.39H228.82v-39.73"/><path class="fb5ff91e-8f6c-4919-a823-bd6b85396607" d="M233.8 228.12l-4.98-8.63-4.99 8.63h9.97z"/><path class="fbf59e5c-7545-4d21-8f09-14871b9280fe" d="M577.61 266.39h227.25v-69.34"/><path class="fb5ff91e-8f6c-4919-a823-bd6b85396607" d="M809.85 198.51l-4.99-8.64-4.99 8.64h9.98z"/><path class="fbf59e5c-7545-4d21-8f09-14871b9280fe" d="M804.86 266.39h110.51v-39.73"/><path class="fb5ff91e-8f6c-4919-a823-bd6b85396607" d="M920.36 228.12l-4.99-8.63-4.98 8.63h9.97z"/><path d="M624.42 527.7l1.53 1.5a.75.75 0 01.2.78.74.74 0 01-.57.55l-2.09.53.6 2.06a.75.75 0 01-.2.79.76.76 0 01-.8.2l-2.06-.6-.53 2.1a.7.7 0 01-.56.58.75.75 0 01-.77-.22l-1.49-1.53-1.49 1.56a.8.8 0 01-.78.22.7.7 0 01-.55-.58l-.53-2.1-2.06.6a.76.76 0 01-.8-.2.75.75 0 01-.2-.79l.6-2.06-2.09-.53a.74.74 0 01-.57-.55.74.74 0 01.2-.78l1.53-1.5-1.53-1.49a.74.74 0 01-.2-.78.74.74 0 01.57-.55l2.09-.53-.6-2.06a.8.8 0 011-1l2.06.59.53-2.09a.7.7 0 01.56-.58.73.73 0 01.77.22l1.49 1.56 1.49-1.56a.74.74 0 01.78-.2.72.72 0 01.55.56l.53 2.09 2.06-.59a.8.8 0 011 1l-.6 2.06 2.09.53a.74.74 0 01.57.55.75.75 0 01-.2.78z" class="aa256662-fce3-4dfa-8196-2ac4340fe192"/><text class="a8abd049-976e-4fc1-ae51-c49f9aa3fee7" transform="translate(589.25 512.72)"><tspan class="a810eeb5-5a15-4495-9be4-710ca0482784">C</tspan><tspan x="8.63" y="0">e</tspan><tspan x="15.23" y="0" letter-spacing=".01em">r</tspan><tspan x="19.74" y="0" class="e3388f18-8853-483b-adb1-110dc806dcf3">t</tspan><tspan x="24.1" y="0">i</tspan><tspan x="26.78" y="0" class="ec87a236-d3bd-47fa-a97d-d8c2e91f25a5">f</tspan><tspan x="31.1" y="0" class="b74a8556-9fc9-4542-86da-8e2f8a352bc5">ic</tspan><tspan x="40.08" y="0" class="e664c73c-edca-4ee3-8fe2-53e19520945e">a</tspan><tspan x="46.22" y="0" class="a11a0377-9de2-4d2e-8295-e64eabcec3bc">t</tspan><tspan x="50.26" y="0">e</tspan></text><path d="M530.8 527.27a.75.75 0 01.23.57.73.73 0 01-.23.56l-5.58 5.6a.73.73 0 01-.56.23.75.75 0 01-.57-.23.77.77 0 01-.23-.56v-3.19h-4.52a.77.77 0 01-.56-.23.78.78 0 01-.24-.57v-3.19a.82.82 0 01.8-.8h4.52v-3.18a.79.79 0 01.8-.8.77.77 0 01.56.23zm1.56 6.68a3.18 3.18 0 003.19-3.19v-6.38a3.18 3.18 0 00-3.19-3.19h-2.79a.41.41 0 00-.4.4v1.33a.36.36 0 00.12.28.38.38 0 00.28.12h2.79a1 1 0 01.75.31 1 1 0 01.32.75v6.38a1.08 1.08 0 01-1.07 1.06h-2.79a.41.41 0 00-.4.4v1.33a.36.36 0 00.12.28.38.38 0 00.28.12z" class="f5b41e30-30ae-4f26-b089-04ac86fe57e2"/><text class="ea96df71-f7e5-489f-a491-48f7b5240008" transform="translate(513.06 498.32)"><tspan letter-spacing="-.01em">L</tspan><tspan x="5.94" y="0">o</tspan><tspan x="12.86" y="0" class="ab2bf7fd-baf8-4581-9478-25c8e49617f0">c</tspan><tspan x="19.21" y="0">al</tspan><tspan x="-21" y="14.4">a</tspan><tspan x="-14.74" y="14.4" class="a268483b-21e1-4920-849e-de9919c4d825">ut</tspan><tspan x="-3.67" y="14.4">h</tspan><tspan x="2.99" y="14.4" class="e664c73c-edca-4ee3-8fe2-53e19520945e">o</tspan><tspan x="9.79" y="14.4">ri</tspan><tspan x="16.87" y="14.4" class="ea92d7dd-0be3-4413-8853-ed38e711a5c4">za</tspan><tspan x="28.55" y="14.4" class="a268483b-21e1-4920-849e-de9919c4d825">t</tspan><tspan x="32.9" y="14.4" class="ab2bf7fd-baf8-4581-9478-25c8e49617f0">i</tspan><tspan x="35.53" y="14.4" class="ea92d7dd-0be3-4413-8853-ed38e711a5c4">o</tspan><tspan x="42.34" y="14.4">n</tspan></text><path class="fbf59e5c-7545-4d21-8f09-14871b9280fe" d="M384.49 521.46h80.35"/><text class="a8abd049-976e-4fc1-ae51-c49f9aa3fee7" transform="translate(389.1 498.32)"><tspan class="a810eeb5-5a15-4495-9be4-710ca0482784">C</tspan><tspan x="8.63" y="0" class="e664c73c-edca-4ee3-8fe2-53e19520945e">o</tspan><tspan x="15.43" y="0" class="be90388b-953c-4ed6-ad3e-620ab818c306">n</tspan><tspan x="21.78" y="0">t</tspan><tspan x="26.08" y="0" class="a6ab78ef-dc09-439b-b29c-a69373a26726">r</tspan><tspan x="30.11" y="0" class="b74a8556-9fc9-4542-86da-8e2f8a352bc5">o</tspan><tspan x="36.97" y="0">l </tspan><tspan x="42.26" y="0" class="e664c73c-edca-4ee3-8fe2-53e19520945e">p</tspan><tspan x="49.18" y="0" class="b74a8556-9fc9-4542-86da-8e2f8a352bc5">l</tspan><tspan x="51.62" y="0">ane</tspan><tspan x="19.49" y="14.4">t</tspan><tspan x="23.79" y="14.4" class="b9948846-df5c-4862-824f-c0b118fcfce3">r</tspan><tspan x="27.94" y="14.4" class="e664c73c-edca-4ee3-8fe2-53e19520945e">a</tspan><tspan x="34.08" y="14.4" class="a810eeb5-5a15-4495-9be4-710ca0482784">f</tspan><tspan x="38.29" y="14.4" class="ec87a236-d3bd-47fa-a97d-d8c2e91f25a5">f</tspan><tspan x="42.61" y="14.4" class="b74a8556-9fc9-4542-86da-8e2f8a352bc5">i</tspan><tspan x="45.23" y="14.4">c</tspan></text><path class="a6b88054-fdd2-41fb-8800-4aaaac89010e" d="M276.93 521.46h80.35"/><text class="a8abd049-976e-4fc1-ae51-c49f9aa3fee7" transform="translate(288.77 498.32)">D<tspan x="8.42" y="0" class="e664c73c-edca-4ee3-8fe2-53e19520945e">at</tspan><tspan x="18.74" y="0">a </tspan><tspan x="27.79" y="0" class="e664c73c-edca-4ee3-8fe2-53e19520945e">p</tspan><tspan x="34.7" y="0" class="a4a8bb30-a42b-42b3-a70f-d7d928142f4a">l</tspan><tspan x="37.15" y="0" class="e6480a8b-4b7e-4e1a-a2e5-f1e99d17a805">ane</tspan><tspan x="12.26" y="14.4">t</tspan><tspan x="16.55" y="14.4" class="b9948846-df5c-4862-824f-c0b118fcfce3">r</tspan><tspan x="20.71" y="14.4" class="e664c73c-edca-4ee3-8fe2-53e19520945e">a</tspan><tspan x="26.85" y="14.4" class="a810eeb5-5a15-4495-9be4-710ca0482784">f</tspan><tspan x="31.05" y="14.4" class="ec87a236-d3bd-47fa-a97d-d8c2e91f25a5">f</tspan><tspan x="35.37" y="14.4" class="b74a8556-9fc9-4542-86da-8e2f8a352bc5">i</tspan><tspan x="38" y="14.4">c</tspan></text><text class="a8abd049-976e-4fc1-ae51-c49f9aa3fee7" transform="translate(227.12 498.32)"><tspan class="a810eeb5-5a15-4495-9be4-710ca0482784">K</tspan><tspan x="7.25" y="0" class="e664c73c-edca-4ee3-8fe2-53e19520945e">e</tspan><tspan x="13.73" y="0">y:</tspan></text><rect width="378.75" height="116.71" x="391.67" y="326.96" rx="3" stroke="#777678" stroke-miterlimit="10" fill="#e5e5e4"/><text transform="translate(438.6 364.45)" style="isolation:isolate" font-size="14" font-family="GoogleSansDisplay-Regular,Google Sans Display" fill="#010101">i<tspan x="3.14" y="0" letter-spacing="0">s</tspan><tspan x="9.55" y="0" letter-spacing=".01em">t</tspan><tspan x="14.63" y="0" letter-spacing="-.01em">i</tspan><tspan x="17.7" y="0">od</tspan></text><path id="a5ad7299-9961-42be-85d1-8819ccafd567" data-name="background" fill="#496caf" d="M406.55 346.43h27.55v27.55h-27.55z"/><path id="beebd2d1-6be1-4d1a-a79d-8d76f7bccadf" class="e9bb5c86-6a6c-4e63-a35a-a8db12e9f576" data-name="hull" d="M413.37 367.69h13.91l-8.66 2.62-5.25-2.62z"/><path id="a8b991de-d31c-462d-af5a-7f9bfc94ef8c" class="e9bb5c86-6a6c-4e63-a35a-a8db12e9f576" data-name="mainsail" d="M413.37 366.9l5.25-.78v-9.45l-5.25 10.23z"/><path id="f2d96f20-dc14-427b-bcc1-0e023ce8b0db" class="e9bb5c86-6a6c-4e63-a35a-a8db12e9f576" data-name="headsail" d="M419.41 366.12l7.87.78-7.87-17.05v16.27z"/><path d="M567.81 412.81h-74.6a3 3 0 01-3-3v-22.4a3.08 3.08 0 013-3h74.6a3.08 3.08 0 013 3v22.4a3 3 0 01-3 3z" class="e9bb5c86-6a6c-4e63-a35a-a8db12e9f576"/><text class="a398c1c0-1ae6-42aa-bd8e-928a7dc6a7af" transform="translate(513.55 395.94)"><tspan class="a23e4365-7061-4cf7-ae0d-85c3037da071">N</tspan><tspan x="6.25" y="0" letter-spacing="-.01em">e</tspan><tspan x="11.04" y="0" letter-spacing=".01em">t</tspan><tspan x="14.38" y="0" class="a23e4365-7061-4cf7-ae0d-85c3037da071">wo</tspan><tspan x="26.17" y="0" class="a96b384f-7f9d-4ed0-a341-8b0f64612261">r</tspan><tspan x="29.5" y="0">k</tspan><tspan x="-9.55" y="10.75" class="ef2e4981-b11c-4582-b036-2228c6f6c08b">c</tspan><tspan x="-4.81" y="10.75" class="a23e4365-7061-4cf7-ae0d-85c3037da071">onf</tspan><tspan x="8.37" y="10.75" class="aadcb088-02c1-41ab-aec7-c8be292d41e0">ig</tspan><tspan x="15.56" y="10.75">u</tspan><tspan x="20.52" y="10.75" class="b7d0207d-1b80-4fdb-988b-02e06c583481">r</tspan><tspan x="23.62" y="10.75" class="b3bee058-b072-4b79-97f9-0f2efd1191a9">a</tspan><tspan x="28.21" y="10.75" class="bdd7232f-f6fd-4049-ad87-56c85dcf4369">t</tspan><tspan x="31.46" y="10.75" class="aadcb088-02c1-41ab-aec7-c8be292d41e0">i</tspan><tspan x="33.42" y="10.75" class="b3bee058-b072-4b79-97f9-0f2efd1191a9">o</tspan><tspan x="38.5" y="10.75">n</tspan></text><path d="M567.81 374.41h-74.6a3 3 0 01-3-3V349a3.08 3.08 0 013-3h74.6a3.08 3.08 0 013 3v22.4a3 3 0 01-3 3.01z" class="e9bb5c86-6a6c-4e63-a35a-a8db12e9f576"/><text class="a398c1c0-1ae6-42aa-bd8e-928a7dc6a7af" transform="translate(509.29 357.55)"><tspan class="b7d0207d-1b80-4fdb-988b-02e06c583481">C</tspan><tspan x="6.44" y="0">e</tspan><tspan x="11.37" y="0" letter-spacing=".01em">r</tspan><tspan x="14.74" y="0" class="a96b384f-7f9d-4ed0-a341-8b0f64612261">t</tspan><tspan x="17.99" y="0" class="e51c0731-5533-4f31-8c99-2cd7e20066b9">i</tspan><tspan x="20" y="0" class="a23e4365-7061-4cf7-ae0d-85c3037da071">f</tspan><tspan x="23.22" y="0" class="aadcb088-02c1-41ab-aec7-c8be292d41e0">ic</tspan><tspan x="29.93" y="0" class="b3bee058-b072-4b79-97f9-0f2efd1191a9">a</tspan><tspan x="34.51" y="0" letter-spacing="-.02em">t</tspan><tspan x="37.52" y="0">e</tspan><tspan x="3.23" y="10.75">a</tspan><tspan x="7.91" y="10.75" class="a96b384f-7f9d-4ed0-a341-8b0f64612261">ut</tspan><tspan x="16.17" y="10.75">h</tspan><tspan x="21.14" y="10.75" class="a23e4365-7061-4cf7-ae0d-85c3037da071">o</tspan><tspan x="26.22" y="10.75">r</tspan><tspan x="29.5" y="10.75" class="aadcb088-02c1-41ab-aec7-c8be292d41e0">i</tspan><tspan x="31.46" y="10.75" class="bdd7232f-f6fd-4049-ad87-56c85dcf4369">t</tspan><tspan x="34.72" y="10.75" class="b557930e-ca76-42d9-95d2-6b4b210944e9">y</tspan></text><path d="M662 374.41h-74.6a3 3 0 01-3-3V349a3.08 3.08 0 013-3H662a3.08 3.08 0 013 3v22.4a3 3 0 01-3 3.01z" class="e9bb5c86-6a6c-4e63-a35a-a8db12e9f576"/><text class="a398c1c0-1ae6-42aa-bd8e-928a7dc6a7af" transform="translate(595.47 357.55)"><tspan class="f84c5900-a235-4989-ba10-4975976d5df3">A</tspan><tspan x="5.76" y="0" class="a96b384f-7f9d-4ed0-a341-8b0f64612261">ut</tspan><tspan x="14.02" y="0">he</tspan><tspan x="23.92" y="0" class="f84c5900-a235-4989-ba10-4975976d5df3">n</tspan><tspan x="28.66" y="0" class="a96b384f-7f9d-4ed0-a341-8b0f64612261">t</tspan><tspan x="31.91" y="0" class="aadcb088-02c1-41ab-aec7-c8be292d41e0">ic</tspan><tspan x="38.62" y="0" class="b3bee058-b072-4b79-97f9-0f2efd1191a9">a</tspan><tspan x="43.2" y="0" class="bdd7232f-f6fd-4049-ad87-56c85dcf4369">t</tspan><tspan x="46.46" y="0" class="aadcb088-02c1-41ab-aec7-c8be292d41e0">i</tspan><tspan x="48.42" y="0" class="b3bee058-b072-4b79-97f9-0f2efd1191a9">o</tspan><tspan x="53.5" y="0">n</tspan><tspan x="14.19" y="10.75">p</tspan><tspan x="19.44" y="10.75" class="ef2e4981-b11c-4582-b036-2228c6f6c08b">o</tspan><tspan x="24.57" y="10.75" class="e51c0731-5533-4f31-8c99-2cd7e20066b9">l</tspan><tspan x="26.44" y="10.75" class="ef2e4981-b11c-4582-b036-2228c6f6c08b">i</tspan><tspan x="28.4" y="10.75">c</tspan><tspan x="33.19" y="10.75" class="aadcb088-02c1-41ab-aec7-c8be292d41e0">i</tspan><tspan x="35.15" y="10.75" class="bdd7232f-f6fd-4049-ad87-56c85dcf4369">e</tspan><tspan x="40.12" y="10.75">s</tspan></text><path d="M662 412.81h-74.6a3 3 0 01-3-3v-22.4a3.08 3.08 0 013-3H662a3.08 3.08 0 013 3v22.4a3 3 0 01-3 3z" class="e9bb5c86-6a6c-4e63-a35a-a8db12e9f576"/><text class="a398c1c0-1ae6-42aa-bd8e-928a7dc6a7af" transform="translate(598.03 395.94)"><tspan class="f84c5900-a235-4989-ba10-4975976d5df3">A</tspan><tspan x="5.76" y="0" class="a96b384f-7f9d-4ed0-a341-8b0f64612261">ut</tspan><tspan x="14.02" y="0">h</tspan><tspan x="18.99" y="0" class="a23e4365-7061-4cf7-ae0d-85c3037da071">o</tspan><tspan x="24.08" y="0">ri</tspan><tspan x="29.36" y="0" class="a23e4365-7061-4cf7-ae0d-85c3037da071">za</tspan><tspan x="38.08" y="0" class="a96b384f-7f9d-4ed0-a341-8b0f64612261">t</tspan><tspan x="41.33" y="0" class="aadcb088-02c1-41ab-aec7-c8be292d41e0">i</tspan><tspan x="43.29" y="0" class="a23e4365-7061-4cf7-ae0d-85c3037da071">o</tspan><tspan x="48.37" y="0" class="b557930e-ca76-42d9-95d2-6b4b210944e9">n</tspan><tspan x="11.63" y="10.75">p</tspan><tspan x="16.88" y="10.75" class="ef2e4981-b11c-4582-b036-2228c6f6c08b">o</tspan><tspan x="22" y="10.75" class="e51c0731-5533-4f31-8c99-2cd7e20066b9">l</tspan><tspan x="23.88" y="10.75" class="ef2e4981-b11c-4582-b036-2228c6f6c08b">i</tspan><tspan x="25.84" y="10.75">c</tspan><tspan x="30.62" y="10.75" class="aadcb088-02c1-41ab-aec7-c8be292d41e0">i</tspan><tspan x="32.59" y="10.75" class="bdd7232f-f6fd-4049-ad87-56c85dcf4369">e</tspan><tspan x="37.56" y="10.75">s</tspan></text><path d="M614.91 457.87h-74.6a3 3 0 01-3-3v-22.4a3.08 3.08 0 013-3h74.6a3.08 3.08 0 013 3v22.4a3 3 0 01-3 3z" class="e9bb5c86-6a6c-4e63-a35a-a8db12e9f576"/><text class="a398c1c0-1ae6-42aa-bd8e-928a7dc6a7af" transform="translate(557.35 441.01)">API <tspan x="15.39" y="0" class="a96b384f-7f9d-4ed0-a341-8b0f64612261">s</tspan><tspan x="19.59" y="0" class="e51c0731-5533-4f31-8c99-2cd7e20066b9">e</tspan><tspan x="24.51" y="0" letter-spacing=".02em">r</tspan><tspan x="27.95" y="0" letter-spacing="-.02em">v</tspan><tspan x="32.31" y="0" class="e51c0731-5533-4f31-8c99-2cd7e20066b9">er</tspan><tspan x="-6.25" y="10.75" class="ef2e4981-b11c-4582-b036-2228c6f6c08b">c</tspan><tspan x="-1.51" y="10.75" class="a23e4365-7061-4cf7-ae0d-85c3037da071">onf</tspan><tspan x="11.67" y="10.75" class="aadcb088-02c1-41ab-aec7-c8be292d41e0">ig</tspan><tspan x="18.86" y="10.75">u</tspan><tspan x="23.82" y="10.75" class="b7d0207d-1b80-4fdb-988b-02e06c583481">r</tspan><tspan x="26.92" y="10.75" class="b3bee058-b072-4b79-97f9-0f2efd1191a9">a</tspan><tspan x="31.51" y="10.75" class="bdd7232f-f6fd-4049-ad87-56c85dcf4369">t</tspan><tspan x="34.76" y="10.75" class="aadcb088-02c1-41ab-aec7-c8be292d41e0">i</tspan><tspan x="36.72" y="10.75" class="b3bee058-b072-4b79-97f9-0f2efd1191a9">o</tspan><tspan x="41.8" y="10.75">n</tspan></text><path d="M37.4 155.81a8.26 8.26 0 014.23 1.19 8.43 8.43 0 014.24 7.34v2.65a3 3 0 01-3 3H20.56a3 3 0 01-3-3v-2.65a8.3 8.3 0 011.14-4.24 8.38 8.38 0 013.1-3.1 8.27 8.27 0 014.2-1.19h1.07a11.07 11.07 0 009.24 0zm-5.7-2a8.1 8.1 0 114.08-15.12 7.83 7.83 0 012.94 2.94 8.27 8.27 0 010 8.17 7.83 7.83 0 01-2.94 2.94 8 8 0 01-4.08 1.04z" class="b555c1bb-b960-46c7-8767-d80146dadbf4"/><text class="ea96df71-f7e5-489f-a491-48f7b5240008" transform="translate(20.01 185.78)">APIs<tspan x="-9.83" y="14.4" class="a810eeb5-5a15-4495-9be4-710ca0482784">C</tspan><tspan x="-1.21" y="14.4" class="ea92d7dd-0be3-4413-8853-ed38e711a5c4">o</tspan><tspan x="5.6" y="14.4" class="b9f4022a-cb44-4b28-9d49-2e44f3559bf8">n</tspan><tspan x="11.95" y="14.4" class="e26d1663-69b3-454b-b962-dfbcbd173fb2">t</tspan><tspan x="15.98" y="14.4">e</tspan><tspan x="22.58" y="14.4" letter-spacing="-.03em">n</tspan><tspan x="28.93" y="14.4">t</tspan></text><path d="M1112.2 155.81a8.27 8.27 0 014.24 1.14 8.38 8.38 0 013.1 3.1 8.3 8.3 0 011.14 4.24v2.65a3 3 0 01-3 3h-22.28a3 3 0 01-3-3v-2.65a8.43 8.43 0 014.24-7.34 8.26 8.26 0 014.23-1.14h1.08a11.07 11.07 0 009.24 0zm-5.69-2a8 8 0 01-4.08-1.07 7.83 7.83 0 01-2.94-2.94 8.27 8.27 0 010-8.17 7.83 7.83 0 012.94-2.94 8.12 8.12 0 114.08 15.12z" class="b555c1bb-b960-46c7-8767-d80146dadbf4"/><text class="ea96df71-f7e5-489f-a491-48f7b5240008" transform="translate(1085.22 185.78)"><tspan class="ea92d7dd-0be3-4413-8853-ed38e711a5c4">E</tspan><tspan x="6.48" y="0">x</tspan><tspan x="12.19" y="0" class="e26d1663-69b3-454b-b962-dfbcbd173fb2">t</tspan><tspan x="16.22" y="0" class="b61332c7-925b-4261-8548-1c7de017d7fe">er</tspan><tspan x="27.22" y="0" class="ab2bf7fd-baf8-4581-9478-25c8e49617f0">n</tspan><tspan x="33.8" y="0">al</tspan><tspan x="12.37" y="14.4">API</tspan></text><path d="M240.92 182.28a.52.52 0 01.16.37.53.53 0 01-.16.38l-3.72 3.72a.53.53 0 01-.38.16.52.52 0 01-.37-.16.49.49 0 01-.16-.38v-2.12h-3a.51.51 0 01-.38-.16.51.51 0 01-.15-.37v-2.13a.51.51 0 01.53-.53h3v-2.13a.55.55 0 01.53-.53.49.49 0 01.38.16zm1 4.45a2.12 2.12 0 002.13-2.13v-4.25a2.12 2.12 0 00-2.13-2.13h-1.82a.27.27 0 00-.19.08.26.26 0 00-.07.19v.89a.24.24 0 00.07.18.24.24 0 00.19.08h1.9a.72.72 0 01.71.71v4.25a.72.72 0 01-.71.71h-1.9a.27.27 0 00-.19.08.25.25 0 00-.07.19v.88a.25.25 0 00.07.19.27.27 0 00.19.08zM967.34 182.28a.52.52 0 01.16.37.53.53 0 01-.16.38l-3.72 3.72a.53.53 0 01-.38.16.52.52 0 01-.37-.16.49.49 0 01-.16-.38v-2.12h-3a.51.51 0 01-.38-.16.51.51 0 01-.15-.37v-2.13a.51.51 0 01.53-.53h3v-2.13a.55.55 0 01.53-.53.49.49 0 01.38.16zm1 4.45a2.12 2.12 0 002.13-2.13v-4.25a2.12 2.12 0 00-2.13-2.13h-1.86a.29.29 0 00-.19.08.26.26 0 00-.07.19v.89a.24.24 0 00.07.18.25.25 0 00.19.08h1.86a.72.72 0 01.71.71v4.25a.72.72 0 01-.71.71h-1.86a.29.29 0 00-.19.08.25.25 0 00-.07.19v.88a.25.25 0 00.07.19.29.29 0 00.19.08z" class="f5b41e30-30ae-4f26-b089-04ac86fe57e2"/><rect width="831.42" height="95.67" x="157.02" y="132.46" rx="9" fill="#009444" opacity=".1"/></svg>