<svg xmlns="http://www.w3.org/2000/svg" id="ead5dc57-4f73-4d8c-b9ad-207db9748d66" data-name="Layer 1" viewBox="0 0 820.41 570.5"><defs><style>.a41da682-3001-4db8-abed-bd69c400c3ed,.ae39068b-c5dc-4923-9f34-c492b7bd3d54,.b6e35510-390e-4bbc-994f-337e952c8178,.b7e2fcf4-f43a-4c5f-8096-a0f553dcc13b,.bb5e4ed6-4aff-4e84-b9c0-949181c334bf,.bca2f3aa-2186-493d-9826-83f0460996ed{fill:none}.a41da682-3001-4db8-abed-bd69c400c3ed,.ae39068b-c5dc-4923-9f34-c492b7bd3d54,.b6e35510-390e-4bbc-994f-337e952c8178,.bca2f3aa-2186-493d-9826-83f0460996ed{stroke-linejoin:round}.b4b61f03-a424-4320-aab8-1648b9031d89,.fa7f363a-5ad4-4790-9b51-eb87a9eb3504{font-size:12px}.a56d7675-6998-491f-ae00-cfa65889bf0f,.b4b61f03-a424-4320-aab8-1648b9031d89,.b672b7a5-a7d5-4f71-af2b-e18d53b6747d{fill:#010101}.b1caccd1-e39c-4979-b571-91a5452e0c82{letter-spacing:-.01em}.af2cf853-386a-4dd7-8aa8-63233c8e00e1{letter-spacing:.01em}.ec6c9a72-76aa-458b-b6e0-8a53b70f5ec1{letter-spacing:0}.b1bfa509-d043-4d5a-99b2-b66bb4b075d9{letter-spacing:-.01em}.afe16eea-ea6a-4605-8833-00c47af10d4f{letter-spacing:0}.e8363bd5-c0b9-4ee9-8b7c-15353e7d221a{fill:#e5e5e4}.b6e35510-390e-4bbc-994f-337e952c8178{stroke:#777678}.b7e2fcf4-f43a-4c5f-8096-a0f553dcc13b,.bb5e4ed6-4aff-4e84-b9c0-949181c334bf{stroke-miterlimit:10}.a56d7675-6998-491f-ae00-cfa65889bf0f,.b4b61f03-a424-4320-aab8-1648b9031d89{isolation:isolate}.b4b61f03-a424-4320-aab8-1648b9031d89,.b672b7a5-a7d5-4f71-af2b-e18d53b6747d,.fa7f363a-5ad4-4790-9b51-eb87a9eb3504{font-family:GoogleSansDisplay-Regular,Google Sans Display}.afa08acf-b841-409e-b061-eb54bfc25f00{fill:#fff}.b88207bd-644f-49c0-b3fa-8f0e49ffee2a{letter-spacing:-.02em}.b6233a2a-dd9b-4220-ae24-46a13d6815b9{letter-spacing:0}.adef466a-18a6-4ccd-af7e-c6449ba8b801{letter-spacing:-.07em}.e780319d-42d1-4dd4-a8aa-940a3b735329{letter-spacing:-.02em}.e04b360b-0c45-4253-9ee0-9b2a8ba99dc1{letter-spacing:.01em}.a56d7675-6998-491f-ae00-cfa65889bf0f{font-size:11px;font-family:GoogleSansDisplay-Medium,Google Sans Display;font-weight:500}.a7af05b3-413c-4a75-a50a-4b90ad30e921{letter-spacing:-.02em}.a0270bcd-0b5f-4bba-a7f9-f7c00f818241{letter-spacing:.01em}.b2bfaab7-28e4-4a7a-b167-31cc86584396{letter-spacing:0}.fd02d5e2-82a7-4e47-a731-2a93ea938280{letter-spacing:-.01em}.a05b3575-56f2-4a83-9863-8250ee0b3b67{letter-spacing:0}.b583b9d0-aeea-459c-b347-46f387ba7627{letter-spacing:-.01em}.bea2b124-5f41-4280-9dff-bdabc4a0c274{letter-spacing:0}.e21d9cb7-8bfa-4c35-be2c-e730cad98ccb{letter-spacing:-.02em}.b672b7a5-a7d5-4f71-af2b-e18d53b6747d{font-size:12.5px}.bf98723f-de8c-4fdc-81fc-b5f2b581409c{letter-spacing:-.06em}.b9af66e7-fa6c-4aa0-aced-e78a678a43df{letter-spacing:-.01em}.ba47e8b1-4f13-4117-85cd-590437cf77d6{letter-spacing:.01em}.b871ae82-6e01-418d-af25-0d75f9a9332d{letter-spacing:-.01em}.add42a11-5270-42dc-af45-1948f5328a24{fill:#777678}.b7e2fcf4-f43a-4c5f-8096-a0f553dcc13b,.bca2f3aa-2186-493d-9826-83f0460996ed{stroke:#fff}.b6e35510-390e-4bbc-994f-337e952c8178,.b7e2fcf4-f43a-4c5f-8096-a0f553dcc13b,.bb5e4ed6-4aff-4e84-b9c0-949181c334bf,.bca2f3aa-2186-493d-9826-83f0460996ed{stroke-width:2px}.a41da682-3001-4db8-abed-bd69c400c3ed,.b6e35510-390e-4bbc-994f-337e952c8178,.b7e2fcf4-f43a-4c5f-8096-a0f553dcc13b{stroke-linecap:round}.ae39068b-c5dc-4923-9f34-c492b7bd3d54{stroke:#b24d9d;stroke-width:3px}.f0687b06-498c-400c-b0b8-439ab6d75bdb{letter-spacing:-.03em}.b723159f-31b3-4d5e-aee8-68774e3f16e9{letter-spacing:-.02em}.bb5e4ed6-4aff-4e84-b9c0-949181c334bf{stroke:#07a14a}.a309992b-2c43-4399-a6af-ced814da231a{fill:#07a14a}.a41da682-3001-4db8-abed-bd69c400c3ed,.b6e35510-390e-4bbc-994f-337e952c8178{stroke-dasharray:6 12}.fa7f363a-5ad4-4790-9b51-eb87a9eb3504{fill:#231f20}.a41da682-3001-4db8-abed-bd69c400c3ed{stroke:#486baf;stroke-width:4px}.bead1b4b-ab26-4b54-9640-50f47e418db5{fill:#486baf}</style></defs><rect width="819.41" height="432.11" x=".5" y="13.03" rx="10" stroke="#466bb0" stroke-dasharray="10.02 10.02" stroke-linejoin="round" fill="none"/><text transform="translate(.5 10.3)" font-family="GoogleSansDisplay-Bold,Google Sans Display" font-weight="700" fill="#010101" font-size="12">I<tspan x="3.52" y="0" class="b1caccd1-e39c-4979-b571-91a5452e0c82">s</tspan><tspan x="9.38" y="0" class="af2cf853-386a-4dd7-8aa8-63233c8e00e1">t</tspan><tspan x="14.36" y="0" class="b1caccd1-e39c-4979-b571-91a5452e0c82">i</tspan><tspan x="17.56" y="0" class="ec6c9a72-76aa-458b-b6e0-8a53b70f5ec1">o </tspan><tspan x="27.46" y="0" class="b1bfa509-d043-4d5a-99b2-b66bb4b075d9">M</tspan><tspan x="38.08" y="0" class="afe16eea-ea6a-4605-8833-00c47af10d4f">e</tspan><tspan x="45" y="0" class="ec6c9a72-76aa-458b-b6e0-8a53b70f5ec1">sh</tspan></text><rect width="379.02" height="87.31" x="220.7" y="314.16" rx="9" stroke-miterlimit="10" stroke="#777678" fill="#e5e5e4"/><text transform="translate(268.92 362.05)" style="isolation:isolate" font-family="GoogleSansDisplay-Regular,Google Sans Display" font-size="14" fill="#010101">i<tspan x="3.14" y="0" letter-spacing="0">s</tspan><tspan x="9.55" y="0" letter-spacing=".01em">t</tspan><tspan x="14.63" y="0" letter-spacing="-.01em">i</tspan><tspan x="17.7" y="0">od</tspan></text><path id="acf3d0b5-b769-466c-95e4-a8aa0133b089" data-name="background" fill="#496caf" d="M236.87 344.03h27.55v27.55h-27.55z"/><path id="ab2b05bf-ea56-4a1e-bd05-23179a438045" class="afa08acf-b841-409e-b061-eb54bfc25f00" data-name="hull" d="M243.69 365.29h13.91l-8.66 2.62-5.25-2.62z"/><path id="bfaa6594-9698-49d9-a9c0-5d6a7ad5a607" class="afa08acf-b841-409e-b061-eb54bfc25f00" data-name="mainsail" d="M243.69 364.5l5.25-.79v-9.44l-5.25 10.23z"/><path id="f18a2695-d50d-4aab-8ce8-ea912eb910e2" class="afa08acf-b841-409e-b061-eb54bfc25f00" data-name="headsail" d="M249.73 363.71l7.87.79-7.87-17.06v16.27z"/><path d="M440.24 384.81H331.6a3 3 0 01-3-3v-48a3.08 3.08 0 013-3h108.64a3.08 3.08 0 013 3v48a3 3 0 01-3 3z" class="afa08acf-b841-409e-b061-eb54bfc25f00"/><text class="b4b61f03-a424-4320-aab8-1648b9031d89" transform="translate(332.28 362.04)"><tspan class="b88207bd-644f-49c0-b3fa-8f0e49ffee2a">N</tspan><tspan x="8.3" y="0" class="ec6c9a72-76aa-458b-b6e0-8a53b70f5ec1">am</tspan><tspan x="24.94" y="0" class="afe16eea-ea6a-4605-8833-00c47af10d4f">e</tspan><tspan x="31.6" y="0" class="b1caccd1-e39c-4979-b571-91a5452e0c82">s</tspan><tspan x="37.09" y="0" class="ec6c9a72-76aa-458b-b6e0-8a53b70f5ec1">p</tspan><tspan x="44.12" y="0" class="b6233a2a-dd9b-4220-ae24-46a13d6815b9">ac</tspan><tspan x="56.68" y="0">e: </tspan><tspan x="68.89" y="0" letter-spacing="-.03em">F</tspan><tspan x="74.89" y="0" class="ec6c9a72-76aa-458b-b6e0-8a53b70f5ec1">oo</tspan><tspan x="0" y="14.4" class="adef466a-18a6-4ccd-af7e-c6449ba8b801">T</tspan><tspan x="5.56" y="14.4">a</tspan><tspan x="11.82" y="14.4" class="e780319d-42d1-4dd4-a8aa-940a3b735329">r</tspan><tspan x="15.91" y="14.4" class="b1caccd1-e39c-4979-b571-91a5452e0c82">g</tspan><tspan x="22.91" y="14.4" class="b88207bd-644f-49c0-b3fa-8f0e49ffee2a">e</tspan><tspan x="29.33" y="14.4" class="e04b360b-0c45-4253-9ee0-9b2a8ba99dc1">t</tspan><tspan x="33.74" y="14.4">s: all</tspan></text><text class="a56d7675-6998-491f-ae00-cfa65889bf0f" transform="translate(332.28 342.31)"><tspan class="a7af05b3-413c-4a75-a50a-4b90ad30e921">A</tspan><tspan x="7.36" y="0" class="a0270bcd-0b5f-4bba-a7f9-f7c00f818241">ut</tspan><tspan x="17.97" y="0">he</tspan><tspan x="30.44" y="0" class="a7af05b3-413c-4a75-a50a-4b90ad30e921">n</tspan><tspan x="36.44" y="0" class="a0270bcd-0b5f-4bba-a7f9-f7c00f818241">t</tspan><tspan x="40.72" y="0" class="b2bfaab7-28e4-4a7a-b167-31cc86584396">ic</tspan><tspan x="49.33" y="0" class="fd02d5e2-82a7-4e47-a731-2a93ea938280">a</tspan><tspan x="55.11" y="0" class="a0270bcd-0b5f-4bba-a7f9-f7c00f818241">t</tspan><tspan x="59.39" y="0" class="b2bfaab7-28e4-4a7a-b167-31cc86584396">i</tspan><tspan x="62.05" y="0" class="fd02d5e2-82a7-4e47-a731-2a93ea938280">o</tspan><tspan x="68.39" y="0" class="a05b3575-56f2-4a83-9863-8250ee0b3b67">n p</tspan><tspan x="83.8" y="0" class="b2bfaab7-28e4-4a7a-b167-31cc86584396">o</tspan><tspan x="90.19" y="0">l</tspan><tspan x="92.74" y="0" class="b2bfaab7-28e4-4a7a-b167-31cc86584396">i</tspan><tspan x="95.4" y="0">cy</tspan></text><path d="M580.54 384.81H471.9a3 3 0 01-3-3v-48a3.08 3.08 0 013-3h108.64a3.08 3.08 0 013 3v48a3 3 0 01-3 3z" class="afa08acf-b841-409e-b061-eb54bfc25f00"/><text class="b4b61f03-a424-4320-aab8-1648b9031d89" transform="translate(472.58 362.04)"><tspan class="b88207bd-644f-49c0-b3fa-8f0e49ffee2a">N</tspan><tspan x="8.3" y="0" class="ec6c9a72-76aa-458b-b6e0-8a53b70f5ec1">am</tspan><tspan x="24.94" y="0" class="afe16eea-ea6a-4605-8833-00c47af10d4f">e</tspan><tspan x="31.6" y="0" class="b1caccd1-e39c-4979-b571-91a5452e0c82">s</tspan><tspan x="37.09" y="0" class="ec6c9a72-76aa-458b-b6e0-8a53b70f5ec1">p</tspan><tspan x="44.12" y="0" class="b6233a2a-dd9b-4220-ae24-46a13d6815b9">ac</tspan><tspan x="56.68" y="0">e: Bar</tspan><tspan x="0" y="14.4" class="adef466a-18a6-4ccd-af7e-c6449ba8b801">T</tspan><tspan x="5.56" y="14.4">a</tspan><tspan x="11.82" y="14.4" class="e780319d-42d1-4dd4-a8aa-940a3b735329">r</tspan><tspan x="15.91" y="14.4" class="b1caccd1-e39c-4979-b571-91a5452e0c82">g</tspan><tspan x="22.91" y="14.4" class="b88207bd-644f-49c0-b3fa-8f0e49ffee2a">e</tspan><tspan x="29.33" y="14.4" class="e04b360b-0c45-4253-9ee0-9b2a8ba99dc1">t</tspan><tspan x="33.74" y="14.4">s:</tspan><tspan x="42.13" y="14.4" letter-spacing="-.04em"> </tspan><tspan x="44.44" y="14.4" letter-spacing="-.06em">W</tspan><tspan x="55.08" y="14.4" class="b583b9d0-aeea-459c-b347-46f387ba7627">o</tspan><tspan x="61.88" y="14.4" class="af2cf853-386a-4dd7-8aa8-63233c8e00e1">r</tspan><tspan x="66.34" y="14.4">k</tspan><tspan x="72.26" y="14.4" class="b6233a2a-dd9b-4220-ae24-46a13d6815b9">l</tspan><tspan x="74.71" y="14.4">o</tspan><tspan x="81.64" y="14.4" class="b6233a2a-dd9b-4220-ae24-46a13d6815b9">a</tspan><tspan x="87.84" y="14.4" class="bea2b124-5f41-4280-9dff-bdabc4a0c274">d</tspan><tspan x="94.92" y="14.4" class="e21d9cb7-8bfa-4c35-be2c-e730cad98ccb"> </tspan><tspan x="97.46" y="14.4" class="bea2b124-5f41-4280-9dff-bdabc4a0c274">X</tspan></text><text class="a56d7675-6998-491f-ae00-cfa65889bf0f" transform="translate(472.58 342.31)"><tspan class="a7af05b3-413c-4a75-a50a-4b90ad30e921">A</tspan><tspan x="7.36" y="0" class="a0270bcd-0b5f-4bba-a7f9-f7c00f818241">ut</tspan><tspan x="17.97" y="0">he</tspan><tspan x="30.44" y="0" class="a7af05b3-413c-4a75-a50a-4b90ad30e921">n</tspan><tspan x="36.44" y="0" class="a0270bcd-0b5f-4bba-a7f9-f7c00f818241">t</tspan><tspan x="40.72" y="0" class="b2bfaab7-28e4-4a7a-b167-31cc86584396">ic</tspan><tspan x="49.33" y="0" class="fd02d5e2-82a7-4e47-a731-2a93ea938280">a</tspan><tspan x="55.11" y="0" class="a0270bcd-0b5f-4bba-a7f9-f7c00f818241">t</tspan><tspan x="59.39" y="0" class="b2bfaab7-28e4-4a7a-b167-31cc86584396">i</tspan><tspan x="62.05" y="0" class="fd02d5e2-82a7-4e47-a731-2a93ea938280">o</tspan><tspan x="68.39" y="0" class="a05b3575-56f2-4a83-9863-8250ee0b3b67">n p</tspan><tspan x="83.8" y="0" class="b2bfaab7-28e4-4a7a-b167-31cc86584396">o</tspan><tspan x="90.19" y="0">l</tspan><tspan x="92.74" y="0" class="b2bfaab7-28e4-4a7a-b167-31cc86584396">i</tspan><tspan x="95.4" y="0">cy</tspan></text><rect width="127.56" height="134.03" x="229.23" y="89.88" class="e8363bd5-c0b9-4ee9-8b7c-15353e7d221a" rx="3"/><rect width="104.46" height="36.02" x="240.78" y="105.2" class="afa08acf-b841-409e-b061-eb54bfc25f00" rx="3"/><text class="b672b7a5-a7d5-4f71-af2b-e18d53b6747d" transform="translate(280.65 127.25)"><tspan class="bf98723f-de8c-4fdc-81fc-b5f2b581409c">W</tspan><tspan x="11.09" y="0" class="b9af66e7-fa6c-4aa0-aced-e78a678a43df">o</tspan><tspan x="18.17" y="0" class="ba47e8b1-4f13-4117-85cd-590437cf77d6">r</tspan><tspan x="22.81" y="0">k</tspan><tspan x="28.99" y="0" class="b871ae82-6e01-418d-af25-0d75f9a9332d">l</tspan><tspan x="31.54" y="0">o</tspan><tspan x="38.75" y="0" class="b871ae82-6e01-418d-af25-0d75f9a9332d">a</tspan><tspan x="45.21" y="0">d B</tspan></text><circle cx="260.83" cy="123.22" r="16.07" class="add42a11-5270-42dc-af45-1948f5328a24"/><path class="bca2f3aa-2186-493d-9826-83f0460996ed" d="M255.12 117.4h11.42v11.42h-11.42z"/><path class="b7e2fcf4-f43a-4c5f-8096-a0f553dcc13b" d="M257.24 117.4v-2.75M260.83 117.4v-2.75M264.42 117.4v-2.75M257.24 131.78v-2.75M260.83 131.78v-2.75M264.42 131.78v-2.75M255.01 126.81h-2.74M255.01 123.22h-2.74M255.01 119.62h-2.74M269.39 126.81h-2.75M269.39 123.22h-2.75M269.39 119.62h-2.75"/><rect width="5.07" height="5.07" x="258.29" y="120.57" class="afa08acf-b841-409e-b061-eb54bfc25f00" rx="2"/><rect width="104.46" height="34.89" x="240.78" y="173.69" class="afa08acf-b841-409e-b061-eb54bfc25f00" rx="3"/><path class="ae39068b-c5dc-4923-9f34-c492b7bd3d54" d="M276.73 197.97v-13.66l-11.84-6.83-11.84 6.83v13.66l11.84 6.83 11.84-6.83z"/><text class="b672b7a5-a7d5-4f71-af2b-e18d53b6747d" transform="translate(287.59 195.11)">P<tspan x="7.17" y="0" class="f0687b06-498c-400c-b0b8-439ab6d75bdb">r</tspan><tspan x="11.37" y="0" class="b723159f-31b3-4d5e-aee8-68774e3f16e9">o</tspan><tspan x="18.4" y="0">xy</tspan></text><path class="bb5e4ed6-4aff-4e84-b9c0-949181c334bf" d="M293.01 148.27v18.68"/><path class="a309992b-2c43-4399-a6af-ced814da231a" d="M288.02 149.73l4.99-8.64 4.99 8.64h-9.98zM288.02 165.49l4.99 8.64 4.99-8.64h-9.98z"/><rect width="127.56" height="134.03" x="32.57" y="89.88" class="e8363bd5-c0b9-4ee9-8b7c-15353e7d221a" rx="3"/><rect width="104.46" height="36.02" x="44.12" y="105.2" class="afa08acf-b841-409e-b061-eb54bfc25f00" rx="3"/><text class="b672b7a5-a7d5-4f71-af2b-e18d53b6747d" transform="translate(83.77 127.25)"><tspan class="bf98723f-de8c-4fdc-81fc-b5f2b581409c">W</tspan><tspan x="11.09" y="0" class="b9af66e7-fa6c-4aa0-aced-e78a678a43df">o</tspan><tspan x="18.17" y="0" class="ba47e8b1-4f13-4117-85cd-590437cf77d6">r</tspan><tspan x="22.81" y="0">k</tspan><tspan x="28.99" y="0" class="b871ae82-6e01-418d-af25-0d75f9a9332d">l</tspan><tspan x="31.54" y="0">o</tspan><tspan x="38.75" y="0" class="b871ae82-6e01-418d-af25-0d75f9a9332d">a</tspan><tspan x="45.21" y="0">d</tspan><tspan x="52.58" y="0" letter-spacing="-.03em"> </tspan><tspan x="55.11" y="0">A</tspan></text><circle cx="64.17" cy="123.22" r="16.07" class="add42a11-5270-42dc-af45-1948f5328a24"/><path class="bca2f3aa-2186-493d-9826-83f0460996ed" d="M58.46 117.4h11.42v11.42H58.46z"/><path class="b7e2fcf4-f43a-4c5f-8096-a0f553dcc13b" d="M60.57 117.4v-2.75M64.17 117.4v-2.75M67.76 117.4v-2.75M60.57 131.78v-2.75M64.17 131.78v-2.75M67.76 131.78v-2.75M58.35 126.81H55.6M58.35 123.22H55.6M58.35 119.62H55.6M72.73 126.81h-2.75M72.73 123.22h-2.75M72.73 119.62h-2.75"/><rect width="5.07" height="5.07" x="61.63" y="120.57" class="afa08acf-b841-409e-b061-eb54bfc25f00" rx="2"/><rect width="104.46" height="34.89" x="44.12" y="173.69" class="afa08acf-b841-409e-b061-eb54bfc25f00" rx="3"/><path class="ae39068b-c5dc-4923-9f34-c492b7bd3d54" d="M80.06 197.97v-13.66l-11.84-6.83-11.83 6.83v13.66l11.83 6.83 11.84-6.83z"/><text class="b672b7a5-a7d5-4f71-af2b-e18d53b6747d" transform="translate(90.93 195.11)">P<tspan x="7.17" y="0" class="f0687b06-498c-400c-b0b8-439ab6d75bdb">r</tspan><tspan x="11.37" y="0" class="b723159f-31b3-4d5e-aee8-68774e3f16e9">o</tspan><tspan x="18.4" y="0">xy</tspan></text><path class="bb5e4ed6-4aff-4e84-b9c0-949181c334bf" d="M96.35 148.27v18.68"/><path class="a309992b-2c43-4399-a6af-ced814da231a" d="M91.36 149.73l4.99-8.64 4.98 8.64h-9.97zM91.36 165.49l4.99 8.64 4.98-8.64h-9.97z"/><rect width="360.82" height="174.01" x="14.27" y="69.89" class="b6e35510-390e-4bbc-994f-337e952c8178" rx="5"/><text class="fa7f363a-5ad4-4790-9b51-eb87a9eb3504" transform="translate(14.27 67.02)"><tspan letter-spacing="-.03em">F</tspan><tspan x="6" y="0">oo</tspan></text><rect width="127.56" height="134.03" x="660.28" y="89.88" class="e8363bd5-c0b9-4ee9-8b7c-15353e7d221a" rx="3"/><rect width="104.46" height="36.02" x="671.83" y="105.2" class="afa08acf-b841-409e-b061-eb54bfc25f00" rx="3"/><text class="b672b7a5-a7d5-4f71-af2b-e18d53b6747d" transform="translate(712.01 127.25)"><tspan class="bf98723f-de8c-4fdc-81fc-b5f2b581409c">W</tspan><tspan x="11.09" y="0" class="b9af66e7-fa6c-4aa0-aced-e78a678a43df">o</tspan><tspan x="18.17" y="0" class="ba47e8b1-4f13-4117-85cd-590437cf77d6">r</tspan><tspan x="22.81" y="0">k</tspan><tspan x="28.99" y="0" class="b871ae82-6e01-418d-af25-0d75f9a9332d">l</tspan><tspan x="31.54" y="0">o</tspan><tspan x="38.75" y="0" class="b871ae82-6e01-418d-af25-0d75f9a9332d">a</tspan><tspan x="45.21" y="0">d</tspan><tspan x="52.58" y="0" letter-spacing="-.04em"> </tspan><tspan x="54.98" y="0" letter-spacing="0">Y</tspan></text><circle cx="691.88" cy="123.22" r="16.07" class="add42a11-5270-42dc-af45-1948f5328a24"/><path class="bca2f3aa-2186-493d-9826-83f0460996ed" d="M686.17 117.4h11.42v11.42h-11.42z"/><path class="b7e2fcf4-f43a-4c5f-8096-a0f553dcc13b" d="M688.29 117.4v-2.75M691.88 117.4v-2.75M695.47 117.4v-2.75M688.29 131.78v-2.75M691.88 131.78v-2.75M695.47 131.78v-2.75M686.07 126.81h-2.75M686.07 123.22h-2.75M686.07 119.62h-2.75M700.44 126.81h-2.75M700.44 123.22h-2.75M700.44 119.62h-2.75"/><rect width="5.07" height="5.07" x="689.34" y="120.57" class="afa08acf-b841-409e-b061-eb54bfc25f00" rx="2"/><rect width="104.46" height="34.89" x="671.83" y="173.69" class="afa08acf-b841-409e-b061-eb54bfc25f00" rx="3"/><path class="ae39068b-c5dc-4923-9f34-c492b7bd3d54" d="M707.78 197.97v-13.66l-11.84-6.83-11.84 6.83v13.66l11.84 6.83 11.84-6.83z"/><text class="b672b7a5-a7d5-4f71-af2b-e18d53b6747d" transform="translate(718.64 195.11)">P<tspan x="7.17" y="0" class="f0687b06-498c-400c-b0b8-439ab6d75bdb">r</tspan><tspan x="11.37" y="0" class="b723159f-31b3-4d5e-aee8-68774e3f16e9">o</tspan><tspan x="18.4" y="0">xy</tspan></text><path class="bb5e4ed6-4aff-4e84-b9c0-949181c334bf" d="M724.06 148.27v18.68"/><path class="a309992b-2c43-4399-a6af-ced814da231a" d="M719.08 149.73l4.98-8.64 4.99 8.64h-9.97zM719.08 165.49l4.98 8.64 4.99-8.64h-9.97z"/><rect width="127.56" height="134.03" x="463.62" y="89.88" class="e8363bd5-c0b9-4ee9-8b7c-15353e7d221a" rx="3"/><rect width="104.46" height="36.02" x="475.17" y="105.2" class="afa08acf-b841-409e-b061-eb54bfc25f00" rx="3"/><text class="b672b7a5-a7d5-4f71-af2b-e18d53b6747d" transform="translate(515 127.25)"><tspan class="bf98723f-de8c-4fdc-81fc-b5f2b581409c">W</tspan><tspan x="11.09" y="0" class="b9af66e7-fa6c-4aa0-aced-e78a678a43df">o</tspan><tspan x="18.17" y="0" class="ba47e8b1-4f13-4117-85cd-590437cf77d6">r</tspan><tspan x="22.81" y="0">k</tspan><tspan x="28.99" y="0" class="b871ae82-6e01-418d-af25-0d75f9a9332d">l</tspan><tspan x="31.54" y="0">o</tspan><tspan x="38.75" y="0" class="b871ae82-6e01-418d-af25-0d75f9a9332d">a</tspan><tspan x="45.21" y="0">d</tspan><tspan x="52.58" y="0" letter-spacing="-.02em"> </tspan><tspan x="55.23" y="0">X</tspan></text><circle cx="495.22" cy="123.22" r="16.07" class="add42a11-5270-42dc-af45-1948f5328a24"/><path class="bca2f3aa-2186-493d-9826-83f0460996ed" d="M489.51 117.4h11.42v11.42h-11.42z"/><path class="b7e2fcf4-f43a-4c5f-8096-a0f553dcc13b" d="M491.62 117.4v-2.75M495.22 117.4v-2.75M498.81 117.4v-2.75M491.62 131.78v-2.75M495.22 131.78v-2.75M498.81 131.78v-2.75M489.4 126.81h-2.75M489.4 123.22h-2.75M489.4 119.62h-2.75M503.78 126.81h-2.75M503.78 123.22h-2.75M503.78 119.62h-2.75"/><rect width="5.07" height="5.07" x="492.68" y="120.57" class="afa08acf-b841-409e-b061-eb54bfc25f00" rx="2"/><rect width="104.46" height="34.89" x="475.17" y="173.69" class="afa08acf-b841-409e-b061-eb54bfc25f00" rx="3"/><path class="ae39068b-c5dc-4923-9f34-c492b7bd3d54" d="M511.11 197.97v-13.66l-11.84-6.83-11.83 6.83v13.66l11.83 6.83 11.84-6.83z"/><text class="b672b7a5-a7d5-4f71-af2b-e18d53b6747d" transform="translate(521.98 195.11)">P<tspan x="7.17" y="0" class="f0687b06-498c-400c-b0b8-439ab6d75bdb">r</tspan><tspan x="11.37" y="0" class="b723159f-31b3-4d5e-aee8-68774e3f16e9">o</tspan><tspan x="18.4" y="0">xy</tspan></text><path class="bb5e4ed6-4aff-4e84-b9c0-949181c334bf" d="M527.4 148.27v18.68"/><path class="a309992b-2c43-4399-a6af-ced814da231a" d="M522.41 149.73l4.99-8.64 4.98 8.64h-9.97zM522.41 165.49l4.99 8.64 4.98-8.64h-9.97z"/><rect width="360.82" height="174.01" x="445.32" y="69.89" class="b6e35510-390e-4bbc-994f-337e952c8178" rx="5"/><text class="fa7f363a-5ad4-4790-9b51-eb87a9eb3504" transform="translate(445.32 67.02)">Bar</text><path d="M461.77 537.49a8.32 8.32 0 014.24 1.14 8.46 8.46 0 013.1 3.1 8.29 8.29 0 011.13 4.24v2.66a3 3 0 01-3 3h-22.3a3 3 0 01-3-3V546a8.3 8.3 0 011.14-4.24 8.38 8.38 0 013.1-3.1 8.3 8.3 0 014.24-1.14h1.07a11.07 11.07 0 009.24 0zm-5.7-2a8.13 8.13 0 01-7-12.18 7.93 7.93 0 012.94-2.95 8.31 8.31 0 018.16 0 7.78 7.78 0 012.94 2.95 8.25 8.25 0 010 8.16 7.83 7.83 0 01-2.94 2.94 8 8 0 01-4.1 1.06z" class="add42a11-5270-42dc-af45-1948f5328a24"/><text class="fa7f363a-5ad4-4790-9b51-eb87a9eb3504" transform="translate(417.1 567.47)"><tspan class="b88207bd-644f-49c0-b3fa-8f0e49ffee2a">A</tspan><tspan x="7.84" y="0">dmini</tspan><tspan x="37.31" y="0" class="b1caccd1-e39c-4979-b571-91a5452e0c82">s</tspan><tspan x="42.8" y="0">t</tspan><tspan x="47.1" y="0" class="e21d9cb7-8bfa-4c35-be2c-e730cad98ccb">r</tspan><tspan x="51.25" y="0" class="b583b9d0-aeea-459c-b347-46f387ba7627">a</tspan><tspan x="57.4" y="0" letter-spacing="-.02em">t</tspan><tspan x="61.43" y="0" class="b1bfa509-d043-4d5a-99b2-b66bb4b075d9">o</tspan><tspan x="68.23" y="0" letter-spacing="-.02em">r</tspan><tspan x="72.38" y="0">s</tspan></text><path class="a41da682-3001-4db8-abed-bd69c400c3ed" d="M456.07 516.27v-33.24h-70.15v-91.04"/><path class="bead1b4b-ab26-4b54-9640-50f47e418db5" d="M390.91 393.44l-4.99-8.63-4.98 8.63h9.97z"/><path class="a41da682-3001-4db8-abed-bd69c400c3ed" d="M456.07 483.03h70.15v-91.04"/><path class="bead1b4b-ab26-4b54-9640-50f47e418db5" d="M531.21 393.44l-4.99-8.63-4.99 8.63h9.98z"/><path class="a41da682-3001-4db8-abed-bd69c400c3ed" d="M293.05 215.76v98.4"/><path class="bead1b4b-ab26-4b54-9640-50f47e418db5" d="M288.06 217.22l4.99-8.64 4.98 8.64h-9.97z"/><path class="a41da682-3001-4db8-abed-bd69c400c3ed" d="M96.38 215.76v45.61h196.67"/><path class="bead1b4b-ab26-4b54-9640-50f47e418db5" d="M91.4 217.22l4.98-8.64 4.99 8.64H91.4z"/><path class="a41da682-3001-4db8-abed-bd69c400c3ed" d="M527.43 215.76v98.4"/><path class="bead1b4b-ab26-4b54-9640-50f47e418db5" d="M522.45 217.22l4.98-8.64 4.99 8.64h-9.97z"/></svg>