<svg xmlns="http://www.w3.org/2000/svg" id="ef55554b-b583-4065-9092-0fe3415e71e2" data-name="Layer 1" viewBox="0 0 682.76 343.99"><defs><style>.b792e856-f1f2-4f01-bd92-c860fd1c5e96{fill:#e5e5e4}.e5d62a3a-9772-4800-a377-ef63216e94a2{fill:#fff}.a9a59219-ca5b-45d9-9d96-37210eda282d{font-size:12.5px;fill:#010101}.e8b643a6-bd8f-410b-9763-64c8d5d3fd60{fill:#010101}.a94cde90-c787-4350-930a-97272e79f390,.a9a59219-ca5b-45d9-9d96-37210eda282d,.e8b643a6-bd8f-410b-9763-64c8d5d3fd60{font-family:GoogleSansDisplay-Regular,Google Sans Display}.a3b7c17b-a3c9-41a1-be0b-ff22b97d7ac7{letter-spacing:-.06em}.e21983a8-bc1c-45e2-b86f-a2e722e813e9{letter-spacing:-.01em}.bbe11e91-1b5c-413a-9437-6238b03ba9f3{letter-spacing:.01em}.ea4a1efd-30e4-43bc-b181-fe231378edd6{letter-spacing:-.01em}.a9b6bb0d-4cf7-4b91-b8a2-232f95309916{fill:#777678}.a3e5d3af-e309-4133-b630-8acc84bf3947,.ae468838-f032-4dc5-a31b-ac24f0e41256,.b2bc4466-1f48-4d1e-8d65-00ba04d73dbc,.f9c6216f-c095-4ae6-becb-8ecc05f9293b,.fdf48caa-df82-4290-a873-1af1932c0059{fill:none}.ae468838-f032-4dc5-a31b-ac24f0e41256,.b2bc4466-1f48-4d1e-8d65-00ba04d73dbc{stroke:#fff}.a3e5d3af-e309-4133-b630-8acc84bf3947,.b2bc4466-1f48-4d1e-8d65-00ba04d73dbc,.fdf48caa-df82-4290-a873-1af1932c0059{stroke-linejoin:round}.ae468838-f032-4dc5-a31b-ac24f0e41256,.b2bc4466-1f48-4d1e-8d65-00ba04d73dbc,.f9c6216f-c095-4ae6-becb-8ecc05f9293b{stroke-width:2px}.a3e5d3af-e309-4133-b630-8acc84bf3947,.ae468838-f032-4dc5-a31b-ac24f0e41256{stroke-linecap:round}.ae468838-f032-4dc5-a31b-ac24f0e41256,.f9c6216f-c095-4ae6-becb-8ecc05f9293b{stroke-miterlimit:10}.fdf48caa-df82-4290-a873-1af1932c0059{stroke:#b24d9d;stroke-width:3px}.fc768a6f-6ce0-42ca-928a-d5cb42fa705e{letter-spacing:-.03em}.a3d4d765-a57d-4ebe-9e24-2d9e83c10b12{letter-spacing:-.02em}.f9c6216f-c095-4ae6-becb-8ecc05f9293b{stroke:#07a14a}.a9051e8f-5a3a-4a8d-ba7f-2b6692d2a70b{fill:#07a14a}.a3e5d3af-e309-4133-b630-8acc84bf3947{stroke:#486baf;stroke-width:4px;stroke-dasharray:6 12}.b9c01941-5661-4eae-a4aa-3a4b4afaea94{fill:#486baf}.a94cde90-c787-4350-930a-97272e79f390{font-size:12px}.b2dcf08b-99dc-4748-845e-4d25653b2dd7{letter-spacing:-.01em}.b465f423-3454-4252-ac4e-6b4e44f30434{letter-spacing:0}.a3d6489b-d1e7-4f93-98a9-1eba05c3e97d{letter-spacing:-.01em}.a2384390-a5d0-4abb-a89a-7a8864b3b98c,.b39b1652-daf4-406c-ab7b-591bdb03a891,.f9f87398-cd7d-4278-bd80-de3519f5651b{letter-spacing:0}.af7738b3-45c7-43d4-a39a-cc1a8e98bb16{letter-spacing:-.01em}.e8b747a6-6a85-4ecb-8492-adecd2c6f78b{fill:#119a48}.e8b643a6-bd8f-410b-9763-64c8d5d3fd60{font-size:10px}.bedea749-024d-45ee-96f2-13df44e945a6{letter-spacing:-.04em}.bdccc1ee-2636-499c-947e-1a49350ce06a{letter-spacing:-.03em}.a94cde90-c787-4350-930a-97272e79f390{fill:#231f20}.fec8f349-525f-4158-8641-b9f235c32364{letter-spacing:-.01em}.bdd0311e-9c73-43de-9970-3501e8ed9fb8{letter-spacing:-.06em}.a2a65727-2476-4da5-8680-be44f2ae7859{letter-spacing:-.01em}.f991823a-6669-45e6-9cc5-a3b155901200{letter-spacing:0}.a89bd838-c646-4d00-8ac9-5984b72e70ac{letter-spacing:-.01em}.b301c5ae-ce54-4073-b4e9-5ea54a2906fe{letter-spacing:0}.add6bae2-5303-44e7-ae05-6a1da0337384{letter-spacing:.01em}</style></defs><rect width="127.56" height="134.03" x="130.05" y="40.96" class="b792e856-f1f2-4f01-bd92-c860fd1c5e96" rx="3"/><rect width="104.46" height="36.02" x="141.6" y="56.28" class="e5d62a3a-9772-4800-a377-ef63216e94a2" rx="3"/><text class="a9a59219-ca5b-45d9-9d96-37210eda282d" transform="translate(181.25 78.32)"><tspan class="a3b7c17b-a3c9-41a1-be0b-ff22b97d7ac7">W</tspan><tspan x="11.09" y="0" class="e21983a8-bc1c-45e2-b86f-a2e722e813e9">o</tspan><tspan x="18.17" y="0" class="bbe11e91-1b5c-413a-9437-6238b03ba9f3">r</tspan><tspan x="22.81" y="0">k</tspan><tspan x="28.99" y="0" class="ea4a1efd-30e4-43bc-b181-fe231378edd6">l</tspan><tspan x="31.54" y="0">o</tspan><tspan x="38.75" y="0" class="ea4a1efd-30e4-43bc-b181-fe231378edd6">a</tspan><tspan x="45.21" y="0">d</tspan><tspan x="52.58" y="0" letter-spacing="-.03em"> </tspan><tspan x="55.11" y="0">A</tspan></text><circle cx="161.64" cy="74.29" r="16.07" class="a9b6bb0d-4cf7-4b91-b8a2-232f95309916"/><path class="b2bc4466-1f48-4d1e-8d65-00ba04d73dbc" d="M155.94 68.48h11.42V79.9h-11.42z"/><path class="ae468838-f032-4dc5-a31b-ac24f0e41256" d="M158.05 68.48v-2.75M161.64 68.48v-2.75M165.24 68.48v-2.75M158.05 82.85v-2.74M161.64 82.85v-2.74M165.24 82.85v-2.74M155.83 77.89h-2.75M155.83 74.29h-2.75M155.83 70.7h-2.75M170.21 77.89h-2.75M170.21 74.29h-2.75M170.21 70.7h-2.75"/><rect width="5.07" height="5.07" x="159.11" y="71.65" class="e5d62a3a-9772-4800-a377-ef63216e94a2" rx="2"/><rect width="104.46" height="34.89" x="141.6" y="124.77" class="e5d62a3a-9772-4800-a377-ef63216e94a2" rx="3"/><path class="fdf48caa-df82-4290-a873-1af1932c0059" d="M177.54 149.04v-13.66l-11.84-6.83-11.84 6.83v13.66l11.84 6.83 11.84-6.83z"/><text class="a9a59219-ca5b-45d9-9d96-37210eda282d" transform="translate(188.4 146.18)">P<tspan x="7.17" y="0" class="fc768a6f-6ce0-42ca-928a-d5cb42fa705e">r</tspan><tspan x="11.37" y="0" class="a3d4d765-a57d-4ebe-9e24-2d9e83c10b12">o</tspan><tspan x="18.4" y="0">xy</tspan></text><path class="f9c6216f-c095-4ae6-becb-8ecc05f9293b" d="M193.83 99.35v18.68"/><path class="a9051e8f-5a3a-4a8d-ba7f-2b6692d2a70b" d="M188.84 100.81l4.98-8.64 4.99 8.64h-9.97zM188.84 116.57l4.98 8.63 4.99-8.63h-9.97z"/><path class="a3e5d3af-e309-4133-b630-8acc84bf3947" d="M193.82 166.84v58.11h151.39v47.66"/><path class="b9c01941-5661-4eae-a4aa-3a4b4afaea94" d="M188.84 168.29l4.98-8.63 4.99 8.63h-9.97z"/><rect width="516.69" height="328.8" x="78.33" y="14.69" rx="10" stroke="#466bb0" stroke-dasharray="9.96 9.96" stroke-linejoin="round" fill="none"/><text transform="translate(78.33 10.3)" font-family="GoogleSansDisplay-Bold,Google Sans Display" font-weight="700" font-size="12" fill="#010101">I<tspan x="3.52" y="0" class="b2dcf08b-99dc-4748-845e-4d25653b2dd7">s</tspan><tspan x="9.38" y="0" letter-spacing=".01em">t</tspan><tspan x="14.36" y="0" class="b2dcf08b-99dc-4748-845e-4d25653b2dd7">i</tspan><tspan x="17.56" y="0" class="b465f423-3454-4252-ac4e-6b4e44f30434">o </tspan><tspan x="27.46" y="0" class="a3d6489b-d1e7-4f93-98a9-1eba05c3e97d">M</tspan><tspan x="38.08" y="0" class="a2384390-a5d0-4abb-a89a-7a8864b3b98c">e</tspan><tspan x="45" y="0" class="b465f423-3454-4252-ac4e-6b4e44f30434">sh</tspan></text><rect width="127.56" height="134.03" x="416.56" y="40.96" class="b792e856-f1f2-4f01-bd92-c860fd1c5e96" rx="3"/><rect width="104.46" height="36.02" x="428.12" y="56.28" class="e5d62a3a-9772-4800-a377-ef63216e94a2" rx="3"/><text class="a9a59219-ca5b-45d9-9d96-37210eda282d" transform="translate(467.98 78.32)"><tspan class="a3b7c17b-a3c9-41a1-be0b-ff22b97d7ac7">W</tspan><tspan x="11.09" y="0" class="e21983a8-bc1c-45e2-b86f-a2e722e813e9">o</tspan><tspan x="18.17" y="0" class="bbe11e91-1b5c-413a-9437-6238b03ba9f3">r</tspan><tspan x="22.81" y="0">k</tspan><tspan x="28.99" y="0" class="ea4a1efd-30e4-43bc-b181-fe231378edd6">l</tspan><tspan x="31.54" y="0">o</tspan><tspan x="38.75" y="0" class="ea4a1efd-30e4-43bc-b181-fe231378edd6">a</tspan><tspan x="45.21" y="0">d B</tspan></text><circle cx="448.16" cy="74.29" r="16.07" class="a9b6bb0d-4cf7-4b91-b8a2-232f95309916"/><path class="b2bc4466-1f48-4d1e-8d65-00ba04d73dbc" d="M442.45 68.48h11.42V79.9h-11.42z"/><path class="ae468838-f032-4dc5-a31b-ac24f0e41256" d="M444.57 68.48v-2.75M448.16 68.48v-2.75M451.76 68.48v-2.75M444.57 82.85v-2.74M448.16 82.85v-2.74M451.76 82.85v-2.74M442.35 77.89h-2.75M442.35 74.29h-2.75M442.35 70.7h-2.75M456.73 77.89h-2.75M456.73 74.29h-2.75M456.73 70.7h-2.75"/><rect width="5.07" height="5.07" x="445.62" y="71.65" class="e5d62a3a-9772-4800-a377-ef63216e94a2" rx="2"/><rect width="104.46" height="34.89" x="428.12" y="124.77" class="e5d62a3a-9772-4800-a377-ef63216e94a2" rx="3"/><path class="fdf48caa-df82-4290-a873-1af1932c0059" d="M464.06 149.04v-13.66l-11.84-6.83-11.84 6.83v13.66l11.84 6.83 11.84-6.83z"/><text class="a9a59219-ca5b-45d9-9d96-37210eda282d" transform="translate(474.92 146.18)">P<tspan x="7.17" y="0" class="fc768a6f-6ce0-42ca-928a-d5cb42fa705e">r</tspan><tspan x="11.37" y="0" class="a3d4d765-a57d-4ebe-9e24-2d9e83c10b12">o</tspan><tspan x="18.4" y="0">xy</tspan></text><path class="f9c6216f-c095-4ae6-becb-8ecc05f9293b" d="M480.34 99.35v18.68"/><path class="a9051e8f-5a3a-4a8d-ba7f-2b6692d2a70b" d="M475.36 100.81l4.98-8.64 4.99 8.64h-9.97zM475.36 116.57l4.98 8.63 4.99-8.63h-9.97z"/><rect width="185.92" height="57.29" x="252.24" y="272.61" rx="3" stroke="#777678" stroke-miterlimit="10" fill="#e5e5e4"/><text transform="translate(294.89 305.49)" style="isolation:isolate" font-size="14" font-family="GoogleSansDisplay-Regular,Google Sans Display" fill="#010101">i<tspan x="3.14" y="0" letter-spacing="0">s</tspan><tspan x="9.55" y="0" letter-spacing=".01em">t</tspan><tspan x="14.63" y="0" letter-spacing="-.01em">i</tspan><tspan x="17.7" y="0">od</tspan></text><path id="b79a2909-381e-4bc5-84ce-913057ad5020" data-name="background" fill="#496caf" d="M262.84 287.48h27.55v27.55h-27.55z"/><path id="f9a825d2-1cc9-4d15-b6e0-0c8a27d463a2" class="e5d62a3a-9772-4800-a377-ef63216e94a2" data-name="hull" d="M269.66 308.74h13.91l-8.66 2.62-5.25-2.62z"/><path id="b689f886-ed52-4e35-9b11-cc94725cdf0b" class="e5d62a3a-9772-4800-a377-ef63216e94a2" data-name="mainsail" d="M269.66 307.95l5.25-.79v-9.45l-5.25 10.24z"/><path id="b76d7764-92e2-43d7-a9e0-2d1bf64785f2" class="e5d62a3a-9772-4800-a377-ef63216e94a2" data-name="headsail" d="M275.7 307.16l7.87.79-7.87-17.06v16.27z"/><path d="M425.12 315.46h-74.6a3 3 0 01-3-3v-22.4a3.08 3.08 0 013-3h74.6a3.08 3.08 0 013 3v22.4a3 3 0 01-3 3z" class="e5d62a3a-9772-4800-a377-ef63216e94a2"/><text transform="translate(367.56 298.59)" style="isolation:isolate" font-size="8.96" font-family="GoogleSansDisplay-Regular,Google Sans Display" fill="#010101">API <tspan x="15.39" y="0" letter-spacing="0">s</tspan><tspan x="19.59" y="0" class="f9f87398-cd7d-4278-bd80-de3519f5651b">e</tspan><tspan x="24.51" y="0" letter-spacing=".02em">r</tspan><tspan x="27.95" y="0" letter-spacing="-.02em">v</tspan><tspan x="32.31" y="0" class="f9f87398-cd7d-4278-bd80-de3519f5651b">er</tspan><tspan x="-6.25" y="10.75" letter-spacing="-.01em">c</tspan><tspan x="-1.51" y="10.75" letter-spacing="-.01em">onf</tspan><tspan x="11.67" y="10.75" class="b39b1652-daf4-406c-ab7b-591bdb03a891">ig</tspan><tspan x="18.86" y="10.75">u</tspan><tspan x="23.82" y="10.75" letter-spacing="-.02em">r</tspan><tspan x="26.92" y="10.75" class="af7738b3-45c7-43d4-a39a-cc1a8e98bb16">a</tspan><tspan x="31.51" y="10.75" letter-spacing=".01em">t</tspan><tspan x="34.76" y="10.75" class="b39b1652-daf4-406c-ab7b-591bdb03a891">i</tspan><tspan x="36.72" y="10.75" class="af7738b3-45c7-43d4-a39a-cc1a8e98bb16">o</tspan><tspan x="41.8" y="10.75">n</tspan></text><path d="M42.35 129.74a1.34 1.34 0 011 .41 1.31 1.31 0 01.41 1v5.58a1.4 1.4 0 01-1.39 1.39H32.12a1.31 1.31 0 01-1-.41 1.34 1.34 0 01-.41-1v-5.58a1.4 1.4 0 011.4-1.4h.7v-2.09a4.28 4.28 0 01.59-2.21 4.52 4.52 0 011.6-1.6 4.37 4.37 0 014.42 0 4.36 4.36 0 011.61 1.61 4.29 4.29 0 01.6 2.21v2.09zm-3 0v-2.09a2.09 2.09 0 10-4.18 0v2.09z" class="e8b747a6-6a85-4ecb-8492-adecd2c6f78b"/><text class="e8b643a6-bd8f-410b-9763-64c8d5d3fd60" transform="translate(15.41 106.23)">JWT+<tspan x="25.68" y="0" class="bedea749-024d-45ee-96f2-13df44e945a6"> </tspan><tspan x="27.6" y="0">TLS</tspan><tspan x="9.63" y="12" class="bdccc1ee-2636-499c-947e-1a49350ce06a">m</tspan><tspan x="17.97" y="12">TLS</tspan></text><path class="f9c6216f-c095-4ae6-becb-8ecc05f9293b" d="M0 144.1h134.42"/><path class="a9051e8f-5a3a-4a8d-ba7f-2b6692d2a70b" d="M132.96 149.09l8.64-4.99-8.64-4.98v9.97z"/><path d="M633.61 129.35a1.34 1.34 0 011 .4 1.38 1.38 0 01.41 1v5.58a1.4 1.4 0 01-1.4 1.4h-10.24a1.34 1.34 0 01-1-.41 1.31 1.31 0 01-.41-1v-5.58a1.38 1.38 0 011.39-1.39h.7v-2.09a4.41 4.41 0 016.63-3.82 4.44 4.44 0 011.61 1.61 4.26 4.26 0 01.59 2.21v2.09zm-3 0v-2.09a2 2 0 00-.61-1.49 2.1 2.1 0 00-3 0 2 2 0 00-.61 1.49v2.09z" class="e8b747a6-6a85-4ecb-8492-adecd2c6f78b"/><text class="e8b643a6-bd8f-410b-9763-64c8d5d3fd60" transform="translate(606.68 105.83)">JWT+<tspan x="25.68" y="0" class="bedea749-024d-45ee-96f2-13df44e945a6"> </tspan><tspan x="27.6" y="0">TLS</tspan><tspan x="9.63" y="12" class="bdccc1ee-2636-499c-947e-1a49350ce06a">m</tspan><tspan x="17.97" y="12">TLS</tspan></text><path class="f9c6216f-c095-4ae6-becb-8ecc05f9293b" d="M532.57 143.71h134.42"/><path class="a9051e8f-5a3a-4a8d-ba7f-2b6692d2a70b" d="M665.53 148.69l8.64-4.98-8.64-4.99v9.97z"/><path class="f9c6216f-c095-4ae6-becb-8ecc05f9293b" d="M253.23 142.21h167.71"/><path class="a9051e8f-5a3a-4a8d-ba7f-2b6692d2a70b" d="M254.69 147.2l-8.64-4.99 8.64-4.98v9.97zM419.48 147.2l8.64-4.99-8.64-4.98v9.97z"/><path class="a3e5d3af-e309-4133-b630-8acc84bf3947" d="M480.34 166.84v58.11H345.21"/><path class="b9c01941-5661-4eae-a4aa-3a4b4afaea94" d="M475.36 168.29l4.98-8.63 4.99 8.63h-9.97z"/><path d="M649.49 295.38a8.3 8.3 0 014.24 1.14 8.38 8.38 0 013.1 3.1 8.3 8.3 0 011.14 4.24v2.66a3 3 0 01-3 3h-22.31a3 3 0 01-3-3v-2.66a8.3 8.3 0 011.14-4.24 8.38 8.38 0 013.1-3.1 8.3 8.3 0 014.24-1.14h1.08a11 11 0 009.23 0zm-5.7-2a8.14 8.14 0 01-7-12.18 7.93 7.93 0 012.94-2.95 8.33 8.33 0 018.17 0 7.93 7.93 0 012.94 2.95 8.31 8.31 0 010 8.16 8 8 0 01-7 4z" class="a9b6bb0d-4cf7-4b91-b8a2-232f95309916"/><text class="a94cde90-c787-4350-930a-97272e79f390" transform="translate(604.82 325.36)"><tspan letter-spacing="-.02em">A</tspan><tspan x="7.84" y="0">dmini</tspan><tspan x="37.31" y="0" class="b2dcf08b-99dc-4748-845e-4d25653b2dd7">s</tspan><tspan x="42.8" y="0">t</tspan><tspan x="47.1" y="0" letter-spacing="-.02em">r</tspan><tspan x="51.25" y="0" class="fec8f349-525f-4158-8641-b9f235c32364">a</tspan><tspan x="57.4" y="0" letter-spacing="-.02em">t</tspan><tspan x="61.43" y="0" class="a3d6489b-d1e7-4f93-98a9-1eba05c3e97d">o</tspan><tspan x="68.23" y="0" letter-spacing="-.02em">r</tspan><tspan x="72.38" y="0">s</tspan></text><path class="a3e5d3af-e309-4133-b630-8acc84bf3947" d="M435.29 301.26h184.87"/><path class="b9c01941-5661-4eae-a4aa-3a4b4afaea94" d="M436.75 306.24l-8.63-4.98 8.63-4.99v9.97z"/><text class="a94cde90-c787-4350-930a-97272e79f390" transform="translate(163.36 242.14)"><tspan class="bdd0311e-9c73-43de-9970-3501e8ed9fb8">W</tspan><tspan x="10.64" y="0" class="a2a65727-2476-4da5-8680-be44f2ae7859">o</tspan><tspan x="17.45" y="0" class="a2384390-a5d0-4abb-a89a-7a8864b3b98c">r</tspan><tspan x="21.9" y="0" class="f991823a-6669-45e6-9cc5-a3b155901200">k</tspan><tspan x="27.83" y="0" class="a89bd838-c646-4d00-8ac9-5984b72e70ac">l</tspan><tspan x="30.28" y="0">o</tspan><tspan x="37.2" y="0" class="b301c5ae-ce54-4073-b4e9-5ea54a2906fe">a</tspan><tspan x="43.4" y="0">d</tspan><tspan x="50.48" y="0" class="bdccc1ee-2636-499c-947e-1a49350ce06a"> </tspan><tspan x="52.91" y="0" class="f991823a-6669-45e6-9cc5-a3b155901200">A</tspan><tspan x="-4.53" y="14.4">a</tspan><tspan x="1.73" y="14.4" class="add6bae2-5303-44e7-ae05-6a1da0337384">ut</tspan><tspan x="12.8" y="14.4">h</tspan><tspan x="19.46" y="14.4" class="fec8f349-525f-4158-8641-b9f235c32364">o</tspan><tspan x="26.26" y="14.4" class="f991823a-6669-45e6-9cc5-a3b155901200">ri</tspan><tspan x="33.34" y="14.4" class="fec8f349-525f-4158-8641-b9f235c32364">za</tspan><tspan x="45.02" y="14.4" class="a2384390-a5d0-4abb-a89a-7a8864b3b98c">t</tspan><tspan x="49.37" y="14.4" class="b301c5ae-ce54-4073-b4e9-5ea54a2906fe">i</tspan><tspan x="52" y="14.4" class="fec8f349-525f-4158-8641-b9f235c32364">o</tspan><tspan x="58.81" y="14.4">n</tspan><tspan x="10.32" y="28.8">p</tspan><tspan x="17.35" y="28.8" class="b301c5ae-ce54-4073-b4e9-5ea54a2906fe">o</tspan><tspan x="24.22" y="28.8">l</tspan><tspan x="26.72" y="28.8" class="a89bd838-c646-4d00-8ac9-5984b72e70ac">i</tspan><tspan x="29.35" y="28.8">c</tspan><tspan x="35.76" y="28.8" class="b301c5ae-ce54-4073-b4e9-5ea54a2906fe">i</tspan><tspan x="38.39" y="28.8" class="a2384390-a5d0-4abb-a89a-7a8864b3b98c">e</tspan><tspan x="45.05" y="28.8" class="f991823a-6669-45e6-9cc5-a3b155901200">s</tspan></text><text class="a94cde90-c787-4350-930a-97272e79f390" transform="translate(450.09 242.14)"><tspan class="bdd0311e-9c73-43de-9970-3501e8ed9fb8">W</tspan><tspan x="10.64" y="0" class="a2a65727-2476-4da5-8680-be44f2ae7859">o</tspan><tspan x="17.45" y="0" class="a2384390-a5d0-4abb-a89a-7a8864b3b98c">r</tspan><tspan x="21.9" y="0">k</tspan><tspan x="27.83" y="0" class="b301c5ae-ce54-4073-b4e9-5ea54a2906fe">l</tspan><tspan x="30.28" y="0" class="f991823a-6669-45e6-9cc5-a3b155901200">o</tspan><tspan x="37.2" y="0" class="a89bd838-c646-4d00-8ac9-5984b72e70ac">a</tspan><tspan x="43.4" y="0">d B</tspan><tspan x="-4.73" y="14.4">a</tspan><tspan x="1.53" y="14.4" class="add6bae2-5303-44e7-ae05-6a1da0337384">ut</tspan><tspan x="12.59" y="14.4">h</tspan><tspan x="19.25" y="14.4" class="fec8f349-525f-4158-8641-b9f235c32364">o</tspan><tspan x="26.06" y="14.4" class="f991823a-6669-45e6-9cc5-a3b155901200">ri</tspan><tspan x="33.14" y="14.4" class="fec8f349-525f-4158-8641-b9f235c32364">za</tspan><tspan x="44.81" y="14.4" class="a2384390-a5d0-4abb-a89a-7a8864b3b98c">t</tspan><tspan x="49.17" y="14.4" class="b301c5ae-ce54-4073-b4e9-5ea54a2906fe">i</tspan><tspan x="51.8" y="14.4" class="fec8f349-525f-4158-8641-b9f235c32364">o</tspan><tspan x="58.6" y="14.4">n</tspan><tspan x="10.12" y="28.8">p</tspan><tspan x="17.15" y="28.8" class="b301c5ae-ce54-4073-b4e9-5ea54a2906fe">o</tspan><tspan x="24.01" y="28.8">l</tspan><tspan x="26.52" y="28.8" class="a89bd838-c646-4d00-8ac9-5984b72e70ac">i</tspan><tspan x="29.15" y="28.8">c</tspan><tspan x="35.56" y="28.8" class="b301c5ae-ce54-4073-b4e9-5ea54a2906fe">i</tspan><tspan x="38.18" y="28.8" class="a2384390-a5d0-4abb-a89a-7a8864b3b98c">e</tspan><tspan x="44.84" y="28.8" class="f991823a-6669-45e6-9cc5-a3b155901200">s</tspan></text><text class="a94cde90-c787-4350-930a-97272e79f390" transform="translate(488.42 318.04)"><tspan letter-spacing="-.02em">A</tspan><tspan x="7.72" y="0" class="add6bae2-5303-44e7-ae05-6a1da0337384">ut</tspan><tspan x="18.78" y="0">h</tspan><tspan x="25.44" y="0" class="fec8f349-525f-4158-8641-b9f235c32364">o</tspan><tspan x="32.24" y="0" class="f991823a-6669-45e6-9cc5-a3b155901200">ri</tspan><tspan x="39.32" y="0" class="fec8f349-525f-4158-8641-b9f235c32364">za</tspan><tspan x="51" y="0" class="add6bae2-5303-44e7-ae05-6a1da0337384">t</tspan><tspan x="55.36" y="0" class="a89bd838-c646-4d00-8ac9-5984b72e70ac">i</tspan><tspan x="57.98" y="0" class="fec8f349-525f-4158-8641-b9f235c32364">o</tspan><tspan x="64.79" y="0">n</tspan><tspan x="15.58" y="14.4">p</tspan><tspan x="22.61" y="14.4" class="b301c5ae-ce54-4073-b4e9-5ea54a2906fe">o</tspan><tspan x="29.47" y="14.4">l</tspan><tspan x="31.98" y="14.4" class="a89bd838-c646-4d00-8ac9-5984b72e70ac">i</tspan><tspan x="34.61" y="14.4">c</tspan><tspan x="41.02" y="14.4" class="b301c5ae-ce54-4073-b4e9-5ea54a2906fe">i</tspan><tspan x="43.64" y="14.4" class="a2384390-a5d0-4abb-a89a-7a8864b3b98c">e</tspan><tspan x="50.3" y="14.4" class="f991823a-6669-45e6-9cc5-a3b155901200">s</tspan></text><path d="M342.2 129.74a1.38 1.38 0 011.39 1.4v5.58a1.34 1.34 0 01-.4 1 1.31 1.31 0 01-1 .41H332a1.31 1.31 0 01-1-.41 1.34 1.34 0 01-.4-1v-5.58a1.38 1.38 0 011.39-1.4h.7v-2.09a4.38 4.38 0 01.59-2.21 4.47 4.47 0 011.62-1.61 4.35 4.35 0 014.41 0 4.47 4.47 0 011.62 1.61 4.38 4.38 0 01.59 2.21v2.09zm-3 0v-2.09a2 2 0 00-.61-1.48 2.11 2.11 0 00-3 0 2 2 0 00-.61 1.48v2.09z" class="e8b747a6-6a85-4ecb-8492-adecd2c6f78b"/><text transform="translate(328.45 121.82)" font-size="7.08" letter-spacing="-.03em" font-family="GoogleSansDisplay-Regular,Google Sans Display" fill="#010101">m<tspan x="5.91" y="0" letter-spacing="0">TLS</tspan></text></svg>