<svg xmlns="http://www.w3.org/2000/svg" id="aaeb9f3d-34b8-42b0-9bc7-787c881904fe" data-name="Layer 1" viewBox="0 0 481.76 441.23"><defs><style>.a284ce1a-10ad-49b4-9787-16adb532e902,.eaab7c81-34a6-4e8f-9378-aa9476fd4609{fill:none}.a284ce1a-10ad-49b4-9787-16adb532e902{stroke-linejoin:round}.aff978df-f438-425b-80e2-b3ecdb438bbf{font-size:12px}.a4934527-175c-45a9-a4b3-1a1c6a4acc0b,.bb799e8f-0f0e-4697-b08e-3a5a8082e863{fill:#010101}.ab2302b2-00b2-4529-94bb-c7da23e93abc{letter-spacing:-.01em}.ba99bf17-3293-41fe-ad3c-8f878229b4e9{letter-spacing:.01em}.e03b30ab-9057-486a-9e4d-306f811b0063{letter-spacing:0}.e768fff1-c6d3-4d1b-8aeb-e8a7e4607398{letter-spacing:-.01em}.e0f74164-11da-4a40-a415-c586bdcd48f7{letter-spacing:0}.bf908b7d-2eb9-4c10-8f18-3855296f0ae7{fill:#fff}.a4934527-175c-45a9-a4b3-1a1c6a4acc0b{isolation:isolate}.bb799e8f-0f0e-4697-b08e-3a5a8082e863{font-size:14px}.a4934527-175c-45a9-a4b3-1a1c6a4acc0b,.aff978df-f438-425b-80e2-b3ecdb438bbf,.bb799e8f-0f0e-4697-b08e-3a5a8082e863{font-family:GoogleSansDisplay-Regular,Google Sans Display}.ee6f9c03-3b77-4397-9977-a24a3289c40e{fill:#486caf}.eaab7c81-34a6-4e8f-9378-aa9476fd4609{stroke:#fff}.a284ce1a-10ad-49b4-9787-16adb532e902,.eaab7c81-34a6-4e8f-9378-aa9476fd4609{stroke-width:2px;stroke-linecap:round}.eaab7c81-34a6-4e8f-9378-aa9476fd4609{stroke-miterlimit:10}.a4934527-175c-45a9-a4b3-1a1c6a4acc0b{font-size:8.96px}.a5c96841-0783-4213-a17a-aa1e091f2ad4,.bc157e8d-b8cd-47b3-80f4-a42df165fc6a,.fc36a6a5-e90b-475e-bc32-1615ede5b6b7{letter-spacing:0}.ee79cb27-ee91-4632-8b5b-e771140af7e3{letter-spacing:-.03em}.b37ff6b0-5cbb-47fd-a349-f03f7299bf15{fill:#496caf}.a244e0df-c62a-454f-9318-a65d8e64301b{letter-spacing:-.01em}.a284ce1a-10ad-49b4-9787-16adb532e902{stroke:#496caf;stroke-dasharray:6 12}.aff978df-f438-425b-80e2-b3ecdb438bbf{fill:#231f20}.ee897b32-4902-4e1a-95f2-66004bdaff3d,.ff671003-90a0-4315-93cf-b057da03afbd{letter-spacing:0}.eac7174b-48a4-4965-a8ef-e83a22c5dc35{letter-spacing:-.02em}.a326f681-6bc4-4fdb-ae75-c5888a7e6623{letter-spacing:-.01em}</style></defs><rect width="480.76" height="424.76" x=".5" y="15.97" rx="10" stroke-linejoin="round" stroke="#466bb0" stroke-dasharray="9.97 9.97" fill="none"/><text transform="translate(.5 10.3)" font-family="GoogleSansDisplay-Bold,Google Sans Display" font-weight="700" fill="#010101" font-size="12">I<tspan x="3.52" y="0" class="ab2302b2-00b2-4529-94bb-c7da23e93abc">s</tspan><tspan x="9.38" y="0" class="ba99bf17-3293-41fe-ad3c-8f878229b4e9">t</tspan><tspan x="14.36" y="0" class="ab2302b2-00b2-4529-94bb-c7da23e93abc">i</tspan><tspan x="17.56" y="0" class="e03b30ab-9057-486a-9e4d-306f811b0063">o </tspan><tspan x="27.46" y="0" class="e768fff1-c6d3-4d1b-8aeb-e8a7e4607398">M</tspan><tspan x="38.08" y="0" class="e0f74164-11da-4a40-a415-c586bdcd48f7">e</tspan><tspan x="45" y="0" class="e03b30ab-9057-486a-9e4d-306f811b0063">sh</tspan></text><path d="M358.11 415.45H113.68a4.68 4.68 0 01-4.57-4.57v-100.6a4.68 4.68 0 014.57-4.57h244.43a4.68 4.68 0 014.57 4.57v100.6a4.58 4.58 0 01-4.57 4.57z" fill="#e4e4e3"/><path d="M232.58 385.85h-111a3.08 3.08 0 01-3-3v-48a3.08 3.08 0 013-3h111a3.08 3.08 0 013 3v48a3.08 3.08 0 01-3 3z" class="bf908b7d-2eb9-4c10-8f18-3855296f0ae7"/><text transform="translate(181.88 363.68)" style="isolation:isolate" font-family="GoogleSansDisplay-Regular,Google Sans Display" font-size="14" fill="#010101">i<tspan x="3.14" y="0" letter-spacing="0">s</tspan><tspan x="9.55" y="0" letter-spacing=".01em">t</tspan><tspan x="14.63" y="0" letter-spacing="-.01em">i</tspan><tspan x="17.7" y="0">od</tspan></text><path class="ee6f9c03-3b77-4397-9977-a24a3289c40e" d="M132.28 374.35h27.5l-17.2 5.1-10.3-5.1zM132.28 372.55l10.3-1.7v-18.9l-10.3 20.6z"/><path fill="#486cae" d="M144.28 370.85l15.5 1.7-15.5-34.3v32.6z"/><rect width="252.22" height="136.06" x="114.82" y="46.96" rx="3" fill="#6d6e71"/><rect width="252.22" height="136.06" x="109.11" y="41.24" rx="3" fill="#e5e5e4"/><rect width="117" height="40.35" x="176.71" y="48.82" class="bf908b7d-2eb9-4c10-8f18-3855296f0ae7" rx="3"/><text class="bb799e8f-0f0e-4697-b08e-3a5a8082e863" transform="translate(228.54 73.51)">Se<tspan x="15.53" y="0" letter-spacing=".02em">r</tspan><tspan x="20.89" y="0">v</tspan><tspan x="27.92" y="0" letter-spacing="0">ic</tspan><tspan x="38.39" y="0" letter-spacing="0">e</tspan><tspan x="46.09" y="0" letter-spacing="-.03em"> </tspan><tspan x="48.92" y="0">A</tspan></text><circle cx="203.17" cy="68.99" r="18" fill="#777677"/><path stroke-width="2" stroke="#fff" stroke-linejoin="round" fill="none" d="M196.77 62.48h12.79v12.79h-12.79z"/><path class="eaab7c81-34a6-4e8f-9378-aa9476fd4609" d="M199.14 62.48V59.4M203.17 62.48V59.4M207.2 62.48V59.4M199.14 78.59v-3.08M203.17 78.59v-3.08M207.2 78.59v-3.08M196.66 73.02h-3.08M196.66 68.99h-3.08M196.66 64.97h-3.08M212.76 73.02h-3.08M212.76 68.99h-3.08M212.76 64.97h-3.08"/><rect width="5.68" height="5.68" x="200.33" y="66.03" class="bf908b7d-2eb9-4c10-8f18-3855296f0ae7" rx="2"/><rect width="117" height="39.08" x="236.13" y="126.79" class="bf908b7d-2eb9-4c10-8f18-3855296f0ae7" rx="3"/><path stroke="#b24d9d" stroke-width="3" stroke-linejoin="round" fill="none" d="M276.39 153.97v-15.29l-13.26-7.65-13.26 7.65v15.29l13.26 7.66 13.26-7.66z"/><text class="bb799e8f-0f0e-4697-b08e-3a5a8082e863" transform="translate(299.92 150.77)">P<tspan x="8.04" y="0" letter-spacing="-.03em">r</tspan><tspan x="12.74" y="0" letter-spacing="-.01em">o</tspan><tspan x="20.61" y="0">xy</tspan></text><path d="M196.28 160.52h-74.6a3 3 0 01-3-3v-22.4a3.08 3.08 0 013-3h74.6a3.08 3.08 0 013 3v22.4a3 3 0 01-3 3z" class="bf908b7d-2eb9-4c10-8f18-3855296f0ae7"/><text class="a4934527-175c-45a9-a4b3-1a1c6a4acc0b" transform="translate(137.39 149.04)">i<tspan x="2.01" y="0" class="bc157e8d-b8cd-47b3-80f4-a42df165fc6a">s</tspan><tspan x="6.11" y="0" class="a5c96841-0783-4213-a17a-aa1e091f2ad4">t</tspan><tspan x="9.36" y="0" class="bc157e8d-b8cd-47b3-80f4-a42df165fc6a">i</tspan><tspan x="11.33" y="0">o-</tspan><tspan x="20.44" y="0" class="bc157e8d-b8cd-47b3-80f4-a42df165fc6a">ag</tspan><tspan x="30.29" y="0" class="fc36a6a5-e90b-475e-bc32-1615ede5b6b7">e</tspan><tspan x="35.22" y="0" class="ee79cb27-ee91-4632-8b5b-e771140af7e3">n</tspan><tspan x="39.96" y="0">t</tspan></text><path id="bca7ded5-7855-4619-bafa-bc673bd5edb1" class="b37ff6b0-5cbb-47fd-a349-f03f7299bf15" data-name="background" d="M118.58 132.12h10.5v10.5h-10.5z"/><path id="ab567ddb-228b-49eb-be09-5c75be993dd2" class="bf908b7d-2eb9-4c10-8f18-3855296f0ae7" data-name="hull" d="M121.18 140.22h5.3l-3.3 1-2-1z"/><path id="baf7e8d5-df19-4579-876b-a3135b0ca58d" class="bf908b7d-2eb9-4c10-8f18-3855296f0ae7" data-name="mainsail" d="M121.18 139.93l2-.3v-3.6l-2 3.9z"/><path id="e6a0a091-e8ac-413f-93eb-75375c5bece5" class="bf908b7d-2eb9-4c10-8f18-3855296f0ae7" data-name="headsail" d="M123.48 139.63l3 .3-3-6.5v6.2z"/><path d="M350.13 374.78h-74.6a3 3 0 01-3-3v-22.4a3.08 3.08 0 013-3h74.6a3.08 3.08 0 013 3v22.4a3 3 0 01-3 3z" class="bf908b7d-2eb9-4c10-8f18-3855296f0ae7"/><text class="a4934527-175c-45a9-a4b3-1a1c6a4acc0b" transform="translate(291.6 357.91)"><tspan letter-spacing="-.02em">C</tspan><tspan x="6.44" y="0">e</tspan><tspan x="11.37" y="0" letter-spacing=".01em">r</tspan><tspan x="14.74" y="0" class="a5c96841-0783-4213-a17a-aa1e091f2ad4">t</tspan><tspan x="17.99" y="0" class="fc36a6a5-e90b-475e-bc32-1615ede5b6b7">i</tspan><tspan x="20" y="0" class="a244e0df-c62a-454f-9318-a65d8e64301b">f</tspan><tspan x="23.22" y="0" class="bc157e8d-b8cd-47b3-80f4-a42df165fc6a">ic</tspan><tspan x="29.93" y="0" letter-spacing="-.01em">a</tspan><tspan x="34.51" y="0" letter-spacing="-.02em">t</tspan><tspan x="37.52" y="0">e</tspan><tspan x="2.69" y="10.75" class="ee79cb27-ee91-4632-8b5b-e771140af7e3">A</tspan><tspan x="8.45" y="10.75" class="a5c96841-0783-4213-a17a-aa1e091f2ad4">ut</tspan><tspan x="16.71" y="10.75">h</tspan><tspan x="21.68" y="10.75" class="a244e0df-c62a-454f-9318-a65d8e64301b">o</tspan><tspan x="26.76" y="10.75">r</tspan><tspan x="30.04" y="10.75" class="bc157e8d-b8cd-47b3-80f4-a42df165fc6a">i</tspan><tspan x="32" y="10.75" class="a5c96841-0783-4213-a17a-aa1e091f2ad4">t</tspan><tspan x="35.26" y="10.75">y</tspan></text><path id="b058f863-4b38-4c3d-889c-605d2ba5b0d2" class="b37ff6b0-5cbb-47fd-a349-f03f7299bf15" data-name="background" d="M272.43 346.38h10.5v10.5h-10.5z"/><path id="bef7e655-8a33-4eb7-8734-584da1755c9b" class="bf908b7d-2eb9-4c10-8f18-3855296f0ae7" data-name="hull" d="M275.03 354.48h5.3l-3.3 1-2-1z"/><path id="a819acb2-73b3-4842-9190-a7eadeb1352c" class="bf908b7d-2eb9-4c10-8f18-3855296f0ae7" data-name="mainsail" d="M275.03 354.18l2-.3v-3.6l-2 3.9z"/><path id="b6445b85-2ece-43e0-a73c-cc7209222afe" class="bf908b7d-2eb9-4c10-8f18-3855296f0ae7" data-name="headsail" d="M277.33 353.88l3 .3-3-6.5v6.2z"/><path class="a284ce1a-10ad-49b4-9787-16adb532e902" d="M144.05 160.52v164.16"/><path class="b37ff6b0-5cbb-47fd-a349-f03f7299bf15" d="M139.07 323.22l4.98 8.63 4.99-8.63h-9.97z"/><text class="aff978df-f438-425b-80e2-b3ecdb438bbf" transform="translate(111.6 249.82)">CSR</text><text class="aff978df-f438-425b-80e2-b3ecdb438bbf" transform="translate(326.97 271.42)">S<tspan x="6.71" y="0" class="ab2302b2-00b2-4529-94bb-c7da23e93abc">i</tspan><tspan x="9.34" y="0">gn</tspan><tspan x="23.04" y="0" class="e0f74164-11da-4a40-a415-c586bdcd48f7">e</tspan><tspan x="29.7" y="0" class="ee897b32-4902-4e1a-95f2-66004bdaff3d">d</tspan><tspan x="-8.9" y="14.4" class="ff671003-90a0-4315-93cf-b057da03afbd">c</tspan><tspan x="-2.55" y="14.4">e</tspan><tspan x="4.05" y="14.4" letter-spacing=".01em">r</tspan><tspan x="8.56" y="14.4" class="e0f74164-11da-4a40-a415-c586bdcd48f7">t</tspan><tspan x="12.92" y="14.4">i</tspan><tspan x="15.61" y="14.4" class="e768fff1-c6d3-4d1b-8aeb-e8a7e4607398">f</tspan><tspan x="19.93" y="14.4" class="ab2302b2-00b2-4529-94bb-c7da23e93abc">ic</tspan><tspan x="28.9" y="14.4" class="e768fff1-c6d3-4d1b-8aeb-e8a7e4607398">a</tspan><tspan x="35.05" y="14.4" class="eac7174b-48a4-4965-a8ef-e83a22c5dc35">t</tspan><tspan x="39.08" y="14.4" class="e03b30ab-9057-486a-9e4d-306f811b0063">e</tspan></text><text class="aff978df-f438-425b-80e2-b3ecdb438bbf" transform="translate(187.57 110.45)"><tspan letter-spacing="-.02em">C</tspan><tspan x="8.63" y="0">e</tspan><tspan x="15.23" y="0" letter-spacing=".01em">r</tspan><tspan x="19.74" y="0" class="ba99bf17-3293-41fe-ad3c-8f878229b4e9">t</tspan><tspan x="24.1" y="0">i</tspan><tspan x="26.78" y="0" class="a326f681-6bc4-4fdb-ae75-c5888a7e6623">f</tspan><tspan x="31.1" y="0" class="ff671003-90a0-4315-93cf-b057da03afbd">ic</tspan><tspan x="40.08" y="0" class="e768fff1-c6d3-4d1b-8aeb-e8a7e4607398">a</tspan><tspan x="46.22" y="0" letter-spacing="-.02em">t</tspan><tspan x="50.26" y="0">e and </tspan><tspan x="82.42" y="0" class="ab2302b2-00b2-4529-94bb-c7da23e93abc">p</tspan><tspan x="89.39" y="0">ri</tspan><tspan x="96.47" y="0" class="a326f681-6bc4-4fdb-ae75-c5888a7e6623">va</tspan><tspan x="108.52" y="0" class="eac7174b-48a4-4965-a8ef-e83a22c5dc35">t</tspan><tspan x="112.55" y="0">e </tspan><tspan x="121.93" y="0" letter-spacing="-.01em">k</tspan><tspan x="127.68" y="0" class="e768fff1-c6d3-4d1b-8aeb-e8a7e4607398">e</tspan><tspan x="134.16" y="0" class="ee897b32-4902-4e1a-95f2-66004bdaff3d">y</tspan></text><path class="a284ce1a-10ad-49b4-9787-16adb532e902" d="M235.58 360.58h29.67"/><path class="b37ff6b0-5cbb-47fd-a349-f03f7299bf15" d="M263.79 365.57l8.64-4.99-8.64-4.99v9.98z"/><path class="a284ce1a-10ad-49b4-9787-16adb532e902" d="M312.83 346.38V246.19H181.88V167.7"/><path class="b37ff6b0-5cbb-47fd-a349-f03f7299bf15" d="M186.87 169.16l-4.99-8.63-4.99 8.63h9.98z"/><path d="M348.86 134.42l1 1a.49.49 0 01.14.52.51.51 0 01-.38.37l-1.39.35.39 1.37a.49.49 0 01-.13.53.5.5 0 01-.53.14l-1.37-.4-.36 1.39a.47.47 0 01-.37.39.49.49 0 01-.51-.14l-1-1-1 1a.53.53 0 01-.52.14.48.48 0 01-.37-.39l-.35-1.39-1.37.4a.52.52 0 01-.54-.14.51.51 0 01-.13-.53l.4-1.37-1.39-.35a.5.5 0 01-.38-.37.48.48 0 01.13-.52l1-1-1-1a.48.48 0 01-.13-.52.5.5 0 01.38-.37l1.39-.35-.4-1.37a.51.51 0 01.13-.53.52.52 0 01.54-.14l1.37.4.35-1.39a.48.48 0 01.38-.39.51.51 0 01.51.14l1 1 1-1a.5.5 0 01.52-.13.48.48 0 01.36.38l.36 1.39 1.37-.4a.5.5 0 01.53.14.49.49 0 01.13.53l-.39 1.37 1.39.35a.51.51 0 01.38.37.49.49 0 01-.14.52z" fill="#f26722"/><path class="a284ce1a-10ad-49b4-9787-16adb532e902" d="M181.88 132.13v-17.14h162.48v4.62"/><path class="b37ff6b0-5cbb-47fd-a349-f03f7299bf15" d="M339.38 118.15l4.98 8.63 4.99-8.63h-9.97z"/></svg>